{"accessors" : [{"bufferView" : 0, "byteOffset" : 0, "componentType" : 5123, "count" : 7701, "type" : "SCALAR", "max" : [1349], "min" : [0]}, {"bufferView" : 1, "byteOffset" : 0, "componentType" : 5126, "count" : 1350, "type" : "VEC3", "max" : [7.0922441482543945, 18.16628074645996, 35.538509368896484], "min" : [-9.238689422607422, -0.21497659385204315, -0.019827909767627716], "name" : "POSITION"}, {"bufferView" : 1, "byteOffset" : 12, "componentType" : 5126, "count" : 1350, "type" : "VEC3", "max" : [0.9999090433120728, 0.9999986886978149, 1.0000044107437134], "min" : [-0.9983627796173096, -1.0000044107437134, -0.9999955296516418], "name" : "NORMAL"}, {"bufferView" : 0, "byteOffset" : 15404, "componentType" : 5123, "count" : 246, "type" : "SCALAR", "max" : [50], "min" : [0]}, {"bufferView" : 2, "byteOffset" : 0, "componentType" : 5126, "count" : 51, "type" : "VEC3", "max" : [-0.8316372036933899, 15.360400199890137, 19.12027931213379], "min" : [-1.3148080110549927, 14.768969535827637, 16.623449325561523], "name" : "POSITION"}, {"bufferView" : 2, "byteOffset" : 12, "componentType" : 5126, "count" : 51, "type" : "VEC3", "max" : [0.9997358322143555, 0.4642164707183838, 0.9993877410888672], "min" : [-0.9998886585235596, -0.9943667650222778, -0.8857262134552002], "name" : "NORMAL"}], "asset" : {"generator" : "Aspose.3D 21.4", "version" : "2.0"}, "buffers" : [{"uri" : "buffer.bin", "byteLength" : 206636}], "bufferViews" : [{"buffer" : 0, "byteOffset" : 0, "byteLength" : 15896, "target" : 34963}, {"buffer" : 0, "byteOffset" : 15900, "byteLength" : 184824, "byteStride" : 24, "target" : 34962}, {"buffer" : 0, "byteOffset" : 200728, "byteLength" : 5904, "byteStride" : 24, "target" : 34962}], "cameras" : [{"perspective" : {"aspectRatio" : 1, "yfov" : 0.6108652381980153, "zfar" : 1000, "znear" : 1}, "type" : "perspective"}, {"perspective" : {"aspectRatio" : 1, "yfov" : 0.6108652381980153, "zfar" : 1000, "znear" : 1}, "type" : "perspective"}], "materials" : [{"pbrMetallicRoughness" : {"baseColorFactor" : [0.6705882, 0.6901961, 0.8, 1], "metallicFactor" : 0, "roughnessFactor" : 0}, "emissiveFactor" : [0, 0, 0], "alphaMode" : "OPAQUE", "doubleSided" : false}, {"pbrMetallicRoughness" : {"baseColorFactor" : [0.6705882, 0.6901961, 0.8, 1], "metallicFactor" : 0, "roughnessFactor" : 0}, "emissiveFactor" : [0, 0, 0], "alphaMode" : "OPAQUE", "doubleSided" : false}], "meshes" : [{"primitives" : [{"attributes" : {"POSITION" : 1, "NORMAL" : 2}, "indices" : 0, "material" : 0, "mode" : 4}, {"attributes" : {"POSITION" : 4, "NORMAL" : 5}, "indices" : 3, "material" : 1, "mode" : 4}]}], "nodes" : [{"camera" : 0, "matrix" : [0.7957973, -0.605563, 0, 0, 0.1808123, 0.2376135, 0.9543829, 0, -0.577939, -0.7594954, 0.2985855, 0, -32.1664, -51.08627, 38.48009, 1], "name" : "skp_camera_Last_Saved_SketchUp_View"}, {"camera" : 1, "matrix" : [0.7957973, -0.605563, 0, 0, 0.1808123, 0.2376135, 0.9543829, 0, -0.577939, -0.7594954, 0.2985855, 0, -26.49319, -51.16747, 38.45836, 1], "name" : "skp_camera_Scene_1"}, {"mesh" : 0, "name" : "Chair"}, {"children" : [2], "matrix" : [1, 0, 0, 0, 0, 1, 0, 0, 0, 0, 1, 0, 9.060401, -0.3707158, 0.003828468, 1], "name" : "Nina"}, {"children" : [0, 1, 3], "name" : "SketchUp"}], "scene" : 0, "scenes" : [{"nodes" : [4]}]}