<?xml version="1.0" encoding="utf-8"?>
<!-- Generator: Adobe Illustrator 21.1.0, SVG Export Plug-In . SVG Version: 6.00 Build 0)  -->
<svg version="1.1" id="Livello_1" xmlns="http://www.w3.org/2000/svg" xmlns:xlink="http://www.w3.org/1999/xlink" x="0px" y="0px"
	 width="90px" height="90px" viewBox="0 0 90 90" style="enable-background:new 0 0 90 90;" xml:space="preserve">
<style type="text/css">
	.st0{display:none;}
	.st1{display:inline;}
	.st2{fill:#FFFFFF;}
</style>
<g class="st0">
	<rect x="50" y="30" class="st1" width="10" height="10"/>
	<rect x="40" y="40" class="st1" width="10" height="10"/>
	<rect x="30" y="50" class="st1" width="10" height="10"/>
	<rect x="20" y="60" class="st1" width="10" height="10"/>
	<rect x="20" y="70" class="st1" width="10" height="10"/>
	<rect y="80" class="st1" width="10" height="10"/>
	<rect x="20" y="80" class="st1" width="10" height="10"/>
	<rect x="30" y="80" class="st1" width="10" height="10"/>
	<rect y="60" class="st1" width="10" height="10"/>
	<rect y="50" class="st1" width="10" height="10"/>
	<rect y="40" class="st1" width="10" height="10"/>
	<rect x="40" y="80" class="st1" width="10" height="10"/>
	<rect x="60" y="20" class="st1" width="10" height="10"/>
	<rect x="70" y="10" class="st1" width="10" height="10"/>
	<rect x="80" class="st1" width="10" height="10"/>
	<rect x="80" y="10" class="st1" width="10" height="10"/>
	<rect x="70" y="20" class="st1" width="10" height="10"/>
	<rect x="60" y="30" class="st1" width="10" height="10"/>
	<rect x="50" y="40" class="st1" width="10" height="10"/>
	<rect x="40" y="50" class="st1" width="10" height="10"/>
	<rect x="30" y="60" class="st1" width="10" height="10"/>
	<rect x="10" y="80" class="st1" width="10" height="10"/>
	<rect y="70" class="st1" width="10" height="10"/>
	<rect x="10" y="70" class="st1" width="10" height="10"/>
	<rect x="50" y="80" class="st1" width="10" height="10"/>
	<rect y="30" class="st1" width="10" height="10"/>
</g>
<g>
	<path class="st2" d="M49.6,46.7c4.3-5,6.9-11.4,6.9-18.5C56.5,12.7,43.8,0,28.3,0S0,12.7,0,28.3s12.7,28.3,28.3,28.3
		c7.1,0,13.5-2.6,18.5-6.9l33.8,33.8l2.8-2.8L49.6,46.7z M28.3,52.5C14.9,52.5,4,41.6,4,28.3S14.9,4,28.3,4s24.3,10.9,24.3,24.3
		S41.6,52.5,28.3,52.5z"/>
</g>
</svg>
