<svg width="97" height="18" viewBox="0 0 97 18" fill="none" xmlns="http://www.w3.org/2000/svg">
<path d="M3.46604 17H0.936035V2.47997H3.46604V17Z" fill="white"/>
<path d="M9.71438 11.368C9.71438 12.7026 10.0224 13.6633 10.6384 14.25C11.2544 14.822 12.1124 15.108 13.2124 15.108C14.3124 15.108 15.1704 14.822 15.7864 14.25C16.417 13.6633 16.7324 12.7026 16.7324 11.368V2.47997H19.1524V11.896C19.1524 12.6146 19.035 13.2966 18.8004 13.942C18.5657 14.5873 18.199 15.1593 17.7004 15.658C17.2164 16.142 16.5857 16.5306 15.8084 16.824C15.0457 17.1026 14.1364 17.242 13.0804 17.242C12.0244 17.242 11.1224 17.1026 10.3744 16.824C9.62638 16.5306 9.01038 16.142 8.52638 15.658C8.05705 15.1593 7.71238 14.5873 7.49238 13.942C7.28705 13.2966 7.18438 12.6146 7.18438 11.896V2.47997H9.71438V11.368Z" fill="white"/>
<path d="M24.6981 5.97797C24.6981 6.28597 24.7641 6.54997 24.8961 6.76997C25.0428 6.98997 25.2408 7.18064 25.4901 7.34197C25.7394 7.5033 26.0328 7.6573 26.3701 7.80397C26.7221 7.93597 27.1108 8.0753 27.5361 8.22197C28.0641 8.41264 28.5848 8.63264 29.0981 8.88197C29.6261 9.11664 30.0954 9.4173 30.5061 9.78397C30.9314 10.136 31.2761 10.576 31.5401 11.104C31.8041 11.632 31.9361 12.27 31.9361 13.018C31.9361 13.81 31.7894 14.4773 31.4961 15.02C31.2174 15.5626 30.8361 16.0026 30.3521 16.34C29.8681 16.6626 29.3108 16.8973 28.6801 17.044C28.0494 17.1906 27.3968 17.264 26.7221 17.264C25.7541 17.264 24.8448 17.1466 23.9941 16.912C23.1581 16.6773 22.4394 16.3913 21.8381 16.054L22.4981 13.678C23.0554 14.1033 23.6714 14.4553 24.3461 14.734C25.0354 15.0126 25.8201 15.152 26.7001 15.152C27.6388 15.152 28.3208 14.9906 28.7461 14.668C29.1714 14.3306 29.3841 13.8833 29.3841 13.326C29.3841 12.9006 29.2814 12.5413 29.0761 12.248C28.8708 11.94 28.6141 11.6833 28.3061 11.478C27.9981 11.258 27.6681 11.082 27.3161 10.95C26.9788 10.818 26.6781 10.708 26.4141 10.62C25.9448 10.4733 25.4681 10.2973 24.9841 10.092C24.5001 9.88664 24.0528 9.62264 23.6421 9.29997C23.2314 8.96264 22.8941 8.54464 22.6301 8.04597C22.3808 7.5473 22.2561 6.92397 22.2561 6.17597C22.2561 5.47197 22.3734 4.87797 22.6081 4.39397C22.8574 3.90997 23.1874 3.5213 23.5981 3.22797C24.0234 2.91997 24.5148 2.69997 25.0721 2.56797C25.6441 2.43597 26.2601 2.36997 26.9201 2.36997C27.7268 2.36997 28.5041 2.45064 29.2521 2.61197C30.0148 2.7733 30.6528 2.9713 31.1661 3.20597L30.5721 5.53797C30.3081 5.36197 30.0221 5.20797 29.7141 5.07597C29.4061 4.94397 29.0834 4.83397 28.7461 4.74597C28.4234 4.65797 28.0934 4.59197 27.7561 4.54797C27.4334 4.4893 27.1254 4.45997 26.8321 4.45997C26.1721 4.45997 25.6514 4.58464 25.2701 4.83397C24.8888 5.0833 24.6981 5.46464 24.6981 5.97797Z" fill="white"/>
<path d="M50.3745 5.60397C49.9052 5.2813 49.3405 5.02464 48.6805 4.83397C48.0352 4.62864 47.2945 4.52597 46.4585 4.52597C45.6665 4.52597 44.9845 4.65064 44.4125 4.89997C43.8552 5.1493 43.4005 5.5013 43.0485 5.95597C42.6965 6.41064 42.4325 6.96064 42.2565 7.60597C42.0952 8.23664 42.0145 8.94064 42.0145 9.71797C42.0145 11.4926 42.3885 12.8346 43.1365 13.744C43.8992 14.6533 44.9918 15.108 46.4145 15.108C47.2945 15.108 48.0938 14.976 48.8125 14.712C49.5458 14.448 50.1472 14.1253 50.6165 13.744L51.2765 15.922C50.6898 16.274 49.9785 16.5893 49.1425 16.868C48.3212 17.132 47.3898 17.264 46.3485 17.264C45.1458 17.264 44.1045 17.066 43.2245 16.67C42.3445 16.274 41.6112 15.7386 41.0245 15.064C40.4525 14.3893 40.0272 13.612 39.7485 12.732C39.4698 11.8373 39.3305 10.8913 39.3305 9.89397C39.3305 8.85264 39.4845 7.8773 39.7925 6.96797C40.1005 6.05864 40.5552 5.26664 41.1565 4.59197C41.7725 3.90264 42.5278 3.35997 43.4225 2.96397C44.3318 2.56797 45.3878 2.36997 46.5905 2.36997C47.3825 2.36997 48.1745 2.45797 48.9665 2.63397C49.7585 2.7953 50.4405 3.02264 51.0125 3.31597L50.3745 5.60397Z" fill="white"/>
<path d="M55.983 8.37597C56.3936 7.73064 56.8703 7.26864 57.413 6.98997C57.9703 6.69664 58.623 6.54997 59.371 6.54997C59.811 6.54997 60.2363 6.61597 60.647 6.74797C61.0576 6.8653 61.417 7.0633 61.725 7.34197C62.0476 7.62064 62.297 7.9873 62.473 8.44197C62.6636 8.89664 62.759 9.45397 62.759 10.114V17H60.339V10.312C60.339 9.71064 60.207 9.2633 59.943 8.96997C59.679 8.66197 59.3196 8.50797 58.865 8.50797C58.5863 8.50797 58.293 8.55197 57.985 8.63997C57.6916 8.72797 57.413 8.85997 57.149 9.03597C56.885 9.21197 56.6503 9.42464 56.445 9.67397C56.2396 9.9233 56.0856 10.202 55.983 10.51V17H53.563V0.719971H55.983V8.37597Z" fill="white"/>
<path d="M70.2996 6.54997C71.5903 6.54997 72.5876 6.87997 73.2916 7.53997C73.9956 8.1853 74.3476 9.10197 74.3476 10.29C74.3476 10.4513 74.333 10.6273 74.3036 10.818C74.289 10.994 74.2596 11.17 74.2156 11.346C74.1863 11.522 74.1423 11.6833 74.0836 11.83C74.0396 11.962 73.9883 12.072 73.9296 12.16H67.5276C67.557 12.6 67.6376 13.018 67.7696 13.414C67.9016 13.7953 68.0923 14.1326 68.3416 14.426C68.591 14.7046 68.8916 14.932 69.2436 15.108C69.6103 15.2693 70.0356 15.35 70.5196 15.35C71.0623 15.35 71.6343 15.2473 72.2356 15.042C72.8516 14.8366 73.3723 14.58 73.7976 14.272L74.1936 16.076C74.003 16.1933 73.7683 16.3253 73.4896 16.472C73.211 16.604 72.8956 16.7286 72.5436 16.846C72.1916 16.9633 71.8103 17.0586 71.3996 17.132C71.0036 17.22 70.5856 17.264 70.1456 17.264C69.3243 17.264 68.5983 17.1246 67.9676 16.846C67.337 16.5526 66.809 16.164 66.3836 15.68C65.9583 15.1813 65.6356 14.6093 65.4156 13.964C65.1956 13.3186 65.0856 12.644 65.0856 11.94C65.0856 11.2213 65.1956 10.5393 65.4156 9.89397C65.6503 9.23397 65.9876 8.65464 66.4276 8.15597C66.8676 7.6573 67.4103 7.26864 68.0556 6.98997C68.7156 6.69664 69.4636 6.54997 70.2996 6.54997ZM70.2336 8.44197C69.6176 8.44197 69.0896 8.6253 68.6496 8.99197C68.2243 9.34397 67.9163 9.82797 67.7256 10.444H71.9276C71.9423 10.4 71.9496 10.3486 71.9496 10.29C71.9643 10.2313 71.9716 10.158 71.9716 10.07C71.9716 9.60064 71.8103 9.21197 71.4876 8.90397C71.165 8.59597 70.747 8.44197 70.2336 8.44197Z" fill="white"/>
<path d="M84.6191 9.38797C84.4577 9.27064 84.2524 9.1533 84.0031 9.03597C83.7684 8.91864 83.5117 8.81597 83.2331 8.72797C82.9544 8.63997 82.6611 8.57397 82.3531 8.52997C82.0597 8.4713 81.7811 8.44197 81.5171 8.44197C81.0184 8.44197 80.5931 8.5373 80.2411 8.72797C79.9037 8.90397 79.6251 9.14597 79.4051 9.45397C79.1997 9.7473 79.0457 10.092 78.9431 10.488C78.8551 10.884 78.8111 11.2946 78.8111 11.72C78.8111 12.2186 78.8697 12.688 78.9871 13.128C79.1044 13.5533 79.2804 13.9273 79.5151 14.25C79.7497 14.5726 80.0431 14.8293 80.3951 15.02C80.7617 15.2106 81.1797 15.306 81.6491 15.306C82.1771 15.306 82.7344 15.2033 83.3211 14.998C83.9224 14.778 84.4211 14.4773 84.8171 14.096L85.2571 16.164C84.8464 16.428 84.2817 16.6773 83.5631 16.912C82.8591 17.1466 82.1037 17.264 81.2971 17.264C80.4464 17.264 79.6984 17.1173 79.0531 16.824C78.4224 16.5306 77.8944 16.142 77.4691 15.658C77.0584 15.1593 76.7431 14.5873 76.5231 13.942C76.3177 13.282 76.2151 12.5853 76.2151 11.852C76.2151 11.148 76.3104 10.4806 76.5011 9.84997C76.7064 9.20464 77.0217 8.63997 77.4471 8.15597C77.8724 7.6573 78.4151 7.26864 79.0751 6.98997C79.7351 6.69664 80.5271 6.54997 81.4511 6.54997C82.1551 6.54997 82.8444 6.63064 83.5191 6.79197C84.1937 6.9533 84.7364 7.16597 85.1471 7.42997L84.6191 9.38797Z" fill="white"/>
<path d="M92.4567 10.444L96.7687 17H94.1287L90.8507 12.028L89.9927 12.886V17H87.5727V0.719971H89.9927V10.114L93.3587 6.87997H96.0647L92.4567 10.444Z" fill="white"/>
</svg>
