<svg width="300" height="300" viewBox="0 0 300 300" fill="none" xmlns="http://www.w3.org/2000/svg">
<rect width="300" height="300" fill="#EAEAEA"/>
<g clip-path="url(#clip0_816_351)">
<path d="M10 153.875H40.535V139.873H35.8335V149.213H14.7015V135.196H35.8475V130.533H10V153.875Z" fill="#28376B"/>
<path d="M29.9481 139.873H20.5732V144.543H29.9481V139.873Z" fill="#803D3B"/>
<path d="M46.3018 130.519H53.8829C56.9376 130.594 59.8421 131.851 61.9761 134.023C64.1101 136.195 65.3047 139.11 65.3047 142.145C65.3047 145.18 64.1101 148.095 61.9761 150.267C59.8421 152.439 56.9376 153.697 53.8829 153.771H46.3018V130.519ZM53.8829 149.943C55.9098 149.923 57.8461 149.106 59.2682 147.672C60.6903 146.237 61.4824 144.301 61.4712 142.288V142.211C61.5182 140.184 60.7538 138.222 59.3456 136.754C57.9375 135.286 56.0006 134.433 53.96 134.382H50.3446V149.971L53.8829 149.943Z" fill="#1A346D"/>
<path d="M68.5615 130.38C68.5634 130.069 68.627 129.76 68.7487 129.473C68.8705 129.186 69.048 128.925 69.2712 128.706C69.4944 128.487 69.7588 128.314 70.0494 128.196C70.34 128.079 70.651 128.019 70.9648 128.021C71.2755 128.019 71.5835 128.078 71.8711 128.195C72.1587 128.311 72.4204 128.483 72.641 128.7C72.8617 128.918 73.037 129.176 73.157 129.461C73.2769 129.745 73.3392 130.051 73.3401 130.359C73.3419 130.671 73.2819 130.98 73.1636 131.269C73.0452 131.557 72.8707 131.82 72.6502 132.041C72.4296 132.263 72.1673 132.439 71.8781 132.56C71.5889 132.681 71.2786 132.745 70.9648 132.746C70.3321 132.743 69.7261 132.493 69.2768 132.051C68.8275 131.608 68.5707 131.009 68.5615 130.38ZM68.8908 135.683H73.0458V153.778H68.8908V135.683Z" fill="#1A346D"/>
<path d="M77.4258 135.662H88.4052V139.497H81.5807V153.771H77.4258V135.662Z" fill="#1A346D"/>
<path d="M90.5205 130.38C90.5536 129.772 90.8202 129.2 91.2653 128.781C91.7104 128.362 92.3002 128.129 92.9133 128.129C93.5264 128.129 94.1162 128.362 94.5613 128.781C95.0064 129.2 95.2729 129.772 95.3061 130.38C95.3079 130.692 95.2479 131.001 95.1296 131.289C95.0112 131.578 94.8367 131.841 94.6162 132.062C94.3956 132.284 94.1333 132.46 93.8441 132.581C93.5549 132.702 93.2446 132.765 92.9308 132.767C92.2939 132.764 91.684 132.511 91.233 132.064C90.782 131.618 90.526 131.013 90.5205 130.38ZM90.8498 135.683H95.0048V153.778H90.8498V135.683Z" fill="#1A346D"/>
<path d="M100.414 139.497H97.6113V135.662H100.414V130.554H104.534V135.662H107.435V139.497H104.534V149.936H107.337V153.764H100.414V139.497Z" fill="#1A346D"/>
<path d="M111.303 139.497H108.5V135.662H111.303V130.554H115.43V135.662H118.323V139.497H115.423V149.936H118.225V153.764H111.303V139.497Z" fill="#1A346D"/>
<path d="M120.264 144.738C120.244 142.833 120.792 140.965 121.84 139.37C122.888 137.775 124.388 136.524 126.152 135.776C127.915 135.028 129.862 134.816 131.747 135.167C133.632 135.518 135.37 136.416 136.741 137.747C138.112 139.079 139.054 140.784 139.45 142.648C139.845 144.512 139.675 146.45 138.962 148.218C138.248 149.986 137.023 151.504 135.441 152.58C133.859 153.657 131.991 154.243 130.074 154.265H129.975C128.714 154.277 127.463 154.042 126.293 153.573C125.124 153.105 124.059 152.412 123.159 151.534C122.259 150.656 121.542 149.611 121.049 148.458C120.556 147.305 120.296 146.067 120.285 144.814V144.738M135.581 144.738C135.619 144.031 135.516 143.323 135.278 142.656C135.04 141.988 134.672 141.374 134.195 140.848C133.718 140.321 133.142 139.894 132.498 139.589C131.854 139.285 131.157 139.109 130.445 139.073H129.975C126.914 139.073 124.44 141.237 124.44 144.745C124.337 145.52 124.399 146.309 124.623 147.059C124.847 147.81 125.228 148.504 125.741 149.099C126.254 149.693 126.887 150.173 127.599 150.508C128.311 150.843 129.086 151.025 129.874 151.042C130.661 151.059 131.444 150.911 132.17 150.608C132.896 150.304 133.55 149.852 134.089 149.281C134.627 148.71 135.038 148.032 135.295 147.293C135.553 146.553 135.65 145.768 135.581 144.988V144.745" fill="#1A346D"/>
<path d="M144.374 144.661C144.42 143.784 144.804 142.959 145.448 142.356C146.091 141.754 146.943 141.421 147.827 141.427C148.711 141.434 149.559 141.778 150.193 142.39C150.828 143.001 151.2 143.832 151.234 144.71C151.235 144.862 151.218 145.014 151.184 145.162H145.901C145.997 145.596 146.242 145.983 146.593 146.257C146.945 146.531 147.381 146.676 147.828 146.665C148.173 146.683 148.516 146.599 148.814 146.424C149.111 146.25 149.351 145.993 149.503 145.684H151.079C150.82 146.446 150.299 147.092 149.607 147.509C148.915 147.927 148.098 148.089 147.298 147.967C146.498 147.844 145.767 147.446 145.233 146.841C144.7 146.237 144.398 145.465 144.381 144.661M149.65 144.083C149.559 143.668 149.32 143.299 148.978 143.044C148.636 142.788 148.213 142.663 147.786 142.692C147.358 142.651 146.929 142.772 146.586 143.029C146.242 143.287 146.008 143.663 145.93 144.083H149.65Z" fill="#1A346D"/>
<path d="M155.08 142.149C155.067 138.957 156.331 135.89 158.593 133.623C160.856 131.356 163.932 130.075 167.146 130.06H167.251C170.614 130.06 174.173 131.341 176.254 133.825L173.746 136.484C172.595 135.266 171.104 134.419 169.463 134.052C167.823 133.684 166.11 133.814 164.544 134.424C162.979 135.034 161.634 136.096 160.683 137.473C159.731 138.85 159.217 140.479 159.207 142.149C159.175 143.217 159.357 144.282 159.74 145.28C160.124 146.279 160.703 147.193 161.443 147.969C162.183 148.745 163.07 149.368 164.054 149.803C165.037 150.237 166.098 150.474 167.174 150.5H167.251C168.317 150.567 169.385 150.409 170.385 150.036C171.385 149.663 172.294 149.083 173.052 148.336V144.216H168.007V140.381H177.116V149.352C175.594 151.409 173.457 152.936 171.01 153.715C168.563 154.495 165.93 154.487 163.488 153.692C161.046 152.897 158.919 151.356 157.41 149.29C155.901 147.223 155.088 144.736 155.087 142.183" fill="#1A346D"/>
<path d="M180.507 130.38C180.509 130.069 180.572 129.76 180.694 129.473C180.816 129.186 180.993 128.925 181.217 128.706C181.44 128.487 181.704 128.314 181.995 128.196C182.285 128.079 182.596 128.019 182.91 128.021C183.221 128.019 183.529 128.078 183.816 128.195C184.104 128.311 184.366 128.483 184.586 128.7C184.807 128.918 184.982 129.176 185.102 129.461C185.222 129.745 185.284 130.051 185.285 130.359C185.287 130.671 185.227 130.98 185.109 131.269C184.99 131.557 184.816 131.82 184.595 132.041C184.375 132.263 184.113 132.439 183.823 132.56C183.534 132.681 183.224 132.745 182.91 132.746C182.277 132.743 181.671 132.493 181.222 132.051C180.773 131.608 180.516 131.009 180.507 130.38ZM180.836 135.683H184.991V153.778H180.836V135.683Z" fill="#1A346D"/>
<path d="M188.979 146.735V135.662H193.063V146.965C193.063 149.22 194.584 150.444 196.791 150.444C198.998 150.444 200.455 149.101 200.455 146.965V135.662H204.61V146.735C204.61 151.189 201.31 154.265 196.791 154.265C192.272 154.265 188.979 151.189 188.979 146.735Z" fill="#1A346D"/>
<path d="M207.294 148.475H211.414C211.414 149.651 212.64 150.507 214.153 150.507C215.772 150.507 216.795 149.721 216.795 148.544C216.795 147.034 215.176 146.707 213.53 146.283C210.097 145.434 207.658 144.021 207.658 140.715C207.658 137.604 210.461 135.147 214.217 135.147C217.811 135.147 220.782 137.604 220.782 140.812H216.662C216.662 139.602 215.506 138.913 214.217 138.913C212.927 138.913 211.778 139.567 211.778 140.68C211.778 142.023 213.362 142.351 215.008 142.768C217.454 143.394 220.817 144.216 220.817 148.468C220.817 151.676 217.783 154.265 214.09 154.265C210.195 154.265 207.294 151.648 207.294 148.468" fill="#1A346D"/>
<path d="M225.153 139.497H222.351V135.662H225.153V130.554H229.273V135.662H232.181V139.497H229.28V149.936H232.083V153.764H225.153V139.497Z" fill="#1A346D"/>
<path d="M235.18 130.38C235.182 130.069 235.245 129.76 235.367 129.473C235.489 129.186 235.666 128.925 235.889 128.706C236.113 128.487 236.377 128.314 236.668 128.196C236.958 128.079 237.269 128.019 237.583 128.021C237.894 128.019 238.202 128.078 238.489 128.195C238.777 128.311 239.039 128.483 239.259 128.7C239.48 128.918 239.655 129.176 239.775 129.461C239.895 129.745 239.957 130.051 239.958 130.359C239.958 130.989 239.706 131.592 239.258 132.037C238.81 132.482 238.203 132.732 237.569 132.732C236.935 132.732 236.328 132.482 235.879 132.037C235.431 131.592 235.18 130.989 235.18 130.359M235.509 135.662H239.664V153.757H235.509V135.662Z" fill="#1A346D"/>
<path d="M242.797 150.368L251.632 139.428H243.126V135.662H256.74V139.365L248.171 150.006H257.041V153.771H242.797V150.368Z" fill="#1A346D"/>
<path d="M259.879 130.38C259.881 130.069 259.944 129.76 260.066 129.473C260.188 129.186 260.365 128.925 260.589 128.706C260.812 128.487 261.076 128.314 261.367 128.196C261.657 128.079 261.968 128.019 262.282 128.021C262.593 128.019 262.901 128.078 263.189 128.195C263.476 128.311 263.738 128.483 263.958 128.7C264.179 128.918 264.354 129.176 264.474 129.461C264.594 129.745 264.657 130.051 264.657 130.359C264.657 130.989 264.406 131.592 263.958 132.037C263.51 132.482 262.902 132.732 262.268 132.732C261.635 132.732 261.027 132.482 260.579 132.037C260.131 131.592 259.879 130.989 259.879 130.359M260.208 135.662H264.363V153.757H260.208V135.662Z" fill="#1A346D"/>
<path d="M267.361 144.703C267.361 139.4 271.187 135.141 276.365 135.141C277.79 135.102 279.196 135.471 280.417 136.202C281.638 136.934 282.622 137.997 283.252 139.267H283.386V135.662H287.407V153.757H283.386V150.222H283.252C282.621 151.484 281.634 152.537 280.411 153.252C279.188 153.968 277.783 154.315 276.365 154.251C271.187 154.251 267.361 149.992 267.361 144.689M282.776 144.689C282.776 141.411 280.506 138.989 277.171 138.989C273.835 138.989 271.663 141.411 271.663 144.689C271.663 147.967 273.906 150.389 277.171 150.389C280.436 150.389 282.776 147.932 282.776 144.689Z" fill="#1A346D"/>
<path d="M11.6885 160.417H12.8516V170.703H11.6885V160.417Z" fill="#9C9E9C"/>
<path d="M15.4375 160.403H16.5866V170.703H15.4375V160.403Z" fill="#9C9E9C"/>
<path d="M29.3238 173V168.762H29.2817C28.987 169.423 28.5016 169.983 27.8869 170.371C27.2721 170.758 26.5555 170.956 25.8274 170.94C24.6976 170.94 23.614 170.494 22.8151 169.701C22.0162 168.907 21.5674 167.831 21.5674 166.709C21.5674 165.586 22.0162 164.51 22.8151 163.717C23.614 162.923 24.6976 162.477 25.8274 162.477C26.5663 162.452 27.2952 162.652 27.9156 163.052C28.5359 163.452 29.0177 164.031 29.2957 164.711H29.3238V162.679H30.4658V173H29.3238ZM29.1766 166.702C29.1766 165.878 28.8474 165.089 28.2613 164.507C27.6753 163.925 26.8804 163.598 26.0516 163.598C25.2228 163.598 24.428 163.925 23.842 164.507C23.2559 165.089 22.9267 165.878 22.9267 166.702C22.9267 167.525 23.2559 168.314 23.842 168.896C24.428 169.479 25.2228 169.806 26.0516 169.806C26.8804 169.806 27.6753 169.479 28.2613 168.896C28.8474 168.314 29.1766 167.525 29.1766 166.702Z" fill="#9C9E9C"/>
<path d="M32.624 167.62V162.665H33.7871V167.683C33.7871 168.266 34.0204 168.826 34.4356 169.238C34.8508 169.65 35.414 169.882 36.0012 169.882C36.5885 169.882 37.1516 169.65 37.5669 169.238C37.9821 168.826 38.2153 168.266 38.2153 167.683V162.665H39.3644V167.62C39.3644 168.508 39.0094 169.36 38.3773 169.987C37.7453 170.615 36.8881 170.968 35.9942 170.968C35.1004 170.968 34.2432 170.615 33.6111 169.987C32.9791 169.36 32.624 168.508 32.624 167.62Z" fill="#9C9E9C"/>
<path d="M40.8918 166.702C40.8835 165.856 41.1283 165.027 41.5951 164.32C42.062 163.613 42.7298 163.06 43.5139 162.731C44.2979 162.401 45.1628 162.311 45.9987 162.471C46.8347 162.631 47.6039 163.034 48.2088 163.629C48.8137 164.223 49.2269 164.984 49.3961 165.812C49.5653 166.641 49.4827 167.501 49.1589 168.283C48.8351 169.065 48.2846 169.733 47.5774 170.204C46.8702 170.675 46.0382 170.926 45.1869 170.926C44.6254 170.93 44.0686 170.823 43.5486 170.613C43.0285 170.402 42.5555 170.092 42.1564 169.7C41.7574 169.307 41.4403 168.84 41.2233 168.326C41.0063 167.811 40.8936 167.259 40.8918 166.702ZM48.3259 166.702C48.3259 165.871 47.9937 165.075 47.4024 164.487C46.8111 163.9 46.0091 163.57 45.1729 163.57C44.3366 163.57 43.5347 163.9 42.9434 164.487C42.3521 165.075 42.0199 165.871 42.0199 166.702C42.0199 167.532 42.3521 168.329 42.9434 168.916C43.5347 169.504 44.3366 169.833 45.1729 169.833C46.0091 169.833 46.8111 169.504 47.4024 168.916C47.9937 168.329 48.3259 167.532 48.3259 166.702Z" fill="#9C9E9C"/>
<path d="M51.5214 163.786H50.1201V162.686H51.5214V160.424H52.6635V162.686H54.163V163.786H52.6635V169.632H54.0649V170.724H51.5214V163.786Z" fill="#9C9E9C"/>
<path d="M55.6553 160.417C55.6553 160.28 55.6964 160.145 55.7734 160.031C55.8504 159.916 55.9598 159.827 56.0878 159.774C56.2159 159.722 56.3567 159.708 56.4926 159.735C56.6286 159.762 56.7534 159.828 56.8514 159.925C56.9494 160.022 57.0161 160.146 57.0432 160.281C57.0702 160.416 57.0563 160.556 57.0033 160.684C56.9502 160.811 56.8604 160.919 56.7452 160.996C56.63 161.072 56.4945 161.113 56.3559 161.113C56.1701 161.113 55.9919 161.04 55.8605 160.909C55.7291 160.779 55.6553 160.602 55.6553 160.417ZM55.8024 162.665H56.9445V170.689H55.8024V162.665Z" fill="#9C9E9C"/>
<path d="M58.6682 166.688C58.6504 166.142 58.7424 165.599 58.9387 165.089C59.1349 164.579 59.4316 164.113 59.8113 163.718C60.191 163.324 60.6461 163.008 61.15 162.79C61.6539 162.572 62.1965 162.457 62.7461 162.449C63.477 162.436 64.1955 162.639 64.8105 163.032C65.4254 163.424 65.9091 163.989 66.2003 164.656H66.2634V160.403H67.4055V170.689H66.2774V168.699H66.2284C65.9405 169.379 65.4513 169.956 64.8256 170.354C64.2 170.752 63.4674 170.951 62.725 170.926C62.1781 170.913 61.6391 170.794 61.139 170.574C60.6388 170.354 60.1873 170.038 59.8103 169.644C59.4334 169.25 59.1385 168.786 58.9425 168.279C58.7465 167.772 58.6533 167.231 58.6682 166.688ZM66.0952 166.688C66.0869 166.076 65.8967 165.481 65.5484 164.977C65.2002 164.473 64.7096 164.083 64.1383 163.855C63.5671 163.628 62.9409 163.573 62.3385 163.698C61.7361 163.824 61.1845 164.123 60.7532 164.559C60.3219 164.995 60.0302 165.549 59.9148 166.149C59.7995 166.75 59.8656 167.371 60.105 167.934C60.3443 168.497 60.7461 168.977 61.2597 169.314C61.7733 169.651 62.3758 169.829 62.9913 169.826C63.4042 169.828 63.8133 169.748 64.1945 169.59C64.5756 169.433 64.9211 169.201 65.2105 168.908C65.4998 168.615 65.7272 168.268 65.8792 167.887C66.0311 167.506 66.1046 167.098 66.0952 166.688Z" fill="#9C9E9C"/>
<path d="M69.5986 160.417C69.5986 160.28 69.6397 160.145 69.7167 160.031C69.7937 159.916 69.9031 159.827 70.0312 159.774C70.1592 159.722 70.3001 159.708 70.436 159.735C70.5719 159.762 70.6967 159.828 70.7947 159.925C70.8927 160.022 70.9595 160.146 70.9865 160.281C71.0135 160.416 70.9996 160.556 70.9466 160.684C70.8936 160.811 70.8038 160.919 70.6886 160.996C70.5733 161.072 70.4379 161.113 70.2993 161.113C70.1135 161.113 69.9352 161.04 69.8038 160.909C69.6724 160.779 69.5986 160.602 69.5986 160.417ZM69.7458 162.665H70.8948V170.689H69.7458V162.665Z" fill="#9C9E9C"/>
<path d="M72.6179 166.688C72.602 166.139 72.6967 165.593 72.8962 165.081C73.0958 164.569 73.3963 164.102 73.7801 163.708C74.1639 163.313 74.6232 162.998 75.1312 162.782C75.6391 162.566 76.1853 162.453 76.7378 162.449C77.4674 162.434 78.1849 162.636 78.798 163.029C79.411 163.423 79.8917 163.989 80.1781 164.656H80.2342V162.665H81.3692V170.689H80.2342V168.699H80.1781C79.9006 169.374 79.4226 169.948 78.808 170.346C78.1934 170.744 77.4712 170.946 76.7378 170.926C75.6265 170.904 74.5691 170.446 73.7971 169.652C73.025 168.857 72.601 167.792 72.6179 166.688ZM80.045 166.688C80.0367 166.076 79.8464 165.481 79.4982 164.977C79.15 164.473 78.6593 164.083 78.0881 163.855C77.5169 163.628 76.8906 163.573 76.2882 163.698C75.6858 163.824 75.1342 164.123 74.7029 164.559C74.2716 164.995 73.9799 165.549 73.8646 166.149C73.7492 166.75 73.8154 167.371 74.0547 167.934C74.294 168.497 74.6958 168.977 75.2094 169.314C75.7231 169.651 76.3256 169.829 76.941 169.826C77.3539 169.828 77.7631 169.748 78.1442 169.59C78.5254 169.433 78.8709 169.201 79.1602 168.908C79.4496 168.615 79.6769 168.268 79.8289 167.887C79.9809 167.505 80.0544 167.098 80.045 166.688Z" fill="#9C9E9C"/>
<path d="M83.71 162.665H90.8147V170.703H89.6726V163.786H84.8591V170.71H83.71V162.665Z" fill="#9C9E9C"/>
<path d="M92.5383 166.702C92.53 165.856 92.7748 165.027 93.2416 164.32C93.7085 163.613 94.3763 163.06 95.1604 162.731C95.9444 162.401 96.8093 162.311 97.6452 162.471C98.4811 162.631 99.2504 163.034 99.8553 163.629C100.46 164.223 100.873 164.984 101.043 165.812C101.212 166.641 101.129 167.501 100.805 168.283C100.482 169.065 99.9311 169.733 99.2239 170.204C98.5167 170.675 97.6846 170.926 96.8334 170.926C96.2718 170.93 95.7151 170.823 95.1951 170.613C94.675 170.402 94.2019 170.092 93.8029 169.7C93.4039 169.307 93.0868 168.84 92.8698 168.326C92.6528 167.811 92.5401 167.259 92.5383 166.702ZM99.9723 166.702C99.9723 165.871 99.6402 165.075 99.0489 164.487C98.4576 163.9 97.6556 163.57 96.8193 163.57C95.9831 163.57 95.1811 163.9 94.5898 164.487C93.9985 165.075 93.6664 165.871 93.6664 166.702C93.6664 167.532 93.9985 168.329 94.5898 168.916C95.1811 169.504 95.9831 169.833 96.8193 169.833C97.6556 169.833 98.4576 169.504 99.0489 168.916C99.6402 168.329 99.9723 167.532 99.9723 166.702Z" fill="#9C9E9C"/>
<path d="M105.634 166.688C105.616 166.142 105.708 165.599 105.904 165.089C106.101 164.579 106.397 164.113 106.777 163.718C107.157 163.324 107.612 163.008 108.116 162.79C108.62 162.572 109.162 162.457 109.712 162.449C110.443 162.436 111.161 162.639 111.776 163.032C112.391 163.424 112.875 163.989 113.166 164.656H113.229V160.403H114.371V170.689H113.243V168.699H113.194C112.906 169.379 112.417 169.956 111.791 170.354C111.166 170.752 110.433 170.951 109.691 170.926C109.144 170.913 108.605 170.794 108.105 170.574C107.605 170.354 107.153 170.038 106.776 169.644C106.399 169.25 106.104 168.786 105.908 168.279C105.712 167.772 105.619 167.231 105.634 166.688ZM113.061 166.688C113.053 166.076 112.862 165.481 112.514 164.977C112.166 164.473 111.675 164.083 111.104 163.855C110.533 163.628 109.907 163.573 109.304 163.698C108.702 163.824 108.15 164.123 107.719 164.559C107.288 164.995 106.996 165.549 106.881 166.149C106.765 166.75 106.831 167.371 107.071 167.934C107.31 168.497 107.712 168.977 108.226 169.314C108.739 169.651 109.342 169.829 109.957 169.826C110.37 169.828 110.779 169.748 111.16 169.59C111.541 169.433 111.887 169.201 112.176 168.908C112.466 168.615 112.693 168.268 112.845 167.887C112.997 167.506 113.07 167.098 113.061 166.688Z" fill="#9C9E9C"/>
<path d="M116.564 160.417C116.564 160.28 116.606 160.145 116.683 160.031C116.76 159.916 116.869 159.827 116.997 159.774C117.125 159.722 117.266 159.708 117.402 159.735C117.538 159.762 117.663 159.828 117.761 159.925C117.859 160.022 117.925 160.146 117.952 160.281C117.979 160.416 117.965 160.556 117.912 160.684C117.859 160.811 117.77 160.919 117.654 160.996C117.539 161.072 117.404 161.113 117.265 161.113C117.079 161.113 116.901 161.04 116.77 160.909C116.638 160.779 116.564 160.602 116.564 160.417ZM116.712 162.665H117.861V170.689H116.712V162.665Z" fill="#9C9E9C"/>
<path d="M123.865 160.417H125.028V170.703H123.865V160.417Z" fill="#9C9E9C"/>
<path d="M127.613 162.665H134.725V170.703H133.576V163.786H128.762V170.71H127.613V162.665Z" fill="#9C9E9C"/>
<path d="M137.065 160.403H140.569V161.496H138.208V164.725H140.429V165.811H138.208V170.682H137.065V160.403Z" fill="#9C9E9C"/>
<path d="M141.522 166.702C141.513 165.856 141.758 165.027 142.225 164.32C142.692 163.613 143.36 163.06 144.144 162.731C144.928 162.401 145.793 162.311 146.629 162.471C147.465 162.631 148.234 163.034 148.839 163.629C149.444 164.223 149.857 164.984 150.026 165.812C150.195 166.641 150.113 167.501 149.789 168.283C149.465 169.065 148.915 169.733 148.207 170.204C147.5 170.675 146.668 170.926 145.817 170.926C145.255 170.93 144.698 170.823 144.178 170.613C143.658 170.402 143.185 170.092 142.786 169.7C142.387 169.307 142.07 168.84 141.853 168.326C141.636 167.811 141.524 167.259 141.522 166.702ZM148.949 166.702C148.949 165.871 148.617 165.075 148.025 164.487C147.434 163.9 146.632 163.57 145.796 163.57C144.96 163.57 144.158 163.9 143.566 164.487C142.975 165.075 142.643 165.871 142.643 166.702C142.643 167.532 142.975 168.329 143.566 168.916C144.158 169.504 144.96 169.833 145.796 169.833C146.632 169.833 147.434 169.504 148.025 168.916C148.617 168.329 148.949 167.532 148.949 166.702Z" fill="#9C9E9C"/>
<path d="M151.821 162.665H156.663V163.786H152.97V170.745H151.821V162.665Z" fill="#9C9E9C"/>
<path d="M171.097 170.703H169.948V163.786H165.134V170.71H163.985V163.786H159.178V170.71H158.029V162.665H171.097V170.703Z" fill="#9C9E9C"/>
<path d="M172.82 166.688C172.804 166.139 172.899 165.593 173.098 165.081C173.298 164.569 173.598 164.102 173.982 163.708C174.366 163.313 174.825 162.998 175.333 162.782C175.841 162.566 176.387 162.453 176.94 162.449C177.67 162.434 178.387 162.636 179 163.029C179.613 163.423 180.094 163.989 180.38 164.656H180.436V162.665H181.571V170.689H180.436V168.699H180.38C180.102 169.373 179.624 169.947 179.009 170.345C178.395 170.743 177.673 170.945 176.94 170.926C175.829 170.904 174.771 170.446 173.999 169.652C173.227 168.857 172.803 167.792 172.82 166.688ZM180.247 166.688C180.239 166.076 180.049 165.481 179.7 164.977C179.352 164.473 178.861 164.083 178.29 163.855C177.719 163.628 177.093 163.573 176.49 163.698C175.888 163.824 175.336 164.123 174.905 164.559C174.474 164.995 174.182 165.549 174.067 166.149C173.951 166.75 174.018 167.371 174.257 167.934C174.496 168.497 174.898 168.977 175.412 169.314C175.925 169.651 176.528 169.829 177.143 169.826C177.556 169.828 177.965 169.748 178.346 169.59C178.728 169.433 179.073 169.201 179.362 168.908C179.652 168.615 179.879 168.268 180.031 167.887C180.183 167.505 180.257 167.098 180.247 166.688Z" fill="#9C9E9C"/>
<path d="M183.177 169.652L187.752 163.751H183.366V162.679H189.132V163.786L184.62 169.618H189.266V170.682H183.177V169.652Z" fill="#9C9E9C"/>
<path d="M190.736 160.417C190.736 160.28 190.777 160.145 190.854 160.031C190.931 159.916 191.041 159.827 191.169 159.774C191.297 159.722 191.438 159.708 191.574 159.735C191.71 159.762 191.834 159.828 191.932 159.925C192.03 160.022 192.097 160.146 192.124 160.281C192.151 160.416 192.137 160.556 192.084 160.684C192.031 160.811 191.942 160.919 191.826 160.996C191.711 161.072 191.576 161.113 191.437 161.113C191.251 161.113 191.073 161.04 190.942 160.909C190.81 160.779 190.736 160.602 190.736 160.417ZM190.883 162.665H192.033V170.689H190.883V162.665Z" fill="#9C9E9C"/>
<path d="M193.756 166.702C193.748 165.856 193.993 165.027 194.459 164.32C194.926 163.613 195.594 163.06 196.378 162.731C197.162 162.401 198.027 162.311 198.863 162.471C199.699 162.631 200.468 163.034 201.073 163.629C201.678 164.223 202.091 164.984 202.26 165.812C202.43 166.641 202.347 167.501 202.023 168.283C201.699 169.065 201.149 169.733 200.442 170.204C199.734 170.675 198.902 170.926 198.051 170.926C197.49 170.93 196.933 170.823 196.413 170.613C195.893 170.402 195.42 170.092 195.021 169.7C194.622 169.307 194.305 168.84 194.088 168.326C193.871 167.811 193.758 167.259 193.756 166.702ZM201.183 166.702C201.183 165.871 200.851 165.075 200.26 164.487C199.668 163.9 198.866 163.57 198.03 163.57C197.194 163.57 196.392 163.9 195.801 164.487C195.209 165.075 194.877 165.871 194.877 166.702C194.877 167.532 195.209 168.329 195.801 168.916C196.392 169.504 197.194 169.833 198.03 169.833C198.866 169.833 199.668 169.504 200.26 168.916C200.851 168.329 201.183 167.532 201.183 166.702Z" fill="#9C9E9C"/>
<path d="M204.056 162.665H211.161V170.703H210.012V163.786H205.191V170.71H204.042L204.056 162.665Z" fill="#9C9E9C"/>
<path d="M212.898 166.639C212.948 165.526 213.429 164.474 214.241 163.705C215.054 162.936 216.134 162.509 217.256 162.514C218.378 162.518 219.455 162.954 220.261 163.729C221.067 164.505 221.539 165.56 221.58 166.674C221.58 166.771 221.58 166.903 221.58 167.05H214.104C214.181 167.819 214.545 168.531 215.125 169.046C215.704 169.562 216.458 169.842 217.236 169.833C217.822 169.844 218.399 169.685 218.896 169.376C219.394 169.067 219.79 168.622 220.038 168.094H221.306C220.944 169.025 220.267 169.804 219.392 170.296C218.516 170.788 217.496 170.964 216.505 170.793C215.514 170.623 214.613 170.116 213.955 169.36C213.298 168.604 212.924 167.645 212.898 166.646V166.639ZM220.325 166.117C220.219 165.383 219.843 164.714 219.27 164.239C218.697 163.764 217.968 163.516 217.222 163.542C216.476 163.51 215.744 163.756 215.172 164.233C214.6 164.709 214.229 165.382 214.132 166.117H220.325Z" fill="#9C9E9C"/>
<path d="M226.246 165.56C226.249 164.48 226.58 163.425 227.194 162.533C227.808 161.641 228.677 160.952 229.69 160.557C230.703 160.162 231.812 160.078 232.873 160.316C233.934 160.554 234.899 161.103 235.642 161.893L234.906 162.637C234.492 162.19 233.986 161.835 233.424 161.595C232.861 161.355 232.253 161.236 231.641 161.245C230.495 161.245 229.395 161.698 228.584 162.503C227.774 163.308 227.318 164.401 227.318 165.539C227.318 166.678 227.774 167.771 228.584 168.576C229.395 169.381 230.495 169.833 231.641 169.833C232.214 169.858 232.786 169.762 233.319 169.551C233.851 169.34 234.333 169.018 234.731 168.609V166.11H232.321V165.038H235.894V168.936C235.187 169.796 234.229 170.419 233.153 170.719C232.076 171.019 230.932 170.982 229.877 170.613C228.822 170.244 227.907 169.561 227.257 168.657C226.608 167.753 226.255 166.671 226.246 165.56Z" fill="#9C9E9C"/>
<path d="M237.808 160.417C237.808 160.28 237.849 160.145 237.926 160.031C238.003 159.916 238.112 159.827 238.24 159.774C238.368 159.722 238.509 159.708 238.645 159.735C238.781 159.762 238.906 159.828 239.004 159.925C239.102 160.022 239.168 160.146 239.195 160.281C239.223 160.416 239.209 160.556 239.156 160.684C239.103 160.811 239.013 160.919 238.898 160.996C238.782 161.072 238.647 161.113 238.508 161.113C238.322 161.113 238.144 161.04 238.013 160.909C237.881 160.779 237.808 160.602 237.808 160.417ZM237.955 162.665H239.104V170.689H237.955V162.665Z" fill="#9C9E9C"/>
<path d="M241.233 167.62V162.665H242.396V167.683C242.396 168.266 242.63 168.826 243.045 169.238C243.46 169.65 244.023 169.882 244.611 169.882C245.198 169.882 245.761 169.65 246.176 169.238C246.591 168.826 246.825 168.266 246.825 167.683V162.665H247.974V167.62C247.974 168.508 247.619 169.36 246.987 169.987C246.355 170.615 245.497 170.968 244.604 170.968C243.71 170.968 242.853 170.615 242.221 169.987C241.588 169.36 241.233 168.508 241.233 167.62Z" fill="#9C9E9C"/>
<path d="M250.125 162.665H254.938V163.786H251.246V170.745H250.097L250.125 162.665Z" fill="#9C9E9C"/>
<path d="M256.186 160.417C256.186 160.28 256.227 160.145 256.304 160.031C256.381 159.916 256.49 159.827 256.618 159.774C256.746 159.722 256.887 159.708 257.023 159.735C257.159 159.762 257.284 159.828 257.382 159.925C257.48 160.022 257.546 160.146 257.573 160.281C257.6 160.416 257.587 160.556 257.534 160.684C257.48 160.811 257.391 160.919 257.275 160.996C257.16 161.072 257.025 161.113 256.886 161.113C256.7 161.113 256.522 161.04 256.391 160.909C256.259 160.779 256.186 160.602 256.186 160.417ZM256.333 162.665H257.482V170.689H256.34L256.333 162.665Z" fill="#9C9E9C"/>
<path d="M259.206 166.688C259.187 166.142 259.278 165.599 259.473 165.089C259.669 164.579 259.965 164.113 260.344 163.719C260.723 163.324 261.178 163.008 261.681 162.79C262.185 162.572 262.727 162.457 263.276 162.449C264.008 162.436 264.728 162.638 265.344 163.031C265.96 163.423 266.445 163.989 266.738 164.656H266.794V160.403H267.943V170.689H266.808V168.699H266.766C266.476 169.378 265.987 169.954 265.361 170.352C264.736 170.749 264.004 170.949 263.262 170.926C262.715 170.913 262.176 170.794 261.676 170.574C261.176 170.354 260.725 170.038 260.348 169.644C259.971 169.25 259.676 168.786 259.48 168.279C259.284 167.772 259.191 167.231 259.206 166.688ZM266.633 166.688C266.624 166.076 266.434 165.481 266.086 164.977C265.738 164.473 265.247 164.083 264.676 163.855C264.104 163.628 263.478 163.573 262.876 163.698C262.273 163.824 261.722 164.123 261.29 164.559C260.859 164.995 260.568 165.549 260.452 166.149C260.337 166.75 260.403 167.371 260.642 167.934C260.882 168.497 261.283 168.977 261.797 169.314C262.311 169.651 262.913 169.829 263.529 169.826C263.942 169.828 264.351 169.748 264.732 169.59C265.113 169.433 265.458 169.201 265.748 168.908C266.037 168.615 266.265 168.268 266.417 167.887C266.568 167.506 266.642 167.098 266.633 166.688Z" fill="#9C9E9C"/>
<path d="M270.136 160.417C270.136 160.28 270.177 160.145 270.254 160.031C270.331 159.916 270.44 159.827 270.568 159.774C270.696 159.722 270.837 159.708 270.973 159.735C271.109 159.762 271.234 159.828 271.332 159.925C271.43 160.022 271.497 160.146 271.524 160.281C271.551 160.416 271.537 160.556 271.484 160.684C271.431 160.811 271.341 160.919 271.226 160.996C271.11 161.072 270.975 161.113 270.836 161.113C270.651 161.113 270.472 161.04 270.341 160.909C270.21 160.779 270.136 160.602 270.136 160.417ZM270.283 162.665H271.432V170.689H270.283V162.665Z" fill="#9C9E9C"/>
<path d="M273.156 166.688C273.16 165.833 273.423 164.998 273.909 164.293C274.396 163.587 275.084 163.043 275.886 162.73C276.687 162.418 277.565 162.351 278.405 162.539C279.245 162.727 280.009 163.162 280.597 163.786L279.813 164.544C279.454 164.163 279.005 163.876 278.507 163.709C278.009 163.541 277.477 163.5 276.958 163.587C276.44 163.674 275.951 163.887 275.536 164.208C275.121 164.528 274.793 164.946 274.58 165.424C274.367 165.901 274.277 166.424 274.317 166.944C274.358 167.465 274.527 167.968 274.811 168.407C275.095 168.847 275.484 169.21 275.943 169.464C276.403 169.717 276.919 169.854 277.444 169.861C277.864 169.866 278.28 169.788 278.67 169.633C279.06 169.478 279.414 169.248 279.714 168.957L280.492 169.715C279.89 170.31 279.123 170.715 278.29 170.878C277.456 171.041 276.592 170.955 275.808 170.632C275.023 170.308 274.352 169.76 273.881 169.059C273.409 168.357 273.157 167.532 273.156 166.688Z" fill="#9C9E9C"/>
<path d="M281.242 166.688C281.226 166.139 281.321 165.593 281.52 165.081C281.72 164.569 282.02 164.102 282.404 163.708C282.788 163.313 283.247 162.998 283.755 162.782C284.263 162.566 284.809 162.453 285.362 162.449C286.092 162.434 286.811 162.636 287.425 163.029C288.04 163.422 288.522 163.988 288.809 164.656H288.865V162.665H289.972V170.689H288.837V168.699H288.781C288.502 169.374 288.022 169.948 287.406 170.346C286.791 170.743 286.068 170.946 285.334 170.926C284.227 170.897 283.177 170.436 282.411 169.642C281.645 168.849 281.225 167.787 281.242 166.688ZM288.676 166.688C288.669 166.075 288.479 165.477 288.131 164.971C287.782 164.464 287.291 164.072 286.718 163.843C286.145 163.614 285.517 163.559 284.912 163.684C284.308 163.81 283.755 164.11 283.322 164.548C282.889 164.985 282.597 165.54 282.481 166.143C282.366 166.745 282.433 167.368 282.674 167.933C282.914 168.498 283.318 168.979 283.834 169.316C284.35 169.653 284.955 169.831 285.572 169.826C285.985 169.828 286.394 169.748 286.775 169.59C287.156 169.433 287.502 169.201 287.791 168.908C288.081 168.616 288.308 168.268 288.46 167.887C288.612 167.506 288.685 167.098 288.676 166.688Z" fill="#9C9E9C"/>
</g>
<defs>
<clipPath id="clip0_816_351">
<rect width="280" height="45" fill="white" transform="translate(10 128)"/>
</clipPath>
</defs>
</svg>
