<svg width="300" height="300" viewBox="0 0 300 300" fill="none" xmlns="http://www.w3.org/2000/svg">
<rect width="300" height="300" fill="#EAEAEA"/>
<path d="M116.83 144.836V160.841H81.1861V136.82H116.83V128.856L73.248 128.83V168.831H124.742V144.836H116.83Z" fill="#133371"/>
<path d="M106.882 144.836H91.083V152.826H106.882V144.836Z" fill="#A53535"/>
<path d="M136.108 168.649V129.663H143.66V168.649H136.108Z" fill="#A53535"/>
<path d="M165.773 169.716C157.397 169.716 151.314 165.005 151.314 154.387V129.663H158.763V153.346C158.763 161.31 161.984 163.132 165.773 163.132C169.227 163.132 172.886 161.31 172.886 153.346V129.663H180.335V154.231C180.36 164.615 173.737 169.716 165.773 169.716Z" fill="#A53535"/>
<path d="M200.515 169.82C194.819 169.82 189.716 167.946 185.824 164.901L189.381 158.811C192.68 161.31 196.778 163.288 200.876 163.288C205.257 163.288 207.886 161.466 207.886 158.759C207.886 155.428 205.463 153.841 198.84 151.785C192.706 149.911 187.345 147.412 187.345 140.047C187.345 133.177 192.706 128.596 202.19 128.596C207.731 128.596 212.267 130.704 215.618 132.968L212.009 138.772C209.767 137.002 205.876 134.894 201.829 134.894C198.427 134.894 195.154 136.117 195.154 139.267C195.154 142.52 197.886 143.639 203.324 145.304C208.814 146.97 215.695 149.729 215.695 157.927C215.695 166.125 209.278 169.82 200.515 169.82Z" fill="#A53535"/>
</svg>
