<svg width="300" height="300" viewBox="0 0 300 300" fill="none" xmlns="http://www.w3.org/2000/svg">
<rect width="300" height="300" fill="#EAEAEA"/>
<g clip-path="url(#clip0_1146_557)">
<path d="M98.1738 163L101.945 166.116V152.816L98.1738 149.7V163Z" fill="#00009C"/>
<path d="M101.945 152.816L98.1738 149.7L111.215 147.139L115.007 150.256L101.945 152.816Z" fill="#0081FF"/>
<path d="M94.3818 133.284V146.584L98.1732 149.7V136.4L94.3818 133.284Z" fill="#00009C"/>
<path d="M81.3203 149.144L85.1117 152.261L98.1731 149.7L94.3817 146.583L81.3203 149.144Z" fill="#0081FF"/>
<path d="M255.228 158.394C254.414 160.836 252.667 162.761 249.134 162.761C245.481 162.761 242.682 160.062 242.603 156.171H258.92C258.96 155.893 259.019 155.357 259.019 154.821C259.019 148.052 255.287 143.467 248.598 143.467C243.139 143.467 238.236 148.112 238.236 154.921C238.236 162.265 243.338 166.513 249.134 166.513C254.176 166.513 257.65 163.496 258.86 159.665L255.228 158.394ZM242.742 152.757C242.921 149.958 245.084 147.219 248.638 147.219C252.469 147.219 254.493 149.66 254.593 152.757H242.742ZM232.817 133.205H228.589V165.838H232.817V133.205ZM211.419 162.94C209.255 162.94 207.905 161.412 207.905 159.784C207.905 157.839 209.255 156.806 211.061 156.548L217.691 155.556V156.548C217.671 161.273 214.892 162.94 211.419 162.94ZM203.578 160.022C203.578 163.456 206.416 166.513 210.843 166.513C214.714 166.513 216.877 164.449 217.83 162.9C217.83 164.469 217.969 165.282 218.048 165.838H222.197C222.098 165.302 221.919 164.171 221.919 162.285V151.407C221.919 147.179 219.398 143.467 212.907 143.467C208.223 143.467 204.471 146.345 204.034 150.494L208.084 151.447C208.362 148.926 210.029 147.08 212.987 147.08C216.282 147.08 217.671 148.846 217.671 150.951C217.671 151.725 217.314 152.4 216.004 152.578L210.148 153.432C206.416 153.988 203.578 156.151 203.578 160.022ZM190.179 147.397C193.871 147.397 195.459 149.879 195.995 152.003L199.826 150.375C198.933 147.08 195.955 143.487 190.179 143.487C184.005 143.487 179.281 148.211 179.281 154.98C179.281 161.57 183.926 166.513 190.238 166.513C195.876 166.513 198.972 162.861 200.025 159.744L196.293 158.117C195.796 159.824 194.308 162.583 190.258 162.583C186.745 162.583 183.628 159.923 183.628 154.96C183.608 149.918 186.765 147.397 190.179 147.397ZM158.498 160.201C158.855 162.682 161.376 166.513 167.331 166.513C172.691 166.513 175.271 162.861 175.271 159.804C175.271 156.608 173.207 154.206 169.277 153.352L165.763 152.578C164.096 152.221 163.282 151.268 163.282 149.958C163.282 148.469 164.731 147.08 166.895 147.08C170.329 147.08 171.222 149.561 171.401 150.693L175.132 149.303C174.676 147.358 172.83 143.487 166.875 143.487C162.647 143.487 159.173 146.643 159.173 150.335C159.173 153.392 161.198 155.695 164.572 156.429L168.264 157.243C170.071 157.64 171.063 158.692 171.063 160.042C171.063 161.57 169.753 162.92 167.371 162.92C164.314 162.92 162.587 161.114 162.329 158.871L158.498 160.201ZM148.216 135.944C148.216 137.611 149.565 138.961 151.233 138.961C152.94 138.961 154.29 137.611 154.29 135.944C154.29 134.237 152.94 132.887 151.233 132.887C149.585 132.887 148.216 134.237 148.216 135.944ZM153.357 144.162H149.168V165.838H153.357V144.162ZM128.703 165.838V152.4H142.32V148.251H128.703V137.988H143.71V133.879H124.276V165.838H128.703Z" fill="#0081FF"/>
<path d="M46.9414 133.284L54.7028 166.116H59.7448L52.2017 133.284H46.9414Z" fill="#00009C"/>
<path d="M46.9406 133.284H41.7002V166.116H46.9406V133.284Z" fill="#00009C"/>
<path d="M59.7441 166.116H64.7861L72.5276 133.284H67.2872L59.7441 166.116Z" fill="#00009C"/>
<path d="M77.7678 133.284H72.5273V166.116H77.7678V133.284Z" fill="#00009C"/>
</g>
<defs>
<clipPath id="clip0_1146_557">
<rect width="217.3" height="33.6262" fill="white" transform="translate(41.7002 132.887)"/>
</clipPath>
</defs>
</svg>
