<svg width="300" height="300" viewBox="0 0 300 300" fill="none" xmlns="http://www.w3.org/2000/svg">
<rect width="300" height="300" fill="#EAEAEA"/>
<g clip-path="url(#clip0_1340_612)">
<path d="M247.706 142.998C241.087 142.998 236.393 148.107 236.393 154.959C236.393 161.851 241.087 166.96 247.706 166.96C254.325 166.96 259.02 161.851 259.02 154.959C259 148.107 254.325 142.998 247.706 142.998ZM247.706 163.013C244.033 163.013 240.812 160.208 240.812 154.959C240.812 149.75 244.033 146.945 247.706 146.945C251.379 146.945 254.6 149.75 254.6 154.959C254.6 160.208 251.379 163.013 247.706 163.013ZM233.878 143.478C233.643 143.438 233.053 143.338 232.445 143.338C230.186 143.338 227.436 144.18 225.825 147.646V143.719H221.602V166.259H225.924V154.959C225.924 149.99 228.359 148.027 231.993 148.027C232.582 148.027 233.23 148.067 233.878 148.167V143.478ZM204.789 142.998C198.17 142.998 193.476 148.107 193.476 154.959C193.476 161.851 198.17 166.96 204.789 166.96C211.408 166.96 216.103 161.851 216.103 154.959C216.083 148.107 211.408 142.998 204.789 142.998ZM204.789 163.013C201.116 163.013 197.895 160.208 197.895 154.959C197.895 149.75 201.116 146.945 204.789 146.945C208.462 146.945 211.683 149.75 211.683 154.959C211.683 160.208 208.462 163.013 204.789 163.013ZM191.138 143.719H186.503L180.159 161.11L173.854 143.719H168.983L177.939 166.259H182.3L191.138 143.719ZM154.507 163.253C152.307 163.253 150.932 161.651 150.932 159.968C150.932 157.944 152.307 156.882 154.153 156.602L160.91 155.58V156.602C160.89 161.53 158.042 163.253 154.507 163.253ZM146.513 160.208C146.513 163.774 149.4 166.96 153.918 166.96C157.866 166.96 160.085 164.796 161.047 163.213C161.047 164.856 161.185 165.698 161.283 166.259H165.506C165.408 165.698 165.231 164.516 165.231 162.552V151.252C165.231 146.844 162.658 142.998 156.039 142.998C151.266 142.998 147.436 146.003 146.984 150.311L151.128 151.292C151.403 148.668 153.112 146.744 156.137 146.744C159.496 146.744 160.91 148.567 160.91 150.771C160.91 151.573 160.537 152.274 159.201 152.454L153.23 153.336C149.42 153.937 146.513 156.181 146.513 160.208ZM143.625 166.259V161.951H128.226V133.02H123.729V166.259H143.625Z" fill="#FF5D3E"/>
<path d="M47.1855 133L54.8654 166.138H59.8544L52.3906 133H47.1855Z" fill="#00009C"/>
<path d="M47.1854 133H42V166.138H47.1854V133Z" fill="#00009C"/>
<path d="M59.8545 166.138H64.8434L72.5037 133H67.3183L59.8545 166.138Z" fill="#00009C"/>
<path d="M77.6883 133H72.5029V166.138H77.6883V133Z" fill="#00009C"/>
<path d="M97.8799 163.854L101.612 167V153.556L97.8799 150.411V163.854Z" fill="#00009C"/>
<path d="M101.612 153.556L97.8799 150.411L110.784 147.826L114.536 150.972L101.612 153.556Z" fill="#FF5D3E"/>
<path d="M94.1279 133.841V147.285L97.8795 150.411V136.987L94.1279 133.841Z" fill="#00009C"/>
<path d="M81.2041 149.87L84.9556 152.995L97.8798 150.411L94.1282 147.285L81.2041 149.87Z" fill="#FF5D3E"/>
</g>
<defs>
<clipPath id="clip0_1340_612">
<rect width="217" height="34" fill="white" transform="translate(42 133)"/>
</clipPath>
</defs>
</svg>
