<svg width="300" height="300" viewBox="0 0 300 300" fill="none" xmlns="http://www.w3.org/2000/svg">
<g clip-path="url(#clip0_816_437)">
<rect width="300" height="300" fill="#EAEAEA"/>
<path d="M11.9961 161.745H44.5015V146.655H39.5019V156.725H16.9984V141.615L39.5019 141.626V136.605L11.9961 136.597V161.745Z" fill="#21376A"/>
<path d="M33.2201 146.655H23.248V151.687H33.2201V146.655Z" fill="#2B9447"/>
<mask id="mask0_816_437" style="mask-type:luminance" maskUnits="userSpaceOnUse" x="11" y="130" width="278" height="39">
<path d="M288.274 130.06H11.9961V168.978H288.274V130.06Z" fill="white"/>
</mask>
<g mask="url(#mask0_816_437)">
<path d="M254.69 143.906C254.69 146.893 253.351 148.905 250.669 149.945C249.661 150.354 248.403 150.558 246.895 150.558H244.854C244.143 150.558 243.55 151.177 243.55 151.935V159.689C243.55 160.447 242.967 161.066 242.245 161.066H241.795C241.082 161.066 240.491 160.447 240.491 159.689V138.804C240.491 138.045 241.085 137.426 241.795 137.426H245.83C246.543 137.426 247.703 137.508 248.416 137.609C248.416 137.609 251.643 138.062 252.96 139.327C254.11 140.481 254.693 142.008 254.693 143.906M251.537 143.975C251.537 142.194 250.718 141.005 249.059 140.421C248.476 140.216 247.79 140.115 246.971 140.115H244.859C244.149 140.115 243.555 140.735 243.555 141.493V146.492C243.555 147.25 244.149 147.869 244.859 147.869H245.499C246.223 147.869 247.386 147.79 248.096 147.695C248.096 147.695 249.661 147.485 250.48 146.718C251.179 146.064 251.537 145.15 251.537 143.975Z" fill="#21376A"/>
<path d="M288.274 160.349C288.274 160.936 287.811 161.274 287.266 161.102L286.198 160.769C285.639 160.595 285.175 159.973 285.175 159.386V158.909C285.175 158.32 284.845 158.181 284.427 158.593C284.427 158.593 283.37 159.648 282.066 160.224C280.845 160.775 279.563 161.053 278.235 161.053C275.458 161.053 273.216 160.18 271.508 158.437C269.634 156.561 268.696 153.959 268.696 150.626V138.253C268.696 137.669 269.157 137.304 269.729 137.44L270.762 137.696C271.321 137.836 271.795 138.43 271.795 139.014V149.47C271.795 150.054 271.855 151.011 271.939 151.592C271.939 151.592 272.424 155.009 273.696 156.351C274.883 157.608 276.413 158.236 278.275 158.236C281.347 158.236 283.448 156.812 284.587 153.973C284.991 152.958 285.181 151.736 285.181 150.305V139.014C285.181 138.427 285.644 137.833 286.214 137.696L287.247 137.44C287.816 137.304 288.28 137.669 288.28 138.253V160.346L288.274 160.349Z" fill="#21376A"/>
<path d="M263.219 159.932C263.219 160.521 262.745 161.004 262.151 161.004H261.178C260.584 161.004 260.109 160.521 260.109 159.932V139.33C260.109 138.738 260.559 138.086 261.107 137.885L262.221 137.467C262.766 137.26 263.219 137.574 263.219 138.168V159.937V159.932Z" fill="#21376A"/>
<path d="M279.425 137.541C279.723 138.116 279.544 138.613 278.95 138.613H278.503C277.909 138.613 277.519 138.296 276.976 137.541L273.343 131.89C273.04 131.418 273.793 130.646 274.341 130.445L275.152 130.142C275.547 129.956 276.266 130.074 276.453 130.728L279.427 137.544L279.425 137.541Z" fill="#21376A"/>
<path d="M230.844 153.479C230.844 156.877 229.673 160.044 226.015 160.044C222.358 160.044 221.187 156.877 221.187 153.479C221.187 150.081 222.358 146.882 226.015 146.882C229.673 146.882 230.844 150.081 230.844 153.479ZM234.182 153.479C234.182 148.365 231.484 145.003 226.015 145.003C220.547 145.003 217.849 148.434 217.849 153.479C217.849 158.525 220.617 161.923 226.015 161.923C231.413 161.923 234.182 158.492 234.182 153.479ZM195.272 146.915L197.97 147.441C197.97 147.441 198.325 149.287 198.325 149.947V157.237C198.255 157.995 197.97 159.577 197.97 159.577L195.272 160.106L195.448 161.756C195.448 161.756 198.68 161.593 199.388 161.593C202.227 161.593 203.967 161.756 203.967 161.756L204.217 159.809L201.449 159.577C201.449 159.577 201.199 157.731 201.199 156.081V152.552C201.234 149.32 202.94 147.01 205.743 147.01C208.726 147.01 209.401 149.713 209.401 152.484V157.068C209.401 157.892 209.224 158.849 209.045 159.575L206.668 160.104L206.844 161.754C206.844 161.754 209.756 161.59 210.466 161.59C213.305 161.59 215.046 161.754 215.046 161.754L215.295 159.806L212.527 159.575C212.527 159.575 212.277 157.728 212.277 156.078V152.484C212.277 147.932 211.177 144.997 206.277 144.997C203.58 144.997 201.733 146.481 200.882 147.997L200.668 145.886L199.993 145.292H198.713C198.002 145.292 195.448 145.161 195.448 145.161L195.272 146.909V146.915ZM186.93 154.104V156.081C186.575 158.225 184.587 159.809 182.209 159.809C180.542 159.809 179.617 158.852 179.617 157.205C179.617 156.051 180.433 155.227 181.854 154.995L186.93 154.106V154.104ZM187.781 161.59C190.62 161.59 192.36 161.754 192.36 161.754L192.61 159.806L190.162 159.575C190.162 159.575 189.806 157.728 189.806 156.078V151.987C189.806 146.942 188.174 144.995 183.95 144.995C181.819 144.995 179.655 145.259 177.524 145.785L177.915 150.272L179.975 150.174V148.821L180.225 147.435C181.114 147.04 182.426 146.776 183.598 146.776C185.834 146.776 186.935 148.259 186.935 151.327V152.415L181.255 153.305C178.061 153.798 176.499 155.317 176.499 157.69C176.499 160.262 178.487 161.912 181.648 161.912C183.955 161.912 186.371 160.66 187.293 158.977L187.789 161.582L187.781 161.59ZM169.214 137.844C167.864 137.844 167.118 138.733 167.118 139.987C167.118 141.242 167.864 142.098 169.214 142.098C170.564 142.098 171.307 141.242 171.307 139.987C171.307 138.635 170.527 137.844 169.214 137.844ZM173.653 159.809L170.884 159.577C170.884 159.577 170.635 157.731 170.635 156.081V150.937C170.635 149.287 170.884 145.892 170.884 145.892L170.209 145.297H168.149C167.438 145.297 164.884 145.166 164.884 145.166L164.705 146.915L167.403 147.441C167.403 147.441 167.758 149.287 167.758 149.947V157.071C167.758 157.731 167.403 159.577 167.403 159.577L164.705 160.106L164.884 161.756C164.884 161.756 168.116 161.593 168.824 161.593C171.663 161.593 173.403 161.756 173.403 161.756L173.653 159.809ZM156.008 154.764C156.008 157.93 154.34 159.809 151.499 159.809C148.942 159.809 147.38 157.401 147.38 153.476C147.38 149.552 149.048 147.013 151.925 147.013C153.416 147.013 154.657 147.375 156.008 148.199V154.764ZM161.688 159.809L159.237 159.577C159.237 159.577 158.882 157.731 158.882 156.081V142.295C158.882 140.645 159.131 137.249 159.131 137.249L158.456 136.655H156.395C155.685 136.655 152.703 136.524 152.703 136.524L152.526 138.272L155.65 138.798C155.65 138.798 156.005 140.645 156.005 141.305V145.791C154.123 145.164 153.058 145 151.567 145C146.952 145 144.111 148.232 144.111 153.444C144.111 158.656 146.808 161.92 151.247 161.92C153.128 161.92 155.65 160.469 156.357 158.953L156.854 161.59C159.692 161.59 161.433 161.754 161.433 161.754L161.682 159.806L161.688 159.809ZM136.98 137.844C135.63 137.844 134.884 138.733 134.884 139.987C134.884 141.242 135.63 142.098 136.98 142.098C138.33 142.098 139.073 141.242 139.073 139.987C139.073 138.635 138.292 137.844 136.98 137.844ZM141.418 159.809L138.65 159.577C138.65 159.577 138.401 157.731 138.401 156.081V150.937C138.401 149.287 138.65 145.892 138.65 145.892L137.975 145.297H135.914C135.204 145.297 132.647 145.166 132.647 145.166L132.471 146.915L135.169 147.441C135.169 147.441 135.524 149.287 135.524 149.947V157.071C135.524 157.731 135.169 159.577 135.169 159.577L132.471 160.106L132.647 161.756C132.647 161.756 135.879 161.593 136.59 161.593C139.428 161.593 141.169 161.756 141.169 161.756L141.418 159.809ZM129.348 158.852C129.348 158.852 127.821 159.809 126.542 159.809C125.262 159.809 124.625 158.885 124.625 157.237V147.078H129.418L129.595 145.297H124.625V141.899L123.383 141.768C123.383 141.768 122.035 144.405 121.751 144.735C120.935 145.196 120.083 145.33 118.912 145.693L119.018 147.078H121.751V156.444C121.751 160.071 122.781 161.92 126.154 161.92C127.93 161.92 129.207 161.031 130.343 160.205L129.348 158.852ZM112.663 153.476C112.663 156.875 111.491 160.041 107.834 160.041C104.176 160.041 103.005 156.875 103.005 153.476C103.005 150.078 104.176 146.879 107.834 146.879C111.491 146.879 112.663 150.078 112.663 153.476ZM116 153.476C116 148.363 113.302 145 107.837 145C102.371 145 99.6702 148.431 99.6702 153.476C99.6702 158.522 102.438 161.92 107.837 161.92C113.235 161.92 116 158.489 116 153.476ZM87.9549 146.912L90.4763 147.438C90.4763 147.438 90.8315 149.285 90.8315 149.945V154.66C90.8315 157.297 89.2698 159.804 86.3579 159.804C83.7307 159.804 82.8441 157.99 82.8441 155.549V150.932C82.8441 149.282 83.0936 145.886 83.0936 145.886L82.4184 145.292H80.3606C79.6502 145.292 77.4487 145.161 77.4487 145.161L77.2725 146.909L79.615 147.435C79.615 147.435 79.9702 149.282 79.9702 149.942V154.428C79.9702 158.882 80.8215 161.915 85.7208 161.915C89.0231 161.915 90.5495 160.101 91.2219 159.013L91.6829 161.585C94.5216 161.585 96.2622 161.748 96.2622 161.748L96.5116 159.801L94.0606 159.569C94.0606 159.569 93.7055 157.723 93.7055 156.073V150.929C93.7055 149.279 93.9549 145.884 93.9549 145.884L93.2798 145.289H91.2192C90.5089 145.289 88.1311 145.158 88.1311 145.158L87.9521 146.906L87.9549 146.912ZM54.5141 149.98C54.5141 144.209 57.0708 139.592 62.3605 139.592C67.6502 139.592 70.2069 144.209 70.2069 149.98C70.2069 155.751 67.6502 160.335 62.3605 160.335C57.0708 160.335 54.5141 155.718 54.5141 149.98ZM72.9751 168.978L75.0682 165.943C75.0682 165.943 70.028 163.93 69.4586 163.567L66.3705 161.555C71.4459 160.104 74.0027 155.751 74.0027 149.977C74.0027 142.788 70.0632 137.841 62.3578 137.841C54.6524 137.841 50.7129 142.788 50.7129 149.977C50.7129 157.166 54.6524 162.081 62.3578 162.081C62.8187 162.081 63.2444 162.048 63.6727 162.015L72.9751 168.975V168.978Z" fill="#2B9447"/>
</g>
</g>
<defs>
<clipPath id="clip0_816_437">
<rect width="300" height="300" fill="white"/>
</clipPath>
</defs>
</svg>
