<svg xmlns="http://www.w3.org/2000/svg" width="76.24" height="47" viewBox="0 0 76.24 47"><g id="riviste-online" transform="translate(-2803.802 -1250.771)"><path id="Path_609" data-name="Path 609" d="M2841.919,1296.771a8.422,8.422,0,0,0-5.457-2.02h-31.246c-.2,0-.414-.261-.414-.605v-41.777c0-.336.217-.6.414-.6h31.246a5.751,5.751,0,0,1,5.457,5.929v39.071Z" transform="translate(0 0)" fill="none" stroke="#133371" stroke-linecap="round" stroke-linejoin="round" stroke-width="2"></path><path id="Path_610" data-name="Path 610" d="M2836.1,1257.756a5.756,5.756,0,0,1,5.457-5.985h31.253c.19,0,.414.261.414.6v41.777c0,.344-.224.605-.414.605h-31.253a8.422,8.422,0,0,0-5.457,2.02v-39.015Z" transform="translate(5.823 0)" fill="none" stroke="#133371" stroke-linecap="round" stroke-linejoin="round" stroke-width="2"></path><line id="Line_648" data-name="Line 648" x2="25.493" transform="translate(2810.614 1278.466)" fill="none" stroke="#133371" stroke-linecap="round" stroke-linejoin="round" stroke-width="2"></line><line id="Line_649" data-name="Line 649" x2="9.839" transform="translate(2863.908 1265.552)" fill="none" stroke="#133371" stroke-linecap="round" stroke-linejoin="round" stroke-width="2"></line><line id="Line_650" data-name="Line 650" x2="9.319" transform="translate(2864.428 1270.948)" fill="none" stroke="#133371" stroke-linecap="round" stroke-linejoin="round" stroke-width="2"></line><line id="Line_651" data-name="Line 651" x2="25.493" transform="translate(2810.614 1285.983)" fill="none" stroke="#133371" stroke-linecap="round" stroke-linejoin="round" stroke-width="2"></line><line id="Line_652" data-name="Line 652" x2="25.493" transform="translate(2848.254 1285.983)" fill="none" stroke="#133371" stroke-linecap="round" stroke-linejoin="round" stroke-width="2"></line><rect id="Rectangle_725" data-name="Rectangle 725" width="25.493" height="12.914" transform="translate(2810.614 1258.034)" stroke-width="2" stroke="#133371" stroke-linecap="round" stroke-linejoin="round" fill="none"></rect><line id="Line_653" data-name="Line 653" x2="25.493" transform="translate(2848.254 1258.034)" fill="none" stroke="#133371" stroke-linecap="round" stroke-linejoin="round" stroke-width="2"></line><rect id="Rectangle_726" data-name="Rectangle 726" width="11.064" height="14.529" transform="translate(2848.254 1265.552)" stroke-width="1.955" stroke="#133371" stroke-linecap="round" stroke-linejoin="round" fill="none"></rect></g></svg>