<svg width="164" height="42" viewBox="0 0 164 42" fill="none" xmlns="http://www.w3.org/2000/svg">
<g clip-path="url(#clip0_885_263)">
<path d="M46.96 16.9102V33.9202H8.70996V8.39015L46.96 8.41016V-0.0798492L0.209961 -0.0898438V42.4002H55.46V16.9102H46.96Z" fill="#133371"/>
<path d="M36.2801 16.9102H19.3301V25.4102H36.2801V16.9102Z" fill="#009FDC"/>
<path d="M75.79 35.8201V7.39014H91.88V11.2201H80.35V19.2901H90.96V23.0801H80.35V31.9901H92.28V35.8201H75.79Z" fill="#133371"/>
<path d="M108.92 36.5897C104.81 36.5897 101.42 35.2197 98.7197 33.1597L100.94 29.4897C102.96 31.0597 105.98 32.6397 109 32.6397C112.43 32.6397 114.65 31.0697 114.65 28.6097C114.65 25.4997 111.95 24.4097 107.83 23.0097C103.19 21.3897 99.6897 19.7797 99.6897 14.5797C99.6897 9.69969 103.72 6.67969 110.01 6.67969C113.84 6.67969 116.9 8.04969 119.29 9.73969L117.03 13.2897C115.38 11.9597 112.72 10.5497 109.85 10.5497C107.07 10.5497 104.41 11.6397 104.41 14.3397C104.41 16.8797 106.59 17.6497 110.22 18.8997C114.45 20.3497 119.37 22.2497 119.37 28.2897C119.37 33.9997 114.81 36.6297 108.92 36.5897Z" fill="#133371"/>
<path d="M138.03 36.5899C130.45 36.5899 125.21 31.1499 125.21 21.5899C125.21 10.6599 131.66 6.66992 138.56 6.66992C142.67 6.66992 145.38 8.31992 147.19 9.88992L144.73 13.2799C143.04 11.7099 140.94 10.6199 138.56 10.6199C134.25 10.6199 129.93 12.7599 129.93 21.5899C129.93 29.7399 134.04 32.7599 138.24 32.7599C140.22 32.7599 142.23 32.1499 143.48 31.3099V24.7399H137.95V21.0299H147.91V33.0499C145.41 35.0899 142.23 36.5899 138.03 36.5899Z" fill="#133371"/>
</g>
<defs>
<clipPath id="clip0_885_263">
<rect width="164" height="42" fill="white"/>
</clipPath>
</defs>
</svg>
