<svg width="786" height="54" viewBox="0 0 786 54" fill="none" xmlns="http://www.w3.org/2000/svg">
<path d="M283.518 29.0682H275.114V42.2944H270V13.1969H286.764V17.6056H275.114V24.6595H283.518V29.0682Z" fill="#3C4049"/>
<path d="M298.116 21.353C299.925 21.353 301.481 21.6616 302.785 22.2788C304.09 22.8667 305.157 23.6749 305.987 24.7036C306.847 25.7029 307.469 26.8639 307.855 28.1865C308.27 29.4797 308.477 30.8464 308.477 32.2866C308.477 33.7268 308.27 35.0935 307.855 36.3867C307.469 37.6505 306.847 38.7674 305.987 39.7373C305.157 40.6778 304.09 41.4273 302.785 41.9858C301.511 42.5442 299.999 42.8234 298.25 42.8234C296.441 42.8234 294.885 42.5295 293.581 41.9417C292.276 41.3538 291.194 40.575 290.335 39.6051C289.475 38.6057 288.837 37.4595 288.422 36.1663C288.007 34.873 287.8 33.5063 287.8 32.0662C287.8 30.626 288.007 29.2593 288.422 27.9661C288.837 26.6728 289.46 25.5413 290.29 24.5714C291.15 23.5721 292.232 22.7932 293.536 22.2347C294.841 21.6469 296.367 21.353 298.116 21.353ZM298.205 39.1642C299.065 39.1642 299.806 38.9878 300.429 38.6351C301.081 38.253 301.614 37.7534 302.03 37.1362C302.445 36.4896 302.741 35.7548 302.919 34.9318C303.126 34.1089 303.23 33.2418 303.23 32.3307C303.23 31.3902 303.126 30.4937 302.919 29.6414C302.711 28.7596 302.385 27.9955 301.941 27.3488C301.526 26.6728 300.992 26.1438 300.34 25.7617C299.688 25.3502 298.902 25.1445 297.983 25.1445C297.123 25.1445 296.382 25.3355 295.76 25.7176C295.137 26.0703 294.618 26.5553 294.203 27.1725C293.818 27.7897 293.521 28.5098 293.314 29.3328C293.136 30.1557 293.047 31.0228 293.047 31.9339C293.047 32.8744 293.136 33.7856 293.314 34.6673C293.521 35.5197 293.833 36.2838 294.248 36.9598C294.692 37.6358 295.241 38.1796 295.893 38.5911C296.545 38.9731 297.316 39.1642 298.205 39.1642Z" fill="#3C4049"/>
<path d="M325.101 26.423C324.804 26.1879 324.345 25.9968 323.722 25.8499C323.1 25.7029 322.566 25.6294 322.121 25.6294C321.528 25.6294 321.039 25.7764 320.654 26.0703C320.268 26.3348 319.927 26.7022 319.631 27.1725C319.335 27.6134 319.083 28.1277 318.875 28.7155C318.668 29.3034 318.475 29.9059 318.297 30.5231V42.2944H313.406V22.0143H317.23L317.452 26.2467H317.63C317.926 25.6294 318.238 25.0269 318.564 24.4391C318.89 23.8513 319.26 23.3369 319.676 22.896C320.091 22.4258 320.565 22.0584 321.098 21.7939C321.662 21.5 322.314 21.353 323.055 21.353C324.241 21.353 325.353 21.7351 326.39 22.4993L325.101 26.423Z" fill="#3C4049"/>
<path d="M343.289 42.2944V28.8919C343.289 26.4818 342.325 25.2768 340.398 25.2768C339.924 25.2768 339.405 25.3649 338.842 25.5413C338.308 25.7176 337.775 25.9821 337.241 26.3348C336.737 26.6581 336.263 27.0696 335.818 27.5693C335.403 28.0689 335.107 28.6421 334.929 29.2887V42.2944H330.037V22.0143H333.862L334.084 25.0122H334.262C334.855 23.7778 335.789 22.8667 337.063 22.2788C338.368 21.6616 339.746 21.353 341.199 21.353C342.592 21.353 343.852 21.6322 344.979 22.1907C346.135 22.7197 346.994 23.6455 347.558 24.9681C348.151 23.7631 349.084 22.8667 350.359 22.2788C351.634 21.6616 352.998 21.353 354.45 21.353C355.399 21.353 356.288 21.4853 357.118 21.7498C357.978 21.9849 358.719 22.3817 359.342 22.9401C359.994 23.4986 360.498 24.2334 360.854 25.1445C361.239 26.0556 361.432 27.1725 361.432 28.4951V42.2944H356.54V28.8919C356.54 26.4818 355.577 25.2768 353.65 25.2768C353.175 25.2768 352.657 25.3649 352.093 25.5413C351.56 25.7176 351.026 25.9821 350.493 26.3348C349.989 26.6581 349.514 27.0696 349.07 27.5693C348.655 28.0689 348.358 28.6421 348.18 29.2887V42.2944H343.289Z" fill="#3C4049"/>
<path d="M379.617 42.2944L379.261 39.5169H379.084C378.283 40.5162 377.186 41.3245 375.793 41.9417C374.429 42.5295 373.036 42.8234 371.613 42.8234C369.745 42.8234 368.278 42.2944 367.211 41.2363C366.143 40.1488 365.61 38.7233 365.61 36.9598C365.61 35.7548 365.862 34.682 366.366 33.7415C366.899 32.7716 367.655 31.9633 368.634 31.3167C369.612 30.6407 370.783 30.1263 372.147 29.7736C373.51 29.4209 375.037 29.2446 376.727 29.2446H378.639V28.5833C378.639 27.437 378.268 26.5994 377.527 26.0703C376.756 25.5413 375.556 25.2768 373.925 25.2768C371.732 25.2768 369.775 25.7617 368.056 26.7316L367.122 23.0724C369.108 21.9261 371.509 21.353 374.325 21.353C377.29 21.353 379.543 21.9555 381.085 23.1606C381.796 23.719 382.374 24.4391 382.819 25.3208C383.293 26.2026 383.53 27.2607 383.53 28.4951V42.2944H379.617ZM373.525 38.8997C374.474 38.8997 375.422 38.6792 376.371 38.2384C377.32 37.7681 378.076 37.1509 378.639 36.3867V32.3748H377.794C375.363 32.3748 373.584 32.6834 372.458 33.3006C371.361 33.9178 370.813 34.9024 370.813 36.2544C370.813 38.0179 371.717 38.8997 373.525 38.8997Z" fill="#3C4049"/>
<path d="M397.581 25.9381H388.687V22.0143H402.65V25.9381L393.045 38.3706H403.095V42.2944H388.243V38.3706L397.581 25.9381Z" fill="#3C4049"/>
<path d="M412.921 42.2944H408.029V22.0143H412.921V42.2944ZM407.318 15.4894C407.318 15.0779 407.392 14.6812 407.54 14.2991C407.718 13.917 407.955 13.579 408.252 13.2851C408.548 12.9618 408.874 12.7119 409.23 12.5356C409.615 12.3592 410.031 12.2711 410.475 12.2711C410.89 12.2711 411.29 12.3592 411.676 12.5356C412.061 12.7119 412.402 12.9618 412.699 13.2851C413.025 13.579 413.277 13.917 413.455 14.2991C413.632 14.6812 413.721 15.0779 413.721 15.4894C413.721 15.9303 413.632 16.3418 413.455 16.7239C413.277 17.0766 413.025 17.3999 412.699 17.6938C412.402 17.9877 412.061 18.2228 411.676 18.3992C411.29 18.5461 410.89 18.6196 410.475 18.6196C409.615 18.6196 408.874 18.311 408.252 17.6938C407.629 17.0766 407.318 16.3418 407.318 15.4894Z" fill="#3C4049"/>
<path d="M428.175 21.353C429.984 21.353 431.54 21.6616 432.844 22.2788C434.149 22.8667 435.216 23.6749 436.046 24.7036C436.906 25.7029 437.528 26.8639 437.914 28.1865C438.329 29.4797 438.536 30.8464 438.536 32.2866C438.536 33.7268 438.329 35.0935 437.914 36.3867C437.528 37.6505 436.906 38.7674 436.046 39.7373C435.216 40.6778 434.149 41.4273 432.844 41.9858C431.57 42.5442 430.058 42.8234 428.309 42.8234C426.5 42.8234 424.944 42.5295 423.64 41.9417C422.335 41.3538 421.253 40.575 420.394 39.6051C419.534 38.6057 418.896 37.4595 418.481 36.1663C418.066 34.873 417.859 33.5063 417.859 32.0662C417.859 30.626 418.066 29.2593 418.481 27.9661C418.896 26.6728 419.519 25.5413 420.349 24.5714C421.209 23.5721 422.291 22.7932 423.595 22.2347C424.9 21.6469 426.426 21.353 428.175 21.353ZM428.264 39.1642C429.124 39.1642 429.865 38.9878 430.488 38.6351C431.14 38.253 431.673 37.7534 432.089 37.1362C432.504 36.4896 432.8 35.7548 432.978 34.9318C433.185 34.1089 433.289 33.2418 433.289 32.3307C433.289 31.3902 433.185 30.4937 432.978 29.6414C432.77 28.7596 432.444 27.9955 432 27.3488C431.585 26.6728 431.051 26.1438 430.399 25.7617C429.747 25.3502 428.961 25.1445 428.042 25.1445C427.182 25.1445 426.441 25.3355 425.819 25.7176C425.196 26.0703 424.677 26.5553 424.262 27.1725C423.877 27.7897 423.58 28.5098 423.373 29.3328C423.195 30.1557 423.106 31.0228 423.106 31.9339C423.106 32.8744 423.195 33.7856 423.373 34.6673C423.58 35.5197 423.892 36.2838 424.307 36.9598C424.751 37.6358 425.3 38.1796 425.952 38.5911C426.604 38.9731 427.375 39.1642 428.264 39.1642Z" fill="#3C4049"/>
<path d="M457.161 42.2944V28.8919C457.161 26.4818 456.123 25.2768 454.048 25.2768C453.544 25.2768 452.995 25.3649 452.403 25.5413C451.839 25.7176 451.291 25.9821 450.757 26.3348C450.224 26.6581 449.735 27.0696 449.29 27.5693C448.875 28.0689 448.564 28.6421 448.356 29.2887V42.2944H443.465V22.0143H447.289L447.511 25.0122H447.689C448.312 23.7778 449.275 22.8667 450.579 22.2788C451.913 21.6616 453.336 21.353 454.848 21.353C455.827 21.353 456.746 21.4853 457.605 21.7498C458.465 21.9849 459.221 22.3817 459.873 22.9401C460.555 23.4986 461.089 24.2334 461.474 25.1445C461.859 26.0556 462.052 27.1725 462.052 28.4951V42.2944H457.161Z" fill="#3C4049"/>
<path d="M477.076 21.353C479.685 21.353 481.701 22.0143 483.124 23.3369C484.547 24.6301 485.259 26.4671 485.259 28.8478C485.259 29.1711 485.229 29.5238 485.17 29.9059C485.14 30.2586 485.081 30.6113 484.992 30.964C484.932 31.3167 484.844 31.64 484.725 31.9339C484.636 32.1984 484.532 32.4189 484.414 32.5952H471.474C471.533 33.4769 471.696 34.3146 471.963 35.1082C472.23 35.8723 472.615 36.5483 473.119 37.1362C473.623 37.6946 474.231 38.1502 474.942 38.5029C475.683 38.8262 476.543 38.9878 477.521 38.9878C478.618 38.9878 479.774 38.7821 480.99 38.3706C482.235 37.9591 483.287 37.4448 484.147 36.8276L484.947 40.4427C484.562 40.6778 484.088 40.9424 483.524 41.2363C482.961 41.5008 482.324 41.7506 481.612 41.9858C480.901 42.2209 480.13 42.4119 479.3 42.5589C478.499 42.7352 477.655 42.8234 476.765 42.8234C475.105 42.8234 473.638 42.5442 472.363 41.9858C471.088 41.3979 470.021 40.6191 469.161 39.6491C468.302 38.6498 467.649 37.5036 467.205 36.2103C466.76 34.9171 466.538 33.5651 466.538 32.1543C466.538 30.7142 466.76 29.3475 467.205 28.0542C467.679 26.7316 468.361 25.5707 469.25 24.5714C470.14 23.5721 471.236 22.7932 472.541 22.2347C473.875 21.6469 475.387 21.353 477.076 21.353ZM476.943 25.1445C475.698 25.1445 474.631 25.5119 473.741 26.2467C472.882 26.9521 472.259 27.922 471.874 29.1564H480.367C480.397 29.0682 480.412 28.9654 480.412 28.8478C480.441 28.7302 480.456 28.5833 480.456 28.4069C480.456 27.4664 480.13 26.6875 479.478 26.0703C478.826 25.4531 477.981 25.1445 476.943 25.1445Z" fill="#3C4049"/>
<path d="M509.983 31.3608C509.479 31.3608 508.975 31.3608 508.471 31.3608C507.996 31.3608 507.537 31.3461 507.092 31.3167V42.2944H501.978V13.1969C502.423 13.1675 502.927 13.1381 503.49 13.1087C504.083 13.0793 504.691 13.0646 505.313 13.0646C505.966 13.0352 506.603 13.0205 507.226 13.0205C507.878 12.9911 508.485 12.9765 509.049 12.9765C510.709 12.9765 512.221 13.1822 513.584 13.5937C514.948 13.9758 516.119 14.5636 517.097 15.3572C518.076 16.1507 518.832 17.1353 519.365 18.311C519.899 19.4573 520.166 20.7946 520.166 22.3229C520.166 23.5574 519.958 24.7183 519.543 25.8058C519.128 26.8933 518.505 27.8485 517.675 28.6715C516.845 29.4944 515.778 30.1557 514.474 30.6554C513.199 31.1256 511.702 31.3608 509.983 31.3608ZM509.76 17.2088C509.286 17.2088 508.826 17.2088 508.382 17.2088C507.937 17.2088 507.507 17.2235 507.092 17.2529V27.0843C507.507 27.1137 507.937 27.1284 508.382 27.1284C508.856 27.1284 509.345 27.1284 509.849 27.1284C511.45 27.1284 512.651 26.6875 513.451 25.8058C514.281 24.9241 514.696 23.6455 514.696 21.9702C514.696 20.5594 514.326 19.4132 513.584 18.5314C512.873 17.6497 511.598 17.2088 509.76 17.2088Z" fill="#3C4049"/>
<path d="M536.191 26.423C535.895 26.1879 535.435 25.9968 534.813 25.8499C534.19 25.7029 533.657 25.6294 533.212 25.6294C532.619 25.6294 532.13 25.7764 531.745 26.0703C531.359 26.3348 531.018 26.7022 530.722 27.1725C530.425 27.6134 530.173 28.1277 529.966 28.7155C529.758 29.3034 529.566 29.9059 529.388 30.5231V42.2944H524.496V22.0143H528.321L528.543 26.2467H528.721C529.017 25.6294 529.328 25.0269 529.655 24.4391C529.981 23.8513 530.351 23.3369 530.766 22.896C531.181 22.4258 531.656 22.0584 532.189 21.7939C532.752 21.5 533.405 21.353 534.146 21.353C535.332 21.353 536.443 21.7351 537.481 22.4993L536.191 26.423Z" fill="#3C4049"/>
<path d="M549.853 21.353C551.662 21.353 553.218 21.6616 554.522 22.2788C555.827 22.8667 556.894 23.6749 557.724 24.7036C558.584 25.7029 559.206 26.8639 559.592 28.1865C560.007 29.4797 560.214 30.8464 560.214 32.2866C560.214 33.7268 560.007 35.0935 559.592 36.3867C559.206 37.6505 558.584 38.7674 557.724 39.7373C556.894 40.6778 555.827 41.4273 554.522 41.9858C553.248 42.5442 551.736 42.8234 549.987 42.8234C548.178 42.8234 546.622 42.5295 545.318 41.9417C544.013 41.3538 542.931 40.575 542.071 39.6051C541.212 38.6057 540.574 37.4595 540.159 36.1663C539.744 34.873 539.537 33.5063 539.537 32.0662C539.537 30.626 539.744 29.2593 540.159 27.9661C540.574 26.6728 541.197 25.5413 542.027 24.5714C542.887 23.5721 543.969 22.7932 545.273 22.2347C546.578 21.6469 548.104 21.353 549.853 21.353ZM549.942 39.1642C550.802 39.1642 551.543 38.9878 552.166 38.6351C552.818 38.253 553.351 37.7534 553.766 37.1362C554.181 36.4896 554.478 35.7548 554.656 34.9318C554.863 34.1089 554.967 33.2418 554.967 32.3307C554.967 31.3902 554.863 30.4937 554.656 29.6414C554.448 28.7596 554.122 27.9955 553.677 27.3488C553.262 26.6728 552.729 26.1438 552.077 25.7617C551.424 25.3502 550.639 25.1445 549.72 25.1445C548.86 25.1445 548.119 25.3355 547.496 25.7176C546.874 26.0703 546.355 26.5553 545.94 27.1725C545.555 27.7897 545.258 28.5098 545.051 29.3328C544.873 30.1557 544.784 31.0228 544.784 31.9339C544.784 32.8744 544.873 33.7856 545.051 34.6673C545.258 35.5197 545.57 36.2838 545.985 36.9598C546.429 37.6358 546.978 38.1796 547.63 38.5911C548.282 38.9731 549.053 39.1642 549.942 39.1642Z" fill="#3C4049"/>
<path d="M580.928 27.0402C580.602 26.8051 580.187 26.57 579.683 26.3348C579.209 26.0997 578.69 25.894 578.127 25.7176C577.564 25.5413 576.971 25.409 576.348 25.3208C575.755 25.2033 575.192 25.1445 574.659 25.1445C573.651 25.1445 572.791 25.3355 572.079 25.7176C571.398 26.0703 570.834 26.5553 570.39 27.1725C569.975 27.7603 569.663 28.451 569.456 29.2446C569.278 30.0382 569.189 30.8611 569.189 31.7135C569.189 32.7128 569.308 33.6533 569.545 34.535C569.782 35.3874 570.138 36.1369 570.612 36.7835C571.086 37.4301 571.679 37.9444 572.391 38.3265C573.132 38.7086 573.977 38.8997 574.925 38.8997C575.993 38.8997 577.119 38.6939 578.305 38.2824C579.52 37.8416 580.528 37.239 581.329 36.4749L582.218 40.6191C581.388 41.1481 580.247 41.6478 578.794 42.118C577.371 42.5883 575.844 42.8234 574.214 42.8234C572.494 42.8234 570.983 42.5295 569.678 41.9417C568.403 41.3538 567.336 40.575 566.476 39.6051C565.646 38.6057 565.009 37.4595 564.564 36.1663C564.149 34.8437 563.942 33.4476 563.942 31.978C563.942 30.5672 564.135 29.2299 564.52 27.9661C564.935 26.6728 565.572 25.5413 566.432 24.5714C567.292 23.5721 568.389 22.7932 569.723 22.2347C571.057 21.6469 572.657 21.353 574.525 21.353C575.948 21.353 577.341 21.5147 578.705 21.838C580.069 22.1613 581.166 22.5874 581.996 23.1165L580.928 27.0402Z" fill="#3C4049"/>
<path d="M595.888 21.353C598.497 21.353 600.513 22.0143 601.936 23.3369C603.359 24.6301 604.07 26.4671 604.07 28.8478C604.07 29.1711 604.041 29.5238 603.981 29.9059C603.952 30.2586 603.893 30.6113 603.804 30.964C603.744 31.3167 603.655 31.64 603.537 31.9339C603.448 32.1984 603.344 32.4189 603.226 32.5952H590.285C590.345 33.4769 590.508 34.3146 590.775 35.1082C591.041 35.8723 591.427 36.5483 591.931 37.1362C592.435 37.6946 593.042 38.1502 593.754 38.5029C594.495 38.8262 595.355 38.9878 596.333 38.9878C597.43 38.9878 598.586 38.7821 599.802 38.3706C601.047 37.9591 602.099 37.4448 602.959 36.8276L603.759 40.4427C603.374 40.6778 602.899 40.9424 602.336 41.2363C601.773 41.5008 601.136 41.7506 600.424 41.9858C599.713 42.2209 598.942 42.4119 598.112 42.5589C597.311 42.7352 596.466 42.8234 595.577 42.8234C593.917 42.8234 592.45 42.5442 591.175 41.9858C589.9 41.3979 588.833 40.6191 587.973 39.6491C587.113 38.6498 586.461 37.5036 586.017 36.2103C585.572 34.9171 585.35 33.5651 585.35 32.1543C585.35 30.7142 585.572 29.3475 586.017 28.0542C586.491 26.7316 587.173 25.5707 588.062 24.5714C588.951 23.5721 590.048 22.7932 591.353 22.2347C592.687 21.6469 594.199 21.353 595.888 21.353ZM595.755 25.1445C594.51 25.1445 593.443 25.5119 592.553 26.2467C591.694 26.9521 591.071 27.922 590.686 29.1564H599.179C599.209 29.0682 599.223 28.9654 599.223 28.8478C599.253 28.7302 599.268 28.5833 599.268 28.4069C599.268 27.4664 598.942 26.6875 598.29 26.0703C597.637 25.4531 596.792 25.1445 595.755 25.1445Z" fill="#3C4049"/>
<path d="M615.271 24.9681C614.293 24.9681 613.522 25.1592 612.959 25.5413C612.425 25.894 612.158 26.4083 612.158 27.0843C612.158 27.5252 612.306 27.9367 612.603 28.3188C612.929 28.6715 613.596 28.9654 614.604 29.2005L617.761 29.9059C619.006 30.1704 619.999 30.5525 620.741 31.0522C621.511 31.5518 622.104 32.0956 622.519 32.6834C622.964 33.2712 623.26 33.8737 623.409 34.491C623.557 35.1082 623.631 35.6813 623.631 36.2103C623.631 37.1509 623.438 38.0326 623.053 38.8556C622.667 39.6491 622.119 40.3398 621.408 40.9277C620.696 41.5155 619.836 41.9711 618.828 42.2944C617.82 42.6471 616.694 42.8234 615.449 42.8234C613.878 42.8234 612.425 42.603 611.091 42.1621C609.757 41.6918 608.69 41.1775 607.889 40.6191L609.046 36.4308C610.053 37.4007 611.18 38.1208 612.425 38.5911C613.7 39.0613 614.871 39.2964 615.938 39.2964C617.065 39.2964 617.924 39.0613 618.517 38.5911C619.11 38.0914 619.406 37.4154 619.406 36.563C619.406 36.0634 619.258 35.6519 618.962 35.3286C618.665 34.9759 618.072 34.682 617.183 34.4469L612.914 33.3888C611.906 33.1536 611.076 32.8156 610.424 32.3748C609.801 31.9339 609.298 31.4489 608.912 30.9199C608.556 30.3615 608.304 29.7883 608.156 29.2005C608.038 28.6127 607.978 28.0542 607.978 27.5252C607.978 25.556 608.675 24.0423 610.068 22.9842C611.462 21.8967 613.27 21.353 615.493 21.353C616.65 21.353 617.895 21.5147 619.229 21.838C620.563 22.1319 621.689 22.5727 622.608 23.1606L621.319 27.1284C620.726 26.6581 619.896 26.1879 618.828 25.7176C617.761 25.218 616.575 24.9681 615.271 24.9681Z" fill="#3C4049"/>
<path d="M634.508 24.9681C633.53 24.9681 632.759 25.1592 632.196 25.5413C631.663 25.894 631.396 26.4083 631.396 27.0843C631.396 27.5252 631.544 27.9367 631.84 28.3188C632.166 28.6715 632.834 28.9654 633.841 29.2005L636.999 29.9059C638.244 30.1704 639.237 30.5525 639.978 31.0522C640.749 31.5518 641.342 32.0956 641.757 32.6834C642.201 33.2712 642.498 33.8737 642.646 34.491C642.794 35.1082 642.868 35.6813 642.868 36.2103C642.868 37.1509 642.676 38.0326 642.29 38.8556C641.905 39.6491 641.356 40.3398 640.645 40.9277C639.934 41.5155 639.074 41.9711 638.066 42.2944C637.058 42.6471 635.931 42.8234 634.686 42.8234C633.115 42.8234 631.663 42.603 630.328 42.1621C628.994 41.6918 627.927 41.1775 627.127 40.6191L628.283 36.4308C629.291 37.4007 630.417 38.1208 631.663 38.5911C632.937 39.0613 634.108 39.2964 635.175 39.2964C636.302 39.2964 637.162 39.0613 637.755 38.5911C638.347 38.0914 638.644 37.4154 638.644 36.563C638.644 36.0634 638.496 35.6519 638.199 35.3286C637.903 34.9759 637.31 34.682 636.421 34.4469L632.152 33.3888C631.144 33.1536 630.314 32.8156 629.661 32.3748C629.039 31.9339 628.535 31.4489 628.15 30.9199C627.794 30.3615 627.542 29.7883 627.394 29.2005C627.275 28.6127 627.216 28.0542 627.216 27.5252C627.216 25.556 627.912 24.0423 629.306 22.9842C630.699 21.8967 632.507 21.353 634.731 21.353C635.887 21.353 637.132 21.5147 638.466 21.838C639.8 22.1319 640.927 22.5727 641.846 23.1606L640.556 27.1284C639.963 26.6581 639.133 26.1879 638.066 25.7176C636.999 25.218 635.813 24.9681 634.508 24.9681Z" fill="#3C4049"/>
<path d="M656.636 21.353C658.445 21.353 660.001 21.6616 661.305 22.2788C662.61 22.8667 663.677 23.6749 664.507 24.7036C665.367 25.7029 665.989 26.8639 666.375 28.1865C666.79 29.4797 666.997 30.8464 666.997 32.2866C666.997 33.7268 666.79 35.0935 666.375 36.3867C665.989 37.6505 665.367 38.7674 664.507 39.7373C663.677 40.6778 662.61 41.4273 661.305 41.9858C660.031 42.5442 658.519 42.8234 656.77 42.8234C654.961 42.8234 653.405 42.5295 652.101 41.9417C650.796 41.3538 649.714 40.575 648.854 39.6051C647.995 38.6057 647.357 37.4595 646.942 36.1663C646.527 34.873 646.32 33.5063 646.32 32.0662C646.32 30.626 646.527 29.2593 646.942 27.9661C647.357 26.6728 647.98 25.5413 648.81 24.5714C649.67 23.5721 650.752 22.7932 652.056 22.2347C653.361 21.6469 654.887 21.353 656.636 21.353ZM656.725 39.1642C657.585 39.1642 658.326 38.9878 658.949 38.6351C659.601 38.253 660.134 37.7534 660.549 37.1362C660.964 36.4896 661.261 35.7548 661.439 34.9318C661.646 34.1089 661.75 33.2418 661.75 32.3307C661.75 31.3902 661.646 30.4937 661.439 29.6414C661.231 28.7596 660.905 27.9955 660.461 27.3488C660.045 26.6728 659.512 26.1438 658.86 25.7617C658.208 25.3502 657.422 25.1445 656.503 25.1445C655.643 25.1445 654.902 25.3355 654.28 25.7176C653.657 26.0703 653.138 26.5553 652.723 27.1725C652.338 27.7897 652.041 28.5098 651.834 29.3328C651.656 30.1557 651.567 31.0228 651.567 31.9339C651.567 32.8744 651.656 33.7856 651.834 34.6673C652.041 35.5197 652.353 36.2838 652.768 36.9598C653.212 37.6358 653.761 38.1796 654.413 38.5911C655.065 38.9731 655.836 39.1642 656.725 39.1642Z" fill="#3C4049"/>
<path d="M704.303 19.4573C703.354 18.8106 702.213 18.2963 700.879 17.9142C699.575 17.5027 698.078 17.297 696.388 17.297C694.787 17.297 693.409 17.5468 692.252 18.0465C691.126 18.5461 690.207 19.2515 689.495 20.1626C688.784 21.0738 688.25 22.176 687.895 23.4692C687.568 24.733 687.405 26.1438 687.405 27.7015C687.405 31.2579 688.161 33.9472 689.673 35.7695C691.215 37.5917 693.423 38.5029 696.299 38.5029C698.078 38.5029 699.693 38.2384 701.146 37.7093C702.628 37.1803 703.844 36.5337 704.792 35.7695L706.126 40.1341C704.94 40.8395 703.503 41.4714 701.813 42.0298C700.153 42.5589 698.27 42.8234 696.166 42.8234C693.735 42.8234 691.63 42.4266 689.851 41.6331C688.072 40.8395 686.59 39.7667 685.404 38.4147C684.248 37.0627 683.389 35.505 682.825 33.7415C682.262 31.9486 681.98 30.0529 681.98 28.0542C681.98 25.9674 682.292 24.0129 682.914 22.1907C683.537 20.3684 684.456 18.7813 685.671 17.4292C686.916 16.0479 688.443 14.9604 690.251 14.1668C692.089 13.3732 694.224 12.9765 696.655 12.9765C698.256 12.9765 699.856 13.1528 701.457 13.5055C703.058 13.8288 704.437 14.2844 705.593 14.8722L704.303 19.4573Z" fill="#3C4049"/>
<path d="M715.639 42.2944H710.748V22.0143H715.639V42.2944ZM710.036 15.4894C710.036 15.0779 710.11 14.6812 710.259 14.2991C710.436 13.917 710.674 13.579 710.97 13.2851C711.267 12.9618 711.593 12.7119 711.948 12.5356C712.334 12.3592 712.749 12.2711 713.193 12.2711C713.608 12.2711 714.009 12.3592 714.394 12.5356C714.78 12.7119 715.12 12.9618 715.417 13.2851C715.743 13.579 715.995 13.917 716.173 14.2991C716.351 14.6812 716.44 15.0779 716.44 15.4894C716.44 15.9303 716.351 16.3418 716.173 16.7239C715.995 17.0766 715.743 17.3999 715.417 17.6938C715.12 17.9877 714.78 18.2228 714.394 18.3992C714.009 18.5461 713.608 18.6196 713.193 18.6196C712.334 18.6196 711.593 18.311 710.97 17.6938C710.348 17.0766 710.036 16.3418 710.036 15.4894Z" fill="#3C4049"/>
<path d="M733.25 42.2944H727.336L719.154 22.0143H724.268L730.449 38.2824L736.897 22.0143H741.699L733.25 42.2944Z" fill="#3C4049"/>
<path d="M749.989 42.2944H745.097V22.0143H749.989V42.2944ZM744.386 15.4894C744.386 15.0779 744.46 14.6812 744.608 14.2991C744.786 13.917 745.023 13.579 745.32 13.2851C745.616 12.9618 745.942 12.7119 746.298 12.5356C746.683 12.3592 747.098 12.2711 747.543 12.2711C747.958 12.2711 748.358 12.3592 748.744 12.5356C749.129 12.7119 749.47 12.9618 749.766 13.2851C750.092 13.579 750.344 13.917 750.522 14.2991C750.7 14.6812 750.789 15.0779 750.789 15.4894C750.789 15.9303 750.7 16.3418 750.522 16.7239C750.344 17.0766 750.092 17.3999 749.766 17.6938C749.47 17.9877 749.129 18.2228 748.744 18.3992C748.358 18.5461 747.958 18.6196 747.543 18.6196C746.683 18.6196 745.942 18.311 745.32 17.6938C744.697 17.0766 744.386 16.3418 744.386 15.4894Z" fill="#3C4049"/>
<path d="M761.286 42.2944H756.394V9.66992H761.286V42.2944Z" fill="#3C4049"/>
<path d="M776.972 21.353C779.581 21.353 781.597 22.0143 783.02 23.3369C784.443 24.6301 785.154 26.4671 785.154 28.8478C785.154 29.1711 785.125 29.5238 785.065 29.9059C785.036 30.2586 784.976 30.6113 784.887 30.964C784.828 31.3167 784.739 31.64 784.621 31.9339C784.532 32.1984 784.428 32.4189 784.309 32.5952H771.369C771.429 33.4769 771.592 34.3146 771.858 35.1082C772.125 35.8723 772.511 36.5483 773.015 37.1362C773.519 37.6946 774.126 38.1502 774.838 38.5029C775.579 38.8262 776.439 38.9878 777.417 38.9878C778.514 38.9878 779.67 38.7821 780.885 38.3706C782.13 37.9591 783.183 37.4448 784.043 36.8276L784.843 40.4427C784.458 40.6778 783.983 40.9424 783.42 41.2363C782.857 41.5008 782.219 41.7506 781.508 41.9858C780.796 42.2209 780.026 42.4119 779.196 42.5589C778.395 42.7352 777.55 42.8234 776.661 42.8234C775.001 42.8234 773.533 42.5442 772.259 41.9858C770.984 41.3979 769.917 40.6191 769.057 39.6491C768.197 38.6498 767.545 37.5036 767.1 36.2103C766.656 34.9171 766.433 33.5651 766.433 32.1543C766.433 30.7142 766.656 29.3475 767.1 28.0542C767.575 26.7316 768.257 25.5707 769.146 24.5714C770.035 23.5721 771.132 22.7932 772.436 22.2347C773.771 21.6469 775.282 21.353 776.972 21.353ZM776.839 25.1445C775.594 25.1445 774.526 25.5119 773.637 26.2467C772.777 26.9521 772.155 27.922 771.769 29.1564H780.263C780.292 29.0682 780.307 28.9654 780.307 28.8478C780.337 28.7302 780.352 28.5833 780.352 28.4069C780.352 27.4664 780.026 26.6875 779.373 26.0703C778.721 25.4531 777.876 25.1445 776.839 25.1445Z" fill="#3C4049"/>
<path d="M243.625 0L243.625 54" stroke="#515967" stroke-width="0.878539"/>
<path d="M47.9828 17.3504V34.7172H8.72598V8.65789L47.9828 8.67417V0.0144529L0 0V43.3769H56.7051V17.3504H47.9828Z" fill="#133371"/>
<path d="M37.0278 26.027H19.629V17.3509H37.0278V26.027Z" fill="#A53535"/>
<path d="M100.169 38.8384L96.9827 33.9431C94.5288 36.0994 91.2911 37.7311 87.7604 37.7311C80.8749 37.7311 76.2088 31.3789 76.2088 21.6465C76.2088 11.3823 80.5379 5.90418 88.0461 5.90418C91.2911 5.90418 94.0234 7.24457 96.6384 9.75051L100.11 4.7969C97.4881 2.46579 93.8476 0.192957 88.0461 0.192957C76.326 0.192957 69.4991 8.75979 69.4991 21.7047C69.4991 35.5166 76.8901 43.4424 87.7604 43.4424C93.3934 43.4424 97.261 41.3444 100.169 38.8384Z" fill="#A53535"/>
<path d="M112.171 42.3326V0.365317H105.856V42.3326H112.171Z" fill="#A53535"/>
<path d="M126.907 6.77587V0.365317H120.139V6.77587H126.907ZM126.68 42.3326V13.1864H120.366V42.3326H126.68Z" fill="#A53535"/>
<path d="M159.225 29.8609C159.225 19.6623 155.987 12.3703 146.596 12.3703C139.652 12.3703 133.455 16.9816 133.455 27.9961C133.455 38.3112 140.106 43.1483 147.907 43.1483C152.171 43.1483 155.474 41.7496 158.602 39.0688L155.643 34.8146C153.482 36.6794 151.145 37.9616 147.732 37.9616C144.377 37.9616 140.45 35.9801 139.828 29.8609H159.225ZM153.028 25.3153H139.879C140.282 19.7206 142.787 17.2147 146.538 17.2147C150.918 17.2147 152.969 20.1868 153.028 25.3153Z" fill="#A53535"/>
<path d="M189.668 42.3322V25.8396C189.668 16.4569 186.935 12.3701 179.596 12.3701C175.669 12.3701 172.769 14.4754 171.062 16.9231L170.439 13.186H165.488C165.546 14.184 165.773 17.4476 165.773 18.4383V42.3322H172.088V21.6436C173.509 19.6622 175.501 17.6807 178.065 17.6807C182.387 17.6807 183.353 20.7112 183.353 25.4317V42.3322H189.668Z" fill="#A53535"/>
<path d="M217.496 34.5232C217.496 27.9961 212.83 26.0147 209.189 25.0239C204.86 23.8001 202.758 23.0425 202.758 20.5365C202.758 18.7299 204.01 17.5061 207.255 17.5061C208.962 17.5061 212.031 18.1472 214.478 20.0703L217.151 15.5829C213.965 13.2445 211.123 12.4286 207.079 12.4286C200.707 12.4286 196.268 15.6412 196.268 21.0028C196.268 26.7723 201.051 28.9868 205.431 30.1524C209.358 31.2014 211.006 32.1921 211.006 34.7563C211.006 36.6212 209.526 38.0199 206.34 38.0199C203.27 38.0199 200.421 36.6212 197.974 34.8146L195.074 39.4185C198.092 41.4583 201.219 43.09 206.567 43.09C211.973 43.09 217.496 40.5841 217.496 34.5232Z" fill="#A53535"/>
</svg>
