<svg width="217" height="43" viewBox="0 0 217 43" fill="none" xmlns="http://www.w3.org/2000/svg">
<g clip-path="url(#clip0_804_263)">
<path d="M47.9828 17.3504V34.7172H8.72598V8.65789L47.9828 8.67417V0.0144529L0 0V43.3769H56.7051V17.3504H47.9828Z" fill="#133371"/>
<path d="M37.0277 26.0272H19.6289V17.3511H37.0277V26.0272Z" fill="#A53535"/>
<path d="M100.169 38.8383L96.9826 33.943C94.5287 36.0993 91.291 37.731 87.7603 37.731C80.8748 37.731 76.2087 31.3788 76.2087 21.6464C76.2087 11.3822 80.5378 5.90409 88.046 5.90409C91.291 5.90409 94.0233 7.24448 96.6383 9.75042L100.11 4.79681C97.488 2.4657 93.8475 0.192871 88.046 0.192871C76.3259 0.192871 69.499 8.7597 69.499 21.7046C69.499 35.5165 76.89 43.4423 87.7603 43.4423C93.3933 43.4423 97.2609 41.3443 100.169 38.8383Z" fill="#A53535"/>
<path d="M112.171 42.3325V0.365234H105.856V42.3325H112.171Z" fill="#A53535"/>
<path d="M126.907 6.77579V0.365234H120.139V6.77579H126.907ZM126.68 42.3325V13.1863H120.366V42.3325H126.68Z" fill="#A53535"/>
<path d="M159.225 29.8607C159.225 19.6621 155.987 12.3701 146.596 12.3701C139.652 12.3701 133.455 16.9814 133.455 27.9959C133.455 38.311 140.106 43.1481 147.907 43.1481C152.171 43.1481 155.474 41.7494 158.602 39.0686L155.643 34.8144C153.482 36.6792 151.145 37.9614 147.732 37.9614C144.377 37.9614 140.45 35.9799 139.828 29.8607H159.225ZM153.028 25.3151H139.879C140.282 19.7204 142.787 17.2145 146.538 17.2145C150.918 17.2145 152.969 20.1866 153.028 25.3151Z" fill="#A53535"/>
<path d="M189.668 42.3322V25.8396C189.668 16.4569 186.935 12.3701 179.596 12.3701C175.669 12.3701 172.769 14.4754 171.062 16.9231L170.439 13.186H165.488C165.546 14.184 165.773 17.4476 165.773 18.4383V42.3322H172.088V21.6436C173.509 19.6622 175.501 17.6807 178.065 17.6807C182.387 17.6807 183.353 20.7112 183.353 25.4317V42.3322H189.668Z" fill="#A53535"/>
<path d="M217.496 34.5233C217.496 27.9962 212.83 26.0148 209.189 25.024C204.86 23.8002 202.758 23.0426 202.758 20.5366C202.758 18.73 204.01 17.5062 207.255 17.5062C208.962 17.5062 212.031 18.1473 214.478 20.0704L217.151 15.583C213.965 13.2446 211.123 12.4287 207.079 12.4287C200.707 12.4287 196.268 15.6413 196.268 21.0029C196.268 26.7724 201.051 28.9869 205.431 30.1525C209.358 31.2015 211.006 32.1922 211.006 34.7564C211.006 36.6213 209.526 38.02 206.34 38.02C203.27 38.02 200.421 36.6213 197.974 34.8147L195.074 39.4186C198.092 41.4584 201.219 43.0901 206.567 43.0901C211.973 43.0901 217.496 40.5842 217.496 34.5233Z" fill="#A53535"/>
</g>
<defs>
<clipPath id="clip0_804_263">
<rect width="217" height="43" fill="white"/>
</clipPath>
</defs>
</svg>
