<svg version="0.0" viewBox="0 0 1000 1000" xmlns="http://www.w3.org/2000/svg">
 <style/>
 <path d="m209.75 91.863c-13.666 0-26.771 5.4602-36.435 15.124-9.6634 9.6638-15.055 22.768-15.055 36.435v29.835h-94.386c-15.761 0.0195-30.858 6.3165-42.003 17.461-11.145 11.144-17.443 26.242-17.461 42.003v615.95c0.01756 15.761 6.3161 30.86 17.461 42.003 11.145 11.143 26.242 17.44 42.003 17.461h870.31c15.761-0.021 30.86-6.3175 42.003-17.461 11.147-11.143 17.371-26.242 17.392-42.003v-615.95c-0.0211-15.761-6.2454-30.858-17.392-42.003-11.143-11.144-26.242-17.442-42.003-17.461h-94.386v-29.835c0-13.666-5.4587-26.771-15.124-36.435-9.6616-9.6634-22.767-15.124-36.434-15.124-13.667 0-26.77 5.4602-36.435 15.124-9.6652 9.6638-15.055 22.768-15.055 36.435v29.835h-475.44v-29.835c0-13.666-5.4601-26.771-15.124-36.435-9.6638-9.6634-22.768-15.124-36.435-15.124zm0 33.066c4.8885 9e-3 9.6046 1.9746 13.061 5.4309 3.4564 3.4564 5.3528 8.1728 5.3623 13.061v42.759c-0.28159 1.2002-0.75674 2.3371-0.75674 3.575 0 1.2248 0.48925 2.3864 0.75674 3.5746v42.828c0.10561 2.492-0.28159 5.0209-1.1685 7.3555-0.87994 2.3336-2.1928 4.4542-3.9182 6.2559-1.7247 1.8021-3.8242 3.2135-6.1184 4.1934-2.2948 0.97848-4.7235 1.5135-7.2182 1.5135-2.4955 0-4.9931-0.53149-7.2869-1.5135-2.2948-0.97851-4.3247-2.3899-6.0497-4.1934-1.7247-1.8021-3.1079-3.9213-3.9872-6.2559-0.87992-2.3336-1.2777-4.8636-1.1685-7.3555v-92.737c9e-3 -4.8949 1.9675-9.6036 5.4309-13.061 3.4634-3.4564 8.1668-5.4309 13.061-5.4309zm578.49 0c4.8889 9e-3 9.605 1.9746 13.061 5.4309 3.4564 3.4564 5.4204 8.1728 5.431 13.061v42.622c-0.28159 1.253-0.75675 2.4849-0.75675 3.7809 0 1.2847 0.46108 2.4673 0.75675 3.7122v42.622c-0.2112 4.7565-2.2667 9.2878-5.7058 12.58-3.4388 3.2909-8.0243 5.087-12.786 5.087-4.7622 0-9.348-1.7951-12.787-5.087-3.4423-3.291-5.4292-7.8237-5.6368-12.58v-92.737c8e-3 -4.8949 1.8971-9.6036 5.3619-13.061 3.4669-3.4564 8.1658-5.4309 13.062-5.4309zm-724.36 81.394h94.386v29.904c0.0195 13.661 5.3954 26.706 15.055 36.366 9.6595 9.6595 22.774 15.105 36.435 15.124 13.667-0.0195 26.774-5.4566 36.435-15.124 9.6602-9.6669 15.114-22.768 15.124-36.434v-29.835h475.44v29.904c0.0175 13.661 5.4654 26.706 15.124 36.366 9.6581 9.6595 22.706 15.105 36.366 15.124 13.667-0.0195 26.773-5.4566 36.434-15.124 9.6616-9.6669 15.113-22.768 15.124-36.434v-29.835h94.386c7.0008 0 13.678 2.8158 18.63 7.768 4.9487 4.9505 7.768 11.628 7.768 18.63v140.86h-923.1v-140.86c0.0093-6.9986 2.8193-13.682 7.768-18.63 4.9487-4.9487 11.632-7.7589 18.63-7.768zm-26.398 200.32h923.1v442.03c-9e-3 6.9937-2.8193 13.688-7.768 18.63-4.9487 4.9452-11.636 7.768-18.63 7.768h-870.31c-6.9951 0-13.68-2.8228-18.63-7.768-4.9494-4.9417-7.7589-11.636-7.768-18.63z"/>
</svg>
