<svg version="0.0" viewBox="0 0 1e3 1e3" xmlns="http://www.w3.org/2000/svg">
 <path d="m153.31 4.3596c-38.061-0.0029287-76.124 14.525-105.16 43.562-58.085 58.074-58.118 152.25-0.045058 210.33 0.23205 0.24782 0.58801 0.29513 0.83583 0.52718 1.3472 1.2684 2.8833 2.2928 4.5763 3.0362 1.8023 0.70741 3.7418 1.0994 5.6762 1.1445 0.20276 0 0.35821 0.13518 0.57224 0.13518 2.1515-7e-3 4.2979-0.4641 6.2924-1.2752 2.0209-0.83132 3.8678-2.0163 5.4121-3.5643l81.844-81.799 31.637 31.637c-161.05 174.1-150.51 445.78 23.585 606.83 14.883 13.765 30.758 26.446 47.434 37.974l-114.36 114.36c-6.5614 6.3374-6.7342 16.758-0.39651 23.321 6.3361 6.5604 16.804 6.7799 23.365 0.43931 0.13518-0.13517 0.26359-0.30414 0.39651-0.43931l119.51-119.51c133.25 77.741 298.06 77.741 431.31 0l119.51 119.51c6.5627 6.3374 17.025 6.1646 23.365-0.39651 6.182-6.4005 6.182-16.525 0-22.925l-114.36-114.36c195.09-134.96 243.86-402.5 108.9-597.59-11.494-16.615-24.172-32.379-37.886-47.214l31.681-31.637 81.8 81.799c1.5455 1.5478 3.3915 2.7747 5.4124 3.6082 1.9938 0.80879 4.0967 1.2233 6.2482 1.2323 0.22529 0 0.41679-0.13518 0.61505-0.13518 1.9352-0.0451 3.8741-0.43481 5.6764-1.1445 1.6942-0.74346 3.2311-1.7685 4.5761-3.0362 0.24782-0.22979 0.56323-0.27936 0.79302-0.52718 57.767-58.185 57.724-152.14 0-210.37-58.188-57.779-152.1-57.779-210.29 0-1.5477 1.5545-2.7812 3.4249-3.608 5.4563-0.72318 1.8158-1.0679 3.7231-1.0994 5.6764-0.0451 0.18023-0.11264 0.38299-0.13517 0.57224 2e-3 2.1583 0.40552 4.2976 1.2323 6.2921 0.81555 2.0254 2.0592 3.8743 3.608 5.4124l81.8 81.8-31.637 31.593c-79.241-73.246-183.16-113.9-291.07-113.92-0.27936-0.09012-0.51141-0.26359-0.79077-0.26359-0.28161 0-0.46635 0.18023-0.74796 0.18023-107.92 0.04506-211.89 40.764-291.12 114.05l-31.638-31.637 81.844-81.8c1.5477-1.5387 2.7488-3.387 3.5643-5.4124 0.82456-1.9938 1.2729-4.1327 1.2751-6.2921 0-0.20276-0.11265-0.37398-0.13518-0.57224 0.0158-3.8115-1.4756-7.4792-4.1361-10.209-0.24782-0.28161-0.30865-0.61504-0.57223-0.88088-29.038-29.041-67.104-43.559-105.16-43.562zm687.97 33.134c37.069-1.8316 74.355 14.188 98.3 46.114 30.829 41.11 30.829 97.631 0 138.74l-161.84-161.88c19.155-14.367 41.297-21.871 63.539-22.969zm-687.71 0.22529c24.244 0 48.475 7.5939 68.951 22.793l-161.84 161.84c-38.087-51.307-27.37-123.75 23.937-161.84 20.475-15.199 44.707-22.793 68.951-22.793zm330.06 66.531v81.888c0 9.122 7.3787 16.501 16.501 16.501 9.1197 0 16.545-7.3789 16.545-16.501v-81.888c99.026 3.7222 192.98 44.59 263.22 114.49 0.2298 0.26584 0.32442 0.63307 0.57224 0.88089s0.56998 0.29513 0.83582 0.52718c69.876 70.257 110.78 164.25 114.54 263.26h-81.888c-9.1197 0-16.501 7.4226-16.501 16.545 0 9.1197 7.3812 16.501 16.501 16.501h82.152c-8.8291 205.81-173.62 370.64-379.43 379.47v-82.196c0-9.122-7.4249-16.501-16.545-16.501-9.122 0-16.501 7.3789-16.501 16.501v82.196c-205.8-8.8291-370.64-173.67-379.47-379.47h82.152c9.122 0 16.545-7.381 16.545-16.501 0-9.122-7.4229-16.545-16.545-16.545h-81.844c3.7513-99.017 44.613-193.01 114.49-263.26 0.26359-0.23205 0.58801-0.27936 0.83583-0.52718s0.34019-0.61505 0.57224-0.88089c70.241-69.901 164.24-110.77 263.26-114.49zm257.54 238.93c-2.0997 0.25233-4.2073 0.96425-6.1603 2.0682l-187.84 108.47c-25.368-25.996-66.98-26.512-92.976-1.1445-0.38299 0.37623-0.76824 0.76148-1.1445 1.1445l-102.04-58.919c-7.8694-4.6117-17.959-1.9735-22.573 5.8963-4.6117 7.8716-1.9758 18.005 5.8963 22.617 0.0676 0.0451 0.11264 0.0451 0.18023 0.0901l102.17 59.007c-10.248 35.019 9.863 71.73 44.882 81.976 35.019 10.248 71.683-9.863 81.932-44.882 3.5438-12.116 3.5438-24.978 0-37.094l188.02-108.55c7.8716-4.6117 10.508-14.747 5.8963-22.617-3.43-5.8447-9.8992-8.8181-16.237-8.0523zm-241.04 123.73c18.244 0 33.045 14.799 33.045 33.046 0 18.244-14.804 33.001-33.045 33.001-18.246 0-33.046-14.757-33.046-33.001 0-18.246 14.799-33.046 33.046-33.046z" stroke-width="22.529"/>
</svg>
