<svg version="0.0" viewBox="0 0 1000 1000" xmlns="http://www.w3.org/2000/svg">
 <style/>
 <path d="m601.63 993.1c-7.2832 0-14.498-1.4379-21.227-4.224-6.7329-2.7862-12.843-6.8698-17.993-12.024-5.1499-5.1499-9.2331-11.264-12.019-17.993-2.7862-6.7286-4.2283-13.944-4.2283-21.231v-329.17c0-7.2833 1.4421-14.494 4.2283-21.226 2.7862-6.729 6.8694-12.843 12.019-17.993 5.1499-5.1503 11.26-9.2374 17.993-12.028 6.7286-2.7862 13.944-4.224 21.227-4.224h329.27c14.707 0 28.813 5.8497 39.215 16.252 10.403 10.402 16.252 24.508 16.252 39.219v329.17c0 14.711-5.8492 28.821-16.252 39.223-10.402 10.402-24.508 16.248-39.215 16.248zm0-397.06c-1.6469-9e-3 -3.2683 0.29867-4.7915 0.93442-1.5232 0.6272-2.9056 1.5488-4.0747 2.7094-1.1648 1.1605-2.0864 2.543-2.7179 4.0619-0.63146 1.5189-0.95573 3.1488-0.95573 4.7915v329.09c0.0855 3.2939 1.4208 6.4299 3.7504 8.7553 2.3254 2.3296 5.4571 3.6736 8.7467 3.7504h329.18c3.3024-0.0218 6.4555-1.3483 8.7809-3.6907 2.3254-2.3424 3.6352-5.5126 3.6352-8.815v-329.09c0-3.3067-1.3099-6.4768-3.6438-8.8235-2.3339-2.3424-5.504-3.6651-8.815-3.6736zm-532.52 397.06c-14.711 0-28.817-5.8454-39.219-16.248-10.402-10.402-16.251-24.512-16.251-39.223v-329.17c0-14.712 5.8484-28.817 16.251-39.219 10.402-10.402 24.508-16.252 39.219-16.252h329.26c14.711 0 28.817 5.8497 39.219 16.252 10.403 10.402 16.248 24.507 16.248 39.219v329.17c0 14.711-5.845 28.821-16.248 39.223-10.402 10.402-24.508 16.248-39.219 16.248zm0-397.06c-3.3152 0-6.499 1.3142-8.8436 3.6608-2.3467 2.3424-3.6566 5.5211-3.6566 8.8364v329.09c0 3.311 1.3099 6.4854 3.648 8.8278 2.3339 2.3467 5.5045 3.6694 8.8129 3.6779h329.22c3.3024-0.0218 6.4546-1.3483 8.7813-3.6907 2.3254-2.3424 3.6267-5.5126 3.6267-8.815v-329.09c0-3.3067-1.3099-6.4768-3.6437-8.8235-2.3339-2.3424-5.5045-3.6651-8.8124-3.6736h-329.09zm532.52-149.04c-7.2832 0-14.498-1.4294-21.227-4.2198-6.7329-2.7862-12.843-6.8736-17.993-12.024-5.1499-5.1499-9.2331-11.268-12.019-17.997-2.7862-6.7282-4.2283-13.939-4.2283-21.222v-329.18c0-7.2845 1.4421-14.495 4.2283-21.225 2.7862-6.7294 6.8694-12.844 12.019-17.995 5.1499-5.1508 11.26-9.2387 17.993-12.026 6.7286-2.7862 13.944-4.2198 21.227-4.2198h329.27c14.707 0 28.813 5.8432 39.215 16.245 10.403 10.402 16.252 24.508 16.252 39.219v329.18c0 14.712-5.8492 28.817-16.252 39.22-10.402 10.402-24.508 16.243-39.215 16.243zm0-397.06c-1.6469-0.0056-3.2683 0.29867-4.7915 0.94294-1.5232 0.6272-2.9056 1.5445-4.0747 2.7094-1.1648 1.1605-2.0864 2.5387-2.7179 4.0576-0.63146 1.5189-0.95573 3.1531-0.95573 4.7966v329.09c-9e-3 1.6469 0.29866 3.2768 0.94719 4.8005 0.62722 1.5232 1.5488 2.9099 2.7179 4.0747 1.1563 1.1648 2.5344 2.0779 4.0534 2.7008 1.5147 0.62296 3.1403 0.93868 4.7787 0.92588h329.18c3.2982-0.013 6.4555-1.3355 8.7809-3.6694 2.3296-2.3339 3.6352-5.4955 3.6352-8.7894v-329.09c0-3.3067-1.3099-6.4798-3.6438-8.8231-2.3339-2.3424-5.504-3.6651-8.815-3.6779h-329.09zm-532.52 397.06c-14.711 0-28.817-5.8411-39.219-16.243-10.402-10.402-16.251-24.508-16.251-39.219v-329.18c0-14.711 5.8484-28.818 16.251-39.22 10.402-10.402 24.508-16.245 39.219-16.245h329.26c14.711 0 28.817 5.8428 39.219 16.245 10.403 10.402 16.248 24.508 16.248 39.22v329.18c0 14.711-5.845 28.817-16.248 39.219-10.402 10.402-24.508 16.243-39.219 16.243zm0-397.06c-1.6427-0.0056-3.2726 0.29867-4.7915 0.94294-1.519 0.6272-2.9014 1.5445-4.0619 2.7094-1.1605 1.1605-2.0822 2.543-2.7094 4.0619-0.6272 1.5189-0.94295 3.1488-0.93867 4.7915v329.09c0 3.3067 1.3099 6.4811 3.648 8.8235 2.3339 2.3424 5.5045 3.6651 8.8129 3.6779h329.22c3.2982-0.0131 6.4542-1.3355 8.7813-3.6694 2.3296-2.3339 3.6267-5.4955 3.6267-8.7894v-329.09c0-3.3067-1.3099-6.4798-3.6438-8.8231-2.3339-2.3424-5.5044-3.6651-8.8124-3.6779h-329.09z"/>
</svg>
