<svg version="0.0" viewBox="0 0 1000 1000" xmlns="http://www.w3.org/2000/svg">
 <style/>
 <path d="m665.37 870.41h-50.223c-19.35 0-37.911-7.6874-51.592-21.37-13.683-13.683-21.37-32.242-21.37-51.594v-364.43c0-19.35 7.6874-37.906 21.37-51.589 13.681-13.683 32.242-21.37 51.592-21.37h50.223c19.352 0 37.911 7.6874 51.594 21.37s21.37 32.239 21.37 51.589v364.43c0 19.352-7.6874 37.911-21.37 51.594-13.683 13.683-32.242 21.37-51.594 21.37zm-40.628-41.068h31.051c11.003 0 21.556-4.3716 29.338-12.152 7.7801-7.7801 12.15-18.335 12.15-29.338v-345.26c0-11.005-4.3699-21.558-12.15-29.339-7.7818-7.7801-18.335-12.155-29.338-12.155h-31.051c-11.001 5e-3 -21.549 4.38-29.326 12.16-7.7768 7.7801-12.147 18.333-12.147 29.334v345.26c-5e-3 11.001 4.3615 21.554 12.135 29.338 7.7734 7.7835 18.321 12.158 29.321 12.167zm-236.09 41.068h-48.743c-19.35 0-37.906-7.6874-51.589-21.37-13.683-13.683-21.37-32.242-21.37-51.594v-364.43c0-19.35 7.6874-37.906 21.37-51.589s32.239-21.37 51.589-21.37h48.743c19.352 0 37.907 7.6874 51.59 21.37 13.683 13.683 21.37 32.239 21.37 51.589v364.43c0 19.352-7.6874 37.911-21.37 51.594-13.683 13.683-32.239 21.37-51.59 21.37zm-39.162-41.068h29.581c11.005 0 21.558-4.3716 29.338-12.152 7.7818-7.7801 12.152-18.335 12.152-29.338v-345.26c0-11.005-4.3699-21.558-12.152-29.339-7.7801-7.7801-18.333-12.155-29.338-12.155h-29.581c-11 5e-3 -21.553 4.38-29.329 12.16-7.7768 7.7801-12.143 18.333-12.143 29.334v345.26c-2e-3 5.4476 1.0676 10.843 3.1505 15.877s5.1373 9.6101 8.9894 13.464c3.8504 3.8555 8.4227 6.9149 13.455 9.0012 5.0327 2.088 10.43 3.1606 15.877 3.1623zm538.45 167.01h-775.58c-20.005-5e-3 -39.191-7.9572-53.335-22.104-14.144-14.147-22.087-33.333-22.087-53.339v-15.329c0-20.006 7.9425-39.192 22.087-53.339 14.144-14.147 33.33-22.096 53.335-22.099h24.673v-428.22h-96.335c-6.6323 2e-3 -13.095-2.0896-18.467-5.9772-5.3729-3.8892-9.3796-9.3756-11.451-15.677-2.0715-6.301-2.1036-13.093-0.08647-19.411 2.0172-6.3179 5.9801-11.835 11.319-15.769l454.8-335.26c5.3852-3.9898 11.907-6.1489 18.608-6.164 6.7007-0.015162 13.229 2.1164 18.631 6.0817l463.81 338.39c5.5353 4.0275 9.6067 9.75 11.592 16.301 1.9851 6.5506 1.776 13.573-0.59367 19.996-2.3275 6.1054-6.4663 11.354-11.862 15.041-5.397 3.6868-11.792 5.6348-18.328 5.5842h-104.8v431.41h34.07c20.008 0 39.194 7.9471 53.343 22.094 14.149 14.149 22.096 33.337 22.096 53.344v9.0754c-0.0186 19.993-7.9741 39.16-22.116 53.294-14.142 14.132-33.313 22.074-53.307 22.079zm-771.05-41.07h766.51c10.318 0 20.217-4.1 27.513-11.398 7.2978-7.2961 11.394-17.195 11.394-27.513 2e-3 -5.112-1.0018-10.172-2.9566-14.894-1.9547-4.7224-4.8202-9.013-8.4328-12.629-3.6143-3.6143-7.9032-6.4798-12.626-8.4362-4.7207-1.9564-9.7821-2.965-14.892-2.965h-39.113c-4.1338 2e-3 -8.2271-0.81124-12.049-2.3916-3.8201-1.5803-7.291-3.896-10.216-6.8188-2.9245-2.9228-5.2435-6.3921-6.8272-10.212-1.582-3.8201-2.3949-7.9134-2.3949-12.049v-450.52c0-8.3519 3.3175-16.358 9.2221-22.264 5.9064-5.9047 13.912-9.2238 22.264-9.2238h85.629l-434.41-316.92-425.67 313.79h76.773c8.3482 0 16.355 3.3175 22.26 9.2188 5.9047 5.903 9.2221 13.904 9.2272 22.253v447.41c-5e-3 8.3468-3.3225 16.353-9.2272 22.254-5.905 5.9013-13.912 9.2154-22.26 9.2154h-29.733c-10.319 0-20.217 4.1017-27.514 11.398-7.2969 7.2961-11.397 17.195-11.397 27.513v6.2555c-0.0022 5.1103 1.002 10.175 2.9564 14.897 1.9544 4.7224 4.8237 9.013 8.4369 12.629 3.6133 3.6143 7.9029 6.4798 12.625 8.4362 4.7217 1.9564 9.7822 2.965 14.893 2.965z"/>
</svg>
