<svg version="0.0" viewBox="0 0 1000 1000" xmlns="http://www.w3.org/2000/svg">
 <style/>
 <path d="m499.74 925.3c-29.688-0.0752-58.555-9.7503-82.294-27.578-23.74-17.829-41.077-42.853-49.428-71.344h-125.14c-14.066-4e-3 -27.876-3.7707-39.994-10.913-12.119-7.1405-22.106-17.393-28.927-29.695-6.82-12.302-10.224-26.207-9.8596-40.269 0.36487-14.061 4.4861-27.767 11.935-39.699 45.133-72.925 67.077-135.27 67.077-190.58v-64.791c0.0973-50.804 15.255-100.44 43.558-142.63 28.303-42.19 68.478-75.042 115.45-94.401v-41.007c0-25.913 10.295-50.765 28.618-69.089 18.322-18.324 43.174-28.617 69.087-28.617 25.913 0 50.765 10.294 69.089 28.617 18.324 18.323 28.617 43.174 28.617 69.089v40.979c47.13 19.265 87.473 52.1 115.91 94.335 28.435 42.235 43.678 91.965 43.794 142.88v76.923c2.9674 52.674 24.868 111.14 66.7 178.23 7.4575 11.929 11.587 25.635 11.961 39.699 0.37201 14.065-3.0253 27.973-9.8415 40.281-6.8162 12.307-16.802 22.566-28.921 29.713-12.12 7.1463-25.93 10.92-40 10.927h-125.16c-7.2577 24.667-21.271 46.812-40.455 63.931-19.185 17.121-42.776 28.533-68.107 32.946-7.8165 1.3563-15.733 2.0453-23.667 2.0569zm-92.944-98.748c7.6601 18.414 20.601 34.143 37.19 45.21 16.59 11.068 36.086 16.973 56.028 16.973 19.942 0 39.438-5.9058 56.028-16.973 16.59-11.066 29.53-26.796 37.19-45.21zm-8.8152-36.533h204.1v-0.17659h155.06c7.5501-6e-3 14.96-2.0308 21.462-5.8667 6.5021-3.8359 11.859-9.3436 15.516-15.948 3.6549-6.6049 5.4759-14.067 5.2732-21.614-0.2012-7.5458-2.4202-14.902-6.4254-21.301-48.853-78.353-72.592-146.99-72.592-209.89v-29.545l0.34739 0.17371v-35.216c-0.15633-45.566-14.417-89.965-40.822-127.1-26.405-37.135-63.661-65.188-106.65-80.298l-12.231-4.3425v-66.583c0-16.218-6.4428-31.772-17.91-43.241-11.468-11.468-27.022-17.91-43.24-17.91-16.218 0-31.771 6.4422-43.24 17.91-11.467 11.468-17.91 27.023-17.91 43.241v66.498l-12.173 4.3439c-42.875 15.171-80.004 43.238-106.29 80.35-26.289 37.112-40.45 81.448-40.54 126.93v64.72c0 62.242-23.739 130.94-72.548 209.89-4.0042 6.4023-6.2223 13.757-6.4238 21.306-0.20149 7.5487 1.6209 15.013 5.2778 21.62 3.657 6.6078 9.0156 12.113 15.52 15.95 6.5036 3.8359 13.916 5.8638 21.466 5.8696h155.01z" stroke-width=".060153"/>
</svg>
