<svg version="0.0" viewBox="0 0 1e3 1e3" xmlns="http://www.w3.org/2000/svg">
 <path d="m144.85 57.705c-10.562-0.0033-20.736 4.1136-28.299 11.487-7.5633 7.3731-11.933 17.431-12.199 27.99a15.299 15.299 0 0 0-0.0317 0.40266v54.277h-73.133a15.299 15.299 0 0 0-15.326 15.326v759.81a15.299 15.299 0 0 0 15.326 15.295h937.66a15.299 15.299 0 0 0 15.295-15.295v-759.81a15.299 15.299 0 0 0-15.295-15.326h-73.473v-53.812c0-5.2995-1.0384-10.557-3.0653-15.45-2.021-4.8779-4.9942-9.3229-8.7313-13.066-3.7469-3.7476-8.2025-6.7352-13.097-8.7624-4.8961-2.029-10.152-3.0653-15.45-3.0653-210.13 0-309.76 46.467-355.04 78.551-45.317-32.666-145.25-78.551-355.14-78.551zm-0.0317 30.591a15.299 15.299 0 0 0 0.0317 0c207.38 0 301.7 45.861 339.78 73.752v738.08c-2.8089-2.4806-6.0134-5.2374-10.93-8.7313-11.706-8.3188-29.796-18.961-56.134-29.445-52.677-20.968-138.33-41.273-272.71-41.273-2.6238 0-5.138-1.0304-6.9974-2.8795-1.8606-1.8487-2.8939-4.3425-2.9105-6.9664v-712.94c0.0793-2.5632 1.135-4.989 2.9724-6.7806 1.8549-1.8083 4.314-2.8184 6.9046-2.8176zm710.21 0c1.2809 0 2.5678 0.25523 3.7465 0.74349 1.1842 0.48985 2.2539 1.2016 3.1582 2.1054 0.9036 0.90201 1.614 1.9718 2.1054 3.1582 0.48984 1.1842 0.74349 2.4675 0.74349 3.7465v68.643a15.298 15.298 0 0 0 0 0.4946v644.23c0 2.5895-1.0162 5.072-2.8486 6.9045-1.8326 1.8326-4.3149 2.8486-6.9046 2.8486-134.38 0-220.17 20.263-272.93 41.273-26.381 10.505-44.496 21.213-56.227 29.6-4.7666 3.4074-7.8185 6.0833-10.62 8.5766v-738.51c38.618-27.764 132.44-73.814 339.78-73.814zm-808.55 94.187h57.837v628.47a15.299 15.299 0 0 0 0 0.0951c0.0634 10.692 4.3671 20.918 11.951 28.454 7.5853 7.5397 17.887 11.797 28.578 11.797 131.31 0 213.03 19.816 261.41 39.074 19.486 7.7564 32.359 15.061 42.139 21.333h-401.92zm848.89 0h58.178v729.22h-402.01c9.7096-6.1109 23.32-13.411 41.892-20.807 48.456-19.295 130.29-39.136 261.6-39.136 10.695 0 20.985-4.2659 28.547-11.828 7.5619-7.5617 11.797-17.821 11.797-28.516zm-669.68 115.61c-11.14-0.14267-22.785-0.0793-34.987 0.2473a15.298 15.298 0 0 0-14.862 15.698 15.298 15.298 0 0 0 15.667 14.893c94.518-2.4955 153.51 10.326 188.28 23.16 17.386 6.417 28.736 12.827 35.544 17.401 6.8085 4.5733 8.267 6.4092 8.267 6.4092a15.298 15.298 0 0 0 21.612 1.0843 15.298 15.298 0 0 0 1.0526-21.612s-4.9853-5.3014-13.871-11.27c-8.8857-5.9687-22.465-13.497-42.016-20.714-34.214-12.629-86.708-24.3-164.69-25.296zm536.08 0c-77.98 0.99555-130.44 12.668-164.66 25.296-19.551 7.2163-33.13 14.745-42.016 20.714-8.8857 5.9688-13.871 11.27-13.871 11.27a15.298 15.298 0 0 0 1.0526 21.612 15.298 15.298 0 0 0 21.612-1.0843s1.4584-1.8359 8.2668-6.4092c6.8082-4.5732 18.159-10.984 35.545-17.401 34.771-12.834 93.763-25.655 188.28-23.16a15.298 15.298 0 0 0 15.667-14.893 15.298 15.298 0 0 0-14.862-15.698c-12.202-0.3218-23.878-0.38997-35.018-0.2473zm0 135.55c-77.973 0.98603-130.41 12.612-164.63 25.203-19.549 7.1949-33.13 14.7-42.016 20.652-8.8856 5.952-13.902 11.239-13.902 11.239a15.298 15.298 0 0 0 1.0526 21.612 15.298 15.298 0 0 0 21.612-1.0526s1.4584-1.8178 8.2668-6.3783c6.8084-4.5605 18.157-10.971 35.545-17.37 34.775-12.798 93.759-25.563 188.28-23.067a15.298 15.298 0 0 0 15.667-14.893 15.298 15.298 0 0 0-14.862-15.698c-12.201-0.32181-23.879-0.38839-35.018-0.2473zm-536.02 8.4217c-11.144-0.14267-22.808-0.0951-35.018 0.21718a15.298 15.298 0 0 0-14.893 15.698 15.298 15.298 0 0 0 15.667 14.893c94.612-2.418 153.56 10.32 188.31 23.098 34.752 12.778 44.303 24.271 44.462 24.429a15.298 15.298 0 0 0 21.642 0 15.298 15.298 0 0 0 0-21.642c-0.15852-0.15853-16.465-17.119-55.546-31.489-34.196-12.573-86.617-24.169-164.63-25.203zm535.99 114.16c-77.973 1.0447-130.42 12.688-164.63 25.296-19.548 7.2047-33.1 14.729-41.985 20.683-8.8844 5.9539-13.902 11.239-13.902 11.239a15.298 15.298 0 0 0 1.0526 21.612 15.298 15.298 0 0 0 21.612-1.0526s1.4569-1.8146 8.2668-6.3782c6.8095-4.5633 18.156-10.992 35.545-17.401 34.778-12.818 93.758-25.608 188.28-23.191a15.298 15.298 0 0 0 15.667-14.924 15.298 15.298 0 0 0-14.893-15.667c-12.201-0.31229-23.879-0.36619-35.018-0.21718zm-536.02 8.5146c-11.145-0.14268-22.808-0.0793-35.018 0.2473a15.298 15.298 0 0 0-14.862 15.698 15.298 15.298 0 0 0 15.698 14.893c94.607-2.4957 153.54 10.242 188.28 23.036 34.746 12.794 44.303 24.333 44.462 24.491a15.298 15.298 0 0 0 21.642 0 15.298 15.298 0 0 0 0-21.643c-0.15852-0.15852-16.459-17.157-55.546-31.55-34.202-12.594-86.641-24.193-164.66-25.172z" color="#000000" color-rendering="auto" dominant-baseline="auto" image-rendering="auto" shape-rendering="auto" solid-color="#000000" stop-color="#000000" style="font-feature-settings:normal;font-variant-alternates:normal;font-variant-caps:normal;font-variant-east-asian:normal;font-variant-ligatures:normal;font-variant-numeric:normal;font-variant-position:normal;font-variation-settings:normal;inline-size:0;isolation:auto;mix-blend-mode:normal;shape-margin:0;shape-padding:0;text-decoration-color:#000000;text-decoration-line:none;text-decoration-style:solid;text-indent:0;text-orientation:mixed;text-transform:none;white-space:normal"/>
</svg>
