<svg version="0.0" viewBox="0 0 1000 1000" xmlns="http://www.w3.org/2000/svg">
 <style/>
 <path d="m74.392 103.26c-18.216 0.0215-35.681 7.2681-48.562 20.149-12.881 12.881-20.126 30.344-20.147 48.56v485.54c0.021468 18.216 7.2662 35.681 20.147 48.562 12.881 12.881 30.346 20.127 48.562 20.149h301.19c-9.1396 27.486-29.096 55.622-55.514 64.586l-120.79 31.664c-9.6385-0.0541-18.921 3.6414-25.886 10.305-6.9656 6.6641-11.067 15.774-11.437 25.406-0.37045 9.6331 3.0188 19.032 9.4516 26.211s15.406 11.577 25.02 12.263c1.7468 0.11761 3.4979 0.11761 5.2447 0h596.52c0.77066 0.0673 1.5283 0.0659 2.2854 0.0659l0.014 0.03c9.5858-0.0109 18.797-3.7289 25.706-10.375 6.9088-6.6452 10.979-15.707 11.361-25.286 0.38262-9.5777-2.9539-18.932-9.3097-26.108-6.3572-7.1765-15.243-11.616-24.798-12.391-0.95994-0.12201-1.9334-0.12197-2.8933-0.12197l-120.82-31.664c-26.486-8.9233-46.427-37.072-55.526-64.572h301.57c18.183-0.0784 35.596-7.3471 48.436-20.221 12.841-12.874 20.066-30.305 20.097-48.488v-485.55c-0.0216-18.216-7.2663-35.679-20.147-48.56-12.881-12.881-30.345-20.127-48.562-20.149zm0 31.88h851.24c9.7413 7e-3 19.081 3.8799 25.97 10.767 6.8872 6.8874 10.758 16.227 10.765 25.968v485.54c-0.0135 9.7129-3.8686 19.026-10.723 25.908-6.8534 6.8818-16.149 10.775-25.862 10.829h-340.4l0.0102 0.066h-235.87v0.04h-275.14c-9.7393-0.0109-19.077-3.8822-25.964-10.769-6.8868-6.8872-10.761-16.225-10.771-25.964v-485.65c0.0072-9.7404 3.8799-19.08 10.767-25.968 6.8874-6.8874 16.227-10.76 25.968-10.767zm334.54 591.06h182.05c10.175 39.397 38.663 81.733 79.256 95.046l127.09 33.354 2.7053-0.21795c0.27445-0.0163 0.54933-0.0163 0.8238 0 0.67465 0.0541 1.3339 0.2436 1.9355 0.55186 0.603 0.30826 1.1382 0.73058 1.5776 1.2457 0.43805 0.51647 0.77155 1.112 0.97976 1.7556 0.20818 0.64491 0.28599 1.3228 0.23194 1.9975-0.0541 0.67465-0.23961 1.3325-0.54787 1.9355-0.30826 0.603-0.73257 1.1382-1.2477 1.5776-0.51647 0.43942-1.112 0.77156-1.7556 0.97977-0.64492 0.20818-1.3228 0.28599-1.9975 0.23194h-599.57l-0.63384 0.082c-0.27445 0.0216-0.55134 0.0216-0.82579 0-1.3628-0.10951-2.6256-0.7545-3.5111-1.7956-0.88692-1.041-1.3232-2.3902-1.2137-3.7531 0.10952-1.3628 0.75649-2.6262 1.7976-3.5131 1.041-0.88557 2.3902-1.3232 3.7531-1.2137l2.7033 0.21795 126.2-33.072 0.95976-0.28392c40.545-13.374 69.049-55.745 79.24-95.126z"/>
</svg>
