<svg version="0.0" viewBox="0 0 1000 1000" xmlns="http://www.w3.org/2000/svg">
 <style/>
 <g transform="matrix(16.018 0 0 16.018 41.381 28.041)" fill="none" stroke-width=".062428">
  <path d="m3.4339 60.241c-0.19825 1.06e-4 -0.39407-0.043884-0.57323-0.12879-0.17915-0.084907-0.33723-0.20882-0.46272-0.36231-0.1255-0.15349-0.21531-0.33295-0.26294-0.52534-0.047627-0.1925-0.051856-0.39316-0.012423-0.58746l2.6883-13.27c-0.070661-0.093282-0.13832-0.19059-0.20263-0.29172-2.7583-4.1182-4.4582-8.8532-4.9489-13.785-0.49073-4.9323 0.24301-9.9096 2.1358-14.491 1.4529-3.5115 3.569-6.71 6.2328-9.4204 2.6408-2.7027 5.7844-4.8633 9.2539-6.3601 3.561-1.5364 7.3981-2.3299 11.276-2.332h0.07123c6.8978 0.00865 13.564 2.4884 18.791 6.9897 2.8764 2.4757 5.2469 5.484 6.9813 8.8596 3.5997 6.9689 4.3291 15.07 2.0321 22.57-1.153 3.8129-3.0639 7.3538-5.6182 10.41-2.4457 2.9338-5.4449 5.3574-8.8267 7.1329-6.6658 3.5238-14.455 4.2695-21.668 2.0745l-16.615 3.4906c-0.089646 0.01823-0.18103 0.02724-0.27251 0.02661zm25.256-58.88h-0.06339c-3.5364-0.00462-7.0363 0.71696-10.282 2.12-3.1508 1.3587-6.0055 3.3201-8.4038 5.7739-2.424 2.4664-4.3497 5.3771-5.672 8.5726-1.7234 4.1735-2.3909 8.7074-1.9433 13.2 0.44764 4.4931 1.9965 8.8063 4.5095 12.558l0.00957 0.01399c0.086921 0.1325 0.19177 0.27338 0.30202 0.4239 0.060421 0.08162 0.12101 0.1642 0.18037 0.24688 0.10782 0.14957 0.18345 0.32002 0.22231 0.50022 0.03885 0.1802 0.039995 0.36645 0.00336 0.54708l-2.4019 11.857 14.965-3.1441c0.22525-0.04749 0.45888-0.03583 0.6783 0.03392 3.2775 1.0461 6.7309 1.4273 10.158 1.1205 3.4267-0.30666 6.7576-1.2949 9.7971-2.9065 3.0727-1.6128 5.7981-3.8147 8.0203-6.48 2.3231-2.7822 4.0609-6.0047 5.1094-9.4744 2.0937-6.8333 1.4293-14.215-1.8509-20.564-1.5778-3.0693-3.7338-5.8047-6.3495-8.056-4.7258-4.0703-10.75-6.3196-16.987-6.3422zm8.9052 28.951c1.083 0 1.961-0.87801 1.961-1.961 0-1.0831-0.87801-1.961-1.961-1.961s-1.961 0.87791-1.961 1.961c0 1.083 0.87801 1.961 1.961 1.961zm-8.5852 0c1.083 0 1.961-0.87801 1.961-1.961 0-1.0831-0.87801-1.961-1.961-1.961-1.0831 0-1.961 0.87791-1.961 1.961 0 1.083 0.8779 1.961 1.961 1.961zm-8.585-3.9221c0.38786 0 0.76703 0.11501 1.0895 0.33041 0.32246 0.2155 0.57379 0.52185 0.7223 0.88013 0.1484 0.35829 0.1872 0.75261 0.11151 1.1331-0.07558 0.38033-0.26236 0.72982-0.53669 1.004-0.27423 0.27423-0.62361 0.461-1.004 0.53669-0.38044 0.07569-0.77466 0.03689-1.1331-0.11162-0.35829-0.1484-0.66452-0.39973-0.88003-0.72219-0.2155-0.32256-0.33051-0.70162-0.33051-1.0895 0-0.52015 0.2066-1.0189 0.57432-1.3867 0.36783-0.36772 0.86656-0.57432 1.3867-0.57432z" fill="#000" stroke-width=".062428"/>
 </g>
</svg>
