<svg version="0.0" viewBox="0 0 1e3 1e3" xmlns="http://www.w3.org/2000/svg">
 <path d="m92.658 41.068c-46.319 0-84.639 38.322-84.639 84.639v581.34c0 0.35873 0.0205 0.72157 0.041 1.0803 2.4644 46.822 37.721 83.598 84.599 83.598h183.65v146.7c0 7.9229 4.5705 15.147 11.731 18.537 7.1604 3.3906 15.651 2.3377 21.78-2.6825l198.47-162.55h399.01c46.318 0 84.679-38.361 84.679-84.679v-581.34c0-46.319-38.364-84.639-84.679-84.639zm0 40.998h814.64c23.674 0 43.681 19.967 43.681 43.641v581.34c0 23.675-20.006 43.681-43.681 43.681h-406.34c-4.7353 0-9.3091 1.644-12.972 4.6443l-170.68 139.77v-123.92c0-11.322-9.1775-20.499-20.499-20.499h-204.15c-22.973 0-42.009-17.466-43.641-44.242v-580.78c0-23.676 19.967-43.641 43.64-43.641zm406.66 302.32c-18.255 0-33.031 14.816-33.031 33.071s14.776 33.071 33.031 33.071 33.071-14.816 33.071-33.071-14.816-33.071-33.071-33.071zm130.28 0c-18.254 0-33.071 14.816-33.071 33.071s14.816 33.071 33.071 33.071c18.255 0 33.031-14.816 33.031-33.071s-14.776-33.071-33.031-33.071zm-258.6 0.0411c-18.255 0-33.071 14.776-33.071 33.031 0 18.254 14.816 33.071 33.071 33.071s33.031-14.816 33.031-33.071c0-18.255-14.776-33.031-33.031-33.031z" stroke-width="20.499"/>
</svg>
