<svg version="0.0" viewBox="0 0 1000 1000" xmlns="http://www.w3.org/2000/svg">
 <style/>
 <path d="m499.39 991.21c-121.77-0.15002-239.14-45.521-329.34-127.31-90.206-81.793-146.82-194.17-158.85-315.35-12.035-121.17 21.365-242.49 93.72-340.43 72.356-97.938 178.51-165.51 297.87-189.61 119.36-24.1 243.41-3.0085 348.1 59.183 104.69 62.191 182.54 161.05 218.47 277.4 35.924 116.35 27.351 241.89-24.053 352.27-51.403 110.38-141.97 197.74-254.14 245.13-60.663 25.678-125.89 38.847-191.76 38.719zm0-944.82c-111.73 0.15-219.42 41.779-302.19 116.83-82.767 75.053-134.71 178.17-145.75 289.35-11.041 111.18 19.606 222.5 85.997 312.37 66.392 89.865 163.79 151.87 273.31 173.98 109.52 22.115 223.35 2.7602 319.41-54.303 96.057-57.063 167.5-147.77 200.46-254.53 32.963-106.76 25.101-221.95-22.061-323.23-47.164-101.29-130.27-181.45-233.19-224.93-55.681-23.542-115.54-35.608-175.99-35.471zm-122.14 218.79c33.12-24.135 72.836-37.55 113.81-38.45 19.376-0.26502 38.644 2.9235 56.901 9.4172 15.978 5.6536 30.657 14.454 43.169 25.885 11.884 11.156 21.131 24.823 27.068 40.004 6.4303 16.504 9.6288 34.09 9.4188 51.801 0.0999 15.169-2.7051 30.215-8.2504 44.334-5.792 14.499-12.882 28.447-21.184 41.669-8.6338 13.867-17.791 27.863-27.47 41.987-10.051 14.746-19.223 30.077-27.466 45.904-8.9121 17.184-16.143 35.189-21.586 53.766-6.007 21.183-8.9138 43.122-8.6321 65.137h-50.236c-0.69171-43.336 8.8555-86.225 27.868-125.17 7.6371-15.671 16.429-30.748 26.301-45.116 9.4222-13.612 18.184-26.826 26.285-39.639 7.8954-12.414 14.592-25.551 19.999-39.235 5.3736-14.156 8.0388-29.193 7.8521-44.334 0.4567-19.691-6.7104-38.799-20.003-53.335-7.9871-7.7838-17.546-13.772-28.035-17.563-10.489-3.7919-21.665-5.3003-32.783-4.4236-8.9772 0.0667-17.921 1.1217-26.67 3.1335-9.3438 2.0734-18.523 4.8269-27.466 8.2354-8.7671 3.3418-17.181 7.5454-25.118 12.549-7.077 4.3702-13.656 9.5005-19.618 15.301zm76.137 471.69c-0.13334-4.8753 0.7467-9.7238 2.5685-14.247 1.8201-4.5236 4.5486-8.6238 8.0154-12.052 3.3035-3.4119 7.2687-6.1153 11.654-7.9354 4.3869-1.8201 9.0972-2.7202 13.846-2.6485 9.8155-0.05 19.258 3.7485 26.301 10.584 3.6702 3.3118 6.587 7.3721 8.5521 11.911 1.9634 4.5369 2.9285 9.4455 2.8318 14.389 0.0166 4.8719-0.98672 9.6955-2.9485 14.156-1.9601 4.4619-4.8336 8.4621-8.4355 11.744-3.4318 3.4902-7.5254 6.2603-12.042 8.1471s-9.3638 2.8518-14.259 2.8402c-4.7819 0.05-9.5238-0.89171-13.916-2.7835-4.3936-1.8918-8.3388-4.6886-11.584-8.2038-3.4018-3.3935-6.0903-7.4337-7.9088-11.882-1.8168-4.4469-2.7268-9.2138-2.6751-14.017z" stroke-width=".060859"/>
</svg>
