<svg version="0.0" viewBox="0 0 1000 1000" xmlns="http://www.w3.org/2000/svg">
 <style/>
 <g transform="matrix(16.778 0 0 16.778 7.2796 -2.1959)" fill="none" stroke-width=".0596">
  <path d="m44.588 39.656c-0.2158-2e-4 -0.4279-0.0559-0.616-0.1619l-15.9-8.914v-17.23c0-0.3347 0.133-0.6557 0.3697-0.8923 0.2366-0.2367 0.5576-0.3697 0.8923-0.3697s0.6558 0.133 0.8924 0.3697c0.2367 0.2366 0.3697 0.5576 0.3697 0.8923v15.752l14.614 8.1909c0.2437 0.1365 0.4351 0.3501 0.5444 0.6071 0.1093 0.2571 0.1304 0.5431 0.0597 0.8133s-0.229 0.5093-0.4502 0.6799c-0.2211 0.1706-0.4926 0.263-0.772 0.2627zm-15.257 19.539c-7.2543-0.0087-14.247-2.7116-19.621-7.5842-5.3742-4.8727-8.747-11.568-9.4642-18.787-0.71721-7.2188 1.2724-14.447 5.5828-20.282 4.3104-5.8349 10.634-9.8607 17.745-11.297 7.1108-1.436 14.501-0.17975 20.738 3.5252 6.2369 3.7049 10.875 9.5942 13.016 16.526 2.1404 6.9314 1.6299 14.411-1.4323 20.987s-8.4579 11.781-15.14 14.604c-3.614 1.5299-7.4995 2.3147-11.424 2.3071zm0-56.171c-6.6264 0.00956-13.013 2.48-17.921 6.9319-4.9081 4.4519-7.9878 10.568-8.6417 17.162s1.1646 13.196 5.1028 18.525c3.9381 5.3291 9.7153 9.0056 16.211 10.316s13.246 0.1624 18.943-3.2224c5.6966-3.3849 9.9332-8.7649 11.888-15.096s1.4877-13.164-1.3099-19.17c-2.7975-6.0069-7.7263-10.761-13.83-13.339-3.3031-1.3977-6.8544-2.1148-10.441-2.1082z" fill="#000" stroke-width=".0596"/>
 </g>
</svg>
