<svg version="0.0" viewBox="0 0 1000 1000" xmlns="http://www.w3.org/2000/svg">
 <style/>
 <g fill="none" stroke-width=".064129">
  <path d="m594.39 990.18h-182.22v-117.94c-97.365-28.154-160.34-98.193-172.83-192.21-0.72887-5.3618-0.30344-10.816 1.2482-15.999 1.5516-5.1819 4.1938-9.9712 7.7489-14.05 3.5551-4.0776 7.9413-7.3482 12.864-9.5911 4.9227-2.2445 10.268-3.4113 15.678-3.4207h69.04c8.8456-0.0157 17.418 3.0672 24.217 8.7262 6.7992 5.6574 11.393 13.525 12.978 22.228 9.3846 52.272 49.849 78.784 120.11 78.784 25.448 0 108.5-5.318 108.5-73.732 0-64.128-61.422-89.262-127.8-106.78-102.18-26.996-238.03-80.724-238.03-235.02 0-95.755 63.691-173.77 166.33-203.9v-117.46h182.22v119.56c40.987 13.761 77.081 39.163 103.87 73.1 26.788 33.938 43.111 74.941 46.976 118 0.63346 5.3633 0.12513 10.799-1.4937 15.951-1.6173 5.1522-4.306 9.9024-7.8909 13.939-3.538 3.9744-7.8737 7.1574-12.726 9.3408-4.8519 2.1835-10.109 3.3175-15.428 3.33h-69.259c-9.1907-0.0625-18.045-3.466-24.908-9.5801-6.8617-6.1141-11.263-14.52-12.38-23.641-6.6631-52.914-36.835-76.516-97.819-76.516-66.912 0-108.49 29.452-108.49 76.86 0 34.989 21.445 62.799 128.26 93.315 49.176 14.077 111.72 35.238 159.34 74.669 25.587 21.078 45.971 47.771 59.564 78.008 13.594 30.236 20.032 63.199 18.813 96.327 0 100.34-60.609 173.62-166.33 201.22zm-142.57-39.652h102.93v-78.205c-6e-3 -8.3914 2.7841-16.545 7.9269-23.175 5.1428-6.6302 12.347-11.359 20.476-13.439 51.506-13.217 137.94-51.975 137.94-163.18 0-132.95-100.42-179.87-208.96-210.89-94.206-26.934-156.94-59.578-156.94-131.39 0-69.681 59.528-116.49 148.14-116.49 100.81 0 130.2 59.311 136.97 109.74h65.411c-3.1048-35.522-16.616-69.342-38.841-97.225-22.224-27.885-52.18-48.597-86.117-59.544-7.5609-2.4789-14.144-7.2862-18.808-13.734-4.6626-6.4477-7.1683-14.206-7.1542-22.163v-81.255h-102.92v79.206c-0.0313 8.1834-2.695 16.14-7.6109 22.683s-11.815 11.321-19.669 13.621c-87.073 25.12-139.05 87.246-139.05 166.22 0 97.929 64.3 158.58 208.49 196.69 108.81 28.717 157.34 73.513 157.34 145.1 0 18.926-7.148 113.38-148.14 113.38-51.616 0-140.61-14.298-158.82-109.74h-65.505c14.922 105.53 97.459 144.21 145.46 157.9 7.8847 2.2758 14.817 7.0463 19.759 13.598 4.941 6.552 7.6234 14.531 7.6438 22.736z" fill="#000" stroke-width=".064129"/>
 </g>
</svg>
