<svg version="0.0" viewBox="0 0 1000 1000" xmlns="http://www.w3.org/2000/svg">
 <style/>
 <path d="m498.33 15.398c-8.696 0.10367-17.404 1.0062-26.014 2.7188-27.551 5.4803-52.855 19.01-72.719 38.873-19.863 19.863-33.395 45.168-38.875 72.719-5.48 27.552-2.6658 56.108 8.084 82.061 10.75 25.953 28.954 48.139 52.311 63.746 15.083 10.079 31.883 17.103 49.453 20.828h-11.76c-39.482 0.29228-77.279 16.042-105.29 43.869-28.008 27.828-44.004 65.522-44.551 105v123.04c-0.12999 19.839 6.0792 39.208 17.717 55.281 11.638 16.073 28.1 28.008 46.992 34.076l2.6406 0.8418 15.684 270.77c0.63278 14.773 6.9071 28.741 17.533 39.027 10.626 10.282 24.794 16.093 39.58 16.24l0.0879 0.12695h102.15c14.794 0.0881 29.052-5.5739 39.754-15.789 10.702-10.219 17.018-24.191 17.613-38.977l15.725-271.15 3.1445-1.002c18.615-6.4159 34.797-18.43 46.32-34.398 11.524-15.969 17.827-35.109 18.049-54.801v-123.66c-0.64999-39.558-16.799-77.277-44.975-105.05-28.18-27.77-66.135-43.374-105.7-43.445h-11.912c26.703-5.669 51.433-18.949 71.027-38.545 26.628-26.626 41.612-62.726 41.654-100.38 0-28.091-8.3296-55.551-23.938-78.908-15.604-23.357-37.791-41.561-63.744-52.311-17.843-7.3906-36.916-11.029-56.047-10.801zm1.6934 39.41v0.08203c27.19 0.03321 53.259 10.846 72.494 30.064 19.235 19.218 30.062 45.273 30.121 72.463 0 20.295-6.0169 40.135-17.293 57.01-11.276 16.874-27.298 30.026-46.047 37.793-18.753 7.7666-39.385 9.7993-59.291 5.8398-19.902-3.9594-38.189-13.732-52.539-28.082-14.35-14.351-24.123-32.636-28.082-52.541-3.9594-19.905-1.9307-40.537 5.8359-59.287 7.7666-18.75 20.917-34.774 37.791-46.049 16.878-11.275 36.718-17.293 57.01-17.293zm-41.213 280.79 82.186 0.082c29.211 0.0709 57.237 11.574 78.074 32.045 20.841 20.471 32.838 48.285 33.43 77.49v122.91c-0.12161 11.435-3.7533 22.556-10.408 31.857-6.6549 9.301-16.006 16.333-26.787 20.141l-15.684 4.8652c-3.8202 1.1951-7.1889 3.5223-9.6504 6.6758-2.4657 3.1534-3.9116 6.9822-4.1465 10.979l-16.521 285.16c-0.23064 4.7134-2.2818 9.1536-5.7246 12.387-3.4428 3.2289-8.0048 4.999-12.727 4.9277h-101.1c-4.7763 0.0461-9.3817-1.7904-12.82-5.1074-3.4344-3.317-5.4253-7.8546-5.5469-12.631l-16.523-284.78c-0.23525-3.9921-1.682-7.8251-4.1465-10.979-2.4645-3.1534-5.8282-5.4807-9.6484-6.6758l-15.434-4.8223c-10.909-3.5392-20.401-10.466-27.105-19.771-6.704-9.3052-10.268-20.506-10.172-31.975v-123.12c0.3946-29.099 12.182-56.88 32.834-77.383 20.652-20.503 48.523-32.092 77.625-32.275zm362.75-269.33c-7.9148 0.09329-15.839 0.91285-23.676 2.4707-25.081 4.9847-48.115 17.297-66.197 35.373-18.086 18.077-30.402 41.106-35.393 66.182-4.9944 25.076-2.4411 51.071 7.3379 74.695 9.779 23.624 26.344 43.816 47.596 58.027 8.0753 5.3986 16.693 9.8351 25.674 13.27-21.849 1.7303-43.033 8.596-61.791 20.109-4.1515 2.8645-7.0457 7.2143-8.0898 12.15-1.0442 4.9361-0.15523 10.085 2.4824 14.385 2.6418 4.2999 6.8323 7.4235 11.705 8.7285 4.8728 1.305 10.059 0.69049 14.496-1.7148 15.461-9.4964 33.224-14.583 51.369-14.717h73.342c25.341 0.0885 49.618 10.184 67.549 28.092 17.931 17.908 28.062 42.172 28.184 67.514l-0.96485 109.96c0.10065 9.7706-2.9442 19.311-8.6934 27.211-5.7492 7.9004-13.893 13.742-23.219 16.652l-13.707 4.9024c-3.6441 1.3042-6.8236 3.6474-9.1426 6.7422-2.319 3.0947-3.6737 6.8019-3.9043 10.664l-14.672 252.48c-0.21386 3.7238-1.8494 7.2252-4.5625 9.7832-2.7131 2.558-6.303 3.9768-10.035 3.9726h-89.949c-3.7238-0.0126-7.3008-1.4482-10.01-4.002-2.7131-2.5538-4.3492-6.0385-4.584-9.7539l-13.711-244.64c-0.46127-5.0908-2.8778-9.8043-6.7441-13.146-3.8663-3.3422-8.8735-5.0488-13.973-4.7637-5.1034 0.28096-9.8989 2.5362-13.371 6.2852-3.4721 3.7489-5.3551 8.6971-5.2461 13.805l13.711 244.69c0.8303 13.733 6.8561 26.642 16.857 36.098 10.001 9.4561 23.227 14.748 36.99 14.807h89.861c13.788 0.0252 27.064-5.2241 37.107-14.672 10.043-9.452 16.091-22.385 16.904-36.152l13.922-239.44 0.88086-0.33593c17.172-5.4892 32.138-16.334 42.701-30.943 10.563-14.61 16.174-32.213 16.006-50.24l0.96485-109.79c-0.11323-35.802-14.38-70.111-39.695-95.432-23.031-23.04-53.503-36.933-85.779-39.342 0.85919-0.33111 1.7176-0.66772 2.5703-1.0176 15.738-6.457 30.034-15.973 42.064-28 12.031-12.027 21.554-26.321 28.016-42.057 6.462-15.736 9.736-32.602 9.627-49.613 0-25.568-7.5801-50.559-21.783-71.818-14.203-21.259-34.39-37.829-58.012-47.615-16.24-6.7283-33.601-10.043-51.014-9.8379zm1.4883 39.322c23.844 0 46.711 9.4751 63.572 26.336 16.858 16.861 26.33 39.728 26.33 63.572 0 23.845-9.4726 46.711-26.33 63.572-16.862 16.86-39.729 26.338-63.572 26.338-23.848 0-46.718-9.4774-63.58-26.338-16.858-16.861-26.33-39.727-26.33-63.572 0-23.845 9.4726-46.711 26.33-63.572 16.862-16.861 39.732-26.336 63.58-26.336zm-647.7-39.322c-7.915 0.09329-15.841 0.91285-23.678 2.4707-25.077 4.9847-48.117 17.297-66.199 35.373-18.082 18.077-30.393 41.106-35.387 66.182-4.9929 25.076-2.4427 51.071 7.3359 74.695 9.7786 23.624 26.345 43.816 47.6 58.027 8.6698 5.7964 17.97 10.47 27.668 13.998-33.299 1.793-64.866 15.811-88.557 39.51-25.326 25.334-39.593 59.666-39.682 95.486v109.41c-0.24192 17.986 5.266 35.572 15.721 50.207 10.455 14.635 25.308 25.542 42.398 31.145l1.4297 0.5 13.918 239.49c0.85252 13.733 6.907 26.623 16.924 36.059 10.017 9.431 23.245 14.697 37.004 14.727h89.99c13.738-0.0168 26.954-5.2619 36.963-14.672 10.009-9.41 16.06-22.276 16.924-35.984l13.713-244.65c0.23525-2.6335-0.0586-5.2828-0.86914-7.7988-0.81017-2.5119-2.1219-4.8435-3.8496-6.8438-1.7277-2.0003-3.838-3.6269-6.209-4.7969-2.3714-1.1658-4.9533-1.8451-7.5918-1.9961-2.6381-0.14677-5.2781 0.23375-7.7656 1.127-2.4871 0.8932-4.769 2.2778-6.7109 4.0684-1.942 1.7948-3.5032 3.9582-4.5918 6.3652-1.0886 2.407-1.6817 5.0124-1.7441 7.6543l-13.715 244.6c-0.22435 3.7196-1.8584 7.2158-4.5703 9.7695-2.7115 2.558-6.2972 3.9802-10.023 3.9844h-89.99c-3.7166-0.0126-7.2895-1.439-9.998-3.9844-2.7085-2.5454-4.3516-6.0215-4.5957-9.7285l-14.676-252.48c-0.22686-3.8621-1.5814-7.5693-3.9004-10.664-2.319-3.0947-5.5014-5.4361-9.1426-6.7402l-14.215-5.0781c-9.2435-2.9941-17.28-8.8688-22.934-16.773-5.6531-7.9004-8.6229-17.415-8.4727-27.127v-109.57c0.06638-25.384 10.179-49.71 28.125-67.664 17.946-17.954 42.265-28.077 67.65-28.154h73.596c17.977-0.29186 35.634 4.7541 50.738 14.506 4.3913 2.696 9.6673 3.5663 14.691 2.4219 5.0241-1.1444 9.3968-4.2057 12.188-8.5371 2.7907-4.3318 3.7786-9.5891 2.7441-14.637-1.0345-5.048-4.0076-9.4864-8.2773-12.371-19.038-12.4-40.958-19.532-63.541-20.773 1.553-0.56767 3.1001-1.1568 4.6328-1.7852 15.743-6.4549 30.047-15.972 42.082-28 12.035-12.027 21.56-26.324 28.025-42.062 6.4646-15.739 9.7409-32.609 9.6348-49.623 0-25.568-7.5832-50.559-21.787-71.818-14.204-21.259-34.391-37.829-58.012-47.615-16.239-6.7283-33.599-10.043-51.012-9.8379zm1.4863 39.322c23.845 0 46.711 9.4751 63.572 26.336 16.861 16.861 26.336 39.728 26.336 63.572 0 23.845-9.4751 46.711-26.336 63.572-16.861 16.86-39.728 26.338-63.572 26.338-23.845 0-46.712-9.4774-63.572-26.338-16.861-16.861-26.336-39.727-26.336-63.572 0-23.845 9.4751-46.711 26.336-63.572 16.86-16.861 39.727-26.336 63.572-26.336z"/>
</svg>
