<svg version="0.0" viewBox="0 0 1e3 1e3" xmlns="http://www.w3.org/2000/svg">
 <path d="m75.883 105.06c-8.8541 0-17.621 1.7431-25.8 5.1369-8.1786 3.3936-15.625 8.3586-21.882 14.627-6.2571 6.2681-11.213 13.725-14.598 21.911-3.3849 8.1861-5.1367 16.941-5.1367 25.8v528.62c0 17.892 7.0982 35.051 19.735 47.711 12.637 12.658 29.799 19.792 47.682 19.792h301.39c-3.63 10.056-9.0412 19.421-15.991 27.657-10.267 12.169-23.543 21.417-38.482 26.787h-120.12c-4.7251-0.29272-9.4807 0.33879-13.959 1.8863-4.6939 1.6227-8.9779 4.2046-12.624 7.5746-3.6464 3.3685-6.5731 7.4664-8.5612 12.015-1.9896 4.5483-3.0181 9.4302-3.0181 14.395 0 4.9629 1.0282 9.8754 3.0181 14.424 1.9881 4.5483 4.9149 8.6448 8.5612 12.015 3.6464 3.3685 7.9303 5.952 12.624 7.5746 4.4785 1.5483 9.234 2.179 13.959 1.8863h594.5c4.7266 0.29272 9.4807-0.33729 13.959-1.8863 4.6924-1.6226 8.9794-4.2061 12.624-7.5746 3.6464-3.37 6.5731-7.4664 8.5612-12.015 1.9881-4.5468 3.0183-9.4608 3.0183-14.424 0-4.9644-1.0297-9.8462-3.0183-14.395-1.9881-4.5483-4.9149-8.6462-8.5612-12.015-3.6449-3.37-7.9318-5.952-12.624-7.5746-4.4785-1.5482-9.2326-2.1791-13.959-1.8863h-120.12c-14.95-5.3462-28.241-14.587-38.511-26.758-6.954-8.2437-12.373-17.616-15.991-27.686h301.73c17.851-0.0446 34.967-7.1968 47.566-19.851s19.676-29.793 19.676-47.653v-528.62c0-17.89-7.0985-35.052-19.735-47.711-12.637-12.659-29.799-19.764-47.682-19.764zm0 29.718h848.23c9.9837 0 19.573 3.9767 26.642 11.057 7.0684 7.0813 11.028 16.674 11.028 26.7v528.62c0 10.009-3.9514 19.621-10.999 26.7-7.0416 7.0728-16.595 11.056-26.554 11.086h-848.35c-9.9843 0-19.573-3.9768-26.642-11.057-7.0688-7.0818-11.028-16.702-11.028-26.729v-528.62c0-4.9629 0.948-9.8681 2.844-14.453 1.8955-4.5844 4.6841-8.7409 8.184-12.247 3.5-3.5061 7.6486-6.288 12.218-8.184 4.5694-1.8967 9.4792-2.8731 14.424-2.8731zm6.0074 34.158c-8.2064 0-14.859 6.6523-14.859 14.859v511.21c0 8.2066 6.6525 14.859 14.859 14.859h828.96c8.2066 0 14.859-6.6523 14.859-14.859v-511.21c0-8.2066-6.6523-14.859-14.859-14.859zm14.859 29.718h799.25v481.49h-799.25zm311.4 570.01h183.53c4.5254 17.167 12.632 33.223 24.146 46.869 2.3168 2.7455 4.9189 5.1768 7.4586 7.6905h-246.77c2.5478-2.5216 5.1635-4.9652 7.4875-7.7196 11.508-13.637 19.602-29.688 24.146-46.84zm-207.18 84.104c0.39822 0.0297 0.79049 0.0594 1.1902 0.0594h93.681c0.20357 8e-3 0.37444 0.11887 0.58098 0.11887h441.79c0.20654 0 0.37593-0.10401 0.58099-0.11887h58.913c0.40119 0 0.82021-0.0297 1.2184-0.0594 0.85141-0.0743 1.6875 0.0446 2.4958 0.31947 0.80832 0.27934 1.574 0.72214 2.2055 1.3061 0.6315 0.58396 1.1337 1.2957 1.48 2.0896 0.34621 0.79198 0.52303 1.6571 0.52303 2.5248 0 0.86627-0.17682 1.7024-0.52303 2.4958-0.34622 0.79198-0.84845 1.5055-1.48 2.0895-0.6315 0.58395-1.3967 1.0267-2.2055 1.3061-0.80833 0.27489-1.6444 0.39376-2.4958 0.31947-0.39822-0.0297-0.81724-0.0297-1.2184-0.0297h-595.55c-0.39971 0-0.79198-5.9e-4 -1.1902 0.0297-0.85142 0.0743-1.7165-0.0446-2.5248-0.31947-0.80833-0.27935-1.5452-0.72214-2.1767-1.3061-0.63151-0.58396-1.1337-1.2972-1.48-2.0895-0.3477-0.79347-0.52303-1.6296-0.52303-2.4958 0-0.86776 0.17533-1.7328 0.52303-2.5248 0.34621-0.79198 0.84844-1.5056 1.48-2.0896 0.6315-0.58395 1.3685-1.0268 2.1767-1.3061 0.80832-0.27489 1.6734-0.39376 2.5248-0.31947z"/>
</svg>
