<svg version="0.0" viewBox="0 0 1000 1000" xmlns="http://www.w3.org/2000/svg">
 <style/>
 <g transform="matrix(42.291 0 0 42.291 123.25 11.329)" fill="none" stroke-width=".023646">
  <path d="m10.815 17.035h-8.1001c-0.12466 0-0.24414 0.0496-0.33228 0.1377-0.08814 0.0882-0.13769 0.2078-0.13769 0.3324 0 0.1247 0.04955 0.2442 0.13769 0.3323s0.20762 0.1377 0.33228 0.1377h8.1001c0.1246 0 0.2441-0.0496 0.3322-0.1377 0.0882-0.0881 0.1377-0.2076 0.1377-0.3323 0-0.1246-0.0495-0.2442-0.1377-0.3324-0.0881-0.0881-0.2076-0.1377-0.3322-0.1377zm4.2771-2.5999h-12.376c-0.12466 0-0.24438 0.0494-0.33252 0.1375-0.08815 0.0882-0.1377 0.2078-0.1377 0.3324 0 0.1247 0.04955 0.2442 0.1377 0.3323 0.08814 0.0881 0.20786 0.1377 0.33252 0.1377h12.376c0.1246 0 0.2441-0.0496 0.3322-0.1377 0.0882-0.0881 0.1377-0.2076 0.1377-0.3323 0-0.1246-0.0495-0.2442-0.1377-0.3324-0.0881-0.0881-0.2076-0.1375-0.3322-0.1375zm0-5.209h-12.376c-0.12466 0-0.24438 0.04956-0.33252 0.1377-0.08815 0.08814-0.1377 0.20762-0.1377 0.33227 0 0.12466 0.04955 0.24426 0.1377 0.33236 0.08814 0.0882 0.20786 0.1376 0.33252 0.1376h12.376c0.1246 0 0.2441-0.0494 0.3322-0.1376 0.0882-0.0881 0.1377-0.2077 0.1377-0.33236 0-0.12465-0.0495-0.24413-0.1377-0.33227-0.0881-0.08814-0.2076-0.1377-0.3322-0.1377zm0 2.604h-12.376c-0.12466 0-0.24438 0.0494-0.33252 0.1376-0.08815 0.0881-0.1377 0.2077-0.1377 0.3323 0 0.1247 0.04955 0.2443 0.1377 0.3324 0.08814 0.0882 0.20786 0.1376 0.33252 0.1376h12.376c0.1246 0 0.2441-0.0494 0.3322-0.1376 0.0882-0.0881 0.1377-0.2077 0.1377-0.3324 0-0.1246-0.0495-0.2442-0.1377-0.3323-0.0881-0.0882-0.2076-0.1376-0.3322-0.1376zm2.6998-5.562c0.0158-0.11677 0.0032-0.23567-0.0366-0.34656-0.0399-0.11089-0.1059-0.21045-0.1924-0.29041l-5.74-5.43c-0.0837-0.074728-0.1824-0.13064-0.2896-0.16394-0.1071-0.033295-0.22-0.043187-0.3313-0.029053-0.027-0.0050217-0.0545-0.007755-0.082-0.0080566h-10.328c-0.20141-0.0014584-0.39552 0.075453-0.54126 0.21448-0.14574 0.13902-0.2317 0.32926-0.23975 0.53052v21.619c0.0064212 0.1984 0.089204 0.3867 0.23096 0.5257 0.14175 0.1389 0.33154 0.218 0.53003 0.2204h15.9c0.3006-5e-4 0.5887-0.1202 0.8013-0.3327 0.2125-0.2126 0.3322-0.5007 0.3328-0.8013v-15.639c-0.0031-0.02331-0.0079-0.04634-0.0142-0.06897zm-1.512-0.27698h-4.8049v-4.5391zm0.385 16.179h-15.718v-21.231h9.5882v5.2419c0.0031 0.19854 0.0835 0.38802 0.2243 0.52795 0.1409 0.13994 0.331 0.21927 0.5296 0.22107h5.571v15.045c-0.0013 0.0513-0.0223 0.1002-0.0586 0.1365s-0.0851 0.0572-0.1365 0.0585z" fill="#000" stroke-width=".023646"/>
 </g>
</svg>
