<svg version="0.0" viewBox="0 0 1e3 1e3" xmlns="http://www.w3.org/2000/svg">
 <style/>
 <path d="m737.66 79.071c-8.3682 0-15.154 6.7847-15.154 15.154v92.553c0 8.3697 6.786 15.154 15.154 15.154 8.3697 0 15.154-6.7845 15.154-15.154v-92.553c0-8.3695-6.7845-15.154-15.154-15.154zm187.68 58.486c-3.8784 0.0141-7.7374 1.5018-10.685 4.4693h-0.0303l-93.53 94.27c-5.895 5.9404-5.8607 15.534 0.0909 21.429 5.9344 5.8889 15.503 5.8427 21.399-0.0909h0.0303l93.53-94.24c5.895-5.9409 5.8751-15.534-0.0606-21.429-2.9702-2.9476-6.8658-4.4243-10.744-4.4102zm-879.21 78.76c-4.6648 0.0152-9.286 0.96987-13.586 2.7822-4.2902 1.8115-8.1769 4.4576-11.454 7.7843-3.2774 3.3238-5.8512 7.2592-7.6067 11.573-1.7558 4.3155-2.654 8.9234-2.6343 13.585v633.22c-0.01228 4.6432 0.88652 9.2292 2.6343 13.526 1.7567 4.3203 4.3326 8.2525 7.6067 11.573 3.2747 3.3238 7.1538 5.9709 11.454 7.7843 4.2996 1.8129 8.9446 2.7635 13.615 2.7822a15.156 15.156 0 0 0 0.06062 0h695.91a15.156 15.156 0 0 0 0.0606 0c4.6766-0.0151 9.2935-0.97744 13.585-2.7822 4.2991-1.8118 8.2104-4.4362 11.484-7.7547 3.2742-3.3192 5.8471-7.2519 7.6066-11.573a15.156 15.156 0 0 0 0.0303-0.0303c1.7552-4.3167 2.623-8.9287 2.6047-13.585v-547.24c0.0152-9.3788-3.6356-18.431-10.241-25.129-6.6081-6.6979-15.649-10.497-25.07-10.537a15.156 15.156 0 0 0-0.0606 0h-268.63v-0.0303c-1.3169-4e-3 -2.5991-0.54252-3.5814-1.5391-0.97593-0.98957-1.5442-2.3353-1.5391-3.759v-44.991c0.0133-4.6476-0.88652-9.2313-2.6342-13.526-1.7552-4.3144-4.3267-8.248-7.6066-11.573-3.2791-3.3294-7.1955-5.9732-11.484-7.7843-4.2967-1.8118-8.9208-2.7609-13.586-2.7822h-173.24c-4.6648 0.0152-9.2847 0.96836-13.585 2.7822-2.3556 0.99563-4.5481 2.2828-6.63 3.759-2.0805-1.4745-4.2726-2.7634-6.63-3.759-4.3008-1.8136-8.9208-2.7609-13.586-2.7822a15.156 15.156 0 0 0-0.0606 0h-173.12a15.156 15.156 0 0 0-0.09093 0zm0.09092 30.308h173.03c0.66678 3e-3 1.3381 0.15457 1.9534 0.41371 0.62738 0.26519 1.1851 0.64405 1.6576 1.1244 0.47584 0.4819 0.86076 1.0699 1.1244 1.7167 0.26367 0.64859 0.38794 1.3487 0.38491 2.0423a15.156 15.156 0 0 0 0 0.0606v44.841c-0.0606 9.3982 3.6166 18.472 10.211 25.188 6.5894 6.7082 15.605 10.543 25.04 10.596a15.156 15.156 0 0 0 0.0909 0h482.36c1.3472 6e-3 2.6327 0.54707 3.6109 1.5391 0.97139 0.98503 1.5139 2.3186 1.5094 3.759a15.156 15.156 0 0 0 0 0.0606v547.3a15.156 15.156 0 0 0 0 0.0606c3e-3 0.69861-0.12123 1.4018-0.38491 2.0423-0.26217 0.64405-0.64406 1.229-1.1244 1.7167-0.48493 0.49099-1.0381 0.89258-1.6576 1.1548-0.61223 0.25762-1.2563 0.37582-1.8943 0.38491h-695.91c-0.64102-0.01-1.2957-0.13638-1.8943-0.38491-0.61678-0.25914-1.179-0.63951-1.6576-1.1244a15.156 15.156 0 0 0 0-0.0303c-0.47887-0.48645-0.86227-1.0426-1.1244-1.6871-0.26217-0.64709-0.38795-1.373-0.38492-2.0719a15.156 15.156 0 0 0 0-0.0606v-633.28a15.156 15.156 0 0 0 0-0.0606c-0.0029-0.70012 0.12123-1.3972 0.38492-2.0423 0.26368-0.6486 0.6486-1.2336 1.1244-1.7167 0.46978-0.47735 1.0396-0.86076 1.6576-1.1244 0.59859-0.25307 1.2472-0.40462 1.8943-0.41371zm213.67 0h173.12c0.64557 0.0103 1.2639 0.16063 1.8647 0.41371 0.62738 0.26519 1.185 0.64405 1.6576 1.1244h0.0303c0.47584 0.4819 0.86076 1.0699 1.1244 1.7167 0.26369 0.64859 0.38795 1.3487 0.38492 2.0423v44.931c-7e-3 2.0231 1.8615 3.4459 2.1902 5.4164h-180.49v0.0303c-1.3169-0.0152-2.5833-0.55313-3.5517-1.5392-0.96684-0.98503-1.5476-2.3339-1.5391-3.7588a15.156 15.156 0 0 0 0-0.0909v-11.188h0.15154v-33.802c-3e-3 -0.70467 0.12123-1.4033 0.38491-2.0423 0.25914-0.63799 0.67285-1.229 1.1548-1.7167 0.47888-0.48645 1.0335-0.86076 1.6574-1.1244 0.59707-0.25156 1.2184-0.40462 1.8647-0.41371zm623.99 80.211c-8.3697 0-15.154 6.7845-15.154 15.154 0 8.3697 6.7845 15.154 15.154 15.154h90.126c8.3697 0 15.154-6.7845 15.154-15.154 0-8.3697-6.7845-15.154-15.154-15.154zm-777.69 278.55c-8.3695 0-15.154 6.7845-15.154 15.154 0 8.3697 6.7847 15.154 15.154 15.154h24.004c8.3695 0 15.154-6.7845 15.154-15.154 0-8.3697-6.7847-15.154-15.154-15.154zm72.012 0c-8.3697 0-15.154 6.7845-15.154 15.154 0 8.3697 6.7845 15.154 15.154 15.154h48.008c8.3697 0 15.154-6.7845 15.154-15.154 0-8.3697-6.7845-15.154-15.154-15.154zm96.016 0c-8.3697 0-15.154 6.7845-15.154 15.154 0 8.3697 6.7845 15.154 15.154 15.154h48.008c8.3697 0 15.154-6.7845 15.154-15.154 0-8.3697-6.7845-15.154-15.154-15.154zm96.016 0c-8.3697 0-15.154 6.7845-15.154 15.154 0 8.3697 6.7845 15.154 15.154 15.154h48.008c8.3697 0 15.154-6.7845 15.154-15.154 0-8.3697-6.7845-15.154-15.154-15.154zm96.016 0c-8.3697 0-15.154 6.7845-15.154 15.154 0 8.3697 6.7845 15.154 15.154 15.154h48.008c8.3697 0 15.154-6.7845 15.154-15.154 0-8.3697-6.7845-15.154-15.154-15.154zm95.987 0c-8.3697 0-15.154 6.7845-15.154 15.154 0 8.3697 6.7845 15.154 15.154 15.154h48.008c8.3697 0 15.154-6.7845 15.154-15.154 0-8.3697-6.7845-15.154-15.154-15.154zm96.016 0c-8.3697 0-15.154 6.7845-15.154 15.154 0 8.3697 6.7845 15.154 15.154 15.154h24.004c8.3697 0 15.154-6.7845 15.154-15.154 0-8.3697-6.7845-15.154-15.154-15.154zm-552.06 94.95c-8.3695 0-15.154 6.7845-15.154 15.154 0 8.3697 6.7847 15.154 15.154 15.154h576.07c8.3697 0 15.154-6.7845 15.154-15.154 0-8.3697-6.7845-15.154-15.154-15.154zm0 94.921c-8.3695 0-15.154 6.7845-15.154 15.154 0 8.3697 6.7847 15.154 15.154 15.154h576.07c8.3697 0 15.154-6.7845 15.154-15.154 0-8.3697-6.7845-15.154-15.154-15.154z" color="#000000" color-rendering="auto" dominant-baseline="auto" image-rendering="auto" shape-rendering="auto" solid-color="#000000" stop-color="#000000" style="font-feature-settings:normal;font-variant-alternates:normal;font-variant-caps:normal;font-variant-east-asian:normal;font-variant-ligatures:normal;font-variant-numeric:normal;font-variant-position:normal;font-variation-settings:normal;inline-size:0;isolation:auto;mix-blend-mode:normal;shape-margin:0;shape-padding:0;text-decoration-color:#000000;text-decoration-line:none;text-decoration-style:solid;text-indent:0;text-orientation:mixed;text-transform:none;white-space:normal"/>
</svg>
