<svg version="0.0" viewBox="0 0 1e3 1e3" xmlns="http://www.w3.org/2000/svg">
 <path d="m500 13.916c-268.43 0-485.8 217.37-485.8 485.8v0.5586c0 268.43 217.37 485.8 485.8 485.8 268.43 0 485.8-217.37 485.8-485.8v-0.5586c0-268.43-217.37-485.8-485.8-485.8zm0 80.992c224.97 0 404.81 179.85 404.81 404.81v0.5586c0 224.97-179.85 404.81-404.81 404.81-224.97 0-404.81-179.85-404.81-404.81v-0.5586c0-224.97 179.85-404.81 404.81-404.81zm0 162.06c-133.87 0-242.91 109.04-242.91 242.91v0.2539c0 133.87 109.04 242.91 242.91 242.91 133.87 0 242.91-109.04 242.91-242.91v-0.2539c0-133.87-109.04-242.91-242.91-242.91z" color="#000000" color-rendering="auto" dominant-baseline="auto" image-rendering="auto" shape-rendering="auto" solid-color="#000000" stop-color="#000000" style="font-feature-settings:normal;font-variant-alternates:normal;font-variant-caps:normal;font-variant-east-asian:normal;font-variant-ligatures:normal;font-variant-numeric:normal;font-variant-position:normal;font-variation-settings:normal;inline-size:0;isolation:auto;mix-blend-mode:normal;shape-margin:0;shape-padding:0;text-decoration-color:#000000;text-decoration-line:none;text-decoration-style:solid;text-indent:0;text-orientation:mixed;text-transform:none;white-space:normal"/>
</svg>
