<svg version="0.0" viewBox="0 0 1e3 1e3" xmlns="http://www.w3.org/2000/svg">
 <path d="m955.47 195.35-150.23-150.23c-52.656-52.24-137.61-52.166-190.19 0.16139l-502.28 501.03c-8.1053 8.0902-13.784 18.282-16.374 29.438l-89.116 385.31c-2.0931 9.0268 0.60879 18.498 7.1554 25.059 6.5468 6.5616 16.018 9.2771 25.051 7.2075l385.22-89.073c11.148-2.5514 21.345-8.2086 29.422-16.299l501.17-502.43c52.328-52.565 52.403-137.53 0.16148-190.18zm-810.97 412.21 83.096 33.394 8.0313 99.432c1.0391 13.11 11.424 23.539 24.524 24.645l99.276 8.171 33.618 82.859-148.93 34.086-133.68-133.68zm223.3 112.65-80.582-6.828-6.8118-80.596 364.33-364.33 87.407 87.409zm238.93-489.76-360.33 360.33-73.262-28.962 383.06-381.9zm-196.92 523.75 360.33-360.33 50.525 50.525-381.89 383.09zm357.42-671.07 150.23 150.23c31.284 31.732 31.153 82.754-0.30412 114.32l-58.529 58.677-264.38-264.38 58.669-58.535c31.559-31.457 82.582-31.591 114.32-0.30413zm-696.99 847.23 25.92-112.16 86.221 86.22z" stroke-width="26.914"/>
</svg>
