<svg version="0.0" viewBox="0 0 1e3 1e3" xmlns="http://www.w3.org/2000/svg">
 <path d="m500 6.4759c-272.22 0-493.52 221.3-493.52 493.52s221.3 493.52 493.52 493.52 493.52-221.3 493.52-493.52-221.3-493.52-493.52-493.52zm0 58.062c240.84 0 435.46 194.62 435.46 435.46s-194.62 435.46-435.46 435.46-435.46-194.62-435.46-435.46 194.62-435.46 435.46-435.46zm-220.4 174.01-41.051 41.051 220.28 220.28-220.28 220.28 41.051 41.108 220.28-220.28 220.28 220.28 41.052-41.108-220.28-220.28 220.28-220.28-41.052-41.051-220.28 220.28z" color="#000000" color-rendering="auto" dominant-baseline="auto" image-rendering="auto" shape-rendering="auto" solid-color="#000000" stop-color="#000000" style="font-feature-settings:normal;font-variant-alternates:normal;font-variant-caps:normal;font-variant-east-asian:normal;font-variant-ligatures:normal;font-variant-numeric:normal;font-variant-position:normal;font-variation-settings:normal;inline-size:0;isolation:auto;mix-blend-mode:normal;shape-margin:0;shape-padding:0;text-decoration-color:#000000;text-decoration-line:none;text-decoration-style:solid;text-indent:0;text-orientation:mixed;text-transform:none;white-space:normal"/>
</svg>
