<svg version="0.0" viewBox="0 0 1e3 1e3" xmlns="http://www.w3.org/2000/svg">
 <path d="m332.9 180.71c92.139-116.3 204.35-166.86 350.32-166.86h0.055c53.273 0.16511 105.85 12.413 153.95 35.841l13.73 6.6859-64.287 144.51-13.713-5.3201c-31.603-12.262-65.1-18.58-98.885-18.655-84.62 4e-3 -146.8 24.374-204.03 88.762l-0.0917 0.11007c-15.164 16.76-28.608 35.047-40.13 54.57h226.63v150.42h-272.23c-0.85489 10.917-1.2878 21.868-1.2952 32.825 0 8.8443 0.28068 17.549 0.8127 26.113h272.71v149.82h-229.16c12.069 21.059 26.426 40.681 42.812 58.483l0.0367 0.0367c57.558 62.88 120.03 86.621 204.68 86.621h0.19996l0.19997 5e-3c37.756 0.98331 75.243-6.8373 109.63-22.877l0.22015-0.11c8.1453-3.6379 16.107-7.6959 23.853-12.163l18.446-10.637 35.197 165.64-11.868 5.1073c-56.061 24.128-116.27 36.544-177.08 36.513-126.83-2e-3 -228.06-39.448-318.2-134.81l0.0367 0.0367 11.185-11.011-11.238 10.954 0.0183 0.0183c-46.74-48.971-105.79-171.69-105.79-171.69h-112.17v-149.94h83.655c1.0384 17.7 0.8072 17.72 0 0-0.37608-8.2169-0.58888-16.529-0.58888-24.909 0-11.653 0.47514-23.044 1.2456-34.15 1.2566-18.138 1.5006-18.105 0 0h-84.311v-149.94h115.94s45.977-97.881 79.51-140zm0 0-0.011 0.011 12.139 9.9156-12.115-9.945zm350.3-135.22c-137.14 0.005504-240.18 46.702-326.03 155.07l-0.0183 0.0367c-33.645 42.258-60.107 90.028-78.267 141.3l-3.7076 10.466h-106.56v86.66h87.258l-1.6548 17.344c-1.5098 15.839-2.5372 31.961-2.5372 48.444 0 13.28 0.57421 26.509 1.5025 39.591l1.2034 16.957h-85.772v86.66h103.23l3.5792 10.756c21.284 63.99 56.274 122.28 102.39 170.59l0.055 0.055c83.822 88.692 176.72 125.1 295.75 125.1 52.345 0.0183 104.22-9.8496 153.01-29.094l-20.938-98.529c-2.6362 1.2768-5.2926 2.5115-7.9674 3.7076-38.61 17.989-80.703 26.779-123.12 25.705-92.055-0.0367-163.14-26.637-227.28-96.7-24.289-26.392-44.508-56.416-59.962-89.039l-10.741-22.677h248.67v-86.537h-270.06l-1.3704-14.285c-1.352-14.106-2.0895-28.599-2.0895-43.478 0.0128-16.843 0.95762-33.684 2.8288-50.417l1.5685-14.034h269.13v-87.146h-246.92l11.229-22.877c15.142-30.846 34.454-59.356 57.368-84.687 63.788-71.738 134.74-99.149 227.13-99.149h0.0367c32.671 0.0734 65.095 5.3917 96.095 15.74l39.663-89.159c-40.074-17.246-83.123-26.226-126.68-26.37z"/>
</svg>
