<svg version="0.0" viewBox="0 0 1000 1000" xmlns="http://www.w3.org/2000/svg">
 <style/>
 <path d="m966.78 305.5h-248.16c-6.0485-0.0578-11.863-2.3534-16.32-6.4412-4.4575-4.0895-7.2449-9.6841-7.8226-15.706 0-0.72614 0.11552-1.4539 0.11552-2.1801v-247.93c-5e-3 -5.1766-2.0629-10.139-5.7233-13.8-3.6604-3.6604-8.6246-5.721-13.802-5.7254h-364.89c-16.756 0.04372-32.809 6.7371-44.635 18.606-11.826 11.869-18.459 27.948-18.441 44.703v461.76h-184.84c-12.882 0.0908-25.21 5.253-34.313 14.368-9.1031 9.1164-14.249 21.451-14.322 34.333v58.453c0.0825 12.881 5.2436 25.207 14.362 34.305 9.1187 9.0966 21.459 14.231 34.339 14.282h184.84v228.46c0 8.3127 1.6388 16.543 4.8206 24.222 3.1818 7.6806 7.844 14.655 13.722 20.533 5.8801 5.8768 12.859 10.539 20.54 13.719 7.6806 3.1785 15.911 4.8157 24.224 4.814h612.7c16.767-0.0297 32.838-6.7119 44.684-18.578 11.848-11.866 18.503-27.945 18.507-44.711v-597.98c0-2.5679-0.50665-5.1094-1.4919-7.4809-0.98525-2.3732-2.4293-4.5302-4.2496-6.3422-1.8203-1.8121-3.9806-3.2478-6.3571-4.2232-2.3765-0.97534-4.9213-1.4688-7.4908-1.4589zm-904.46 350c-2.5498-0.0116-4.9934-1.0232-6.8071-2.8155-1.8139-1.7923-2.8536-4.2232-2.8967-6.773v-58.337c0.02542-2.558 1.0494-5.0054 2.8531-6.8175 1.8036-1.8137 4.2443-2.8501 6.8013-2.8897h437.9c2.563 3e-3 5.1028-0.5017 7.4727-1.482 2.3699-0.98029 4.5236-2.4177 6.3373-4.2298 1.8121-1.8137 3.2511-3.969 4.2314-6.3389 0.9803-2.3699 1.4836-4.9048 1.4804-7.4694v-118.83c3e-3 -1.9111 0.56771-3.776 1.6272-5.3669 1.0595-1.5909 2.5646-2.8353 4.3272-3.5746 1.7626-0.7377 3.705-0.94069 5.5814-0.57926 1.8764 0.35977 3.6043 1.2674 4.9675 2.6059l174.08 176.04c2.1355 2.1636 3.3337 5.0797 3.3337 8.1196 0 3.0399-1.1981 5.9593-3.3337 8.1229l-174.41 175.74c-0.89943 0.90108-1.9672 1.6157-3.1439 2.1025-1.1767 0.4885-2.4392 0.74265-3.7132 0.74265-1.2724 0-2.5349-0.25415-3.7116-0.74265-1.1767-0.48685-2.2444-1.2014-3.1439-2.1025-0.91759-0.88953-1.6421-1.9573-2.1306-3.1389-0.4885-1.18-0.72944-2.4491-0.70799-3.7264v-118.69c-5e-3 -5.1771-2.0629-10.143-5.7233-13.803s-8.6246-5.7184-13.8-5.7217zm884.94 267.62c-0.0132 6.4115-2.5696 12.557-7.1096 17.088-4.5384 4.5285-10.689 7.075-17.102 7.075h-612.77c-6.4181-0.0215-12.564-2.5877-17.091-7.136-4.5252-4.5483-7.0634-10.707-7.0535-17.124v-228.46h194.05v99.101c-0.0148 9.6544 2.8402 19.099 8.2021 27.128s12.988 14.282 21.91 17.969c8.9233 3.6868 18.741 4.6391 28.206 2.7362s18.152-6.5716 24.958-13.42l174.47-175.69c9.3689-9.496 14.62-22.303 14.62-35.642 0-13.34-5.2514-26.141-14.62-35.637l-174.08-176.04c-9.1758-9.1329-21.578-14.287-34.525-14.343-12.917 0.0165-25.3 5.1622-34.429 14.303-9.128 9.1395-14.254 21.53-14.254 34.449v99.333h-194.49v-461.89c-3e-3 -6.4023 2.53-12.545 7.0469-17.083 4.5153-4.5379 10.646-7.1014 17.05-7.1276h345.36v225.55c-0.16339 0.99844-0.24095 2.0101-0.2327 3.0218 0.11387 16.731 6.8043 32.746 18.629 44.582 11.825 11.838 27.833 18.546 44.562 18.675h228.69zm20.365-712.31-178.48-178.65c-11.915-11.804-28.016-18.418-44.788-18.401h-11.158c-5.1754 0.0044-10.14 2.061-13.8 5.7214-3.6604 3.6604-5.7184 8.6231-5.7233 13.8v233.54c5e-3 5.1771 2.0629 10.14 5.7233 13.8s8.6246 5.7167 13.8 5.7217h233.54c5.1771-5e-3 10.141-2.0613 13.802-5.7217s5.7184-8.623 5.7233-13.8v-11.369c-0.0115-8.3045-1.6635-16.528-4.8619-24.191-3.1967-7.6641-7.877-14.619-13.77-20.469zm-214.91 36.472v-193.09c3.3304 1.1818 6.3571 3.0851 8.8623 5.5763l178.44 178.65c2.5201 2.4458 4.446 5.4378 5.6276 8.7467z"/>
</svg>
