<svg version="0.0" viewBox="0 0 1e3 1e3" xmlns="http://www.w3.org/2000/svg">
 <path d="m142.9 8.9848c-35.517 0-69.578 14.109-94.691 39.224-25.115 25.115-39.224 59.174-39.224 94.691v401.75c0 35.515 14.109 69.578 39.224 94.691 25.115 25.114 59.174 39.224 94.691 39.224h44.64c24.654 0 44.64-19.984 44.64-44.638s-19.986-44.64-44.64-44.64h-44.64c-11.839 0-23.192-4.7047-31.563-13.074-8.3711-8.3698-13.074-19.726-13.074-31.563v-401.75c0-11.839 4.7034-23.192 13.074-31.563 8.3716-8.3711 19.724-13.074 31.563-13.074h401.75c11.838 0 23.194 4.7034 31.563 13.074 8.3698 8.3716 13.074 19.724 13.074 31.563v44.64c0 24.654 19.986 44.64 44.64 44.64s44.638-19.986 44.638-44.64v-44.64c0-35.517-14.109-69.578-39.224-94.691-25.114-25.115-59.177-39.224-94.691-39.224zm312.47 312.47c-73.96 0-133.91 59.956-133.91 133.91v401.75c0 73.962 59.956 133.91 133.91 133.91h401.75c73.962 1e-5 133.91-59.954 133.91-133.91v-401.75c1e-5 -73.96-59.954-133.91-133.91-133.91zm0 89.277h401.75c24.654 0 44.638 19.984 44.638 44.638v401.75c0 24.654-19.984 44.638-44.638 44.638h-401.75c-24.654 0-44.638-19.984-44.638-44.638v-401.75c0-24.654 19.984-44.638 44.638-44.638z" stroke-width="44.638"/>
</svg>
