<svg version="0.0" viewBox="0 0 1e3 1e3" xmlns="http://www.w3.org/2000/svg">
 <path d="m127.97 27.169c-31.563-0.098115-63.116 11.577-87.424 35.885-48.616 48.616-46.747 126.15-0.96746 175.02l31.751 33.95 178.19-178.19-33.95-31.751c-24.439-22.889-56.037-34.819-87.6-34.917zm744.06 0c-31.564 0.09862-63.161 12.027-87.6 34.917l-33.95 31.751 178.19 178.19 31.751-33.95c45.779-48.877 47.648-126.41-0.96728-175.02-24.308-24.308-55.862-35.983-87.424-35.885zm-372.04 90.063c-223.83 0-405.28 181.45-405.28 405.28s181.45 405.28 405.28 405.28 405.28-181.45 405.28-405.28-181.45-405.28-405.28-405.28zm0 90.063c174.09 0 315.22 141.13 315.22 315.22s-141.13 315.22-315.22 315.22-315.22-141.13-315.22-315.22 141.13-315.22 315.22-315.22zm-27.881 90.063-152.25 405.28h49.782l41.426-112.4h177.22l41.426 112.4h50.395l-151.72-405.28h-56.29zm26.738 46.702h1.1434l18.382 56.465 52.682 143.71h-142.75l53.299-145.56zm-314.08 512.32c-11.524 0-23.046 4.4005-31.839 13.193l-26.386 26.386c-17.586 17.585-17.586 46.094 0 63.679 17.586 17.585 46.09 17.585 63.679 0l26.386-26.386c17.586-17.585 17.586-46.094 0-63.679-8.7929-8.7924-20.314-13.193-31.839-13.193zm630.44 0c-11.524 0-23.044 4.4005-31.839 13.193-17.585 17.585-17.585 46.094 0 63.679l26.386 26.386c17.589 17.585 46.094 17.585 63.679 0 17.589-17.585 17.589-46.094 0-63.679l-26.386-26.386c-8.7947-8.7924-20.314-13.193-31.839-13.193z" stroke-width="45.032"/>
</svg>
