<svg version="0.0" viewBox="0 0 1e3 1e3" xmlns="http://www.w3.org/2000/svg">
 <path d="m674.56 23.949c15.879-15.88 41.627-15.88 57.506 0l162.65 162.65c15.879 15.88 15.879 41.627 0 57.506l-162.65 162.65c-15.879 15.878-41.627 15.878-57.506 0-15.879-15.88-15.879-41.627 0-57.506l93.236-93.236h-471.12c-32.354 0-63.381 12.852-86.258 35.73-22.877 22.877-35.73 53.907-35.73 86.258v81.326c0 22.458-18.206 40.663-40.663 40.663s-40.663-18.205-40.663-40.663v-81.326c0-53.923 21.42-105.63 59.551-143.76 38.129-38.129 89.841-59.551 143.76-59.551h471.12l-93.236-93.236c-15.879-15.88-15.879-41.627 0-57.506zm150.74 598.03v-81.326c0-22.458 18.205-40.663 40.663-40.663 22.458 0 40.663 18.205 40.663 40.663v81.326c0 53.923-21.421 105.64-59.551 143.76-38.126 38.13-89.841 59.551-143.76 59.551h-471.12l93.236 93.236c15.88 15.879 15.88 41.627 0 57.506-15.88 15.879-41.627 15.879-57.506 0l-162.65-162.65c-15.88-15.879-15.88-41.627 0-57.506l162.65-162.65c15.88-15.879 41.627-15.879 57.506 0 15.88 15.879 15.88 41.627 0 57.506l-93.236 93.236h471.12c32.351 0 63.381-12.854 86.258-35.731 22.877-22.877 35.731-53.907 35.731-86.258z" clip-rule="evenodd" fill-rule="evenodd" stroke-width="40.663"/>
</svg>
