<svg version="0.0" viewBox="0 0 1e3 1e3" xmlns="http://www.w3.org/2000/svg">
 <path d="m943.54 7.1895c-12.612 0-25.224 4.8129-34.846 14.436l-260.84 260.84v-176.71c0-27.217-22.063-49.281-49.282-49.281-27.218 0-49.282 22.064-49.282 49.281v295.69c0 0.44952 0.0212 0.89323 0.0332 1.3398 0.01 0.35234 0.0103 0.70453 0.0273 1.0566 0.0249 0.51912 0.0705 1.0321 0.11132 1.5469 0.0228 0.28581 0.0367 0.57198 0.0645 0.85743 0.0562 0.58082 0.13281 1.1557 0.20899 1.7305 0.0281 0.21142 0.0492 0.42367 0.0801 0.63478 0.0857 0.58811 0.18863 1.1708 0.29492 1.752 0.0377 0.20571 0.071 0.41188 0.11133 0.61719 0.10548 0.53786 0.22679 1.0701 0.34961 1.6016 0.061 0.26428 0.11619 0.52954 0.18165 0.79298 0.12389 0.4982 0.26147 0.99036 0.40039 1.4824 0.0792 0.28087 0.15601 0.56211 0.24024 0.84181 0.14147 0.46889 0.29427 0.93167 0.44922 1.3945 0.10145 0.30376 0.19912 0.60805 0.30664 0.91017 0.15463 0.43343 0.32001 0.86134 0.48633 1.2891 0.12812 0.33025 0.25515 0.6603 0.39064 0.98829 0.1602 0.38691 0.3303 0.76852 0.5 1.1504 0.15946 0.3596 0.31786 0.7197 0.48634 1.0762 0.15935 0.33652 0.32744 0.66774 0.49414 1 0.19956 0.39846 0.39835 0.79737 0.60938 1.1914 0.15697 0.29271 0.32171 0.58002 0.48438 0.86915 0.23351 0.41549 0.46835 0.83024 0.71485 1.2402 0.16238 0.26995 0.33264 0.53426 0.50001 0.8008 0.25511 0.40639 0.50923 0.81249 0.77734 1.2129 0.18613 0.27803 0.38265 0.54828 0.57423 0.82227 0.27276 0.38989 0.54278 0.78047 0.82814 1.1641 0.21126 0.28428 0.4332 0.56035 0.6504 0.83986 0.26754 0.34397 0.53066 0.69092 0.80859 1.0293 0.31798 0.38762 0.6491 0.76302 0.97853 1.1406 0.20238 0.23174 0.39608 0.46847 0.60352 0.69728 1.097 1.2111 2.2537 2.3679 3.4648 3.4648 0.22882 0.20744 0.46554 0.40114 0.69727 0.60351 0.37795 0.32973 0.75268 0.66225 1.1406 0.98048 0.30632 0.25157 0.62077 0.48743 0.93165 0.73048 0.31935 0.24942 0.63537 0.50249 0.96095 0.74415 0.3885 0.28861 0.78477 0.5622 1.1797 0.8379 0.25122 0.17529 0.49933 0.3547 0.75392 0.52539 0.40507 0.27166 0.81538 0.53074 1.2266 0.78908 0.2774 0.17432 0.55292 0.35062 0.834 0.51953 0.40748 0.24475 0.81955 0.47707 1.2324 0.70899 0.28326 0.15928 0.56486 0.3208 0.85156 0.47462 0.41147 0.22045 0.82789 0.42879 1.2441 0.63672 0.30642 0.15333 0.61185 0.308 0.92189 0.45509 0.37372 0.17697 0.74979 0.34467 1.127 0.51172 0.38251 0.1698 0.76478 0.33974 1.1523 0.50001 0.30694 0.12662 0.61686 0.24312 0.9258 0.36328 0.44922 0.17517 0.898 0.34946 1.3535 0.51173 0.2768 0.0984 0.55583 0.18798 0.834 0.28125 0.48197 0.16197 0.96462 0.32335 1.4531 0.4707 0.26594 0.0801 0.53381 0.1511 0.80079 0.22657 0.51966 0.14715 1.0399 0.2915 1.5664 0.42188 0.20776 0.0514 0.41671 0.0959 0.625 0.14453 0.57266 0.13388 1.1464 0.26519 1.7266 0.37892 0.19929 0.0391 0.39995 0.0688 0.59962 0.10546 0.5855 0.10725 1.1711 0.21248 1.7637 0.29883 0.21504 0.0314 0.43113 0.0534 0.64649 0.082 0.57336 0.0759 1.1472 0.15108 1.7266 0.20704 0.26135 0.0254 0.52351 0.0374 0.78516 0.0586 0.53569 0.0432 1.071 0.0913 1.6113 0.11719 0.79925 0.0387 1.5984 0.0586 2.3984 0.0586h295.69c27.218 0 49.281-22.061 49.281-49.279 0-27.217-22.063-49.282-49.281-49.282h-176.71l260.84-260.84c19.244-19.246 19.244-50.449 0-69.694-9.6222-9.6227-22.235-14.436-34.848-14.436zm-837.79 542.1c-27.217 0-49.281 22.063-49.281 49.282 0 27.218 22.064 49.282 49.281 49.282h176.71l-260.84 260.84c-19.245 19.244-19.245 50.45 0 69.694 19.246 19.244 50.449 19.244 69.694 0l260.84-260.84v176.71c0 27.218 22.064 49.282 49.282 49.282 27.218 0 49.28-22.063 49.28-49.282v-295.69c0-0.80001-0.0199-1.5992-0.0586-2.3984-0.0259-0.54038-0.074-1.0756-0.11719-1.6113-0.0212-0.26166-0.0332-0.52381-0.0586-0.78516-0.056-0.57942-0.13119-1.1532-0.20704-1.7266-0.0286-0.21536-0.0506-0.43145-0.082-0.64649-0.0863-0.59255-0.19158-1.1782-0.29883-1.7637-0.0366-0.19967-0.0664-0.40033-0.10546-0.59962-0.11373-0.58014-0.24504-1.1539-0.37892-1.7266-0.0487-0.20829-0.0931-0.41724-0.14453-0.625-0.13038-0.52649-0.27473-1.0468-0.42188-1.5664-0.0755-0.26698-0.14651-0.53485-0.22657-0.80079-0.14735-0.48851-0.30873-0.97116-0.4707-1.4531-0.0933-0.27817-0.18289-0.5572-0.28125-0.834-0.16227-0.45552-0.33656-0.9043-0.51173-1.3535-0.12016-0.30894-0.23666-0.61886-0.36328-0.9258-0.16027-0.38757-0.33021-0.76984-0.50001-1.1523-0.16705-0.37717-0.33475-0.75324-0.51172-1.127-0.14709-0.31003-0.30176-0.61546-0.45509-0.92188-0.20793-0.41627-0.41627-0.83269-0.63672-1.2441-0.15382-0.2867-0.31534-0.5683-0.47462-0.85157-0.23192-0.41288-0.46424-0.82495-0.70899-1.2324-0.16891-0.28108-0.34521-0.5566-0.51953-0.834-0.25834-0.41119-0.51742-0.82151-0.78908-1.2266-0.17069-0.25459-0.3501-0.5027-0.52539-0.75392-0.2757-0.39492-0.54929-0.79119-0.8379-1.1797-0.24165-0.32558-0.49473-0.64161-0.74415-0.96095-0.24305-0.31088-0.4789-0.62533-0.73048-0.93165-0.31823-0.38796-0.65075-0.7627-0.98048-1.1406-0.20237-0.23173-0.39607-0.46845-0.60351-0.69727-0.54818-0.60522-1.1122-1.1981-1.6894-1.7754-0.57793-0.57796-1.1695-1.1407-1.7754-1.6895-0.22881-0.20744-0.46554-0.40115-0.69728-0.60352-0.37761-0.32943-0.75301-0.66055-1.1406-0.97853-0.33839-0.27793-0.68534-0.54105-1.0293-0.8086-0.27951-0.21719-0.55558-0.43913-0.83986-0.65039-0.3836-0.28537-0.77418-0.55538-1.1641-0.82814-0.27399-0.19158-0.54424-0.3881-0.82227-0.57423-0.40041-0.26811-0.80651-0.52223-1.2129-0.77734-0.26654-0.16738-0.53085-0.33763-0.8008-0.50001-0.41-0.2465-0.82474-0.48134-1.2402-0.71485-0.28913-0.16267-0.57643-0.32741-0.86915-0.48438-0.39405-0.21103-0.79296-0.40983-1.1914-0.60938-0.33227-0.1667-0.66349-0.33479-1-0.49414-0.35648-0.16848-0.71658-0.32689-1.0762-0.48634-0.38187-0.1697-0.76349-0.3398-1.1504-0.5-0.32799-0.13549-0.65804-0.26253-0.98829-0.39064-0.42774-0.16632-0.85565-0.3317-1.2891-0.48633-0.30212-0.10752-0.60641-0.20519-0.91016-0.30664-0.46288-0.15496-0.92566-0.30775-1.3945-0.44922-0.2797-0.0842-0.56093-0.16108-0.84181-0.24024-0.49207-0.13892-0.98423-0.2765-1.4824-0.4004-0.26343-0.0655-0.5287-0.1206-0.79298-0.18164-0.53143-0.12282-1.0637-0.24413-1.6016-0.34961-0.20531-0.0403-0.41148-0.0737-0.61719-0.11133-0.58118-0.10629-1.1638-0.20921-1.752-0.29492-0.21111-0.0309-0.42335-0.052-0.63478-0.0801-0.57473-0.0762-1.1496-0.1528-1.7305-0.20898-0.28545-0.0278-0.57162-0.0416-0.85743-0.0645-0.51479-0.0408-1.0278-0.0865-1.5469-0.11132-0.35212-0.017-0.70431-0.0178-1.0566-0.0273-0.44663-0.012-0.89034-0.0332-1.3398-0.0332h-295.69z" stroke-width="49.281"/>
</svg>
