<svg version="0.0" viewBox="0 0 1e3 1e3" xmlns="http://www.w3.org/2000/svg">
 <path d="m436.18 80.861c19.484-10.969 41.465-16.732 63.823-16.732s44.34 5.7622 63.823 16.732c19.484 10.969 35.81 26.774 47.406 45.891l0.12576 0.20598 367.29 613.17 0.35558 0.59843c11.357 19.67 17.367 41.972 17.432 64.691 0.065 22.714-5.8238 45.051-17.072 64.786-11.249 19.735-27.467 36.179-47.046 47.701-19.579 11.518-41.829 17.71-64.543 17.961l-0.47701 4e-3h-735.07c-22.715-0.25117-44.967-6.4479-64.545-17.965-19.578-11.522-35.798-27.966-47.047-47.701-11.249-19.735-17.134-42.072-17.071-64.786 0.063572-22.719 6.074-45.021 17.433-64.691l0.35225-0.59843 367.42-613.38c11.596-19.117 27.924-34.922 47.408-45.891zm63.823 69.997c-7.4543 0-14.783 1.9206-21.274 5.5771-6.4656 3.64-11.89 8.8771-15.75 15.211l-367.01 612.7c-3.6933 6.496-5.6469 13.838-5.6677 21.314-0.02125 7.5714 1.9405 15.017 5.6903 21.595 3.7497 6.5784 9.1564 12.06 15.682 15.897 6.4691 3.8074 13.814 5.8715 21.316 5.9886h734.04c7.502-0.11708 14.848-2.1812 21.314-5.9886 6.5263-3.8377 11.934-9.319 15.685-15.897 3.7467-6.5784 5.7111-14.024 5.6894-21.595-0.0217-7.476-1.9731-14.818-5.6677-21.314l-366.96-612.62c-0.0173-0.0291-0.0347-0.0577-0.052-0.0863-3.8638-6.3338-9.2843-11.571-15.75-15.211-6.496-3.6565-13.825-5.5771-21.274-5.5771zm0 177.91c23.95 0 43.364 19.415 43.364 43.364v173.46c0 23.946-19.414 43.364-43.364 43.364s-43.364-19.419-43.364-43.364v-173.46c0-23.949 19.414-43.364 43.364-43.364zm-43.364 390.28c0-23.95 19.414-43.364 43.364-43.364h0.43364c23.95 0 43.364 19.414 43.364 43.364 0 23.946-19.414 43.364-43.364 43.364h-0.43364c-23.95 0-43.364-19.418-43.364-43.364z" clip-rule="evenodd" fill-rule="evenodd" stroke-width="43.364"/>
</svg>
