<svg version="0.0" viewBox="0 0 1e3 1e3" xmlns="http://www.w3.org/2000/svg">
 <path d="m676.2 96.117c-34.558 0-67.706 13.729-92.142 38.166l-398.88 398.88c-40.726 40.73-63.604 95.966-63.604 153.56 0 57.597 22.88 112.83 63.604 153.56 40.724 40.726 95.962 63.609 153.56 63.609s112.83-22.883 153.56-63.609l398.88-398.88c16.949-16.949 44.433-16.949 61.382 0 16.949 16.954 16.949 44.433 0 61.382l-398.88 398.88c-57.007 57.007-134.32 89.035-214.94 89.035s-157.93-32.028-214.94-89.035c-57.007-57.002-89.03-134.32-89.03-214.94s32.026-157.93 89.03-214.94l398.88-398.88c40.717-40.717 95.94-63.591 153.52-63.591s112.81 22.875 153.52 63.591c40.717 40.717 63.591 95.94 63.591 153.52 0 57.584-22.874 112.81-63.591 153.52l-399.32 398.88c-24.428 24.432-57.562 38.156-92.108 38.156-34.547 0-67.68-13.724-92.108-38.156-24.428-24.428-38.152-57.558-38.152-92.108 0-34.545 13.724-67.676 38.152-92.108l368.52-368.08c16.962-16.941 44.441-16.924 61.382 0.036 16.941 16.961 16.923 44.441-0.0347 61.382l-368.48 368.04c-8.1378 8.1513-12.727 19.211-12.727 30.726 0 11.528 4.5778 22.579 12.727 30.726 8.1487 8.1513 19.201 12.73 30.725 12.73 11.524 0 22.577-4.5791 30.725-12.73l399.32-398.88c24.428-24.436 38.165-57.588 38.165-92.142 0-34.56-13.729-67.706-38.165-92.142-24.436-24.438-57.584-38.166-92.142-38.166z" clip-rule="evenodd" fill-rule="evenodd" stroke-width="43.404"/>
</svg>
