<svg version="0.0" viewBox="0 0 1e3 1e3" xmlns="http://www.w3.org/2000/svg">
 <path d="m500 15.721c-32.112 0-62.904 12.756-85.61 35.461-22.705 22.705-35.461 53.5-35.461 85.61v6.7656c-0.0331 5.0926-1.5469 10.067-4.3594 14.314-1.8955 2.8617-4.325 5.3091-7.1387 7.2188-2.7503 0.5759-5.441 1.4392-8.0254 2.5801-4.7948 2.1163-10.112 2.7476-15.27 1.8125-5.1011-0.92497-9.8138-3.3404-13.541-6.9394l-2.2285-2.2285c-11.241-11.249-24.587-20.174-39.277-26.264-14.697-6.093-30.453-9.2286-46.363-9.2286-15.911 0-31.664 3.1355-46.361 9.2286-14.693 6.091-28.043 15.017-39.285 26.27-11.246 11.24-20.169 24.586-26.258 39.273-6.093 14.697-9.2286 30.451-9.2286 46.361 0 15.911 3.1355 31.666 9.2286 46.363 6.0898 14.691 15.03 28.054 26.279 39.295l2.2129 2.2109c3.599 3.7277 6.0145 8.44 6.9395 13.541 0.93507 5.1572 0.30379 10.475-1.8125 15.27-0.34344 0.77807-0.66129 1.5674-0.95509 2.3652-1.8168 4.94-5.078 9.2195-9.3594 12.281-4.1826 2.9916-9.1503 4.6857-14.283 4.877h-3.0527c-32.11 0-62.904 12.756-85.61 35.461-22.705 22.705-35.461 53.498-35.461 85.61 0 32.108 12.756 62.903 35.461 85.608 22.705 22.705 53.5 35.463 85.61 35.463h6.7598c5.0946 0.0323 10.072 1.5444 14.32 4.3613 4.2653 2.8209 7.6076 6.8335 9.6231 11.539l0.17578 0.39453c2.1163 4.7944 2.7476 10.114 1.8125 15.271-0.92497 5.1011-3.34 9.8102-6.9394 13.539l-2.2285 2.2285c-11.249 11.239-20.174 24.59-26.264 39.279-6.093 14.698-9.2286 30.453-9.2286 46.361 0 15.908 3.1355 31.663 9.2286 46.361 6.087 14.686 15.006 28.026 26.248 39.262 11.244 11.255 24.597 20.187 39.295 26.281 14.697 6.0938 30.451 9.2286 46.361 9.2286 15.911 0 31.666-3.1347 46.363-9.2286 14.691-6.0898 28.054-15.03 39.295-26.281l2.2129-2.2109c3.7277-3.5998 8.4388-6.0133 13.539-6.9376 5.1572-0.93627 10.475-0.30622 15.27 1.8125 0.77807 0.34304 1.5674 0.66256 2.3652 0.95313 4.94 1.8201 9.2191 5.0796 12.281 9.3575 2.9912 4.185 4.6857 9.1538 4.877 14.287v3.0508c0 32.108 12.756 62.903 35.461 85.608 22.705 22.705 53.498 35.463 85.61 35.463 32.108 0 62.903-12.758 85.608-35.463 22.704-22.705 35.463-53.5 35.463-85.608v-6.7676c0.0323-5.089 1.5485-10.065 4.3613-14.311 2.8209-4.2657 6.8335-7.6112 11.539-9.625l0.39453-0.17384c4.7944-2.1187 10.114-2.7488 15.271-1.8125 5.1011 0.92418 9.8103 3.3377 13.535 6.9376l2.2148 2.2109c11.243 11.255 24.599 20.187 39.297 26.281s30.449 9.2286 46.361 9.2286c15.909 0 31.663-3.1347 46.361-9.2286 14.69-6.0898 28.04-15.016 39.279-26.264 11.251-11.239 20.174-24.59 26.264-39.279 6.0938-14.698 9.2286-30.453 9.2286-46.361 0-15.908-3.1347-31.663-9.2286-46.361-6.0898-14.69-15.03-28.058-26.281-39.297l-2.2109-2.2109c-3.5998-3.7289-6.0132-8.438-6.9414-13.539-0.93224-5.1576-0.29828-10.477 1.8164-15.271l0.16993-0.39843c2.0178-4.7015 5.3632-8.7142 9.629-11.535 4.2495-2.8169 9.2255-4.329 14.318-4.3613h3.5312c32.108 0 62.903-12.758 85.608-35.463 22.704-22.705 35.463-53.5 35.463-85.608 0-32.107-12.758-62.904-35.463-85.61-22.705-22.705-53.5-35.461-85.608-35.461h-6.7676c-5.089-0.0331-10.065-1.5469-14.311-4.3594-2.8613-1.8955-5.3118-4.325-7.2207-7.1387-0.5771-2.7503-1.4401-5.441-2.5781-8.0254-2.1187-4.7948-2.7486-10.112-1.8164-15.27 0.92822-5.1015 3.3416-9.8149 6.9414-13.543l2.2285-2.2266c11.247-11.241 20.174-24.587 26.264-39.277 6.0938-14.697 9.2286-30.453 9.2286-46.363 0-15.911-3.1347-31.664-9.2286-46.361-6.0938-14.698-15.026-28.051-26.281-39.295-11.235-11.242-24.576-20.161-39.262-26.248-14.698-6.093-30.453-9.2286-46.361-9.2286-15.908 0-31.663 3.1355-46.361 9.2286-14.69 6.0898-28.058 15.03-39.297 26.279l-2.2109 2.2129c-3.7289 3.599-8.438 6.0145-13.539 6.9395-5.1576 0.93507-10.477 0.30184-15.271-1.8145l-0.39844-0.17187c-4.7015-2.0154-8.7142-5.3597-11.535-9.6251-2.8128-4.2471-4.329-9.222-4.3613-14.314v-3.5371c0-32.11-12.758-62.904-35.463-85.61-22.705-22.705-53.5-35.461-85.608-35.461zm0 80.715c10.703 0 20.968 4.2503 28.535 11.818 7.5668 7.5685 11.822 17.834 11.822 28.537v3.793c0.0847 20.857 6.2615 41.234 17.779 58.623 11.473 17.33 27.753 30.939 46.838 39.164 19.496 8.5572 41.107 11.1 62.061 7.3008 21.026-3.8125 40.43-13.835 55.705-28.777l2.752-2.752c3.7491-3.752 8.2004-6.7286 13.1-8.7598 4.8993-2.0307 10.15-3.0762 15.453-3.0762 5.303 0 10.552 1.0454 15.451 3.0762 4.8993 2.0312 9.3506 5.0078 13.1 8.7598l0.0332 0.0312c3.7532 3.7479 6.7279 8.2004 8.7578 13.1 2.034 4.8993 3.0781 10.15 3.0781 15.453 0 5.3033-1.0442 10.556-3.0781 15.455-2.0299 4.8993-5.0203 9.3651-8.7734 13.113l-2.4258 2.4199-0.31056 0.31836c-14.94 15.276-24.966 34.677-28.779 55.703-3.3092 18.254-1.803 37.004 4.2949 54.424 0.48025 3.6648 1.4608 7.2558 2.9258 10.668 8.2126 19.171 21.856 35.521 39.246 47.035 17.39 11.518 37.767 17.695 58.623 17.779h7.0215c10.703 0 20.968 4.2554 28.535 11.822 7.5668 7.567 11.82 17.833 11.82 28.535 0 10.702-4.2535 20.968-11.82 28.535-7.5668 7.5668-17.833 11.822-28.535 11.822h-3.793c-20.856 0.0847-41.233 6.2615-58.623 17.779-17.329 11.477-30.941 27.753-39.166 46.838-8.5556 19.496-11.098 41.107-7.3008 62.061 3.8137 21.026 13.835 40.43 28.779 55.705l2.752 2.752c3.7532 3.7491 6.7279 8.2004 8.7578 13.1 2.034 4.8993 3.0781 10.15 3.0781 15.453 0 5.303-1.0442 10.552-3.0781 15.451-2.0299 4.8993-5.0046 9.3506-8.7578 13.1l-0.0312 0.0332c-3.7491 3.7532-8.2024 6.7279-13.102 8.7578-4.8993 2.034-10.148 3.0781-15.451 3.0781-5.303 0-10.554-1.0442-15.453-3.0781-4.8993-2.0299-9.3662-5.0203-13.115-8.7734l-2.4219-2.4258-0.31445-0.31056c-15.279-14.94-34.679-24.966-55.705-28.779-20.953-3.7976-42.564-1.2548-62.061 7.3008-19.085 8.2248-35.365 21.837-46.838 39.166-11.518 17.39-17.695 37.767-17.779 58.623v7.0215c0 10.703-4.2554 20.968-11.822 28.535-7.5666 7.567-17.833 11.82-28.535 11.82-10.703 0-20.968-4.2535-28.535-11.82-7.567-7.5666-11.822-17.833-11.822-28.535v-3.6328l-0.0117-0.94337c-0.50043-21.454-7.4455-42.257-19.928-59.711-12.236-17.111-29.241-30.225-48.877-37.715-19.242-8.2166-40.483-10.614-61.09-6.8809-21.026 3.8137-40.429 13.835-55.705 28.779l-2.752 2.752c-3.7479 3.7532-8.1984 6.7279-13.098 8.7578-4.8993 2.034-10.151 3.0781-15.455 3.0781-5.3037 0-10.554-1.0442-15.453-3.0781-4.8993-2.0299-9.3518-5.0046-13.1-8.7578l-0.0312-0.0312c-3.7519-3.7491-6.7286-8.2024-8.7598-13.102-2.0307-4.8993-3.0762-10.148-3.0762-15.451 0-5.303 1.0454-10.554 3.0762-15.453 2.0311-4.8993 5.023-9.3662 8.7754-13.115l2.4238-2.4219 0.31054-0.31445c14.942-15.279 24.967-34.679 28.779-55.705 3.7996-20.953 1.2564-42.564-7.3008-62.061-8.2252-19.085-21.835-35.365-39.164-46.838-17.389-11.518-37.766-17.695-58.623-17.779h-7.0215c-10.703 0-20.969-4.2554-28.537-11.822-7.5682-7.5668-11.818-17.833-11.818-28.535 0-10.703 4.2503-20.968 11.818-28.535 7.5685-7.5668 17.834-11.822 28.537-11.822h3.6328l0.94337-0.0117c21.454-0.50043 42.26-7.4455 59.715-19.928 17.108-12.236 30.22-29.241 37.709-48.877 8.2198-19.242 10.617-40.483 6.881-61.09-3.8125-21.026-13.835-40.429-28.777-55.705l-2.752-2.752c-3.752-3.7479-6.7286-8.1984-8.7598-13.098-2.0307-4.8993-3.0762-10.152-3.0762-15.455 0-5.3037 1.0454-10.554 3.0762-15.453 2.0312-4.8993 5.0078-9.3518 8.7598-13.1l0.0312-0.0312c3.7479-3.7519 8.2004-6.7286 13.1-8.7598 4.8993-2.0307 10.149-3.0762 15.453-3.0762 5.3033 0 10.556 1.0454 15.455 3.0762 4.8993 2.0311 9.3655 5.0234 13.113 8.7754l2.4199 2.4238 0.31836 0.31054c15.276 14.942 34.677 24.967 55.703 28.779 18.254 3.31 37.005 1.8054 54.424-4.2949 3.6648-0.47903 7.2558-1.4594 10.668-2.9219 19.17-8.2162 35.521-21.859 47.035-39.248 11.518-17.389 17.695-37.766 17.779-58.623v-7.0215c0-10.703 4.2554-20.969 11.822-28.537 7.567-7.5682 17.833-11.818 28.535-11.818zm-0.0117 242.14c-89.153 0-161.43 72.272-161.43 161.42 0 89.157 72.274 161.43 161.43 161.43 89.157 0 161.43-72.27 161.43-161.43 0-89.153-72.27-161.42-161.43-161.42zm0 80.713c44.578 0 80.713 36.137 80.713 80.712 0 44.578-36.135 80.713-80.713 80.713-44.574 0-80.712-36.135-80.712-80.713 0-44.574 36.137-80.712 80.712-80.712z" stroke-width="40.356"/>
</svg>
