<svg version="0.0" viewBox="0 0 1e3 1e3" xmlns="http://www.w3.org/2000/svg">
 <path d="m451.75 113.97c-186.55 0-337.78 151.23-337.78 337.78s151.23 337.78 337.78 337.78c91.002 0 173.6-35.988 234.34-94.51 1.2691-1.6503 2.6588-3.2427 4.174-4.753 1.5104-1.5152 3.1027-2.9049 4.753-4.174 58.522-60.737 94.51-143.34 94.51-234.34 0-186.55-151.23-337.78-337.78-337.78zm339.32 608.87c59.43-74.297 94.969-168.54 94.969-271.08 0-239.85-194.43-434.29-434.29-434.29s-434.29 194.43-434.29 434.29c0 239.85 194.43 434.29 434.29 434.29 102.54 0 196.78-35.539 271.08-94.969l177.34 177.34c18.843 18.843 49.398 18.843 68.241 0 18.843-18.843 18.843-49.398 0-68.241z" clip-rule="evenodd" fill-rule="evenodd" stroke-width="48.254"/>
</svg>
