<svg version="0.0" viewBox="0 0 1e3 1e3" xmlns="http://www.w3.org/2000/svg">
 <path d="m648.16 6.1151c-27.277 0-49.387 22.113-49.387 49.389s22.11 49.389 49.387 49.389h177.1l-458.96 458.96c-19.287 19.286-19.287 50.56 0 69.847 19.288 19.286 50.56 19.286 69.847 0l458.96-458.96v177.1c0 27.276 22.112 49.387 49.389 49.387 27.277 0 49.389-22.111 49.389-49.387v-296.33c0-0.44944-0.0213-0.89329-0.0332-1.3398-0.01-0.35419-0.0102-0.70855-0.0273-1.0625-0.0255-0.53214-0.073-1.0583-0.11524-1.5859-0.0221-0.27466-0.0358-0.54988-0.0625-0.82423-0.0503-0.51962-0.1193-1.034-0.18555-1.5488-0.0372-0.2878-0.0671-0.57604-0.10937-0.86329-0.0817-0.55746-0.1791-1.1089-0.2793-1.6602-0.0408-0.22454-0.0771-0.44977-0.12109-0.67384-0.11242-0.57306-0.241-1.1393-0.37305-1.7051-0.0503-0.2155-0.0952-0.43155-0.14845-0.64649-0.13332-0.53826-0.28082-1.0704-0.43164-1.6016-0.0711-0.2509-0.13968-0.50199-0.21484-0.75196-0.1515-0.50289-0.31546-1.0001-0.48242-1.4961-0.0912-0.27164-0.17932-0.54412-0.2754-0.81446-0.15793-0.4433-0.32791-0.88101-0.49805-1.3184-0.12628-0.32543-0.24937-0.65138-0.38281-0.97462-0.1637-0.39558-0.33814-0.78547-0.51173-1.1758-0.15959-0.35965-0.31772-0.71965-0.48633-1.0762-0.15984-0.33735-0.32888-0.66887-0.4961-1.002-0.19641-0.39194-0.39212-0.7842-0.59961-1.1719-0.15576-0.29063-0.31911-0.57618-0.48048-0.86329-0.24054-0.42846-0.48201-0.85666-0.73633-1.2793-0.14614-0.24273-0.29904-0.48071-0.44922-0.7207-0.27493-0.4395-0.55174-0.87802-0.8418-1.3105-0.16321-0.24342-0.33456-0.48037-0.50197-0.72071-0.29066-0.41714-0.57975-0.83415-0.88476-1.2441-0.20662-0.27797-0.42445-0.54688-0.63673-0.82032-0.27235-0.35047-0.53917-0.70413-0.82228-1.0488-0.32027-0.39042-0.65446-0.76816-0.98633-1.1484-0.20089-0.22998-0.39374-0.4643-0.59961-0.69142-0.54996-0.60722-1.1142-1.2021-1.6934-1.7812-0.57883-0.57884-1.1725-1.1437-1.7793-1.6934-0.26526-0.2405-0.53941-0.46551-0.8086-0.69923-0.33475-0.29032-0.66528-0.58386-1.0078-0.86524-0.34731-0.28565-0.70348-0.55536-1.0566-0.83009-0.2862-0.2224-0.5682-0.44983-0.85938-0.66602-0.4179-0.31057-0.84228-0.60668-1.2676-0.90235-0.21549-0.14973-0.42852-0.30285-0.64649-0.44922-0.46148-0.30999-0.92904-0.6057-1.3984-0.89845-0.21862-0.13637-0.43539-0.27517-0.65626-0.4082-0.44135-0.26568-0.88827-0.51888-1.3359-0.76954-0.25886-0.14508-0.51563-0.29306-0.77735-0.43359-0.42052-0.22552-0.84597-0.43792-1.2715-0.6504-0.30735-0.15372-0.61286-0.30957-0.92384-0.45703-0.38479-0.18213-0.77368-0.35181-1.1621-0.52344-0.35314-0.15637-0.70508-0.31462-1.0625-0.46289-0.36412-0.15071-0.73076-0.29197-1.0976-0.43359-0.39667-0.15348-0.79379-0.30576-1.1953-0.44922-0.30625-0.10915-0.61398-0.21153-0.92189-0.31445-0.47761-0.16-0.95547-0.31721-1.4394-0.46289-0.23438-0.070421-0.4699-0.13431-0.70509-0.20117-0.54634-0.15558-1.0946-0.3063-1.6484-0.44336-0.21692-0.053634-0.43485-0.099738-0.65235-0.15039-0.5456-0.12714-1.0922-0.25244-1.6445-0.36133-0.28889-0.056984-0.57948-0.10251-0.86915-0.1543-0.50113-0.089484-1.0016-0.17966-1.5078-0.25391-0.31648-0.046558-0.634-0.080689-0.95118-0.12109-0.47231-0.059944-0.94354-0.12537-1.4199-0.17188-0.43352-0.042573-0.86843-0.066518-1.3027-0.097657-0.36997-0.026333-0.73722-0.06194-1.1094-0.080079-0.81398-0.040072-1.6286-0.062501-2.4434-0.062501h-296.33zm-493.88 148.17c-39.296 0-76.984 15.61-104.77 43.396s-43.396 65.473-43.396 104.77v543.27c0 39.293 15.61 76.983 43.396 104.77 27.786 27.786 65.475 43.398 104.77 43.398h543.27c39.298 0 76.983-15.613 104.77-43.398 27.786-27.786 43.396-65.47 43.396-104.77v-296.33c0-27.277-22.11-49.389-49.387-49.389-27.277 0-49.389 22.112-49.389 49.389v296.33c0 13.098-5.2065 25.664-14.467 34.924-9.2604 9.2604-21.824 14.465-34.922 14.465h-543.27c-13.099 0-25.662-5.2046-34.924-14.465-9.2619-9.2604-14.465-21.826-14.465-34.924v-543.27c0-13.099 5.2031-25.662 14.465-34.924 9.2624-9.2619 21.825-14.465 34.924-14.465h296.33c27.277 0 49.389-22.113 49.389-49.389 0-27.276-22.112-49.387-49.389-49.387h-296.33z" stroke-width="49.388"/>
</svg>
