<svg version="0.0" viewBox="0 0 1e3 1e3" xmlns="http://www.w3.org/2000/svg">
 <path d="m500 18.665c12.765 0 25.01 5.0713 34.035 14.098l240.66 240.66c18.796 18.797 18.796 49.274 0 68.07-18.796 18.797-49.274 18.797-68.07 0l-158.5-158.5v461.39c0 26.584-21.549 48.133-48.133 48.133s-48.133-21.549-48.133-48.133v-461.39l-158.5 158.5c-18.797 18.797-49.274 18.797-68.07 0-18.797-18.797-18.797-49.274 0-68.07l240.66-240.66c9.0249-9.0264 21.27-14.098 34.035-14.098zm-433.2 577.6c26.583 0 48.133 21.549 48.133 48.133v192.53c0 12.765 5.0713 25.01 14.098 34.035 9.0269 9.0249 21.27 14.098 34.035 14.098h673.86c12.765 0 25.01-5.0732 34.035-14.098 9.0249-9.0249 14.098-21.27 14.098-34.035v-192.53c0-26.584 21.549-48.133 48.133-48.133s48.133 21.549 48.133 48.133v192.53c0 38.299-15.215 75.025-42.294 102.1-27.08 27.08-63.805 42.294-102.1 42.294h-673.86c-38.297 0-75.025-15.215-102.1-42.294-27.08-27.08-42.294-63.805-42.294-102.1v-192.53c0-26.584 21.55-48.133 48.133-48.133z" clip-rule="evenodd" fill-rule="evenodd" stroke-width="48.133"/>
</svg>
