<svg version="0.0" viewBox="0 0 1e3 1e3" xmlns="http://www.w3.org/2000/svg">
 <path d="m140.09 95.096c-74.54 0-134.97 60.428-134.97 134.97v539.87c-1e-7 74.543 60.428 134.97 134.97 134.97h719.83c74.543 0 134.97-60.426 134.97-134.97v-539.87c0-74.54-60.426-134.97-134.97-134.97zm0 89.979h134.97v629.85h-134.97c-24.847 0-44.99-20.143-44.99-44.99v-539.87c0-24.847 20.144-44.99 44.99-44.99zm224.95 0h269.94v629.85h-269.94zm359.91 0h134.97c24.848 0 44.99 20.143 44.99 44.99v539.87c0 24.848-20.143 44.99-44.99 44.99h-134.97z" stroke-width="44.989"/>
</svg>
