<svg version="0.0" viewBox="0 0 1e3 1e3" xmlns="http://www.w3.org/2000/svg">
 <path d="m796.33 126.59c-14.688 0-28.774 5.8347-39.16 16.221l-607.68 607.68-26.107 104.43 104.43-26.107 607.68-607.68c5.1413-5.1428 9.2208-11.248 12.006-17.967 2.7806-6.7188 4.2128-13.92 4.2128-21.193 0-7.2724-1.4323-14.474-4.2128-21.193-2.7855-6.7188-6.865-12.824-12.006-17.966-5.1413-5.1428-11.246-9.2218-17.967-12.005-6.7168-2.783-13.918-4.2158-21.192-4.2158zm-109-53.625c28.912-28.91 68.121-45.152 109-45.152 20.244 0 40.291 3.9876 58.994 11.735 18.703 7.747 35.698 19.102 50.01 33.417 14.318 14.315 25.672 31.309 33.416 50.011 7.749 18.703 11.735 38.749 11.735 58.993s-3.9856 40.29-11.735 58.993c-7.7441 18.703-19.098 35.697-33.416 50.012l-617.35 617.35c-6.3296 6.3266-14.26 10.821-22.944 12.989l-197.55 49.388c-16.831 4.2079-34.634-0.72107-46.902-12.989-12.267-12.268-17.198-30.072-12.991-46.904l49.388-197.55c2.1711-8.6824 6.6615-16.614 12.991-22.941zm-236.71 849.83c0-27.277 22.111-49.388 49.388-49.388h444.49c27.277 0 49.388 22.111 49.388 49.388 0 27.277-22.111 49.388-49.388 49.388h-444.49c-27.277 0-49.388-22.111-49.388-49.388z" clip-rule="evenodd" fill-rule="evenodd" stroke-width="49.388"/>
</svg>
