<svg version="0.0" viewBox="0 0 1e3 1e3" xmlns="http://www.w3.org/2000/svg">
 <path d="m141.96 141.96c-11.87 0-23.253 4.7154-31.647 13.108-8.3929 8.3934-13.108 19.777-13.108 31.647v626.57c0 11.869 4.7154 23.255 13.108 31.646 8.3934 8.3916 19.777 13.109 31.647 13.109h716.08c11.869 0 23.255-4.7172 31.646-13.109s13.109-19.777 13.109-31.646v-492.3c0-11.87-4.7172-23.253-13.109-31.647-8.3916-8.3929-19.777-13.108-31.646-13.108h-402.79c-14.966 0-28.939-7.4786-37.241-19.929l-76.221-114.34zm-94.94-50.185c25.18-25.18 59.33-39.325 94.94-39.325h223.77c14.964 0 28.938 7.4786 37.238 19.929l76.224 114.34h378.84c35.612 0 69.76 14.146 94.939 39.325 25.179 25.18 39.326 59.33 39.326 94.94v492.3c0 35.612-14.147 69.76-39.326 94.939-25.179 25.179-59.327 39.326-94.939 39.326h-716.08c-35.609 0-69.76-14.147-94.94-39.326-25.18-25.179-39.325-59.327-39.325-94.939v-626.57c0-35.609 14.146-69.76 39.325-94.94z" clip-rule="evenodd" fill-rule="evenodd" stroke-width="44.755"/>
</svg>
