<svg version="0.0" viewBox="0 0 1e3 1e3" xmlns="http://www.w3.org/2000/svg">
 <path d="m499.99 6.6334c-83.279 0-163.15 33.083-222.04 91.971-58.887 58.888-91.972 138.76-91.972 222.04 0 150.4-32.166 243.79-61.81 298.14-14.884 27.288-29.378 45.19-39.444 55.817-5.0456 5.3246-9.009 8.8539-11.396 10.846-1.1941 0.99585-1.9968 1.6076-2.3418 1.8633-0.05428 0.0404-0.09555 0.0713-0.12695 0.0937-16.081 11.049-23.199 31.252-17.531 49.972 5.7279 18.917 23.168 31.856 42.935 31.856h807.45c19.765 0 37.204-12.94 42.933-31.856 5.6656-18.72-1.4494-38.923-17.531-49.972-0.0314-0.0224-0.0751-0.0534-0.12889-0.0937-0.34542-0.25568-1.1446-0.8674-2.3379-1.8633-2.391-1.9917-6.3517-5.5209-11.398-10.846-10.066-10.627-24.561-28.531-39.444-55.817-29.647-54.345-61.81-147.74-61.81-298.14 0-83.28-33.081-163.15-91.972-222.04-58.885-58.887-138.76-91.971-222.04-91.971zm0 89.718c59.486 0 116.54 23.63 158.6 65.692 42.063 42.062 65.694 99.111 65.694 158.6 0 163.61 35.119 272.09 72.765 341.09 3.4137 6.2577 6.8401 12.174 10.254 17.768h-614.62c3.4132-5.5938 6.8385-11.51 10.252-17.768 37.644-69.014 72.765-177.49 72.765-341.09 0-59.485 23.632-116.54 65.694-158.6 42.063-42.063 99.11-65.692 158.6-65.692zm-76.735 762.59c-7.9349-0.16145-16.013 1.7798-23.379 6.0526-21.43 12.43-28.724 39.88-16.293 61.313 11.83 20.393 28.81 37.316 49.237 49.087 20.433 11.766 43.591 17.963 67.169 17.963 23.573 0 46.738-6.1963 67.167-17.963 20.429-11.771 37.412-28.695 49.241-49.087 12.43-21.434 5.1346-48.883-16.299-61.313-21.429-12.43-48.877-5.136-61.308 16.293-3.943 6.8005-9.6023 12.445-16.412 16.365-6.8095 3.9206-14.531 5.9882-22.391 5.9882s-15.579-2.0676-22.389-5.9882c-6.8095-3.9206-12.471-9.5644-16.414-16.365-8.1573-14.063-22.785-22.037-37.933-22.346z" stroke-width="44.859"/>
</svg>
