<svg version="0.0" viewBox="0 0 1e3 1e3" xmlns="http://www.w3.org/2000/svg">
 <path d="m499.99 16.466c-0.71746 0-1.4336 0.01978-2.1504 0.05469-0.40684 0.01961-0.80901 0.05534-1.2129 0.08594-0.31313 0.02389-0.62678 0.04169-0.93944 0.07227-0.47334 0.046-0.94128 0.10707-1.4102 0.16797-0.2324 0.03029-0.46528 0.05584-0.69726 0.08984-0.49883 0.07292-0.99306 0.16048-1.4863 0.24999-0.20647 0.03752-0.4131 0.07084-0.61912 0.11133-0.51569 0.10126-1.0261 0.2168-1.5352 0.33593-0.17885 0.04183-0.35868 0.07895-0.5371 0.12305-0.47979 0.11868-0.95427 0.25046-1.4277 0.38476-0.23261 0.06587-0.46554 0.12944-0.69725 0.19922-0.41627 0.12559-0.8273 0.26094-1.2383 0.39843-0.27796 0.09279-0.5556 0.1847-0.83202 0.28319-0.35446 0.12659-0.70447 0.2611-1.0547 0.39647-0.33683 0.12988-0.6736 0.25994-1.0078 0.39843-0.30132 0.12516-0.59855 0.25703-0.89646 0.38866-0.35728 0.15751-0.71449 0.31492-1.0684 0.48241-0.28839 0.13678-0.57251 0.28099-0.8574 0.42382-0.3571 0.17872-0.71326 0.35781-1.0664 0.54687-0.26492 0.14201-0.52545 0.29025-0.78709 0.43749-0.37094 0.20854-0.74136 0.41851-1.1074 0.63866-0.21194 0.12754-0.41929 0.26157-0.62889 0.39257-0.40859 0.25527-0.81689 0.51125-1.2188 0.78123-0.18557 0.12466-0.36525 0.25736-0.5488 0.38476-0.38579 0.26785-0.77143 0.53477-1.1504 0.81639-0.26706 0.19829-0.5267 0.40521-0.78905 0.60937-0.30299 0.23601-0.6081 0.46782-0.90623 0.71287-0.35539 0.29176-0.7009 0.59586-1.0469 0.89842-0.18846 0.16501-0.3801 0.3234-0.5664 0.49218-0.54502 0.49323-1.078 0.99789-1.5976 1.5176l-131.87 131.87c-17.166 17.167-17.166 44.998 0 62.165 17.167 17.166 44.998 17.166 62.165 0l56.829-56.831v289.48h-289.49l56.831-56.831c17.166-17.167 17.166-44.997 0-62.163-17.167-17.167-44.998-17.167-62.165 0l-131.83 131.83c-0.01337 0.0133-0.02767 0.0257-0.04102 0.0391v2e-3c-0.50854 0.50856-1.005 1.0296-1.4883 1.5625-0.08203 0.0905-0.15706 0.1862-0.23828 0.27734-0.40253 0.45132-0.80162 0.90722-1.1855 1.375-0.02975 0.0363-0.05631 0.0749-0.08594 0.11132-0.42678 0.52338-0.84332 1.0546-1.2461 1.5976-0.01808 0.0244-0.0347 0.0498-0.05273 0.0742-0.40995 0.55511-0.80736 1.1187-1.1914 1.6934-0.0047 7e-3 -9e-3 0.0144-0.01367 0.0215-3.8968 5.8388-6.4353 12.663-7.158 20.02-0.0044 0.0448-0.0055 0.09-0.0098 0.13476-0.13208 1.3878-0.20508 2.7923-0.20508 4.2147 0 0.72857 0.01875 1.4554 0.05469 2.1796 0.03336 0.68298 0.0862 1.3607 0.15039 2.0352 0.0043 0.0448 0.0053 0.09 0.0098 0.13477 0.71786 7.3063 3.2282 14.084 7.0799 19.896 0.0361 0.0546 0.07107 0.10963 0.10742 0.16405 0.33503 0.50071 0.6823 0.99258 1.0371 1.4785 0.07069 0.097 0.13747 0.19651 0.20898 0.29296 0.39313 0.52929 0.79883 1.048 1.2148 1.5586 0.034 0.0418 0.06545 0.0853 0.09961 0.12695 0.3839 0.46775 0.78298 0.92365 1.1855 1.375 0.08122 0.0911 0.15625 0.18685 0.23828 0.27734 0.48355 0.53322 0.97937 1.0536 1.4883 1.5625l131.87 131.87c17.167 17.17 44.998 17.17 62.165 0 17.166-17.165 17.166-45 0-62.165l-56.831-56.831h289.49v289.49l-56.829-56.831c-17.167-17.17-44.998-17.17-62.165 0-17.166 17.165-17.166 44.995 0 62.165l131.87 131.87c0.18769 0.18759 0.38546 0.36304 0.57616 0.54687 0.32708 0.31557 0.64958 0.63599 0.98631 0.94138 0.11963 0.10841 0.2445 0.20943 0.36522 0.3164 0.41505 0.36826 0.83283 0.73337 1.2617 1.0859 0.12172 0.0999 0.2484 0.19249 0.37108 0.291 0.44862 0.36085 0.90043 0.71721 1.3633 1.0606 0.0199 0.0147 0.0406 0.0283 0.0605 0.043 6.204 4.586 13.656 7.5801 21.754 8.3748 0.0428 4e-3 0.0861 6e-3 0.12889 0.01 1.3878 0.13211 2.7923 0.20508 4.2147 0.20508 9.7104 0 18.681-3.1556 25.954-8.4881 0.0736-0.0538 0.14942-0.1039 0.22266-0.1582 0.39035-0.28989 0.77011-0.59214 1.1504-0.89451 0.19471-0.1546 0.39364-0.30286 0.58593-0.46093 0.28883-0.23774 0.567-0.48751 0.84959-0.7324 0.26422-0.22875 0.53375-0.45007 0.79295-0.68554 0.51972-0.47243 1.0288-0.9585 1.5254-1.4551l131.87-131.87c17.17-17.17 17.17-45 0-62.165-17.165-17.17-44.998-17.17-62.163 0l-56.833 56.833v-289.49h289.49l-56.829 56.831c-17.17 17.165-17.17 45 0 62.165 17.165 17.17 44.993 17.17 62.163 0l131.87-131.87c3.6028-3.6028 6.4368-7.6798 8.5272-12.025 0.30949-0.64335 0.60253-1.2926 0.87888-1.9472 0.27613-0.65415 0.53626-1.3124 0.77928-1.9766 2e-3 -7e-3 5e-3 -0.013 8e-3 -0.0195 1e-3 -3e-3 3e-3 -6e-3 4e-3 -0.01 0.23115-0.63312 0.44539-1.271 0.64647-1.9121 0.0177-0.0563 0.0372-0.11159 0.0547-0.16796 0.19789-0.63994 0.37886-1.283 0.54686-1.9297 0.0128-0.0491 0.0284-0.0973 0.041-0.14649 0.16581-0.6474 0.31528-1.2982 0.45116-1.9512 0.0125-0.0601 0.0268-0.11951 0.0391-0.17969 0.14322-0.7029 0.26838-1.4093 0.37695-2.1172 3.1e-4 -2e-3 2e-3 -4e-3 2e-3 -6e-3 1e-4 -6.4e-4 -1e-4 -1e-3 0-2e-3 0.67856-4.4292 0.67932-8.9393 2e-3 -13.369-8.8e-4 -6e-3 -1e-3 -0.0118-2e-3 -0.0176-4e-3 -0.0237-0.01-0.0466-0.0137-0.0703-0.10566-0.68179-0.22546-1.3619-0.36327-2.0391-0.016-0.0785-0.0344-0.15601-0.0508-0.23437-0.13201-0.63107-0.27751-1.2588-0.43749-1.8848-0.0199-0.0779-0.0422-0.15471-0.0625-0.23241-0.16208-0.61997-0.3358-1.2378-0.52538-1.8516-0.0235-0.0758-0.0484-0.15089-0.0723-0.22656-0.19358-0.61487-0.39983-1.2264-0.62108-1.834-0.0189-0.0518-0.0395-0.10264-0.0586-0.15429-0.23172-0.62897-0.47681-1.2531-0.73826-1.873-2e-3 -5e-3 -4e-3 -0.0105-6e-3 -0.0156-5e-3 -0.0124-0.0104-0.0247-0.0156-0.0371-0.26981-0.63746-0.55615-1.2698-0.8574-1.8965-2e-3 -4e-3 -4e-3 -9e-3 -6e-3 -0.0137-5e-3 -0.0105-0.0106-0.0207-0.0156-0.0312-2.0889-4.333-4.9181-8.3976-8.5115-11.992l-131.87-131.87c-17.17-17.167-44.998-17.167-62.163 0-17.17 17.166-17.17 44.996 0 62.163l56.829 56.831h-289.49v-289.48l56.833 56.831c17.165 17.166 44.998 17.166 62.163 0 17.17-17.167 17.17-44.998 0-62.165l-131.87-131.87c-0.5125-0.51247-1.039-1.0113-1.5762-1.498-0.24106-0.21866-0.48968-0.42435-0.73437-0.63671-0.29842-0.25871-0.59303-0.5227-0.89842-0.77342-0.29847-0.24536-0.60484-0.47659-0.90818-0.71288-0.26268-0.2044-0.52165-0.41279-0.78904-0.61132-0.35298-0.26231-0.71333-0.50939-1.0723-0.75975-0.21673-0.15111-0.42885-0.30779-0.64842-0.45507-0.37096-0.24891-0.74825-0.4843-1.125-0.72068-0.24049-0.15094-0.47903-0.30477-0.72263-0.45116-0.3616-0.2172-0.72736-0.42302-1.0938-0.6289-0.25347-0.14258-0.50515-0.28811-0.7617-0.42577-0.35677-0.19118-0.71728-0.37209-1.0781-0.55273-0.29259-0.14673-0.58456-0.29324-0.88084-0.43358-0.33114-0.15656-0.66582-0.30334-0.99997-0.45116-0.32139-0.14248-0.6414-0.28692-0.96678-0.42187-0.31743-0.13135-0.63721-0.25336-0.95701-0.37694-0.35979-0.13938-0.71966-0.27808-1.084-0.40819-0.2802-0.09984-0.56195-0.19313-0.84373-0.2871-0.40684-0.136-0.81448-0.27019-1.2266-0.39452-0.23225-0.06995-0.46606-0.1332-0.69921-0.19922-0.47343-0.13429-0.94791-0.26608-1.4277-0.38476-0.18116-0.04477-0.36332-0.08256-0.54491-0.125-0.50348-0.11772-1.0076-0.23372-1.5176-0.33397-0.21228-0.04176-0.42589-0.07467-0.63865-0.11328-0.49226-0.08922-0.98458-0.17732-1.4824-0.24999-0.22347-0.03273-0.448-0.05665-0.67186-0.08594-0.4749-0.06189-0.95012-0.12332-1.4297-0.16992-0.31684-0.03099-0.63382-0.0501-0.95114-0.07422-0.39868-0.0301-0.79568-0.0646-1.1973-0.08399-0.71743-0.03498-1.4362-0.05469-2.1542-0.05469z" stroke-width="43.957"/>
</svg>
