<svg version="0.0" viewBox="0 0 1e3 1e3" xmlns="http://www.w3.org/2000/svg">
 <path d="m379.17 177.78c-66.733 0-120.83 54.101-120.83 120.83s54.101 120.83 120.83 120.83c66.737 0 120.83-54.101 120.83-120.83s-54.097-120.83-120.83-120.83zm-201.39 120.83c0-111.22 90.166-201.39 201.39-201.39s201.39 90.166 201.39 201.39-90.166 201.39-201.39 201.39-201.39-90.166-201.39-201.39zm444.31-165.86c5.5181-21.55 27.462-34.546 49.01-29.029 43.323 11.092 81.716 36.286 109.14 71.61 27.417 35.324 42.3 78.768 42.3 123.49 0 44.721-14.883 88.16-42.3 123.49-27.421 35.324-65.814 60.518-109.14 71.61-21.549 5.5141-43.492-7.4796-49.01-29.032-5.5141-21.549 7.4796-43.492 29.032-49.01 25.991-6.6551 49.026-21.771 65.48-42.965 16.45-21.195 25.379-47.262 25.379-74.091 0-26.829-8.9296-52.897-25.379-74.091-16.454-21.194-39.489-36.311-65.48-42.965-21.553-5.5177-34.546-27.46-29.032-49.01zm-546.45 506.82c37.768-37.769 88.99-58.987 142.4-58.987h322.22c53.413 0 104.64 21.218 142.4 58.987 37.769 37.765 58.987 88.99 58.987 142.4v80.556c0 22.246-18.032 40.278-40.278 40.278s-40.278-18.032-40.278-40.278v-80.556c0-32.045-12.732-62.781-35.392-85.442-22.66-22.66-53.397-35.392-85.442-35.392h-322.22c-32.047 0-62.781 12.732-85.442 35.392-22.66 22.66-35.391 53.397-35.391 85.442v80.556c0 22.246-18.033 40.278-40.278 40.278-22.245 0-40.278-18.032-40.278-40.278v-80.556c0-53.413 21.218-104.64 58.987-142.4zm707.56-23.542c5.5584-21.537 27.53-34.49 49.067-28.928 43.206 11.153 81.482 36.343 108.82 71.606 27.337 35.267 42.191 78.615 42.223 123.24v80.584c0 22.246-18.032 40.278-40.278 40.278s-40.278-18.032-40.278-40.278v-80.528c-0.0201-26.773-8.9296-52.78-25.335-73.938-16.401-21.162-39.368-36.274-65.291-42.969-21.537-5.5584-34.49-27.53-28.928-49.067z" clip-rule="evenodd" fill-rule="evenodd" stroke-width="40.278"/>
</svg>
