<svg version="0.0" viewBox="0 0 1e3 1e3" xmlns="http://www.w3.org/2000/svg">
 <path d="m472.02 22.085c17.123-10.701 38.846-10.701 55.969 0l422.41 264c19.975 12.484 29.262 36.689 22.768 59.332-6.4945 22.643-27.198 38.245-50.752 38.245h-844.82c-23.555 0-44.261-15.603-50.754-38.245-6.494-22.642 2.7953-46.847 22.77-59.332zm-210.32 255.98h476.6l-238.3-148.94zm-25.704 158.4c29.161 0 52.801 23.639 52.801 52.801v264c0 29.162-23.64 52.801-52.801 52.801-29.161 0-52.801-23.639-52.801-52.801v-264c0-29.162 23.64-52.801 52.801-52.801zm264 0c29.162 0 52.801 23.639 52.801 52.801v264c0 29.162-23.639 52.801-52.801 52.801s-52.801-23.639-52.801-52.801v-264c0-29.162 23.639-52.801 52.801-52.801zm264 0c29.162 0 52.801 23.639 52.801 52.801v264c0 29.162-23.639 52.801-52.801 52.801s-52.801-23.639-52.801-52.801v-264c0-29.162 23.639-52.801 52.801-52.801zm-739.21 475.21c0-29.162 23.64-52.801 52.801-52.801h844.82c29.162 0 52.801 23.639 52.801 52.801s-23.639 52.801-52.801 52.801h-844.82c-29.161 0-52.801-23.639-52.801-52.801z" clip-rule="evenodd" fill="#282828" fill-rule="evenodd" stroke-width="52.801"/>
</svg>
