<svg version="0.0" viewBox="0 0 1e3 1e3" xmlns="http://www.w3.org/2000/svg">
 <path d="m44.837 44.837c26.503-26.502 69.472-26.502 95.973 0l359.2 359.2 359.2-359.2c26.501-26.502 69.472-26.502 95.973 0 26.501 26.503 26.501 69.472 0 95.973l-359.2 359.2 359.2 359.2c26.501 26.501 26.501 69.472 0 95.973-26.501 26.501-69.472 26.501-95.973 0l-359.2-359.2-359.2 359.2c-26.503 26.501-69.472 26.501-95.973 0-26.502-26.501-26.502-69.472 0-95.973l359.2-359.2-359.2-359.2c-26.502-26.503-26.502-69.472 0-95.973z" clip-rule="evenodd" fill-rule="evenodd" stroke-width="67.864"/>
</svg>
