<svg version="0.0" viewBox="0 0 1e3 1e3" xmlns="http://www.w3.org/2000/svg">
 <path d="m233.86 5.7514c-62.99 0-114.06 51.063-114.06 114.06 0 62.99 51.065 114.06 114.06 114.06 62.992 0 114.06-51.065 114.06-114.06 0-62.99-51.063-114.06-114.06-114.06zm532.26 0c-62.988 0-114.06 51.063-114.06 114.06 0 62.99 51.066 114.06 114.06 114.06s114.06-51.065 114.06-114.06c0-62.99-51.068-114.06-114.06-114.06zm-532.26 380.18c-62.99 0-114.06 51.066-114.06 114.06s51.065 114.06 114.06 114.06c62.992 0 114.06-51.066 114.06-114.06s-51.063-114.06-114.06-114.06zm532.26 0c-62.988 0-114.06 51.066-114.06 114.06s51.066 114.06 114.06 114.06 114.06-51.066 114.06-114.06-51.068-114.06-114.06-114.06zm-532.26 380.18c-62.99 0-114.06 51.068-114.06 114.06 0 62.989 51.065 114.06 114.06 114.06 62.992 0 114.06-51.066 114.06-114.06 0-62.991-51.063-114.06-114.06-114.06zm532.26 0c-62.988 0-114.06 51.068-114.06 114.06 0 62.989 51.066 114.06 114.06 114.06s114.06-51.066 114.06-114.06c0-62.991-51.068-114.06-114.06-114.06z" stroke-width="76.038"/>
</svg>
