<svg version="0.0" viewBox="0 0 1e3 1e3" xmlns="http://www.w3.org/2000/svg">
 <path d="m500 95.258c-223.53 0-404.74 181.21-404.74 404.74 0 223.53 181.21 404.74 404.74 404.74 223.53 0 404.74-181.21 404.74-404.74 0-223.53-181.21-404.74-404.74-404.74zm-494.68 404.74c0-273.21 221.48-494.68 494.68-494.68 273.21 0 494.68 221.48 494.68 494.68 0 273.21-221.48 494.68-494.68 494.68-273.21 0-494.68-221.48-494.68-494.68zm494.68-224.86c24.838 0 44.971 20.135 44.971 44.971v251.2l103.11-103.11c17.561-17.561 46.037-17.561 63.598 0 17.561 17.561 17.561 46.037 0 63.598l-179.89 179.89c-17.561 17.561-46.037 17.561-63.598 0l-179.89-179.89c-17.562-17.561-17.562-46.037 0-63.598 17.563-17.561 46.037-17.561 63.599 0l103.11 103.11v-251.2c0-24.837 20.134-44.971 44.971-44.971z" clip-rule="evenodd" fill-rule="evenodd" stroke-width="44.971"/>
</svg>
