<svg version="0.0" viewBox="0 0 1e3 1e3" xmlns="http://www.w3.org/2000/svg">
 <path d="m141.86 287.49c-7.0856 8.3595-12.334 22.465-12.334 41.516 0 31.477-25.518 56.995-56.995 56.995-31.477 0-56.995-25.518-56.995-56.995 0-37.944 10.221-80.836 39.369-115.22 30.507-35.991 75.917-55.764 131.62-55.764h740.94c31.478 0 56.995 25.518 56.995 56.995s-25.517 56.995-56.995 56.995h-170.98v370.47c0 40.392 13.787 57.058 28.053 66.564 18.347 12.231 47.722 18.928 85.937 18.928 31.478 0 56.995 25.517 56.995 56.995s-25.517 56.995-56.995 56.995c-47.277 0-103.39-7.5518-149.17-38.067-49.854-33.239-78.813-87.818-78.813-161.42v-370.47h-227.98v512.96c0 31.478-25.518 56.995-56.995 56.995s-56.995-25.517-56.995-56.995v-512.96h-113.99c-27.352 0-38.935 8.7242-44.661 15.479z" clip-rule="evenodd" fill-rule="evenodd" stroke-width="56.995"/>
</svg>
