<svg version="0.0" viewBox="0 0 1e3 1e3" xmlns="http://www.w3.org/2000/svg">
 <path d="m434.09 16.689c-34.959 0-68.486 13.888-93.206 38.607s-38.605 58.246-38.605 93.206v43.936h-175.75c-24.266 0-43.937 19.672-43.937 43.938 0 24.266 19.672 43.938 43.937 43.938l659.06 2e-3v571.18c0 11.652-4.6309 22.83-12.869 31.068-8.2382 8.2426-19.416 12.869-31.068 12.869h-439.37c-11.653 0-22.828-4.6265-31.068-12.869-8.24-8.2382-12.869-19.416-12.869-31.068v-87.876h-87.876v87.876c0 34.961 13.888 68.484 38.607 93.204 24.72 24.719 58.246 38.609 93.206 38.609h439.37c34.956 0 68.486-13.89 93.206-38.609 24.719-24.719 38.607-58.242 38.607-93.204v-571.18l43.938-2e-3c24.267 0 43.938-19.671 43.938-43.938 0-24.266-19.671-43.938-43.938-43.938h-175.75v-43.936c0-34.959-13.888-68.486-38.607-93.206-24.719-24.72-58.247-38.607-93.204-38.607h-175.75zm0 87.876h175.75c11.652 0 22.83 4.6296 31.068 12.869 8.2382 8.24 12.869 19.415 12.869 31.068v43.936h-263.62v-43.936c0-11.653 4.6296-22.828 12.869-31.068 8.24-8.2396 19.415-12.869 31.068-12.869zm-219.69 219.69c-11.245 0-22.489 4.288-31.068 12.867l-131.81 131.81c-17.158 17.157-17.158 44.979 0 62.137l131.81 131.81c17.159 17.157 44.978 17.157 62.137 0 17.158-17.158 17.158-44.977 0-62.135l-56.805-56.807h245.42c7.6802 0 19.034 4.2841 29.346 14.592 10.308 10.312 14.592 21.665 14.592 29.346v175.75c0 24.267 19.671 43.938 43.938 43.938 24.267 0 43.938-19.697 43.938-43.959v-175.73c0-36.257-17.685-68.842-40.33-91.483-22.641-22.645-55.225-40.33-91.483-40.33h-245.42l56.807-56.807c17.158-17.159 17.158-44.978 0-62.137-8.5794-8.5792-19.824-12.867-31.068-12.867z" stroke-width="43.937"/>
</svg>
