<svg version="0.0" viewBox="0 0 1e3 1e3" xmlns="http://www.w3.org/2000/svg">
 <path d="m500.01 4.4731c-273.68 1e-7 -495.54 221.86-495.54 495.54 1e-7 273.68 221.86 495.54 495.54 495.54 273.68 0 495.54-221.86 495.54-495.54 0-273.68-221.86-495.54-495.54-495.54zm0 90.098c223.91 0 405.44 181.52 405.44 405.44 0 223.91-181.52 405.44-405.44 405.44-223.91 0-405.44-181.52-405.44-405.44 0-223.91 181.52-405.44 405.44-405.44zm0 90.098c-24.881 0-45.05 20.17-45.05 45.05v270.3c0 17.064 9.6423 32.661 24.905 40.292l180.19 90.098c22.254 11.127 49.31 2.1072 60.437-20.146 11.127-22.254 2.1072-49.31-20.146-60.437l-155.29-77.647v-242.45c0-24.88-20.169-45.05-45.05-45.05z" stroke-width="45.048"/>
</svg>
