<svg version="0.0" viewBox="0 0 1e3 1e3" xmlns="http://www.w3.org/2000/svg">
 <path d="m319.4 3.3611c-24.935 0-45.148 20.216-45.148 45.15v45.148h-90.299c-74.805 0-135.45 60.642-135.45 135.45v632.09c0 74.807 60.64 135.45 135.45 135.45h632.09c74.807 0 135.45-60.64 135.45-135.45v-632.09c0-74.805-60.638-135.45-135.45-135.45h-90.299v-45.148c0-24.935-20.213-45.15-45.148-45.15s-45.148 20.216-45.148 45.15v45.148h-270.89v-45.148c0-24.935-20.214-45.15-45.148-45.15zm-135.45 180.6h90.299v45.15c0 24.935 20.214 45.148 45.148 45.148 24.935 0 45.148-20.214 45.148-45.148v-45.15h270.89v45.15c0 24.935 20.213 45.148 45.148 45.148s45.148-20.214 45.148-45.148v-45.15h90.299c24.936 0 45.148 20.216 45.148 45.15v135.45h-722.38v-135.45c0-24.935 20.214-45.15 45.148-45.15zm-45.148 270.89h722.38v406.34c0 24.936-20.213 45.148-45.148 45.148h-632.09c-24.935 0-45.148-20.213-45.148-45.148v-406.34z" stroke-width="45.149"/>
</svg>
