<svg version="0.0" viewBox="0 0 1e3 1e3" xmlns="http://www.w3.org/2000/svg">
 <path d="m500 129.54c-160.51 0-283.84 91.646-364.48 177.66-40.695 43.408-71.764 86.658-92.664 119.02-10.475 16.218-18.463 29.807-23.889 39.455-2.7146 4.8243-4.7927 8.6725-6.2246 11.377-0.71606 1.3543-1.2715 2.426-1.6641 3.1875l-0.4668 0.9121-0.18945 0.37891s-0.033878 0.06667 36.783 18.475l-36.816-18.408c-5.7942 11.587-5.7942 25.229 0 36.816l0.22266 0.44532 0.4668 0.9121c0.39257 0.76153 0.94799 1.8333 1.6641 3.1875 1.4319 2.7044 3.51 6.5527 6.2246 11.377 5.4261 9.6486 13.413 23.237 23.889 39.455 20.9 32.362 51.969 75.611 92.664 119.02 80.639 86.018 203.96 177.66 364.48 177.66 160.51 0 283.84-91.644 364.47-177.66 40.698-43.406 71.764-86.655 92.666-119.02 10.472-16.218 18.461-29.807 23.887-39.455 2.7167-4.8243 4.7963-8.6726 6.2246-11.377 0.71623-1.3542 1.2708-2.426 1.666-3.1875l0.46679-0.9121 0.14258-0.28516 0.04492-0.09375s0.03468-0.06668-36.781-18.475l36.814 18.408c5.7957-11.587 5.7799-25.258-0.01172-36.846l-0.06641-0.13086-0.14453-0.28516-0.46484-0.9121c-0.39518-0.76153-0.94979-1.8333-1.666-3.1875-1.4284-2.7044-3.5079-6.5527-6.2246-11.377-5.4252-9.6485-13.415-23.237-23.887-39.455-20.902-32.362-51.968-75.612-92.666-119.02-80.638-86.014-203.96-177.66-364.47-177.66zm0 82.543c219.67 0.58879 361.67 213.35 405.84 287.92-46.644 76.63-184.42 286.14-405.84 287.92-215.93-1.0466-347.2-193.6-405.73-287.87 64.311-99.156 187.39-286.59 405.73-287.98zm0 123.27c-90.934 0-164.65 73.716-164.65 164.65 0 90.933 73.716 164.65 164.65 164.65 90.933 0 164.65-73.718 164.65-164.65 0-90.934-73.718-164.65-164.65-164.65zm0 82.324c45.468 0 82.326 36.858 82.326 82.326s-36.858 82.326-82.326 82.326c-45.468 0-82.326-36.858-82.326-82.326s36.858-82.326 82.326-82.326z"/>
</svg>
