<svg version="0.0" viewBox="0 0 1e3 1e3" xmlns="http://www.w3.org/2000/svg">
 <path d="m11.283 77.32c7.3513-15.845 23.231-25.983 40.699-25.983h897.32c17.466 0 33.349 10.138 40.698 25.983 7.3536 15.845 4.8411 34.517-6.4383 47.855l-348.32 411.89v366.73c0 15.551-8.049 29.989-21.28 38.168-13.227 8.1746-29.742 8.9149-43.65 1.9607l-179.47-89.733c-15.2-7.6003-24.802-23.133-24.802-40.128v-277l-348.32-411.89c-11.279-13.338-13.792-32.009-6.4401-47.855zm137.4 63.75 296.49 350.6c6.8466 8.0984 10.606 18.364 10.606 28.97v265.7l89.733 44.866v-310.56c0-10.606 3.7598-20.872 10.606-28.97l296.49-350.6z" clip-rule="evenodd" fill-rule="evenodd" stroke-width="44.866"/>
</svg>
