<svg version="0.0" viewBox="0 0 1e3 1e3" xmlns="http://www.w3.org/2000/svg">
 <path d="m500 5.7617c-272.96-1e-7 -494.24 221.28-494.24 494.24-1e-7 272.96 221.28 494.24 494.24 494.24s494.24-221.28 494.24-494.24c0-272.96-221.28-494.24-494.24-494.24zm0 89.861c223.33 0 404.38 181.05 404.38 404.38s-181.04 404.38-404.38 404.38c-223.33 0-404.38-181.04-404.38-404.38 0-223.33 181.05-404.38 404.38-404.38zm-4.6894 134.6c-31.463 0.19185-62.527 8.6465-89.969 24.775-36.592 21.505-64.392 55.266-78.477 95.305-8.2344 23.408 4.0662 49.06 27.475 57.295 23.408 8.2331 49.061-4.0662 57.295-27.475 7.0406-20.019 20.942-36.9 39.238-47.652 18.296-10.753 39.807-14.683 60.723-11.096 20.915 3.5877 39.891 14.462 53.555 30.697 13.668 16.235 21.149 36.782 21.117 58.004v0.0664c0 21.081-16.404 43.052-47.389 63.711-14.126 9.4175-28.571 16.671-39.66 21.6-5.4816 2.4352-9.9892 4.2359-13.018 5.3906-1.5097 0.57512-2.6465 0.98531-3.334 1.2324l-0.71875 0.25c-23.512 7.8629-36.21 33.295-28.369 56.82 7.8449 23.539 33.295 36.263 56.834 28.414l-14.207-42.625c14.207 42.626 14.266 42.607 14.266 42.607l0.0664-0.0234 0.17578-0.0586 0.49414-0.16992 1.5625-0.54882c1.2805-0.4538 3.048-1.0965 5.2227-1.9277 4.3403-1.6534 10.364-4.065 17.521-7.2461 14.18-6.3038 33.433-15.897 53.01-28.945 36.403-24.272 87.382-69.677 87.404-138.44 0.0539-42.432-14.904-83.519-42.23-115.98-27.336-32.47-65.281-54.22-107.11-61.395-10.458-1.7938-20.989-2.6479-31.477-2.584zm4.6934 449.5c-24.815 0-44.93 20.116-44.93 44.932 0 24.816 20.114 44.93 44.93 44.93h0.44921c24.815 0 44.932-20.114 44.932-44.93 0-24.816-20.116-44.932-44.932-44.932z" fill="#1a1a1a" stroke-width="44.931"/>
</svg>
