<svg version="0.0" viewBox="0 0 1e3 1e3" xmlns="http://www.w3.org/2000/svg">
 <path d="m410.39 96.769c-11.883 0-23.278 4.7204-31.681 13.122-8.4024 8.4024-13.122 19.798-13.122 31.681v44.802h268.82v-44.802c0-11.883-4.7222-23.278-13.123-31.681-8.4006-8.4019-19.798-13.122-31.68-13.122zm313.62 89.606v-44.802c0-35.648-14.162-69.834-39.368-95.041-25.206-25.206-59.395-39.367-95.041-39.367h-179.21c-35.648 0-69.834 14.161-95.041 39.367-25.206 25.207-39.368 59.395-39.368 95.041v44.802h-179.21c-24.744 0-44.803 20.059-44.803 44.803 0 24.744 20.059 44.803 44.803 44.803h44.803v582.44c0 35.645 14.161 69.834 39.368 95.041 25.207 25.206 59.395 39.368 95.041 39.368h448.03c35.645 0 69.834-14.162 95.041-39.368 25.206-25.206 39.368-59.395 39.368-95.041v-582.44h44.803c24.745 0 44.803-20.059 44.803-44.803 0-24.744-20.058-44.803-44.803-44.803zm-403.45 89.606-89.382-4.5e-4v582.44c0 11.882 4.72 23.28 13.122 31.68 8.4024 8.4006 19.798 13.123 31.681 13.123h448.03c11.882 0 23.28-4.7222 31.68-13.123 8.4006-8.4006 13.123-19.798 13.123-31.68v-582.44h-89.722l-358.08-4.5e-4c-0.0748 0-0.15009 4.5e-4 -0.22491 4.5e-4 -0.0753 0-0.15009-4.5e-4 -0.22536-4.5e-4zm89.83 134.41c24.745 0 44.803 20.058 44.803 44.803v268.82c0 24.745-20.058 44.803-44.803 44.803-24.744 0-44.803-20.058-44.803-44.803v-268.82c0-24.745 20.059-44.803 44.803-44.803zm134.41 44.803c0-24.745 20.058-44.803 44.803-44.803s44.803 20.058 44.803 44.803v268.82c0 24.745-20.058 44.803-44.803 44.803s-44.803-20.058-44.803-44.803z" clip-rule="evenodd" fill-rule="evenodd" stroke-width="44.803"/>
</svg>
