<svg version="0.0" viewBox="0 0 1e3 1e3" xmlns="http://www.w3.org/2000/svg">
 <path d="m500 96.098c-47.611 0-93.269 18.913-126.93 52.578-33.665 33.665-52.578 79.325-52.578 126.93v134.63h359.02v-134.63c0-47.61-18.912-93.269-52.579-126.93-33.663-33.665-79.322-52.578-126.93-52.578zm269.27 314.15v-134.63c0-71.414-28.367-139.9-78.869-190.4-50.497-50.498-118.99-78.867-190.4-78.867s-139.9 28.369-190.4 78.867c-50.498 50.498-78.867 118.99-78.867 190.4v134.63h-44.878c-74.356 0-134.63 60.276-134.63 134.63v314.15c0 74.358 60.278 134.63 134.63 134.63h628.29c74.358 0 134.63-60.276 134.63-134.63v-314.15c0-74.358-60.276-134.63-134.63-134.63zm-583.41 89.756c-24.785 0-44.878 20.092-44.878 44.878v314.15c0 24.786 20.093 44.878 44.878 44.878h628.29c24.786 0 44.878-20.092 44.878-44.878v-314.15c0-24.786-20.092-44.878-44.878-44.878z" clip-rule="evenodd" fill-rule="evenodd" stroke-width="44.878"/>
</svg>
