<svg version="0.0" viewBox="0 0 1e3 1e3" xmlns="http://www.w3.org/2000/svg">
 <path d="m524.61 7.7446c-72.618-0.17414-144.18 16.805-209.02 49.516-77.669 38.817-143.06 98.442-188.73 172.29-45.652 73.819-69.847 158.95-69.896 245.75-0.16934 64.88 15.336 128.22 41.534 187.38l-88.262 264.78a49.231 49.231 0 0 0 62.3 62.3l264.78-88.262c59.165 26.2 122.5 41.706 187.38 41.534 86.79-0.0492 171.92-24.247 245.75-69.896 73.785-45.63 133.37-110.96 172.19-188.54v-0.0984c32.764-64.895 49.797-136.52 49.61-209.21v-24.517a49.231 49.231 0 0 0-0.0985-2.6922c-6.328-114.69-54.724-223.08-135.95-304.3-81.223-81.223-189.61-129.62-304.3-135.95a49.231 49.231 0 0 0-2.6922-0.095991h-24.615zm-0.0985 98.452a49.231 49.231 0 0 0 0.0985 0h22.305c90.364 5.0846 175.68 43.193 239.69 107.2 64.009 64.009 102.11 149.32 107.2 239.69v22.305a49.231 49.231 0 0 0 0 0.0985c0.14768 57.225-13.236 113.72-39.035 164.79a49.231 49.231 0 0 0-0.0984 0.19198c-30.65 61.326-77.738 112.87-136.05 148.93-58.313 36.058-125.47 55.163-194.02 55.187a49.231 49.231 0 0 0-0.0985 0c-57.22 0.1526-113.72-13.235-164.79-39.035a49.231 49.231 0 0 0-37.785-2.7882l-187.1 62.399 62.399-187.1a49.231 49.231 0 0 0-2.7836-37.787c-25.798-51.072-39.184-107.57-39.035-164.79a49.231 49.231 0 0 0 0-0.0985c0.0265-68.552 19.13-135.72 55.187-194.02 36.058-58.303 87.608-105.4 148.93-136.05a49.231 49.231 0 0 0 0.19248-0.096c51.077-25.798 107.57-39.184 164.79-39.035z" color="#000000" color-rendering="auto" dominant-baseline="auto" image-rendering="auto" shape-rendering="auto" solid-color="#000000" stop-color="#000000" stroke-width="49.226" style="font-feature-settings:normal;font-variant-alternates:normal;font-variant-caps:normal;font-variant-east-asian:normal;font-variant-ligatures:normal;font-variant-numeric:normal;font-variant-position:normal;font-variation-settings:normal;inline-size:0;isolation:auto;mix-blend-mode:normal;shape-margin:0;shape-padding:0;text-decoration-color:#000000;text-decoration-line:none;text-decoration-style:solid;text-indent:0;text-orientation:mixed;text-transform:none;white-space:normal"/>
</svg>
