<svg version="0.0" viewBox="0 0 1e3 1e3" xmlns="http://www.w3.org/2000/svg">
 <path d="m500 94.569c-223.91 0-405.43 181.52-405.43 405.43 0 223.91 181.52 405.43 405.43 405.43 223.91 0 405.43-181.52 405.43-405.43 0-223.91-181.52-405.43-405.43-405.43zm-495.53 405.43c0-273.67 221.85-495.53 495.53-495.53 273.67 0 495.53 221.85 495.53 495.53 0 273.67-221.86 495.53-495.53 495.53-273.67 0-495.53-221.86-495.53-495.53zm450.48-180.19c0-24.879 20.168-45.048 45.048-45.048h0.45048c24.88 0 45.048 20.168 45.048 45.048 0 24.879-20.168 45.048-45.048 45.048h-0.45048c-24.88 0-45.048-20.169-45.048-45.048zm45.048 135.14c24.88 0 45.048 20.168 45.048 45.048v180.19c0 24.88-20.168 45.048-45.048 45.048s-45.048-20.168-45.048-45.048v-180.19c0-24.88 20.168-45.048 45.048-45.048z" clip-rule="evenodd" fill-rule="evenodd" stroke-width="45.048"/>
</svg>
