<svg version="0.0" viewBox="0 0 1e3 1e3" xmlns="http://www.w3.org/2000/svg">
 <path d="m411.5 13.226c-35.209 0-68.976 13.986-93.873 38.883s-38.883 58.664-38.883 93.873v44.252h-177.01c-24.44 0-44.252 19.812-44.252 44.252 0 24.44 19.812 44.252 44.252 44.252h44.254v575.28c0 35.207 13.986 68.977 38.883 93.873 24.897 24.896 58.664 38.885 93.873 38.885h442.52c35.207 0 68.977-13.988 93.873-38.885 24.896-24.896 38.885-58.666 38.885-93.873v-575.28h44.252c24.441 0 44.252-19.812 44.252-44.252 0-24.44-19.811-44.252-44.252-44.252h-177.01v-44.252c0-35.209-13.986-68.976-38.883-93.873-24.896-24.897-58.666-38.883-93.873-38.883zm-2.2031 88.729h181.83c23.328 0 42.109 20.953 42.109 46.979v41.301h-266.05v-41.301c0-26.026 18.781-46.979 42.109-46.979zm-174.8 176.78h531.27v572.93c0 26.141-21.046 47.188-47.188 47.188h-436.9c-26.141 0-47.188-21.046-47.188-47.188zm390.67 140.35c-11.325 0-22.651 4.3207-31.293 12.961l-93.875 93.875-93.871-93.871c-17.281-17.28-45.301-17.28-62.582 0-17.281 17.28-17.281 45.302 0 62.582l93.871 93.871-93.871 93.869c-17.281 17.285-17.281 45.301 0 62.586 17.281 17.28 45.301 17.28 62.582 0l93.871-93.871 93.875 93.875c17.285 17.28 45.302 17.28 62.582 0 17.285-17.28 17.285-45.302 0-62.582l-93.875-93.877 93.875-93.875c17.285-17.28 17.285-45.302 0-62.582-8.6402-8.6402-19.964-12.961-31.289-12.961z" stroke-width="44.252"/>
</svg>
