<svg version="0.0" viewBox="0 0 1e3 1e3" xmlns="http://www.w3.org/2000/svg">
 <path d="m319.6 3.9007c-72.734 0-123.6 12.139-157.69 25.775-17.005 6.802-29.641 13.901-38.57 19.854-4.4559 2.9707-7.9635 5.6397-10.611 7.8203-1.3232 1.0896-2.4294 2.0545-3.3301 2.873-0.45009 0.40906-0.84909 0.78135-1.1973 1.1133l-0.48438 0.46875-0.21484 0.21094-0.0996 0.09961-0.0488 0.04883c-0.0234 0.02345-0.0469 0.04689 31.844 31.938l-31.891-31.891c-8.4576 8.458-13.209 19.929-13.209 31.891v856.9c1e-6 24.909 20.192 45.1 45.1 45.1 24.908 0 45.1-20.191 45.1-45.1v-291.43c3.133-1.5535 6.8134-3.2278 11.111-4.9473 22.285-8.9162 61.621-19.326 124.19-19.326 57.759 0 106.46 18.998 163.65 41.877l2.5117 1.0059c54.977 21.995 118.27 47.318 194.64 47.318 72.733 0 123.6-12.142 157.69-25.775 17.003-6.8011 29.639-13.9 38.568-19.854 4.4559-2.9721 7.964-5.642 10.611-7.8203 1.3214-1.0914 2.4281-2.0548 3.3301-2.8711 0.45101-0.41041 0.84745-0.78601 1.1992-1.1152l0.48242-0.46875 0.21679-0.21093 0.0996-0.0996 0.0488-0.0449c0.0226-0.0271 0.0445-0.0512-31.846-31.941l31.891 31.891c8.4562-8.4562 13.209-19.93 13.209-31.891v-541.2c0-18.241-10.986-34.687-27.84-41.668-16.421-6.8006-35.254-3.3143-48.139 8.7969-0.35629 0.2927-1.4252 1.1456-3.2969 2.3926-3.7568 2.5039-10.852 6.6793-22.037 11.152-22.284 8.914-61.618 19.326-124.19 19.326-57.759 0-106.46-18.999-163.65-41.875-0.83435-0.33419-1.6729-0.66986-2.5117-1.0059-54.977-21.997-118.26-47.32-194.64-47.32zm0 90.201c57.759 1e-6 106.46 18.997 163.65 41.873 0.83435 0.33419 1.6729 0.66987 2.5117 1.0059 54.977 21.997 118.27 47.32 194.64 47.32 58.26 0 102.48-7.7891 135.3-17.896v444.63c-3.1299 1.556-6.8198 3.2296-11.113 4.9434-22.284 8.9162-61.618 19.324-124.19 19.324-57.759 0-106.46-18.996-163.65-41.875-0.83435-0.33374-1.6729-0.66762-2.5117-1.0059-54.977-21.995-118.26-47.318-194.64-47.318-58.258 0-102.48 7.7896-135.3 17.896v-444.63c3.1304-1.5519 6.8196-3.2249 11.111-4.9414 22.285-8.914 61.621-19.324 124.19-19.324z" stroke-width="45.1"/>
</svg>
