<svg version="0.0" viewBox="0 0 1e3 1e3" xmlns="http://www.w3.org/2000/svg">
 <path d="m15.035 500c0-59.521 48.25-107.77 107.77-107.77 59.52 0 107.77 48.249 107.77 107.77s-48.25 107.77-107.77 107.77c-59.52 0-107.77-48.249-107.77-107.77zm377.2 0c0-59.521 48.249-107.77 107.77-107.77s107.77 48.249 107.77 107.77-48.249 107.77-107.77 107.77-107.77-48.249-107.77-107.77zm377.2 0c0-59.521 48.249-107.77 107.77-107.77s107.77 48.249 107.77 107.77-48.249 107.77-107.77 107.77-107.77-48.249-107.77-107.77z" clip-rule="evenodd" fill-rule="evenodd" stroke-width="53.885"/>
</svg>
