<svg version="0.0" viewBox="0 0 1e3 1e3" xmlns="http://www.w3.org/2000/svg">
 <path d="m135.16 45.308c25.275-25.275 59.555-39.474 95.299-39.474h359.39c11.914 0 23.343 4.7332 31.766 13.158l269.55 269.55c8.4233 8.4251 13.158 19.852 13.158 31.766v539.09c0 35.746-14.201 70.023-39.475 95.298-25.274 25.274-59.552 39.475-95.298 39.475h-539.09c-35.744 0-70.024-14.201-95.299-39.475-25.275-25.274-39.474-59.552-39.474-95.298v-718.79c0-35.744 14.199-70.024 39.474-95.299zm95.299 50.374c-11.915 0-23.341 4.7332-31.766 13.158-8.4246 8.4251-13.158 19.852-13.158 31.766v718.79c0 11.914 4.7332 23.343 13.158 31.766 8.4251 8.4233 19.852 13.158 31.766 13.158h539.09c11.914 0 23.343-4.735 31.766-13.158s13.158-19.852 13.158-31.766v-494.17h-224.62c-24.812 0-44.924-20.113-44.924-44.924v-224.62zm404.32 63.532 116.16 116.16h-116.16zm-359.39 206.01c0-24.811 20.113-44.924 44.924-44.924h89.848c24.812 0 44.924 20.113 44.924 44.924 0 24.811-20.113 44.924-44.924 44.924h-89.848c-24.811 0-44.924-20.113-44.924-44.924zm0 179.7c0-24.812 20.113-44.924 44.924-44.924h359.39c24.812 0 44.924 20.113 44.924 44.924s-20.113 44.924-44.924 44.924h-359.39c-24.811 0-44.924-20.113-44.924-44.924zm0 179.7c0-24.812 20.113-44.924 44.924-44.924h359.39c24.812 0 44.924 20.113 44.924 44.924 0 24.812-20.113 44.924-44.924 44.924h-359.39c-24.811 0-44.924-20.113-44.924-44.924z" clip-rule="evenodd" fill-rule="evenodd" stroke-width="44.924"/>
</svg>
