<svg version="0.0" viewBox="0 0 1e3 1e3" xmlns="http://www.w3.org/2000/svg">
 <path d="m630.37 5.3499c-126.59 0-253.18 48.292-349.77 144.88-56.242 56.242-96.101 122.66-119.6 193.33h-104.28c-28.8 0-52.147 23.348-52.147 52.149 0 28.801 23.346 52.149 52.147 52.149h81.74c-3.653 34.662-3.6537 69.636 0 104.3h-81.74c-28.8 0-52.147 23.345-52.147 52.147 0 28.801 23.346 52.149 52.147 52.149h104.29c23.492 70.662 63.35 137.08 119.59 193.32 193.18 193.17 506.36 193.17 699.53 0 20.365-20.365 20.365-53.384 0-73.748-20.365-20.37-53.384-20.37-73.748 0-152.44 152.44-399.59 152.44-552.04 0-35.513-35.513-62.749-76.168-81.715-119.57h409.88c28.801 0 52.149-23.347 52.149-52.149 0-28.801-23.347-52.147-52.149-52.147h-439.01c-4.6386-34.599-4.6395-69.699-2e-3 -104.3h439.01c28.801 0 52.149-23.347 52.149-52.149 0-28.8-23.347-52.149-52.149-52.149h-409.88c18.967-43.402 46.204-84.06 81.719-119.58 152.44-152.44 399.59-152.44 552.04 0 20.365 20.366 53.384 20.366 73.748 0 20.365-20.366 20.365-53.385 0-73.75-96.585-96.586-223.17-144.88-349.76-144.88z" stroke-width="52.15"/>
</svg>
