<svg version="0.0" viewBox="0 0 1e3 1e3" xmlns="http://www.w3.org/2000/svg">
 <path d="m500.01 28.844c20.096 0 38.445 11.407 47.34 29.424l123.67 250.53 276.55 40.422c19.88 2.9057 36.386 16.843 42.58 35.953 6.1985 19.111 1.0118 40.082-13.382 54.101l-200.07 194.87 47.217 275.3c3.3962 19.805-4.7467 39.822-21.006 51.633-16.259 11.812-37.811 13.369-55.597 4.0121l-247.3-130.05-247.3 130.05c-17.786 9.3571-39.34 7.7998-55.597-4.0121-16.259-11.812-24.401-31.828-21.004-51.633l47.217-275.3-200.07-194.87c-14.392-14.018-19.58-34.989-13.383-54.101 6.1963-19.111 22.703-33.048 42.582-35.953l276.55-40.422 123.67-250.53c8.8952-18.017 27.244-29.424 47.335-29.424z" clip-rule="evenodd" fill="#282828" fill-rule="evenodd" stroke-width="43.992"/>
</svg>
