<svg version="0.0" viewBox="0 0 1e3 1e3" xmlns="http://www.w3.org/2000/svg">
 <path d="m515.56 4.2949c-1.9218-5.022e-4 -3.8456 0.010442-5.7695 0.033203-187.42 0-358.81 105.65-442.96 273.22-70.306 140.06-70.306 305.07 0 445.14 84.148 167.38 255.54 273.02 442.96 273.02 133.69 0 246.43-43.895 328.58-119.66l-0.0918-0.0703c93.748-86.335 147.63-213.8 147.63-364.56 0-33.694-2.7317-67.572-8.5625-100.72h-467.55v190.88h267.74c-11.108 61.567-46.806 116.02-99.084 150.63v0.11328c-44.418 30.158-101.72 47.236-168.47 47.236-129.32 0-238.97-87.249-278.31-204.54h-0.18359c-20.762-61.561-20.761-128.22 2e-3 -189.78 39.16-117.48 148.99-204.73 278.3-204.73 70.672-1.0924 138.97 25.499 190.15 74.312l141.53-141.52c-88.215-82.833-204.84-128.96-325.91-128.99z" stroke-width="49.836"/>
</svg>
