<svg version="0.0" viewBox="0 0 1e3 1e3" xmlns="http://www.w3.org/2000/svg">
 <path d="m766.81 99.791c-49.119 0-88.936 39.818-88.936 88.936 0 15.444 3.9354 29.968 10.859 42.625 0.45357 0.68659 0.8938 1.3896 1.3118 2.1087 0.418 0.71372 0.80932 1.4345 1.1828 2.1612 15.693 25.239 43.676 42.041 75.582 42.041 49.119 0 88.936-39.818 88.936-88.936s-39.817-88.936-88.936-88.936zm-126.37 214.1c32.235 32.543 76.947 52.703 126.37 52.703 98.234 0 177.87-79.638 177.87-177.87 0-98.234-79.638-177.87-177.87-177.87s-177.87 79.638-177.87 177.87c0 16.765 2.3212 32.989 6.6569 48.368l-236.03 137.74c-32.235-32.543-76.952-52.703-126.37-52.703-98.234 0-177.87 79.638-177.87 177.87s79.638 177.87 177.87 177.87c49.435 0 94.157-20.166 126.39-52.721l236.06 137.56c-4.3712 15.435-6.7102 31.728-6.7102 48.564 0 98.234 79.638 177.87 177.87 177.87s177.87-79.638 177.87-177.87-79.638-177.87-177.87-177.87c-49.351 0-94.005 20.1-126.23 52.557l-236.16-137.62c4.3312-15.368 6.648-31.586 6.648-48.341 0-16.764-2.3194-32.991-6.6551-48.368zm-331.66 139.21c0.37264 0.72927 0.76707 1.4496 1.1833 2.1611 0.41978 0.72038 0.85646 1.423 1.3096 2.1078 6.9241 12.66 10.861 27.183 10.861 42.627s-3.9363 29.967-10.861 42.623c-0.45802 0.69815-0.89959 1.4096-1.3238 2.1345-0.41133 0.70704-0.80087 1.4185-1.1691 2.1389-15.693 25.236-43.675 42.04-75.582 42.04-49.119 0-88.936-39.817-88.936-88.936s39.818-88.936 88.936-88.936c31.907 0 59.89 16.804 75.582 42.04zm378.67 317.99c1.0984-1.4408 2.1167-2.9705 3.055-4.5758 0.89826-1.543 1.6942-3.1172 2.3879-4.7136 15.96-23.799 43.112-39.465 73.919-39.465 49.119 0 88.936 39.817 88.936 88.936s-39.817 88.936-88.936 88.936-88.936-39.817-88.936-88.936c0-14.457 3.4507-28.113 9.574-40.181z" clip-rule="evenodd" fill-rule="evenodd" stroke-width="44.468"/>
</svg>
