<svg version="0.0" viewBox="0 0 1e3 1e3" xmlns="http://www.w3.org/2000/svg">
 <path d="m645.98 19.177c-26.557 0-48.083 21.528-48.083 48.083s21.527 48.083 48.083 48.083h172.42l-254.5 254.51c-18.777 18.779-18.777 49.223 0 68 18.777 18.777 49.223 18.777 68 0l254.51-254.51v172.42c0 26.556 21.527 48.085 48.083 48.085 26.557 0 48.083-21.53 48.083-48.085v-288.5c0-0.42311-0.0204-0.84126-0.0312-1.2617-9e-3 -0.36005-0.01-0.72031-0.0273-1.0801-0.0228-0.47573-0.065-0.946-0.10158-1.418-0.0245-0.31381-0.0417-0.62806-0.0723-0.94144-0.0491-0.506-0.11501-1.0065-0.17969-1.5078-0.0353-0.27227-0.0656-0.54468-0.10548-0.81643-0.0785-0.53625-0.17345-1.0673-0.26954-1.5977-0.0417-0.22964-0.0761-0.46034-0.12109-0.68947-0.11259-0.5736-0.24223-1.141-0.37501-1.7071-0.0435-0.18552-0.0832-0.37157-0.12892-0.55666-0.13782-0.5575-0.29019-1.1086-0.44728-1.6582-0.0594-0.20837-0.11542-0.41731-0.17773-0.62502-0.15181-0.50504-0.31658-1.0041-0.4844-1.502-0.0863-0.25665-0.16901-0.5141-0.25977-0.76955-0.15338-0.43075-0.31721-0.85631-0.48243-1.2812-0.12709-0.32771-0.25414-0.65508-0.38868-0.9805-0.1481-0.35735-0.30456-0.70959-0.46096-1.0625-0.16639-0.37634-0.33326-0.75218-0.50978-1.125-0.14422-0.30402-0.29495-0.60386-0.44533-0.90433-0.20046-0.40128-0.40091-0.80254-0.61329-1.1992-0.1638-0.30554-0.33767-0.60473-0.50783-0.90628-0.21299-0.37781-0.42446-0.75577-0.64846-1.1289-0.16526-0.27518-0.33725-0.54487-0.50782-0.81643-0.25453-0.40531-0.5096-0.8098-0.77738-1.209-0.15476-0.23079-0.31793-0.45567-0.47657-0.68361-0.28568-0.4103-0.56923-0.82144-0.86917-1.2246-0.21857-0.2941-0.44876-0.57834-0.67385-0.86722-0.24508-0.31424-0.48432-0.63197-0.7383-0.94144-0.33418-0.40766-0.68217-0.80293-1.0293-1.1992-0.1751-0.19971-0.34253-0.4041-0.5215-0.60158-1.0723-1.1842-2.2027-2.3144-3.3868-3.3868-0.26805-0.24301-0.54429-0.47117-0.81643-0.70705-0.31291-0.27092-0.62153-0.54768-0.94143-0.81057-0.36466-0.30005-0.73813-0.58345-1.1094-0.87112-0.24997-0.1935-0.49615-0.39145-0.75002-0.5801-0.42265-0.31434-0.85281-0.61346-1.2832-0.91214-0.19646-0.13626-0.38933-0.27677-0.58791-0.41017-0.46432-0.312-0.93569-0.60832-1.4082-0.90237-0.19498-0.12136-0.38717-0.24661-0.58401-0.36525-0.44428-0.26767-0.89485-0.52145-1.3457-0.77346-0.23887-0.13365-0.47545-0.27073-0.71682-0.4004-0.41542-0.22292-0.83545-0.43277-1.2559-0.6426-0.29455-0.14724-0.58683-0.29813-0.88478-0.43946-0.38375-0.1817-0.77079-0.35249-1.1582-0.52346-0.3353-0.14828-0.67051-0.29672-1.0098-0.43751-0.34596-0.14322-0.69446-0.27733-1.043-0.41212-0.40647-0.1576-0.81291-0.31417-1.2246-0.46095-0.26649-0.09477-0.53495-0.18156-0.80275-0.27149-0.48788-0.16422-0.97603-0.32578-1.4708-0.47462-0.24132-0.07247-0.48436-0.13648-0.72658-0.20509-0.50013-0.14189-1.0012-0.28225-1.5078-0.40821-0.27326-0.06787-0.54811-0.12644-0.8223-0.18946-0.4833-0.11114-0.96637-0.22191-1.4551-0.31837-0.28576-0.05643-0.57285-0.10309-0.8594-0.1543-0.48822-0.08714-0.97559-0.17576-1.4688-0.24806-0.31494-0.0463-0.63166-0.0791-0.9473-0.11914-0.44726-0.05652-0.89278-0.11797-1.3438-0.16212-0.45922-0.04524-0.91883-0.07145-1.3789-0.10352-0.32585-0.02253-0.64899-0.05431-0.9766-0.07031-0.79446-0.03921-1.5896-0.06055-2.3849-0.06055h-288.51zm-240.42 528.93c-12.305 0-24.612 4.694-34.001 14.082l-254.5 254.51v-172.42c0-26.557-21.53-48.085-48.085-48.085s-48.083 21.529-48.083 48.085v288.5c0 0.79456 0.02141 1.589 0.06055 2.3829 0.01951 0.39974 0.05672 0.79433 0.08594 1.1914 0.02784 0.37571 0.04931 0.75188 0.08594 1.127 0.04912 0.50603 0.11501 1.0065 0.1797 1.5078 0.03526 0.27228 0.06555 0.54467 0.10547 0.81643 0.07853 0.53626 0.17346 1.0673 0.26954 1.5976 0.04179 0.23042 0.07788 0.46153 0.12305 0.69143 0.10406 0.53004 0.22244 1.0545 0.34376 1.5782 0.05657 0.24428 0.10949 0.48889 0.16992 0.73244 0.12274 0.49426 0.2586 0.98267 0.39649 1.4708 0.07661 0.2716 0.14899 0.54398 0.23048 0.81447 0.13475 0.44652 0.28242 0.88724 0.4297 1.3281 0.10408 0.31229 0.20576 0.62505 0.31642 0.93558 0.14422 0.40379 0.2985 0.80248 0.45313 1.2012 0.13155 0.34002 0.26279 0.68005 0.40235 1.0176 0.1481 0.35735 0.30455 0.70958 0.46095 1.0625 0.1664 0.37634 0.33325 0.75219 0.50978 1.125 0.14422 0.30402 0.29495 0.60385 0.44532 0.90432 0.20154 0.40341 0.40361 0.80633 0.61721 1.2051 0.15085 0.28129 0.30861 0.55805 0.46485 0.83596 0.23123 0.41167 0.46275 0.8224 0.70705 1.2285 0.14502 0.241 0.29817 0.47663 0.44727 0.71487 0.27001 0.43149 0.54119 0.86254 0.8262 1.2871 0.14556 0.21693 0.29829 0.42817 0.44728 0.64259 0.29226 0.4204 0.58343 0.84098 0.89065 1.2539 0.20025 0.26942 0.41149 0.52989 0.61721 0.79494 0.26997 0.34748 0.53561 0.69744 0.81644 1.0391 0.25823 0.31456 0.52897 0.61798 0.79494 0.92581 0.25252 0.29191 0.49712 0.58783 0.75783 0.87502 0.52946 0.5839 1.0717 1.1557 1.6289 1.713 0.55788 0.55785 1.1302 1.1008 1.7149 1.631 0.3105 0.28175 0.62935 0.54813 0.94534 0.82033 0.2772 0.23854 0.54942 0.4826 0.83206 0.71486 0.36468 0.30003 0.7381 0.58347 1.1094 0.87113 0.24998 0.19348 0.49616 0.39146 0.75002 0.5801 0.38197 0.28404 0.77185 0.55297 1.1602 0.82423 0.25393 0.17731 0.50426 0.35878 0.76174 0.53127 0.41641 0.27903 0.83872 0.544 1.2617 0.80862 0.23039 0.14416 0.45845 0.29131 0.69143 0.43165 0.42399 0.25526 0.85325 0.49729 1.2832 0.73831 0.26765 0.15018 0.53393 0.3021 0.80471 0.44727 0.36802 0.19706 0.73939 0.38354 1.1113 0.57034 0.34511 0.1736 0.68929 0.3482 1.0391 0.51368 0.32565 0.15375 0.65414 0.29931 0.98245 0.44533 0.39968 0.17816 0.79976 0.35596 1.2051 0.52345 0.28773 0.11861 0.5777 0.22902 0.86722 0.34181 0.44372 0.1733 0.88792 0.34549 1.3379 0.50588 0.27238 0.0968 0.54661 0.18557 0.82034 0.27735 0.47668 0.1602 0.95431 0.31737 1.4375 0.4629 0.25177 0.0757 0.5051 0.14339 0.75783 0.21485 0.49396 0.13992 0.98803 0.27797 1.4883 0.40236 0.25902 0.0643 0.51947 0.11972 0.77932 0.17968 0.51214 0.11829 1.0247 0.23419 1.543 0.33595 0.20793 0.0409 0.41667 0.0752 0.62502 0.11329 0.56595 0.10337 1.1324 0.20375 1.7052 0.28712 0.20133 0.0294 0.40387 0.0493 0.60549 0.0762 0.55924 0.0742 1.1185 0.14834 1.6837 0.20313 0.37335 0.0364 0.74716 0.0563 1.1211 0.084 0.39684 0.0292 0.79198 0.0664 1.1914 0.0859 0.79379 0.0391 1.5883 0.0606 2.3829 0.0606h288.51c26.556 0 48.083-21.527 48.083-48.083s-21.528-48.083-48.083-48.083h-172.42l254.51-254.51c18.777-18.777 18.777-49.223 0-68-9.3884-9.3884-21.696-14.082-34.001-14.082z" stroke-width="48.082"/>
</svg>
