<svg version="0.0" viewBox="0 0 1e3 1e3" xmlns="http://www.w3.org/2000/svg">
 <path d="m535.01 82.327c51.1-49.355 119.54-76.665 190.58-76.047s139 29.112 189.23 79.348c50.233 50.235 78.732 118.19 79.346 189.23 0.61866 71.041-26.693 139.48-76.045 190.58l-0.55092 0.55995-135.47 135.46c0 5e-3 5e-3 0 0 0-27.465 27.478-60.524 48.729-96.926 62.308-36.401 13.579-75.295 19.169-114.05 16.392-38.754-2.7727-76.456-13.85-110.55-32.477-34.094-18.627-63.786-44.372-87.057-75.485-14.938-19.969-10.859-48.269 9.1118-63.207s48.272-10.86 63.21 9.1128c15.512 20.741 35.309 37.901 58.036 50.319 22.732 12.418 47.867 19.806 73.701 21.657 25.835 1.8469 51.764-1.8785 76.031-10.933s46.309-23.22 64.62-41.536l135.18-135.19c32.744-34.038 50.852-79.551 50.441-126.79-0.41093-47.361-19.409-92.665-52.897-126.15s-78.795-52.487-126.16-52.898c-47.257-0.41093-92.789 17.716-126.83 50.484l-77.427 76.976c-17.684 17.583-46.277 17.5-63.862-0.18604-17.584-17.686-17.498-46.279 0.18966-63.862l77.671-77.219zm-220.19 253.9c36.402-13.579 75.298-19.17 114.05-16.395 38.754 2.7754 76.456 13.852 110.55 32.48 34.094 18.628 63.785 44.37 87.059 75.482 14.938 19.969 10.856 48.269-9.1128 63.207-19.973 14.938-48.273 10.86-63.211-9.1128-15.512-20.741-35.309-37.901-58.036-50.319-22.732-12.418-47.867-19.801-73.701-21.653-25.835-1.8514-51.765 1.8786-76.033 10.928-24.268 9.054-46.305 23.22-64.617 41.536l-135.18 135.19c-32.741 34.04-50.851 79.549-50.441 126.79 0.41184 47.361 19.408 92.663 52.898 126.16 33.49 33.489 78.795 52.486 126.15 52.897 47.237 0.41093 92.75-17.702 126.79-50.441l76.926-76.926c17.634-17.638 46.228-17.638 63.862 0 17.634 17.634 17.634 46.223 0 63.862l-77.219 77.219-0.55995 0.55092c-51.1 49.352-119.54 76.664-190.58 76.045-71.041-0.61865-139-29.113-189.23-79.346-50.235-50.238-78.73-118.19-79.347-189.23-0.6173-71.042 26.692-139.48 76.047-190.58l0.55002-0.55995 135.47-135.47c2e-3 -2e-3 -2e-3 2e-3 0 0 27.467-27.475 60.526-48.727 96.925-62.305z" clip-rule="evenodd" fill-rule="evenodd" stroke-width="45.157"/>
</svg>
