<svg version="0.0" viewBox="0 0 1e3 1e3" xmlns="http://www.w3.org/2000/svg">
 <path d="m500 13.039c-268.94 0-486.96 218.02-486.96 486.96s218.02 486.96 486.96 486.96c235.64 0 432.1-167.32 477.22-389.62 4.8608-23.958-10.622-47.324-34.58-52.189-23.963-4.8652-47.328 10.615-52.193 34.578-36.912 181.84-197.75 318.69-390.45 318.69-220.04 0-398.42-178.38-398.42-398.42s178.38-398.42 398.42-398.42c138.08 0 259.82 70.243 331.34 177.08h-65.721c-24.45 0-44.27 19.82-44.27 44.27 0 24.449 19.82 44.268 44.27 44.268h177.08c24.45 0 44.27-19.819 44.27-44.268v-177.08c0-24.449-19.82-44.27-44.27-44.27-24.45 0-44.268 19.821-44.268 44.27v74.14c-88.088-125.11-233.66-206.95-398.42-206.95zm4e-3 265.62c-24.45 0-44.27 19.821-44.27 44.27v176.83c-4e-3 0.81587 0.0158 1.6315 0.0566 2.4453 0.012 0.24475 0.0349 0.48677 0.0508 0.73046 0.0307 0.46018 0.0585 0.92006 0.1035 1.3789 0.0401 0.41551 0.0969 0.8262 0.14844 1.2383 0.0372 0.29431 0.0683 0.58932 0.11133 0.8828 0.0735 0.50513 0.16351 1.0045 0.2539 1.5039 0.0328 0.1802 0.0607 0.36122 0.0957 0.54102 0.10722 0.553 0.22787 1.101 0.35547 1.6465 0.0337 0.14385 0.0645 0.28811 0.0996 0.43164 0.14332 0.58604 0.30039 1.1656 0.46678 1.7422 0.0268 0.0931 0.0526 0.18637 0.0801 0.2793 0.15916 0.53815 0.33091 1.0702 0.50977 1.5996 0.0617 0.18306 0.12144 0.36649 0.18554 0.54882 0.15741 0.44643 0.3249 0.88839 0.49609 1.3281 0.0957 0.24668 0.19081 0.49314 0.29101 0.73827 0.16077 0.39191 0.32842 0.77984 0.5 1.166 0.12346 0.27891 0.24759 0.55735 0.37695 0.83398 0.16159 0.34423 0.32986 0.68411 0.5 1.0234 0.16563 0.33159 0.33355 0.66234 0.50781 0.99022 0.13164 0.24682 0.26813 0.49037 0.40428 0.73438 0.23151 0.4163 0.46731 0.83056 0.7129 1.2402 0.0962 0.15994 0.19485 0.31795 0.29296 0.47656 0.28349 0.45954 0.57365 0.91485 0.87499 1.3652 0.0809 0.1207 0.16403 0.23949 0.2461 0.35936 0.33531 0.49055 0.67854 0.9764 1.0352 1.4551 0.0428 0.0573 0.0879 0.1128 0.13086 0.16992 0.37911 0.50375 0.76721 1.0026 1.1699 1.4922 0.0646 0.0785 0.13216 0.15433 0.19726 0.23242 0.38447 0.46088 0.77617 0.91588 1.1816 1.3633 0.0986 0.10901 0.20109 0.21425 0.30078 0.32226 0.37518 0.40577 0.75386 0.80935 1.1465 1.2031 0.16947 0.17039 0.34537 0.33431 0.51757 0.50195 0.32565 0.31615 0.64919 0.63367 0.98632 0.94139 0.29293 0.26819 0.5964 0.52484 0.89648 0.78516 0.24545 0.21231 0.48517 0.42888 0.73632 0.63671 0.6006 0.49843 1.2131 0.98255 1.8398 1.4492l176.93 132.69c19.558 14.671 47.306 10.705 61.977-8.8534 14.666-19.558 10.705-47.306-8.8534-61.977l-159.37-119.53v-154.94c0-24.449-19.824-44.27-44.27-44.27z" stroke-width="44.269"/>
</svg>
