<svg version="0.0" viewBox="0 0 1e3 1e3" xmlns="http://www.w3.org/2000/svg">
 <path d="m500 6.632c-168.93 0-314.72 87.945-403.66 217.86v-83.308a44.852 44.852 0 0 0-44.852-44.852 44.852 44.852 0 0 0-44.852 44.852v179.41a44.856 44.856 0 0 0 44.852 44.852h179.41a44.852 44.852 0 0 0 44.852-44.852 44.852 44.852 0 0 0-44.852-44.852h-62.021c72.534-106.88 191.82-179.41 331.13-179.41 223.47 0 403.66 180.2 403.66 403.66 0 223.47-180.19 403.66-403.66 403.66-195.75 0-358.23-138.75-395.61-322.9a44.852 44.852 0 0 0-52.823-35.04 44.852 44.852 0 0 0-35.04 52.911c45.735 225.31 245.25 394.73 483.47 394.73 271.95 0 493.37-221.42 493.37-493.37 0-271.95-221.42-493.37-493.37-493.37zm0 269.11a44.852 44.852 0 0 0-44.852 44.852v179.41a44.856 44.856 0 0 0 17.958 35.916l179.41 134.55a44.852 44.852 0 0 0 62.81-9.0229 44.852 44.852 0 0 0-9.0229-62.81l-161.45-121.06v-156.98a44.852 44.852 0 0 0-44.852-44.852z" color="#000000" color-rendering="auto" dominant-baseline="auto" image-rendering="auto" shape-rendering="auto" solid-color="#000000" stop-color="#000000" style="font-feature-settings:normal;font-variant-alternates:normal;font-variant-caps:normal;font-variant-east-asian:normal;font-variant-ligatures:normal;font-variant-numeric:normal;font-variant-position:normal;font-variation-settings:normal;inline-size:0;isolation:auto;mix-blend-mode:normal;shape-margin:0;shape-padding:0;text-decoration-color:#000000;text-decoration-line:none;text-decoration-style:solid;text-indent:0;text-orientation:mixed;text-transform:none;white-space:normal"/>
</svg>
