<svg version="0.0" viewBox="0 0 1e3 1e3" xmlns="http://www.w3.org/2000/svg">
 <path d="m149.56 16.506c-18.365 0.01786-36.514 3.8622-53.316 11.283-16.801 7.4205-31.889 18.217-44.271 31.782-12.383 13.565-21.786 29.622-27.648 47.027-5.8612 17.404-8.1129 35.798-6.4596 54.092a44.103 44.103 0 0 0 0.08599 0.68904c15.204 143.17 64.019 280.79 142.29 401.63 0.0141 0.0218-0.0141 0.0661 0 0.0882 71.154 111.85 166.05 206.67 277.94 277.77 120.23 77.896 256.96 126.55 399.39 142.03a44.103 44.103 0 0 0 0.86125 0.0882c18.337 1.6524 36.808-0.55785 54.264-6.4596 17.457-5.9026 33.454-15.365 47.027-27.82 13.56-12.437 24.403-27.578 31.782-44.443v-0.0882c7.3566-16.851 11.19-35.081 11.111-53.487v-131c0.80657-32.43-10.384-64.049-31.352-88.802-20.97-24.745-50.299-40.947-82.425-45.475a44.103 44.103 0 0 0-0.43217-0.0882c-39.007-5.1441-77.248-14.673-114.12-28.423h-0.0882c-23.655-8.878-49.364-10.785-74.073-5.5124-24.74 5.272-47.477 17.528-65.461 35.313a44.103 44.103 0 0 0-0.17198 0.17198l-29.026 29.026c-81.64-51.962-150.27-120.6-202.23-202.23l29.026-29.026a44.103 44.103 0 0 0 0.17199-0.17242c17.783-17.983 30.038-40.727 35.314-65.46 5.2694-24.705 3.3604-50.423-5.5124-74.073v-0.086c-13.751-36.869-23.277-75.109-28.423-114.12a44.103 44.103 0 0 0-0.0882-0.43084c-4.4915-31.777-20.369-60.9-44.703-81.825-24.333-20.926-55.503-32.27-87.594-31.954h-131.86zm0 88.198h132.3a44.103 44.103 0 0 0 0.43085 0c10.713-0.10539 21.077 3.6953 29.198 10.68 8.1217 6.9848 13.402 16.611 14.901 27.217v-0.34441c6.0191 45.633 17.154 90.376 33.247 133.5a44.103 44.103 0 0 0 0 0.17243c2.968 7.8954 3.6542 16.384 1.8949 24.633-1.7596 8.2496-5.8696 15.88-11.8 21.877l-55.812 55.811a44.103 44.103 0 0 0-7.1489 52.971c66.7 117.3 163.83 214.43 281.13 281.13a44.103 44.103 0 0 0 52.972-7.1488l55.812-55.811c5.997-5.9308 13.545-10.043 21.791-11.8a44.103 44.103 0 0 0 0.0882 0c8.2421-1.7591 16.744-1.072 24.633 1.8949a44.103 44.103 0 0 0 0.17199 0c43.124 16.089 87.867 27.228 133.5 33.247h-0.34397c10.721 1.5117 20.469 6.8913 27.476 15.159 6.9998 8.2624 10.691 18.721 10.422 29.543a44.103 44.103 0 0 0 0 1.1197v132.3a44.103 44.103 0 0 0 0 0.17199c0.0264 6.1288-1.2396 12.194-3.7034 17.829-2.4537 5.616-6.0733 10.668-10.594 14.815-4.525 4.1523-9.8663 7.3376-15.676 9.3022-5.7302 1.9377-11.785 2.6622-17.829 2.1533-128.65-14.064-252.21-58.003-360.8-128.42a44.103 44.103 0 0 0-0.34398-0.26018c-101.09-64.239-186.83-149.9-251.07-250.98a44.103 44.103 0 0 0-0.17242-0.34397c-70.713-109.16-114.64-233.45-128.42-362.78-0.47763-5.952 0.15964-11.907 2.0671-17.571 1.9548-5.8038 5.089-11.155 9.2158-15.676 4.1275-4.5219 9.1285-8.1208 14.728-10.594 5.575-2.4626 11.648-3.7721 17.743-3.7898z" color="#000000" color-rendering="auto" dominant-baseline="auto" image-rendering="auto" shape-rendering="auto" solid-color="#000000" stop-color="#000000" stroke-width="44.099" style="font-feature-settings:normal;font-variant-alternates:normal;font-variant-caps:normal;font-variant-east-asian:normal;font-variant-ligatures:normal;font-variant-numeric:normal;font-variant-position:normal;font-variation-settings:normal;inline-size:0;isolation:auto;mix-blend-mode:normal;shape-margin:0;shape-padding:0;text-decoration-color:#000000;text-decoration-line:none;text-decoration-style:solid;text-indent:0;text-orientation:mixed;text-transform:none;white-space:normal"/>
</svg>
