<svg version="0.0" viewBox="0 0 1e3 1e3" xmlns="http://www.w3.org/2000/svg">
 <path d="m820.4 96.926c-10.857 0-21.609 2.1383-31.638 6.2933-10.029 4.155-19.145 10.245-26.823 17.922l-601.94 601.94-43.846 160.76 160.77-43.842 601.94-601.94c7.6778-7.677 13.769-16.791 17.924-26.822 4.1554-10.031 6.2897-20.782 6.2897-31.639 0-10.858-2.1342-21.608-6.2897-31.639-4.1554-10.03-10.246-19.145-17.924-26.822-7.6778-7.677-16.789-13.767-26.823-17.922-10.029-4.155-20.782-6.2933-31.638-6.2933zm-66.247-77.257c21.003-8.6993 43.517-13.177 66.247-13.177 22.735 0 45.244 4.4778 66.247 13.177 21.003 8.6998 40.085 21.451 56.16 37.526 16.075 16.075 28.826 35.158 37.526 56.161 8.6998 21.003 13.176 43.513 13.176 66.247 0 22.733-4.4765 45.243-13.176 66.246-8.6998 21.003-21.451 40.086-37.526 56.161l-610.43 610.43c-5.5644 5.5617-12.484 9.577-20.076 11.648l-248.69 67.826c-15.655 4.2685-32.397-0.17634-43.87-11.648-11.474-11.476-15.92-28.215-11.651-43.874l67.826-248.69c2.0705-7.5919 6.0862-14.51 11.651-20.076l610.43-610.43c16.075-16.075 35.161-28.826 56.16-37.526z" clip-rule="evenodd" fill-rule="evenodd" stroke-width="45.217"/>
</svg>
