<svg version="0.0" viewBox="0 0 1e3 1e3" xmlns="http://www.w3.org/2000/svg">
 <path d="m500 7.4065c27.206 0 49.259 22.054 49.259 49.259v472.19l162.21-162.21c19.236-19.237 50.427-19.237 69.663 0 19.236 19.237 19.236 50.428 0 69.664l-246.3 246.3c-9.2361 9.2361-21.768 14.428-34.831 14.428s-25.595-5.1919-34.831-14.428l-246.3-246.3c-19.237-19.236-19.237-50.427 0-69.664 19.237-19.237 50.426-19.237 69.663 0l162.21 162.21v-472.19c0-27.205 22.053-49.259 49.259-49.259zm-443.33 591.11c27.205 0 49.259 22.053 49.259 49.259v197.04c0 13.064 5.19 25.595 14.428 34.831 9.2381 9.2361 21.767 14.428 34.832 14.428h689.63c13.064 0 25.595-5.1919 34.831-14.428s14.428-21.768 14.428-34.831v-197.04c0-27.206 22.053-49.259 49.259-49.259s49.259 22.053 49.259 49.259v197.04c0 39.196-15.571 76.781-43.284 104.49s-65.298 43.284-104.49 43.284h-689.63c-39.193 0-76.781-15.571-104.49-43.284-27.714-27.713-43.283-65.298-43.283-104.49v-197.04c0-27.206 22.054-49.259 49.259-49.259z" clip-rule="evenodd" fill-rule="evenodd" stroke-width="49.259"/>
</svg>
