<svg version="0.0" viewBox="0 0 1e3 1e3" xmlns="http://www.w3.org/2000/svg">
 <path d="m500.01 16.105c-133.62 0-241.95 108.33-241.95 241.95s108.33 241.95 241.95 241.95 241.95-108.33 241.95-241.95-108.33-241.95-241.95-241.95zm0 96.781c80.177 0 145.17 64.997 145.17 145.17s-64.993 145.17-145.17 145.17-145.17-64.997-145.17-145.17 64.993-145.17 145.17-145.17zm-193.56 483.88c-64.17 0-125.71 25.492-171.08 70.867-45.376 45.37-70.867 106.91-70.867 171.08v96.781c0 26.726 21.666 48.389 48.391 48.389 26.725 0 48.391-21.663 48.391-48.389v-96.781c0-38.499 15.295-75.424 42.52-102.65 27.224-27.224 64.147-42.521 102.65-42.521h387.12c38.499 0 75.424 15.297 102.65 42.521 27.224 27.224 42.521 64.149 42.521 102.65v96.781c0 26.726 21.665 48.389 48.391 48.389s48.389-21.663 48.389-48.389v-96.781c0-64.17-25.492-125.71-70.867-171.08-45.37-45.375-106.91-70.867-171.08-70.867h-387.12z" clip-rule="evenodd" fill-rule="evenodd" stroke-width="48.39"/>
</svg>
