<svg version="0.0" viewBox="0 0 1e3 1e3" xmlns="http://www.w3.org/2000/svg">
 <path d="m46.428 91.241c25.213-25.213 59.408-39.377 95.064-39.377h224.07c14.983 0 28.976 7.4883 37.287 19.955l76.324 114.49h379.34c35.658 0 69.851 14.164 95.063 39.377 25.212 25.213 39.378 59.408 39.378 95.064v492.95c0 35.658-14.166 69.851-39.378 95.063-25.212 25.212-59.405 39.378-95.063 39.378h-717.02c-35.656 0-69.851-14.166-95.064-39.378-25.213-25.212-39.377-59.405-39.377-95.063v-627.39c0-35.656 14.164-69.851 39.377-95.064z" clip-rule="evenodd" fill="#282828" fill-rule="evenodd" stroke-width="44.814"/>
</svg>
