<svg version="0.0" viewBox="0 0 1e3 1e3" xmlns="http://www.w3.org/2000/svg">
 <path d="m500 13.039c-0.72248 0-1.4442 0.01954-2.166 0.05469-0.42196 0.02034-0.83901 0.05777-1.2578 0.08984-0.30213 0.02331-0.60454 0.03888-0.90624 0.06836-0.433 0.04205-0.86175 0.09986-1.291 0.1543-0.28893 0.03678-0.5789 0.0669-0.86718 0.10938-0.48732 0.07159-0.96915 0.15876-1.4512 0.24609-0.21032 0.03815-0.42101 0.07207-0.63086 0.11328-0.49687 0.0975-0.98775 0.2083-1.4785 0.32227-0.21624 0.05019-0.43281 0.09692-0.64843 0.15039-0.4455 0.11059-0.8861 0.23345-1.3262 0.35742-0.26847 0.0755-0.5374 0.14785-0.80468 0.22852-0.38856 0.11748-0.77228 0.24525-1.1563 0.37305-0.3079 0.10225-0.61582 0.2033-0.92186 0.3125-0.34529 0.12348-0.68608 0.25496-1.0273 0.38672-0.34674 0.13354-0.69315 0.26756-1.0371 0.41016-0.28347 0.11779-0.56328 0.24176-0.84374 0.36523-0.39105 0.17177-0.78101 0.34567-1.168 0.5293-0.24423 0.11612-0.48483 0.23894-0.72655 0.35938-0.40505 0.20145-0.80899 0.40451-1.209 0.61914-0.23215 0.12472-0.45978 0.25604-0.68944 0.38477-0.39358 0.22038-0.78766 0.44049-1.1758 0.67382-0.23454 0.14107-0.46364 0.29028-0.69532 0.43555-0.38251 0.2398-0.76397 0.4798-1.1406 0.73241-0.21041 0.14107-0.41521 0.28903-0.62304 0.43359-0.38574 0.26846-0.77146 0.53621-1.1504 0.81835-0.22024 0.16382-0.43332 0.33611-0.65039 0.50391-0.34485 0.26686-0.69064 0.5321-1.0293 0.81054-0.34126 0.28024-0.67323 0.57119-1.0058 0.86132-0.2053 0.17927-0.41445 0.35146-0.61719 0.53516-0.41659 0.37705-0.82072 0.7677-1.2227 1.1602-0.12693 0.12398-0.25896 0.23943-0.38476 0.36523l-132.81 132.81c-17.288 17.288-17.288 45.317 0 62.605s45.317 17.288 62.605 0l57.234-57.234v671.62l-57.234-57.234c-17.288-17.287-45.317-17.287-62.605 0-17.288 17.287-17.288 45.318 0 62.605l132.81 132.81c0.5235 0.52353 1.0603 1.0324 1.6094 1.5293 0.16734 0.15158 0.34069 0.29282 0.50977 0.44139 0.37447 0.32874 0.74924 0.65848 1.1348 0.9746 0.28032 0.23014 0.56698 0.44772 0.85155 0.66993 0.27651 0.21569 0.55033 0.43336 0.83204 0.64256 0.34742 0.25826 0.70152 0.50324 1.0547 0.75 0.232 0.16202 0.46009 0.32868 0.69531 0.48633 0.37511 0.25151 0.75576 0.4897 1.1367 0.72851 0.23289 0.14602 0.46346 0.29572 0.69922 0.4375 0.36008 0.21642 0.72505 0.42167 1.0898 0.62694 0.2689 0.15147 0.53624 0.3052 0.80858 0.45117 0.36064 0.19305 0.7251 0.3743 1.0898 0.55663 0.28159 0.14103 0.56267 0.28281 0.84765 0.41797 0.33726 0.15963 0.6772 0.31031 1.0176 0.46094 0.33334 0.14786 0.6663 0.29574 1.0039 0.43554 0.29028 0.11991 0.58275 0.23222 0.875 0.3457 0.39474 0.15366 0.7893 0.30665 1.1895 0.44922 0.24825 0.0882 0.49856 0.16828 0.74803 0.25195 0.44176 0.14851 0.88417 0.29485 1.332 0.42968 0.20648 0.062 0.41389 0.11877 0.62109 0.17773 0.50028 0.14263 1.0024 0.28095 1.5098 0.40625 0.15593 0.0385 0.31247 0.0726 0.46874 0.10938 0.53371 0.12563 1.0684 0.24544 1.6094 0.35156 0.19358 0.038 0.38806 0.0681 0.58203 0.10351 0.51216 0.0934 1.0248 0.18419 1.543 0.25976 0.21049 0.0308 0.42198 0.0543 0.63281 0.082 0.49234 0.0646 0.98512 0.12946 1.4824 0.17774 0.30105 0.0294 0.60279 0.0451 0.90428 0.0684 0.41879 0.0321 0.83584 0.0695 1.2578 0.0898 0.72178 0.0351 1.4435 0.0547 2.166 0.0547 0.72249 0 1.4462-0.0195 2.168-0.0547 0.42194-0.0203 0.83904-0.0578 1.2578-0.0898 0.30152-0.0233 0.60322-0.0389 0.90429-0.0684 0.49905-0.0485 0.99227-0.11481 1.4863-0.17969 0.20899-0.0275 0.41829-0.0496 0.62695-0.0801 0.51823-0.0756 1.0307-0.16639 1.543-0.25976 0.19393-0.0354 0.38847-0.0655 0.58202-0.10351 0.53797-0.10553 1.0708-0.22478 1.6016-0.34961 0.16-0.0376 0.32081-0.0719 0.48047-0.11133 0.5066-0.12514 1.0082-0.26383 1.5078-0.40625 0.2072-0.059 0.41461-0.11569 0.6211-0.17773 0.44786-0.13483 0.89026-0.28117 1.332-0.42968 0.24948-0.0837 0.4998-0.16372 0.74804-0.25195 0.40014-0.14257 0.79471-0.29556 1.1894-0.44922 0.29153-0.1132 0.58348-0.22415 0.87305-0.34375 0.34893-0.14446 0.69273-0.29809 1.0371-0.45116 0.32335-0.14341 0.64627-0.28597 0.96679-0.4375 0.29311-0.13884 0.58157-0.28465 0.8711-0.42969 0.36873-0.18439 0.737-0.3691 1.1016-0.56444 0.25717-0.13799 0.50956-0.28289 0.76366-0.42578 0.37545-0.21091 0.75062-0.42181 1.1211-0.64453 0.22196-0.1335 0.4388-0.27484 0.65821-0.41211 0.40124-0.25095 0.80248-0.50254 1.1973-0.76756 0.20316-0.13636 0.40081-0.28031 0.60156-0.41993 0.37811-0.26307 0.75732-0.52455 1.1289-0.80078 0.28124-0.20887 0.55401-0.42722 0.83007-0.64256 0.28457-0.22221 0.57125-0.43979 0.85155-0.66993 0.34468-0.28263 0.6778-0.57835 1.0137-0.87108 0.2161-0.18854 0.4371-0.36906 0.65038-0.56249 0.56888-0.51547 1.1247-1.0458 1.666-1.5898l132.73-132.73c17.287-17.287 17.287-45.318 0-62.605-17.287-17.287-45.318-17.287-62.605 0l-57.236 57.234v-671.62l57.236 57.234c17.287 17.288 45.318 17.288 62.605 0 17.287-17.288 17.287-45.317 0-62.605l-132.81-132.81c-0.0108-0.01082-0.0224-0.02044-0.0332-0.03125-0.50518-0.5041-1.0238-0.99721-1.5527-1.4766-0.25005-0.22682-0.50779-0.44007-0.76171-0.66016-0.29236-0.25313-0.58188-0.50838-0.88086-0.7539-0.33864-0.27844-0.68444-0.54369-1.0293-0.81054-0.21704-0.16778-0.43017-0.3401-0.65038-0.50391-0.40224-0.2995-0.8108-0.58506-1.2207-0.86913-0.17652-0.12227-0.35093-0.24743-0.5293-0.36719-0.39673-0.26646-0.79984-0.51925-1.2031-0.77147-0.21793-0.13634-0.43386-0.27557-0.6543-0.4082-0.40006-0.24059-0.80506-0.4685-1.2109-0.6953-0.21354-0.11946-0.4249-0.24141-0.64061-0.35742-0.40209-0.21598-0.80765-0.42235-1.2148-0.625-0.25146-0.12536-0.5017-0.25236-0.75586-0.37305-0.37079-0.17575-0.74457-0.34099-1.1191-0.50586-0.29155-0.12861-0.58213-0.25839-0.87694-0.38086-0.34272-0.14204-0.68773-0.27515-1.0332-0.4082-0.34127-0.13176-0.68206-0.26323-1.0274-0.38672-0.30603-0.1092-0.61396-0.21025-0.92186-0.3125-0.38397-0.1278-0.76768-0.25556-1.1562-0.37305-0.26729-0.08067-0.53622-0.15301-0.80468-0.22852-0.43935-0.12377-0.87944-0.24699-1.3242-0.35742-0.2193-0.0544-0.4402-0.10135-0.66015-0.15234-0.48724-0.11304-0.97549-0.2235-1.4688-0.32031-0.21045-0.04133-0.42191-0.07502-0.63281-0.11328-0.48209-0.08734-0.96378-0.1745-1.4512-0.24609-0.28659-0.04223-0.57411-0.07278-0.86133-0.10938-0.43082-0.05469-0.8603-0.11209-1.2949-0.1543-0.30171-0.02949-0.60408-0.04505-0.90624-0.06836-0.41876-0.03208-0.83586-0.0695-1.2578-0.08984-0.72177-0.03515-1.4455-0.05469-2.168-0.05469z" stroke-width="44.269"/>
</svg>
