<svg version="0.0" viewBox="0 0 1e3 1e3" xmlns="http://www.w3.org/2000/svg">
 <path d="m500 6.3418c-9.7239 0-19.448 3.1508-27.551 9.4531l-403.9 314.15c-10.932 8.5021-17.324 21.575-17.324 35.424v493.66c0 35.709 14.185 69.951 39.434 95.199 25.249 25.248 59.492 39.436 95.199 39.436h628.29c35.709 0 69.951-14.187 95.199-39.436s39.434-59.49 39.434-95.199v-493.66c0-13.849-6.3939-26.922-17.326-35.424l-403.9-314.15c-8.1027-6.3024-17.827-9.4531-27.551-9.4531zm0 101.73 359.02 279.24v471.71c0 11.902-4.7299 23.32-13.145 31.734-8.4146 8.4146-19.831 13.145-31.732 13.145h-134.63v-403.9c0-24.786-20.091-44.879-44.877-44.879h-269.27c-24.785 0-44.877 20.093-44.877 44.879v403.9h-134.63c-11.903 0-23.316-4.7299-31.732-13.145-8.416-8.4146-13.145-19.833-13.145-31.734v-471.71zm-89.756 436.8h179.51v359.02h-179.51z" stroke-width="44.878"/>
</svg>
