<svg version="0.0" viewBox="0 0 1e3 1e3" xmlns="http://www.w3.org/2000/svg">
 <path d="m500 5.1191c-24.847 0-44.988 20.144-44.988 44.99v179.96c0 24.847 20.141 44.988 44.988 44.988s44.99-20.142 44.99-44.988v-179.96c0-24.847-20.143-44.99-44.99-44.99zm-318.08 131.82c-11.514 0-23.026 4.3929-31.811 13.178-17.569 17.569-17.569 46.054 0 63.623l127.32 127.32c17.57 17.57 46.055 17.57 63.625 0 17.569-17.569 17.569-46.056 0-63.625l-127.32-127.32c-8.7846-8.7848-20.299-13.178-31.812-13.178zm636.15 0c-11.514 0-23.026 4.3929-31.811 13.178l-127.32 127.32c-17.568 17.569-17.568 46.056 0 63.625 17.568 17.57 46.057 17.57 63.625 0l127.32-127.32c17.568-17.569 17.568-46.054 0-63.623-8.7841-8.7848-20.299-13.178-31.812-13.178zm-767.97 318.07c-24.847 0-44.99 20.141-44.99 44.988s20.144 44.988 44.99 44.988h179.96c24.847 0 44.99-20.141 44.99-44.988s-20.144-44.988-44.99-44.988zm719.83 0c-24.847 0-44.99 20.141-44.99 44.988s20.143 44.988 44.99 44.988h179.96c24.847 0 44.99-20.141 44.99-44.988s-20.143-44.988-44.99-44.988zm-460.7 190.75c-11.514 0-23.028 4.3917-31.812 13.176l-127.32 127.32c-17.569 17.568-17.569 46.055 0 63.623 17.569 17.568 46.054 17.568 63.623 0l127.32-127.32c17.57-17.568 17.571-46.057 2e-3 -63.625-8.7848-8.7841-20.299-13.176-31.812-13.176zm381.51 0c-11.514 0-23.028 4.3917-31.812 13.176-17.568 17.568-17.568 46.057 0 63.625l127.32 127.32c17.568 17.568 46.055 17.568 63.623 0 17.568-17.568 17.568-46.055 0-63.623l-127.32-127.32c-8.7841-8.7841-20.299-13.176-31.812-13.176zm-190.75 79.18c-24.847 0-44.988 20.141-44.988 44.988v179.96c0 24.847 20.141 44.99 44.988 44.99s44.99-20.143 44.99-44.99v-179.96c0-24.847-20.143-44.988-44.99-44.988z" stroke-width="44.989"/>
</svg>
