<svg version="0.0" viewBox="0 0 1e3 1e3" xmlns="http://www.w3.org/2000/svg">
 <path d="m6.7622 56.086c0-27.241 22.083-49.324 49.324-49.324h345.27c27.242 0 49.324 22.083 49.324 49.324v345.27c0 27.242-22.082 49.324-49.324 49.324h-345.27c-27.241 0-49.324-22.082-49.324-49.324zm98.648 49.324v246.62h246.62v-246.62zm443.91-49.324c0-27.241 22.082-49.324 49.324-49.324h345.27c27.242 0 49.324 22.083 49.324 49.324v345.27c0 27.242-22.082 49.324-49.324 49.324h-345.27c-27.242 0-49.324-22.082-49.324-49.324zm98.648 49.324v246.62h246.62v-246.62zm-641.21 493.24c0-27.242 22.083-49.324 49.324-49.324h345.27c27.242 0 49.324 22.082 49.324 49.324v345.27c0 27.242-22.082 49.324-49.324 49.324h-345.27c-27.241 0-49.324-22.082-49.324-49.324zm98.648 49.324v246.62h246.62v-246.62zm443.91-49.324c0-27.242 22.082-49.324 49.324-49.324h345.27c27.242 0 49.324 22.082 49.324 49.324v345.27c0 27.242-22.082 49.324-49.324 49.324h-345.27c-27.242 0-49.324-22.082-49.324-49.324zm98.648 49.324v246.62h246.62v-246.62z" clip-rule="evenodd" fill-rule="evenodd" stroke-width="49.324"/>
</svg>
