<svg version="0.0" viewBox="0 0 1e3 1e3" xmlns="http://www.w3.org/2000/svg">
 <path d="m14.636 60.602c0-25.323 20.528-45.851 45.851-45.851h458.51c12.16 0 23.824 4.8309 32.421 13.429l393.96 393.96c25.622 25.773 40 60.633 40 96.975s-14.379 71.202-40 96.975l-328.83 328.83c-5e-3 5e-3 5e-3 -5e-3 0 0-12.77 12.783-27.955 22.939-44.645 29.858-16.699 6.9235-34.599 10.486-52.674 10.486-18.074 0-35.975-3.5626-52.674-10.486-16.694-6.9189-31.862-17.061-44.635-29.849-3e-3 0 3e-3 5e-3 0 0l-393.83-393.37c-8.6104-8.6016-13.449-20.271-13.449-32.44zm91.702 45.851v393.65l380.41 379.97 0.0367 0.0367c4.2596 4.2641 9.3169 7.6434 14.883 9.9497 5.5663 2.3109 11.532 3.4984 17.556 3.4984 6.0248 0 11.99-1.1875 17.556-3.4984 5.5663-2.3063 10.624-5.6855 14.883-9.9497l328.71-328.72c8.5145-8.5879 13.292-20.188 13.292-32.284s-4.7777-23.696-13.292-32.284l-380.38-380.38zm137.55 183.4c0-25.323 20.528-45.851 45.851-45.851h0.45851c25.323 0 45.851 20.528 45.851 45.851s-20.528 45.851-45.851 45.851h-0.45851c-25.323 0-45.851-20.528-45.851-45.851z" clip-rule="evenodd" fill-rule="evenodd" stroke-width="45.851"/>
</svg>
