<svg version="0.0" viewBox="0 0 1e3 1e3" xmlns="http://www.w3.org/2000/svg">
 <path d="m819.07 856.87a45.11 45.11 0 0 0-33.216 13.216 45.11 45.11 0 0 0 0 63.791l26.432 26.432a45.11 45.11 0 0 0 63.791 0 45.11 45.11 0 0 0 0-63.791l-26.432-26.432a45.11 45.11 0 0 0-30.573-13.216zm-631.55 0a45.11 45.11 0 0 0-33.216 13.216l-26.432 26.432a45.11 45.11 0 0 0 0 63.791 45.11 45.11 0 0 0 63.791 0l26.432-26.432a45.11 45.11 0 0 0 0-63.791 45.11 45.11 0 0 0-30.573-13.216zm687.48-830.39c-31.697-0.015644-63.551 11.715-88.105 34.714l-34.009 31.806 178.5 178.5 31.806-34.009c45.999-49.112 46.955-127.41-0.96897-175.33-23.961-23.964-55.526-35.667-87.225-35.683zm-57.268 67.607 112.57 112.57c30.242-32.288 30.454-82.119 0-112.57-30.449-30.454-80.278-30.241-112.57 0.0014zm-688.84-67.607c-31.696 0.016055-63.263 11.721-87.225 35.683-47.925 47.925-46.964 126.22-0.96915 175.33l31.806 34.009 178.5-178.5-34.009-31.806c-24.556-22.999-56.411-34.73-88.105-34.714zm-55.301 180.18 112.57-112.57c-32.289-30.241-82.119-30.453-112.57 9.02e-4 -30.449 30.454-30.242 80.283-9.02e-4 112.57zm428.35 52.513a37.667 37.667 0 0 0-37.71 37.71v236.83a37.671 37.671 0 0 0 18.767 32.511l135.33 78.943a37.667 37.667 0 0 0 51.453-13.568 37.667 37.667 0 0 0-13.568-51.453l-116.57-68.108v-215.15a37.667 37.667 0 0 0-37.71-37.71zm0-142.73c-223.69 0-405.99 182.3-405.99 405.99s182.3 405.99 405.99 405.99c223.69 0 405.99-182.3 405.99-405.99s-182.3-405.99-405.99-405.99zm0 90.221c174.93 0 315.77 140.84 315.77 315.77 0 174.93-140.84 315.77-315.77 315.77-174.93 0-315.77-140.84-315.77-315.77 0-174.93 140.84-315.77 315.77-315.77z" color="#000000" color-rendering="auto" dominant-baseline="auto" fill="#1a1a1a" image-rendering="auto" shape-rendering="auto" solid-color="#000000" stop-color="#000000" stroke-width="45.11" style="font-feature-settings:normal;font-variant-alternates:normal;font-variant-caps:normal;font-variant-east-asian:normal;font-variant-ligatures:normal;font-variant-numeric:normal;font-variant-position:normal;font-variation-settings:normal;inline-size:0;isolation:auto;mix-blend-mode:normal;shape-margin:0;shape-padding:0;text-decoration-color:#000000;text-decoration-line:none;text-decoration-style:solid;text-indent:0;text-orientation:mixed;text-transform:none;white-space:normal"/>
</svg>
