<svg version="0.0" viewBox="0 0 1e3 1e3" xmlns="http://www.w3.org/2000/svg">
 <path d="m148.34 16.464c-34.975 0-68.519 13.894-93.25 38.625s-38.625 58.273-38.625 93.248v703.33c0 34.977 13.894 68.517 38.625 93.248s58.275 38.625 93.25 38.625h527.49c34.977 0 68.517-13.894 93.248-38.625s38.625-58.271 38.625-93.248v-43.959c0-24.278-19.679-43.957-43.957-43.957s-43.957 19.679-43.957 43.957v43.959c0 11.658-4.6348 22.84-12.877 31.082s-19.424 12.875-31.082 12.875h-527.49c-11.659 0-22.84-4.6329-31.084-12.875-8.2434-8.2421-12.875-19.424-12.875-31.082v-703.33c0-11.659 4.6316-22.838 12.875-31.082 8.2439-8.2434 19.425-12.875 31.084-12.875h263.75v263.75c0 24.277 19.681 43.957 43.959 43.957h263.75v43.959c0 24.278 19.679 43.957 43.957 43.957s43.957-19.679 43.957-43.957v-87.916c0-0.74112-0.0175-1.4802-0.0547-2.2168-0.0304-0.61204-0.0815-1.2171-0.13672-1.8223-9e-3 -0.10188-0.0135-0.20496-0.0234-0.30664-2.6e-4 -3e-3 -2e-3 -5e-3 -2e-3 -8e-3 -0.0706-0.71792-0.15895-1.4313-0.26367-2.1387-0.96937-6.5478-3.3812-12.624-6.9043-17.896-0.35501-0.53132-0.72435-1.0518-1.1016-1.5664-0.0538-0.0736-0.10391-0.14942-0.1582-0.22266-0.38977-0.52493-0.79283-1.0403-1.2051-1.5469-0.036-0.0442-0.0693-0.0907-0.10547-0.13476-3e-3 -3e-3 -5e-3 -7e-3 -8e-3 -0.01-0.39521-0.48154-0.8038-0.94993-1.2188-1.4141-0.0647-0.0723-0.12433-0.14882-0.18946-0.2207-4e-3 -5e-3 -9e-3 -9e-3 -0.0137-0.0137-0.4842-0.534-0.98062-1.0568-1.4902-1.5664l-307.71-307.71c-0.50305-0.50313-1.0166-0.99276-1.541-1.4688-0.19695-0.17877-0.4017-0.34659-0.60156-0.52148-0.34745-0.30428-0.69378-0.61092-1.0508-0.9043-0.11803-0.09689-0.24043-0.18762-0.35937-0.2832-0.44425-0.35744-0.89142-0.71051-1.3496-1.0508-0.0905-0.06713-0.18438-0.12891-0.27539-0.19531-0.49043-0.35841-0.9847-0.71054-1.4902-1.0488-9e-3 -0.0057-0.0168-0.01187-0.0254-0.01758-0.0507-0.0338-0.10348-0.06408-0.1543-0.09766-5.8096-3.847-12.584-6.3549-19.885-7.0723-2e-3 -1.89e-4 -4e-3 1.9e-4 -6e-3 0-0.0428-0.0043-0.0861-0.0056-0.12891-0.0098-0.67446-0.06419-1.3522-0.11703-2.0352-0.15039-0.7243-0.03593-1.4511-0.05469-2.1797-0.05469h-307.71zm351.66 150.08 157.62 157.62h-157.62zm351.66 333.46c-11.25 0-22.499 4.2903-31.082 12.873-17.166 17.166-17.166 45 0 62.166l12.875 12.875h-289.5c-24.278 0-43.959 19.679-43.959 43.957s19.681 43.959 43.959 43.959h289.5l-12.875 12.875c-17.166 17.166-17.166 45 0 62.166s44.998 17.166 62.164 0l87.916-87.916c17.166-17.166 17.166-45 0-62.166l-87.916-87.916c-8.5828-8.5828-19.832-12.873-31.082-12.873z" stroke-width="43.958"/>
</svg>
