<svg version="0.0" viewBox="0 0 1e3 1e3" xmlns="http://www.w3.org/2000/svg">
 <path d="m388.83 114.96c65.063-18.818 133.82-20.85 199.88-5.9033 66.057 14.946 127.25 46.384 177.87 91.376s89.018 102.08 111.61 165.92c7.3891 20.874-3.5482 43.786-24.421 51.171-20.876 7.3863-43.786-3.547-51.171-24.421-18.074-51.078-48.793-96.744-89.291-132.74-40.498-35.991-89.451-61.142-142.3-73.098-52.843-11.957-107.86-10.332-159.9 4.7226-52.049 15.055-99.435 43.048-137.74 81.369-0.29589 0.29629-0.59699 0.58817-0.90209 0.87523l-112.27 105.49h139.34c22.143 0 40.093 17.95 40.093 40.093 0 22.141-17.95 40.093-40.093 40.093h-240.56c-22.143 0-40.093-17.954-40.093-40.093v-240.56c0-22.143 17.95-40.093 40.093-40.093s40.093 17.95 40.093 40.093v147.87l118.04-110.91c47.799-47.667 106.86-82.499 171.71-101.26zm271.55 465.24c0-22.143 17.95-40.093 40.093-40.093h240.56c22.143 0 40.093 17.95 40.093 40.093v240.56c0 22.139-17.95 40.093-40.093 40.093s-40.093-17.954-40.093-40.093v-147.87l-118.04 110.92c-47.799 47.667-106.86 82.495-171.71 101.25-65.063 18.82-133.83 20.848-199.88 5.9017-66.057-14.943-127.25-46.38-177.87-91.372-50.621-44.992-89.018-102.08-111.61-165.92-7.3867-20.872 3.5474-43.782 24.421-51.171 20.874-7.3851 43.786 3.5482 51.171 24.425 18.074 51.074 48.793 96.74 89.291 132.74s89.452 61.142 142.3 73.102c52.843 11.956 107.86 10.332 159.9-4.723 52.049-15.055 99.435-43.052 137.74-81.373 0.18042-0.17641 0.35683-0.35282 0.54126-0.52923 0.12028-0.11627 0.24056-0.22853 0.36084-0.3448l112.27-105.49h-139.34c-22.143 0-40.093-17.954-40.093-40.093z" clip-rule="evenodd" fill-rule="evenodd" stroke-width="40.093"/>
</svg>
