<svg version="0.0" viewBox="0 0 1e3 1e3" xmlns="http://www.w3.org/2000/svg">
 <path d="m500 15.035c59.521 0 107.77 48.25 107.77 107.77 0 59.52-48.249 107.77-107.77 107.77s-107.77-48.25-107.77-107.77c0-59.52 48.249-107.77 107.77-107.77zm0 377.2c59.521 0 107.77 48.249 107.77 107.77s-48.249 107.77-107.77 107.77-107.77-48.249-107.77-107.77 48.249-107.77 107.77-107.77zm0 377.2c59.521 0 107.77 48.249 107.77 107.77s-48.249 107.77-107.77 107.77-107.77-48.249-107.77-107.77 48.249-107.77 107.77-107.77z" clip-rule="evenodd" fill-rule="evenodd" stroke-width="53.885"/>
</svg>
