<svg version="0.0" viewBox="0 0 1e3 1e3" xmlns="http://www.w3.org/2000/svg">
 <path d="m948.35 6.8551c-0.35864 0-0.69486 0.17932-1.049 0.17932-4.6107 0.089659-9.2524 0.789-13.747 2.3625l-896.59 313.81c-17.349 6.0722-29.196 22.086-29.945 40.451-0.74865 18.366 9.7329 35.35 26.53 42.816l387.71 172.31 172.31 387.71c7.4641 16.793 24.449 27.366 42.816 26.618 18.362-0.74866 34.465-12.683 40.539-30.032l313.02-894.49 0.789-2.1025c1.6049-4.5834 2.1922-9.3093 2.2773-14.009 0.0179-1.0131-0.22414-1.9635-0.26897-2.9767-0.22415-4.0974-0.97729-8.0258-2.2773-11.908-0.52003-1.5735-1.049-3.035-1.7528-4.5533-2.1787-4.7165-4.8671-9.2443-8.6682-13.046-3.9136-3.9136-8.5225-6.6518-13.396-8.8435-1.2283-0.5514-2.4163-0.96384-3.676-1.3987-3.8957-1.3539-7.8734-2.1204-11.995-2.3625-0.8921-0.04483-1.7349-0.52451-2.627-0.52451zm-170.65 152.09-332.37 332.37-272.04-120.83zm63.566 63.216-211.63 604.59-120.92-272.04z" stroke-width="44.83"/>
</svg>
