<svg version="0.0" viewBox="0 0 1e3 1e3" xmlns="http://www.w3.org/2000/svg">
 <path d="m145.85 57.309c-73.346 0-132.81 59.459-132.81 132.81v442.69c1e-6 73.349 59.459 132.81 132.81 132.81h309.88v88.538h-132.81c-24.449 0-44.27 19.82-44.27 44.27 0 24.45 19.821 44.268 44.27 44.268h354.16c24.45 0 44.27-19.818 44.27-44.268 0-24.45-19.82-44.27-44.27-44.27h-132.81v-88.538h309.88c73.349 0 132.81-59.457 132.81-132.81v-442.69c0-73.346-59.457-132.81-132.81-132.81h-708.3zm0 88.536h708.3c24.45 0 44.27 19.821 44.27 44.27v442.69c0 24.45-19.82 44.268-44.27 44.268h-708.29c-24.449 0-44.27-19.818-44.27-44.268v-442.69c0-24.449 19.821-44.27 44.27-44.27z" stroke-width="44.269"/>
</svg>
