<svg version="0.0" viewBox="0 0 1e3 1e3" xmlns="http://www.w3.org/2000/svg">
 <path d="m287.52 98.26c-24.914 0.01339-49.353 6.9757-70.525 20.105-21.152 13.116-38.229 31.868-49.316 54.148-0.0112 0.0228-0.022 0.0456-0.0332 0.0684l-153.94 307.43c-0.0039 8e-3 -0.0078 0.0156-0.01172 0.0234-1.5183 3.031-2.6981 6.2586-3.498 9.6348-0.01159 0.0487-0.02178 0.0977-0.0332 0.14648-0.1721 0.73749-0.3259 1.4814-0.46094 2.2324-0.023322 0.12888-0.046171 0.25763-0.068359 0.38672-0.11331 0.66382-0.21127 1.3324-0.29492 2.0059-0.023775 0.18951-0.050919 0.37849-0.072266 0.56836-0.069808 0.62782-0.12252 1.2611-0.16602 1.8965-0.014024 0.20211-0.035598 0.40305-0.046875 0.60546-0.04516 0.82283-0.070312 1.6503-0.070312 2.4844v267.83c0 35.514 14.109 69.578 39.223 94.691 25.114 25.113 59.173 39.223 94.689 39.223h714.21c35.514 0 69.576-14.109 94.689-39.223s39.223-59.178 39.223-94.691v-267.83c0-0.83411-0.0252-1.6616-0.0703-2.4844-0.0113-0.20241-0.0329-0.40335-0.0469-0.60546-0.0435-0.63541-0.0962-1.2687-0.16602-1.8965-0.0219-0.19511-0.0497-0.38926-0.0742-0.58398-0.0809-0.64964-0.17468-1.2949-0.2832-1.9356-0.0291-0.17096-0.0607-0.34114-0.0918-0.51172-0.127-0.69992-0.2685-1.3939-0.42773-2.082-0.0216-0.0931-0.0422-0.18634-0.0644-0.2793-0.7996-3.3566-1.9763-6.5653-3.4863-9.5801-4e-3 -8e-3 -8e-3 -0.0171-0.0117-0.0254l-153.94-307.43c-9e-3 -0.0196-0.0184-0.0409-0.0273-0.0606-11.088-22.284-28.166-41.038-49.32-54.156-21.176-13.13-45.615-20.092-70.527-20.105zm0.0156 89.275h424.92c8.2982 6e-3 16.436 2.3262 23.488 6.7012 7.0617 4.3763 12.757 10.635 16.453 18.072l0.0586 0.12305 121.64 242.93h-195.55c-14.927 0-28.862 7.4607-37.143 19.879l-76.023 114.04h-130.77l-76.025-114.04c-8.279-12.418-22.216-19.879-37.141-19.879h-195.55l121.64-242.93-39.914-19.986 39.975 19.863c3.6956-7.4371 9.3935-13.696 16.451-18.072 7.0554-4.375 15.19-6.6954 23.492-6.7012zm-189.28 357.1h199.3l76.025 114.04c8.2785 12.418 22.216 19.877 37.141 19.877h178.55c14.927 0 28.863-7.4587 37.139-19.877l76.027-114.04h199.3v223.19c0 11.838-4.7046 23.195-13.074 31.564-8.3696 8.3696-19.725 13.074-31.562 13.074h-714.21c-11.839 0-23.191-4.7046-31.562-13.074-8.3709-8.3696-13.074-19.726-13.074-31.564z" stroke-width="44.638"/>
</svg>
