<svg version="0.0" viewBox="0 0 1e3 1e3" xmlns="http://www.w3.org/2000/svg">
 <path d="m6.1179 203.67c0-27.276 22.112-49.388 49.388-49.388h0.49388c27.276 0 49.388 22.112 49.388 49.388s-22.112 49.388-49.388 49.388h-0.49388c-27.276 0-49.388-22.112-49.388-49.388zm246.94 0c0-27.276 22.112-49.388 49.388-49.388h642.05c27.277 0 49.388 22.112 49.388 49.388s-22.111 49.388-49.388 49.388h-642.05c-27.276 0-49.388-22.112-49.388-49.388zm-246.94 296.33c0-27.277 22.112-49.388 49.388-49.388h0.49388c27.276 0 49.388 22.111 49.388 49.388s-22.112 49.388-49.388 49.388h-0.49388c-27.276 0-49.388-22.111-49.388-49.388zm246.94 0c0-27.277 22.112-49.388 49.388-49.388h642.05c27.277 0 49.388 22.111 49.388 49.388s-22.111 49.388-49.388 49.388h-642.05c-27.276 0-49.388-22.111-49.388-49.388zm-246.94 296.33c0-27.277 22.112-49.388 49.388-49.388h0.49388c27.276 0 49.388 22.111 49.388 49.388s-22.112 49.388-49.388 49.388h-0.49388c-27.276 0-49.388-22.111-49.388-49.388zm246.94 0c0-27.277 22.112-49.388 49.388-49.388h642.05c27.277 0 49.388 22.111 49.388 49.388s-22.111 49.388-49.388 49.388h-642.05c-27.276 0-49.388-22.111-49.388-49.388z" clip-rule="evenodd" fill-rule="evenodd" stroke-width="49.388"/>
</svg>
