<svg version="0.0" viewBox="0 0 1e3 1e3" xmlns="http://www.w3.org/2000/svg">
 <path d="m155.18 7.4082c-39.193 0-76.78 15.57-104.49 43.283s-43.283 65.301-43.283 104.49v689.63c0 39.195 15.57 76.779 43.283 104.49s65.301 43.285 104.49 43.285h197.04c27.205 0 49.258-22.054 49.258-49.26 0-27.206-22.053-49.26-49.258-49.26h-197.04c-13.064 0-25.594-5.1917-34.832-14.428-9.2376-9.2361-14.428-21.767-14.428-34.83v-689.63c0-13.064 5.1902-25.592 14.428-34.83 9.2381-9.2376 21.768-14.428 34.832-14.428h197.04c27.205 0 49.258-22.055 49.258-49.26 0-27.205-22.053-49.26-49.258-49.26zm541.86 197.04c-12.607 0-25.214 4.8092-34.832 14.428-19.236 19.237-19.236 50.425 0 69.662l162.21 162.2h-472.19c-27.205 0-49.26 22.054-49.26 49.26s22.055 49.26 49.26 49.26h472.19l-162.21 162.21c-19.236 19.236-19.236 50.426 0 69.662 19.236 19.241 50.426 19.241 69.662 0l246.3-246.29c0.22658-0.22647 0.43846-0.46492 0.66015-0.69531 0.33464-0.34781 0.67365-0.69132 0.99805-1.0488 0.19763-0.21784 0.38277-0.44501 0.57617-0.66601 0.32988-0.37679 0.66398-0.74992 0.98242-1.1367 0.20039-0.24361 0.38859-0.49512 0.58399-0.74219 0.31212-0.39421 0.6256-0.78756 0.92578-1.1914 0.11481-0.15471 0.22107-0.31476 0.33398-0.4707 0.35794-0.49349 0.7129-0.98905 1.0527-1.4961 0.0948-0.1418 0.18403-0.28699 0.27734-0.42969 0.35323-0.53903 0.70082-1.0813 1.0332-1.6348 0.0385-0.0643 0.0731-0.13082 0.11133-0.19531 3.1956-5.3762 5.3997-11.409 6.3535-17.852 2e-3 -0.0143 4e-3 -0.0287 6e-3 -0.043 0.11502-0.78167 0.21512-1.5682 0.29297-2.3613 0.019-0.19196 0.0262-0.38578 0.043-0.57812 0.0521-0.60281 0.10462-1.2056 0.13477-1.8145 0.0413-0.82266 0.0625-1.6489 0.0625-2.4766s-0.0212-1.6539-0.0625-2.4766c-0.0398-0.80287-0.1-1.6003-0.17773-2.3926-6.5e-4 -7e-3 -1e-3 -0.013-2e-3 -0.0195-0.0789-0.80105-0.18002-1.5955-0.29687-2.3848-1.9e-4 -1e-3 1.9e-4 -3e-3 0-4e-3 -0.96375-6.5062-3.2-12.596-6.4473-18.012-2e-3 -3e-3 -4e-3 -7e-3 -6e-3 -0.01-0.36394-0.60667-0.74385-1.2017-1.1328-1.791-0.0594-0.0902-0.1138-0.18359-0.17383-0.27344-0.38765-0.57905-0.79192-1.1457-1.2031-1.707-0.0627-0.0857-0.12036-0.17446-0.1836-0.25977-0.35581-0.47924-0.72701-0.94646-1.0996-1.4121-0.13822-0.17296-0.26947-0.35023-0.41015-0.52148-0.3611-0.4391-0.73748-0.86483-1.1133-1.291-0.15537-0.17633-0.30287-0.35889-0.46094-0.5332-0.3244-0.35751-0.66341-0.70102-0.99805-1.0488-0.22169-0.2305-0.43357-0.46872-0.66015-0.69531l-246.3-246.29c-9.6178-9.6186-22.223-14.428-34.83-14.428z" stroke-width="49.259"/>
</svg>
