<svg version="0.0" viewBox="0 0 1e3 1e3" xmlns="http://www.w3.org/2000/svg">
 <path d="m101.45 211.13 398.55 278.98 398.54-278.98c-7.4122-14.655-22.649-24.824-40.036-24.824h-717.02c-17.386 0-32.626 10.169-40.037 24.824zm801.87 106.06-377.62 264.33c-15.434 10.805-35.967 10.805-51.401 0l-377.62-264.33v451.69c0 24.544 20.268 44.814 44.814 44.814h717.02c24.544 0 44.814-20.269 44.814-44.814zm-896.27-86.072c0-74.045 60.396-134.44 134.44-134.44h717.02c74.045 0 134.44 60.396 134.44 134.44v537.76c0 74.045-60.395 134.44-134.44 134.44h-717.02c-74.045 0-134.44-60.395-134.44-134.44z" clip-rule="evenodd" fill-rule="evenodd" stroke-width="44.814"/>
</svg>
