<svg version="0.0" viewBox="0 0 1e3 1e3" xmlns="http://www.w3.org/2000/svg">
 <path d="m688.76 105.88c-22.473-2.539-45.322-1.8034-67.822 2.297-46.527 8.4768-89.36 30.93-122.8 64.37-33.439 33.438-55.893 76.276-64.37 122.8-8.4772 46.523-2.5729 94.524 16.922 137.61 7.984 17.643 4.206 38.389-9.4868 52.082l-321.5 321.5c-9.7842 9.7846-15.28 23.054-15.28 36.891s5.4962 27.107 15.28 36.891c9.7842 9.7846 23.054 15.279 36.891 15.279 13.837 0 27.107-5.4948 36.891-15.279l321.5-321.5c13.698-13.693 34.439-17.476 52.082-9.4915 43.084 19.499 91.086 25.399 137.61 16.922 46.527-8.4772 89.36-30.931 122.8-64.365 33.439-33.439 55.893-76.276 64.37-122.8 4.099-22.503 4.8342-45.351 2.2984-67.822l-119.67 119.67c-17.396 17.047-40.781 26.595-65.138 26.595-24.362 0-47.746-9.5473-65.138-26.599l-0.33499-0.32569-74.769-74.774c-17.052-17.395-26.599-40.782-26.599-65.138s9.552-47.741 26.599-65.138l0.32569-0.33221zm-84.502-89.248c65.133-11.867 132.33-3.6031 192.65 23.692 13.916 6.297 23.854 19.023 26.595 34.049 2.7358 15.026-2.0751 30.439-12.874 41.24l-175.08 175.08 73.783 73.783 175.07-175.08c10.804-10.8 26.213-15.612 41.242-12.874 15.028 2.7376 27.753 12.676 34.048 26.592 27.297 60.318 35.561 127.52 23.692 192.65-11.864 65.133-43.303 125.1-90.118 171.92-46.811 46.811-106.78 78.249-171.91 90.113-54.32 9.901-110.08 5.7926-162.08-11.674l-299.99 300c-27.235 27.232-64.175 42.535-102.69 42.535-38.516 0-75.457-15.303-102.69-42.535-27.235-27.237-42.535-64.175-42.535-102.69s15.3-75.457 42.535-102.69l300-300c-17.467-52.003-21.571-107.76-11.675-162.08 11.868-65.133 43.303-125.1 90.118-171.92 46.811-46.815 106.78-78.249 171.92-90.118z" clip-rule="evenodd" fill-rule="evenodd" stroke-width="46.527"/>
</svg>
