<svg version="0.0" viewBox="0 0 1000 1000" xmlns="http://www.w3.org/2000/svg">
 <style/>
 <path d="m700.39 586.9c-3.9563 5e-3 -7.8261-1.1579-11.125-3.3424-3.2991-2.1844-5.8812-5.2922-7.4234-8.9358-1.5406-3.6435-1.9732-7.6597-1.2428-11.548 0.73203-3.8881 2.592-7.4767 5.3505-10.313 31.712-32.654 49.452-76.379 49.452-121.9s-17.74-89.248-49.452-121.9c-30.803-31.554-72.872-49.587-116.96-50.139s-86.599 16.422-118.18 47.194c-0.99822 0.98158-1.9981 1.9665-2.9797 2.9814-3.7267 3.8215-8.816 6.0043-14.153 6.0725-5.3372 0.0666-10.483-1.9898-14.305-5.7148-3.8199-3.7267-6.0043-8.8193-6.0725-14.156-0.0666-5.3372 1.9898-10.48 5.7165-14.301 1.1979-1.2145 2.4273-2.4656 3.6918-3.6968 19.42-18.938 42.383-33.863 67.573-43.927 25.19-10.064 52.116-15.068 79.239-14.724 27.125 0.34272 53.916 6.0243 78.845 16.722 24.927 10.698 47.504 26.202 66.44 45.625 39.009 40.168 60.832 93.956 60.832 149.95 0 55.994-21.823 109.78-60.832 149.95-1.87 1.9316-4.1077 3.4672-6.5816 4.517-2.4756 1.0481-5.1375 1.5872-7.8261 1.5872zm82.037 190.28c-8.4982 0.0166-16.908-1.7053-24.714-5.0643-7.8061-3.359-14.842-8.2819-20.673-14.464l-47.399-48.249c-3.75-3.8066-5.8346-8.9474-5.7964-14.29 0.0399-5.3438 2.2011-10.45 6.006-14.2 3.8049-3.7516 8.9441-5.8363 14.288-5.7963 5.3422 0.0383 10.453 2.1978 14.203 6.0026l47.896 48.761c4.0195 4.2824 9.573 6.7979 15.444 6.9909 5.8695 0.19299 11.576-1.9499 15.868-5.9594 0.34938-0.33274 0.69875-0.68212 1.0315-1.0315l0.23125-0.26453 61.808-63.705c4.6168-4.5652 7.2288-10.777 7.2671-17.269 0.0366-6.4934-2.5055-12.734-7.0674-17.352l-0.4492-0.44754-32.278-33.123c-5.0394-5.0909-8.3684-11.624-9.528-18.693-1.1596-7.0674-0.0898-14.321 3.0579-20.755 5.9095-12.188 11.059-24.729 15.423-37.551 2.226-6.9376 6.6215-12.974 12.541-17.223 5.9194-4.2474 13.048-6.4818 20.334-6.3686h45.268c6.3138-0.13975 12.321-2.7468 16.734-7.2654 4.4105-4.5203 6.8744-10.591 6.8594-16.907v-88.444c-0.31444-6.0792-2.9215-11.812-7.297-16.045-4.3739-4.2325-10.19-6.6482-16.278-6.763h-44.92c-7.2904 0.11978-14.423-2.1129-20.344-6.3637-5.9211-4.2524-10.315-10.298-12.531-17.243-4.324-12.754-9.4698-25.217-15.406-37.304l-0.19964-0.39763c-2.9864-6.4768-3.9263-13.711-2.6919-20.736 1.2328-7.0242 4.5802-13.508 9.5946-18.579l32.294-32.925c4.5902-4.7116 7.1589-11.029 7.1589-17.607 0-6.58-2.5688-12.9-7.1589-17.612l-61.99-63.705c-4.0212-4.2839-9.5779-6.7969-15.451-6.9902-5.8729-0.19349-11.583 1.9485-15.877 5.9586-0.34938 0.33274-0.69875 0.68228-1.0315 1.0317l-0.33441 0.33307-32.243 32.892c-5.0543 5.2157-11.648 8.677-18.812 9.8749-7.1639 1.1962-14.522 0.0699-20.999-3.2176-12.03-5.9893-24.42-11.226-37.101-15.674-6.8195-2.3543-12.719-6.8104-16.85-12.726-4.131-5.9153-6.2822-12.986-6.1441-20.199v-44.387c0.0632-6.3118-2.3791-12.392-6.7929-16.905-4.4121-4.513-10.435-7.0902-16.747-7.1691h-87.013c-6.3121 0.14358-12.316 2.7558-16.725 7.2745-4.4105 4.519-6.8761 10.587-6.8644 16.901v46.317c0.13643 7.2456-2.0247 14.349-6.1773 20.289-4.1509 5.9396-10.079 10.411-16.932 12.77-12.586 4.391-24.871 9.6092-36.768 15.622-6.4968 3.2858-13.874 4.4138-21.054 3.2159-7.1822-1.1962-13.797-4.6584-18.876-9.8739l-32.592-33.274c-4.0345-4.2719-9.5996-6.766-15.472-6.9376-5.8745-0.17153-11.576 1.9946-15.853 6.0238-0.3161 0.29946-0.61557 0.59777-0.91504 0.91387l-0.23291 0.23558-61.856 63.551c-4.6118 4.67-7.1988 10.974-7.1988 17.539 0 6.565 2.5871 12.864 7.1988 17.534l0.0998 0.0982 47.565 48.615c3.7334 3.8149 5.798 8.9574 5.7398 14.295-0.0582 5.3355-2.2344 10.43-6.0476 14.163-3.8149 3.7317-8.9557 5.7963-14.291 5.7381-5.3372-0.0566-10.433-2.2327-14.166-6.0476l-47.517-48.578c-12.012-12.222-18.743-28.672-18.743-45.808 0-17.138 6.7314-33.592 18.743-45.813l61.559-63.222c0.78194-0.83185 1.6637-1.6629 2.4623-2.4614 12.024-11.307 28.032-17.397 44.531-16.942 16.499 0.45502 32.146 7.4185 43.527 19.37l29.198 29.765c11.024-5.3827 22.325-10.176 33.858-14.358v-42.624c-0.0117-16.919 6.6249-33.164 18.479-45.236 11.854-12.072 27.975-19.001 44.89-19.297h87.777c16.98 0.16254 33.203 7.0551 45.103 19.167 11.899 12.112 18.505 28.455 18.369 45.435v40.459c11.536 4.192 22.853 8.9692 33.905 14.31l29.115-29.7c0.88176-0.93167 1.7985-1.8435 2.7301-2.7253 12.062-11.265 28.092-17.302 44.589-16.787 16.496 0.51442 32.118 7.5344 43.454 19.529l61.557 63.222c11.977 12.216 18.687 28.643 18.687 45.751 0 17.11-6.7097 33.535-18.687 45.752l-29.814 30.399c5.3937 11.317 10.182 22.911 14.341 34.736h41.343c16.476 0.22293 32.236 6.7613 44.028 18.269 11.792 11.508 18.717 27.107 19.342 43.571v89.522c0.0116 16.918-6.6265 33.164-18.479 45.236-11.854 12.072-27.975 19.004-44.892 19.301h-41.776c-4.1909 11.882-8.984 23.54-14.358 34.936l29.531 30.313 0.38265 0.38598c12.037 12.177 18.762 28.626 18.695 45.749-0.0649 17.121-6.9144 33.522-19.044 45.605l-61.258 63.217c-0.8984 0.94831-1.8301 1.88-2.7784 2.7618-11.528 10.879-26.776 16.943-42.624 16.953zm-421.85 42.759-5.457-1.4142c-2.7118 0.46584-5.4403 0.83185-8.1522 1.098l-0.97992 0.10148h-33.274l-1.2494-0.16803c-6.0392-0.75366-12.019-1.9149-17.9-3.4755-32.472-8.8626-61.139-28.132-81.608-54.851-20.467-26.721-31.605-59.418-31.705-93.076-0.0998-33.658 10.842-66.422 31.151-93.262 20.309-26.842 48.863-46.279 81.28-55.333 6.4136-2.266 13.162-3.4356 19.964-3.4605h18.6c32.5 0.12312 64.083 10.787 90.005 30.394l2.7451 1.9981 6.9227 5.9062 8.3185 7.9525 8.3185 8.5015 0.94831 0.747 1.3642 1.6654c5.6549 7.0275 10.664 14.551 14.972 22.478l0.13476 0.2479c2.627 5.0344 4.9878 10.203 7.0707 15.487l0.0832 0.18301c1.2295 2.647 2.2427 5.3921 3.0279 8.2037 0.46584 1.6637 0.76364 3.0928 1.0132 4.2741l0.0998 0.51574c1.8267 3.161 2.8965 6.7047 3.1278 10.348 2.0963 5.4453 3.0695 11.258 2.8616 17.088 0.2246 4.096 0.2246 8.2004 0 12.295v1.296l-0.24789 1.2844c-0.36602 1.9632-0.81688 3.923-1.3326 5.8696v17.502l-0.18301 1.331c-3.1993 24.19-11.282 47.475-23.756 68.445-3.0629 5.2307-6.8761 9.9822-11.315 14.107-12.38 11.957-26.333 22.169-41.474 30.351l-0.78194 0.39762-6.9876 3.3258c-2.439 1.3143-4.9628 2.4656-7.5532 3.4455l-6.6565 2.5305-6.2871 2.1761c-3.4805 1.1646-7.0474 2.053-10.666 2.6603zm-45.351-40.46h28.714c2.5438-0.28117 5.071-0.69211 7.5715-1.2312l4.675-1.0148 5.6217 1.4624 0.81687-0.24789 5.7398-1.9981 5.8379-2.2094c1.0115-0.38598 1.9964-0.84183 2.9448-1.3659l0.90007-0.46583 6.9859-3.3274c11.831-6.4402 22.733-14.456 32.409-23.826l0.34938-0.33274c1.6121-1.4874 2.998-3.201 4.111-5.0893v-0.11812c9.4798-15.948 15.7-33.62 18.299-51.991v-20.711l0.91671-2.9281c0.33274-1.0648 0.6322-2.1628 0.86512-3.3274 0.0832-2.2959 0-4.6085 0-6.8877v-1.1663-2.7617c-1.3393-2.785-2.216-5.7681-2.5954-8.8343-1.1995-2.8166-2.083-5.7548-2.6303-8.766-0.0998-0.49911-0.24789-1.1646-0.2978-1.3975-0.25954-0.94665-0.61058-1.8667-1.0481-2.7451l-0.68212-1.6654c-1.5772-4.0362-3.3707-7.9841-5.3738-11.827-2.8716-5.3056-6.1757-10.363-9.8824-15.123-0.54902-0.54903-1.098-1.1164-1.6637-1.6654l-7.0391-7.2221-7.1523-6.7496-4.492-3.7932-2.0963-1.5323c-18.95-14.381-42.062-22.212-65.849-22.312h-18.567c-2.4174 0.0266-4.8114 0.47915-7.0707 1.3326l-0.76697 0.28117-0.79691 0.21961c-28.757 7.8826-53.257 26.764-68.2 52.566-14.943 25.804-19.133 56.451-11.659 85.318v0.16637c4.8614 19.384 14.82 37.117 28.84 51.357 14.022 14.241 31.597 24.473 50.903 29.636 3.7367 1.0049 7.5316 1.7752 11.363 2.3109zm46.6 208.71h-59.313c-16.922-0.19798-33.083-7.0641-44.968-19.111-11.884-12.047-18.532-28.301-18.5-45.224v-12.644l-7.8693-3.3258-8.5531 8.5331c-0.7653 0.79858-1.5472 1.6654-2.3625 2.3475-12.02 11.363-28.062 17.486-44.597 17.023-16.535-0.46085-32.211-7.4684-43.579-19.484l-40.876-42.145c-11.974-12.218-18.682-28.644-18.682-45.752 0-17.108 6.7082-33.534 18.682-45.752l8.8669-9.0339c-1.209-2.7401-2.3452-5.5118-3.4099-8.3185h-12.23c-16.982-0.16304-33.205-7.0591-45.106-19.176-11.901-12.115-18.505-28.456-18.363-45.439v-59.045c-0.03184-16.923 6.6181-33.178 18.503-45.224 11.885-12.047 28.044-18.913 44.966-19.111h12.195c1.0814-2.8283 2.2457-5.6732 3.4768-8.5015l-8.7348-8.8875c-12.087-12.175-18.869-28.636-18.869-45.792s6.7821-33.617 18.869-45.792l40.811-42.077c0.79857-0.84849 1.6645-1.662 2.4798-2.4773 12.011-11.325 28.018-17.431 44.519-16.978 16.502 0.45253 32.153 7.4251 43.524 19.39l8.5015 8.6513 0.4492-0.20297c2.3126-1.0149 4.675-2.0763 7.1872-3.0745v-12.247-1.2311c-0.14641-16.99 6.4602-33.346 18.369-45.467 11.909-12.12 28.143-19.013 45.135-19.168h60.293c16.923 0.57398 32.931 7.8211 44.527 20.159 11.596 12.338 17.838 28.765 17.362 45.69v9.9806l7.6364 3.3307 8.4849-8.6513c0.79858-0.83185 1.6637-1.6637 2.429-2.429 12.032-11.345 28.07-17.456 44.601-16.991 16.529 0.46584 32.201 7.4667 43.576 19.469l40.811 42.077c12.113 12.178 18.913 28.656 18.913 45.832 0 17.178-6.7996 33.658-18.913 45.838l-8.8492 9.0173c1.2311 2.8117 2.3941 5.6549 3.4755 8.4999h12.311c16.729 0.3211 32.667 7.1706 44.413 19.088 11.744 11.915 18.362 27.952 18.442 44.682v59.246c0.0316 16.98-6.6415 33.286-18.567 45.374-11.925 12.087-28.14 18.978-45.12 19.176h-12.093l-3.4954 8.5331 8.8176 8.8176c11.979 12.217 18.688 28.644 18.688 45.752 0 17.11-6.7097 33.535-18.688 45.752l-40.894 42.162c-0.79858 0.84849-1.662 1.6637-2.4772 2.4623-12.022 11.305-28.028 17.392-44.524 16.937-16.496-0.4542-32.139-7.4151-43.519-19.366l-8.5198-8.6679-7.6198 3.3258v11.43c0 0.61557 0 1.2128 0.0832 1.8284 0.29947 8.4117-1.0581 16.802-4.0012 24.688-2.9414 7.886-7.4101 15.116-13.145 21.275-5.7364 6.159-12.631 11.132-20.287 14.626-7.658 3.4954-15.928 5.4453-24.34 5.7448zm-58.995-40.245h58.23c6.2622-0.30113 12.152-3.0579 16.397-7.6713 4.2441-4.6151 6.4984-10.718 6.2772-16.983v-1.0149-17.186c-0.0266-6.9277 2.0214-13.707 5.8745-19.464 3.8548-5.7564 9.34-10.227 15.754-12.844l13.426-5.7914c6.4019-2.805 13.496-3.6252 20.369-2.3558 6.8711 1.2694 13.203 4.5702 18.179 9.4764l0.16803 0.16637 11.644 11.929c4.0345 4.2674 9.5979 6.758 15.467 6.9293 5.8695 0.17136 11.568-1.9914 15.845-6.016 0.3161-0.28283 0.63054-0.59727 0.93001-0.91337l0.18301-0.19965 41.095-42.36c4.5702-4.71 7.1256-11.012 7.1256-17.575s-2.5554-12.865-7.1256-17.575l-11.648-11.649c-4.8281-4.9978-8.0423-11.33-9.2286-18.176-1.1862-6.8461-0.29115-13.889 2.5737-20.219l5.3921-13.177c2.419-6.6132 6.8029-12.328 12.563-16.378 5.7597-4.0511 12.621-6.2439 19.663-6.2838h15.837c6.342-0.0965 12.39-2.6885 16.833-7.2138 4.4438-4.5253 6.926-10.616 6.9077-16.958v-59.281c-8e-3 -6.2073-2.454-12.163-6.8095-16.584-4.3572-4.4221-10.275-6.9559-16.481-7.0558h-15.74c-7.1206-0.0399-14.055-2.2809-19.851-6.4186-5.7963-4.136-10.172-9.9672-12.524-16.689-1.4973-4.0927-3.2093-8.3218-4.9894-12.365l-0.0998-0.21462c-2.8399-6.3886-3.7001-13.481-2.4656-20.362 1.2345-6.8811 4.502-13.235 9.385-18.238l0.0832-0.0815 11.564-11.779c4.6284-4.6351 7.2271-10.919 7.2271-17.469 0-6.5517-2.5987-12.835-7.2271-17.471l-0.2662-0.24789-41.212-42.474c-4.0345-4.2657-9.5946-6.758-15.464-6.9293-5.8712-0.17137-11.569 1.9914-15.845 6.016-0.31611 0.29946-0.61724 0.59727-0.9167 0.91337l-0.28283 0.28117-11.361 11.649c-4.9445 5.1009-11.351 8.5381-18.336 9.8375s-14.198 0.39762-20.647-2.5837l-12.877-5.6416c-6.4968-2.5771-12.065-7.0491-15.985-12.835-3.9197-5.7864-6.0076-12.618-5.991-19.605v-14.542c0.20963-6.3187-2.0963-12.463-6.4136-17.083-4.3173-4.6201-10.293-7.3386-16.614-7.5549h-58.594c-6.3121 0.0749-12.338 2.647-16.753 7.1556-4.4155 4.5103-6.8628 10.589-6.8062 16.902v0.59727 16.938c0 7.0924-2.1711 14.017-6.2173 19.841-4.0478 5.8246-9.7776 10.273-16.424 12.751h-0.11812c-2.6619 0.96495-5.4403 2.1944-8.3185 3.5088l-3.71 1.6654c-6.4502 3.0429-13.696 3.9762-20.705 2.6636-7.0108-1.311-13.428-4.7981-18.341-9.9672l-11.648-11.816c-4.0328-4.2707-9.5946-6.7663-15.466-6.9376s-11.57 1.9964-15.845 6.0243c-0.31611 0.29947-0.63121 0.59727-0.91404 0.91337l-0.20098 0.19965-41.227 42.511c-4.6286 4.6351-7.228 10.919-7.228 17.469 0 6.55 2.5994 12.83 7.228 17.466l0.21728 0.21961 11.081 11.297c4.9998 5.0244 8.3461 11.453 9.5919 18.432 1.2456 6.9776 0.33041 14.168-2.622 20.613-1.8634 4.0927-3.559 8.2353-4.9898 12.295-2.3521 6.7214-6.728 12.553-12.525 16.69s-12.73 6.377-19.852 6.4169h-16.07c-6.2841 0.0965-12.278 2.6686-16.682 7.1523-4.4033 4.4853-6.8623 10.523-6.844 16.808v59.476c-0.0579 6.3088 2.3848 12.383 6.7932 16.893 4.4086 4.512 10.425 7.094 16.733 7.1822h16.154c7.0197 0.10149 13.846 2.3175 19.588 6.3554 5.7424 4.0395 10.136 9.7127 12.606 16.284l0.14824 0.41925c1.4052 4.0561 3.0319 8.034 4.8742 11.912l0.16654 0.34938c2.8727 6.4369 3.7442 13.587 2.4979 20.525-1.2461 6.936-4.5509 13.336-9.4843 18.371l-11.363 11.646c-4.5905 4.7116-7.1609 11.032-7.1609 17.61 0 6.5799 2.5704 12.895 7.1609 17.609l0.0995 0.0848 41.192 42.474c1.9969 2.1179 4.3922 3.8199 7.0473 5.0127 2.6551 1.1912 5.5185 1.8484 8.4283 1.9332 2.9082 0.0849 5.8047-0.40262 8.5248-1.4374 2.7202-1.0348 5.2107-2.597 7.3286-4.5952 0.31611-0.29947 0.61391-0.59727 0.91338-0.91338l0.41592-0.43089 11.315-11.3c4.9362-5.0626 11.318-8.4749 18.271-9.7643 6.9543-1.2894 14.135-0.39264 20.56 2.5638l12.942 5.5718c6.6282 2.4756 12.325 6.946 16.303 12.796 3.9779 5.8496 6.0409 12.789 5.9078 19.861v16.175c0.0116 6.2472 2.4706 12.242 6.8495 16.697 4.3789 4.4571 10.33 7.0192 16.577 7.1406z"/>
</svg>
