<svg version="0.0" viewBox="0 0 1e3 1e3" xmlns="http://www.w3.org/2000/svg">
 <path d="m62.724 14.925c-4.4628-0.1071-8.7857 1.5731-11.992 4.6543-3.2147 3.0894-5.0574 7.3248-5.1152 11.773v937.32c0.05781 4.4406 1.901 8.6834 5.1074 11.766 3.2149 3.0884 7.5275 4.7614 11.99 4.6543h719.94c4.3638 0.0728 8.5615-1.6494 11.611-4.7539 3.048-3.1066 4.685-7.3246 4.5274-11.666v-105.22c95.759-50.764 155.6-150.05 155.6-258.17 0-108.11-59.842-207.4-155.6-258.16v-121.12c-0.0485-4.663-1.654-9.169-4.5625-12.818h0.19922l-195.14-194.2 0.0488 0.44531c-3.2056-3.04-7.5035-4.6628-11.926-4.498h-524.68zm16.742 33.744h490.83v177.32c0.099 9.3178 7.7534 16.798 17.107 16.707h177.53v89.06c-33.059-12.628-68.182-19.065-103.58-18.982-161.8 0-293.22 131.22-293.22 292.51 0 161.29 131.33 292.51 293.13 292.51 35.436 0.0829 70.584-6.35 103.68-18.98v72.522h-685.48v-902.68zm524.68 23.414 137.64 136.87h-137.64zm57.603 274.43c143.28 0.16574 259.41 115.92 259.57 258.76 0 142.91-116.21 258.77-259.57 258.77-143.36 0-259.58-115.85-259.58-258.76s116.22-258.77 259.58-258.77zm-11.059 137.82c-9.3461 0-16.924 7.5473-16.924 16.873v121.42c-0.1152 4.384 1.5698 8.6273 4.6602 11.75 3.0904 3.1288 7.3227 4.8669 11.719 4.8184h92.8c9.3481 0 16.926-7.5554 16.926-16.873 0-9.3178-7.5779-16.871-16.926-16.871h-75.329v-104.25c0-9.3259-7.5799-16.873-16.926-16.873z" stroke-width="20.212"/>
</svg>
