<svg version="0.0" viewBox="0 0 1e3 1e3" xmlns="http://www.w3.org/2000/svg">
 <path d="m565.61 91.546c-43.192 0.94622-86.236 8.7282-127.48 23.338-82.482 29.218-153.41 84.129-202.33 156.68-42.517 62.512-64.411 135.93-67.614 211.23l-113.95-113.39a21.924 21.924 0 0 0-31.003 0.0855 21.924 21.924 0 0 0 0.08572 31.003l148.76 147.99a21.926 21.926 0 0 0 30.917 0l148.76-147.99a21.924 21.924 0 0 0 0.0855-31.003 21.924 21.924 0 0 0-31.003-0.0855l-107.91 107.35c4.1629-64.347 22.744-127.02 59.177-180.57a21.926 21.926 0 0 0 0.0439-0.0855c43.673-64.768 106.98-113.81 180.62-139.89 73.634-26.083 153.7-27.843 228.4-5.0101s140.1 69.05 186.57 131.84c46.468 62.797 71.553 138.85 71.553 216.97 0 78.12-25.085 154.18-71.553 216.97-46.47 62.797-111.86 109.01-186.57 131.84-74.706 22.834-154.77 21.074-228.4-5.0101-73.634-26.083-136.94-75.125-180.62-139.89a21.924 21.924 0 0 0-30.446-5.9092 21.924 21.924 0 0 0-5.9092 30.446c48.921 72.551 119.85 127.46 202.33 156.68 82.482 29.218 172.17 31.187 255.85 5.6095 83.682-25.579 156.95-77.348 209.01-147.69 52.05-70.337 80.159-155.54 80.159-243.05s-28.109-172.71-80.159-243.05c-52.052-70.337-125.32-122.11-209.01-147.69-41.84-12.789-85.181-18.674-128.38-17.728zm10.405 120.24a21.924 21.924 0 0 0-21.924 21.924v284.07a21.926 21.926 0 0 0 21.924 21.924h200.74a21.924 21.924 0 0 0 21.924-21.924 21.924 21.924 0 0 0-21.924-21.924h-178.82v-262.15a21.924 21.924 0 0 0-21.924-21.924z" color="#000000" color-rendering="auto" dominant-baseline="auto" image-rendering="auto" shape-rendering="auto" solid-color="#000000" stop-color="#000000" stroke-width="21.924" style="font-feature-settings:normal;font-variant-alternates:normal;font-variant-caps:normal;font-variant-east-asian:normal;font-variant-ligatures:normal;font-variant-numeric:normal;font-variant-position:normal;font-variation-settings:normal;inline-size:0;isolation:auto;mix-blend-mode:normal;shape-margin:0;shape-padding:0;text-decoration-color:#000000;text-decoration-line:none;text-decoration-style:solid;text-indent:0;text-orientation:mixed;text-transform:none;white-space:normal"/>
</svg>
