<svg version="0.0" viewBox="0 0 1e3 1e3" xmlns="http://www.w3.org/2000/svg">
 <path d="m500.01 18.518c-16.326 0-32.471 0.81298-48.39 2.4023-11.026 1.1009-19.07 10.932-17.969 21.957 1.1011 11.025 10.931 19.07 21.955 17.969 14.598-1.4572 29.411-2.2051 44.403-2.2051 14.994 0 29.808 0.74784 44.405 2.2051 11.024 1.1009 20.854-6.9438 21.955-17.969 1.1011-11.025-6.945-20.856-17.971-21.957-15.919-1.5894-32.064-2.4023-48.39-2.4023zm-189.9 40.552c-2.6054 0.06086-5.2425 0.63315-7.7678 1.7715-29.658 13.368-57.713 29.649-83.801 48.476-8.9853 6.4839-11.01 19.025-4.5274 28.011 6.4831 8.9849 19.023 11.011 28.009 4.5274 23.92-17.263 49.636-32.186 76.81-44.435 10.101-4.5535 14.596-16.432 10.043-26.534-3.4151-7.5758-10.95-11.999-18.766-11.816zm379.81 0c-7.816-0.18259-15.353 4.2408-18.768 11.816-4.5535 10.101-0.056 21.98 10.045 26.534 27.174 12.248 52.887 27.172 76.808 44.435 8.9853 6.4839 21.525 4.4575 28.009-4.5274 6.4851-8.9847 4.4579-21.526-4.5274-28.011-26.088-18.826-54.143-35.107-83.801-48.476-2.5252-1.1383-5.1604-1.7106-7.7658-1.7715zm-216.15 138.92v411.97h56.903v-411.97zm-347.54 12.234c-6.4372-0.19947-12.854 2.6988-16.906 8.3146-18.826 26.09-35.109 54.141-48.478 83.799-4.5535 10.101-0.05599 21.982 10.045 26.536 10.101 4.5535 21.98 0.056 26.534-10.045 12.249-27.172 27.172-52.889 44.435-76.81 6.4839-8.9853 4.4572-21.523-4.5274-28.009-3.3694-2.4311-7.2394-3.6656-11.102-3.7853zm747.56 0c-3.8625 0.11968-7.7322 1.354-11.102 3.7853-8.9853 6.4851-11.01 19.023-4.5274 28.009 17.263 23.92 32.184 49.638 44.433 76.81 4.5535 10.101 16.434 14.598 26.536 10.045 10.101-4.5535 14.598-16.434 10.045-26.536-13.369-29.658-29.65-57.709-48.476-83.799-4.0519-5.6158-10.471-8.5141-16.908-8.3146zm-832.97 223.32c-10.168 0.017-18.872 7.7358-19.904 18.07-1.5894 15.921-2.4043 32.062-2.4043 48.388 0 16.328 0.81493 32.471 2.4043 48.392 1.1007 11.024 10.93 19.07 21.955 17.969 11.025-1.1011 19.069-10.929 17.969-21.955-1.4575-14.598-2.2031-29.411-2.2031-44.405 0-14.992 0.74568-29.804 2.2031-44.401 1.1007-11.026-6.9438-20.856-17.969-21.955-0.68907-0.0688-1.3729-0.1027-2.0508-0.10156zm918.37 0c-0.67795-1e-3 -1.3617 0.0327-2.0508 0.10156-11.024 1.099-19.07 10.929-17.969 21.955 1.4577 14.598 2.2051 29.409 2.2051 44.401 0 14.994-0.74742 29.808-2.2051 44.405-1.1011 11.026 6.9451 20.854 17.969 21.955 11.026 1.1011 20.856-6.9451 21.957-17.969 1.5877-15.921 2.4023-32.064 2.4023-48.392 0-16.326-0.81465-32.467-2.4023-48.388-1.0323-10.335-9.7374-18.053-19.906-18.07zm-880.54 235.82c-2.6054 0.0606-5.2425 0.63172-7.7678 1.7695-10.101 4.5535-14.598 16.436-10.045 26.538 13.368 29.656 29.651 57.709 48.478 83.799 6.4839 8.9832 19.023 11.012 28.009 4.5294 8.9847-6.4851 11.011-19.027 4.5274-28.011-17.263-23.923-32.186-49.636-44.435-76.808-3.415-7.5758-10.95-11.998-18.766-11.816zm842.72 0c-7.816-0.18188-15.353 4.2408-18.768 11.816-12.249 27.172-27.169 52.885-44.433 76.808-6.4831 8.9832-4.4579 21.525 4.5274 28.011 8.9853 6.4831 21.527 4.4538 28.011-4.5294 18.826-26.09 35.107-54.143 48.476-83.799 4.5535-10.101 0.056-21.984-10.045-26.538-2.5252-1.1378-5.1624-1.7089-7.7678-1.7695zm-447.6 38.31v94.356h56.903v-94.356zm-242.84 146.69c-6.4374-0.19905-12.854 2.7002-16.906 8.3146-6.4831 8.9853-4.4579 21.525 4.5274 28.009 26.088 18.828 54.143 35.109 83.801 48.478 10.101 4.5535 21.98 0.056 26.534-10.045 4.5535-10.101 0.0579-21.98-10.043-26.534-27.174-12.249-52.889-27.173-76.81-44.437-3.3695-2.4311-7.2393-3.6658-11.102-3.7853zm538.19 0c-3.8625 0.11942-7.7324 1.354-11.102 3.7853-23.92 17.263-49.634 32.188-76.808 44.437-10.101 4.5535-14.598 16.432-10.045 26.534 4.5535 10.101 16.432 14.598 26.534 10.045 29.658-13.369 57.713-29.65 83.801-48.478 8.9853-6.4831 11.012-19.023 4.5274-28.009-4.0519-5.6145-10.469-8.5137-16.906-8.3146zm-315.55 84.693c-10.167 0.017-18.87 7.7337-19.902 18.07-1.1011 11.024 6.943 20.854 17.969 21.955 15.919 1.5898 32.064 2.4043 48.39 2.4043 16.326 0 32.471-0.8145 48.39-2.4043 11.026-1.1011 19.072-10.931 17.971-21.955-1.1011-11.026-10.931-19.07-21.955-17.969-14.598 1.4577-29.411 2.2031-44.405 2.2031-14.992 0-29.806-0.74546-44.403-2.2031-0.68901-0.0688-1.3749-0.1027-2.0527-0.10157z" stroke-width="20.974"/>
</svg>
