<svg version="0.0" viewBox="0 0 1e3 1e3" xmlns="http://www.w3.org/2000/svg">
 <path d="m500.01 12.352c-269.33 1e-6 -487.66 218.33-487.66 487.66 1e-6 269.33 218.33 487.66 487.66 487.66s487.66-218.33 487.66-487.66-218.33-487.66-487.66-487.66zm0 40.638c246.88 0 447.02 200.13 447.02 447.02 0 246.88-200.13 447.02-447.02 447.02-246.88 0-447.02-200.13-447.02-447.02 0-246.88 200.13-447.02 447.02-447.02zm3.6817 183.07c-49.375 0-89.404 40.027-89.404 89.404 0 49.375 40.029 89.404 89.404 89.404 49.377 0 89.404-40.029 89.404-89.404 0-49.377-40.027-89.404-89.404-89.404zm0 40.638c26.933 0 48.767 21.833 48.767 48.767 0 26.931-21.833 48.765-48.767 48.765-26.931 0-48.767-21.833-48.767-48.765 0-26.933 21.835-48.767 48.767-48.767zm-0.0312 199.12c-11.222 0-20.318 9.0965-20.318 20.318v243.82c0 11.222 9.0965 20.32 20.318 20.32 11.222 0 20.32-9.0985 20.32-20.32v-243.82c0-11.222-9.0985-20.318-20.32-20.318z" stroke-width="20.319"/>
</svg>
