<svg version="0.0" viewBox="0 0 1000 1000" xmlns="http://www.w3.org/2000/svg">
 <style/>
 <path d="m746.55 118.44c-31.466-32.566-69.071-58.581-110.64-76.535-41.575-17.954-86.291-27.493-131.57-28.072-45.281-0.57889-90.228 7.8167-132.25 24.703-42.018 16.886-80.276 41.924-112.56 73.675-32.289 31.751-57.969 69.584-75.558 111.31-17.589 41.73-26.738 86.53-26.919 131.81-0.18135 45.284 8.609 90.157 25.863 132.02 17.254 41.869 42.63 79.906 74.663 111.92 12.84 12.853 26.672 24.676 41.366 35.36 5.316 3.8652 9.6429 8.9351 12.625 14.793 2.9817 5.8591 4.5354 12.34 4.5337 18.914v98.301c0 4.7339 0.93322 9.4215 2.745 13.795 1.8118 4.3749 4.4692 8.3493 7.8165 11.695 3.349 3.3474 7.3234 6.003 11.697 7.8132 4.3749 1.8102 9.0625 2.7368 13.796 2.7351h295.8c4.7339 2e-3 9.4232-0.92494 13.796-2.7351 4.3749-1.8102 8.3493-4.4659 11.697-7.8132 3.349-3.3457 6.0047-7.3201 7.8182-11.695 1.8118-4.3732 2.7451-9.0608 2.7451-13.795v-98.301c-2e-3 -6.5739 1.552-13.055 4.5337-18.914 2.9817-5.8574 7.3086-10.927 12.623-14.793 14.695-10.684 28.526-22.506 41.366-35.36 63.604-63.603 99.671-149.65 100.42-239.6 0.75287-89.946-33.869-176.58-96.401-241.24zm-36.402 448.51c-8.2633 8.2749-17.003 16.058-26.176 23.312-1.6762 1.3237-3.3589 2.6259-5.0467 3.9066-12.67 9.5771-22.948 21.959-30.032 36.175-7.0819 14.215-10.775 29.878-10.788 45.761v70.023c0 2.8311-1.1235 5.5447-3.1256 7.5468-2.0021 2.0005-4.7157 3.1256-7.5468 3.1256h-254.82c-2.8294 0-5.5447-1.1252-7.5452-3.1256-2.0021-2.0021-3.1256-4.7157-3.1256-7.5468v-70.023c-0.0132-15.883-3.708-31.546-10.79-45.761-7.0819-14.217-17.361-26.598-30.032-36.175-1.6977-1.2807-3.3804-2.5829-5.0467-3.9066-9.1783-7.254-17.924-15.037-26.193-23.312-41.564-41.563-69.87-94.517-81.338-152.17-11.468-57.651-5.5842-117.41 16.909-171.71 22.493-54.305 60.584-100.72 109.46-133.38 48.873-32.656 106.33-50.088 165.11-50.088 58.78 0 116.24 17.431 165.11 50.088 48.873 32.656 86.965 79.072 109.46 133.38 22.493 54.305 28.377 114.06 16.909 171.71-11.468 57.649-39.774 110.6-81.339 152.17zm-108.13 396.32v-0.0165c0-12.666-10.269-22.933-22.933-22.933h-159.95c-12.666 0-22.933 10.267-22.933 22.933v0.0165c0 12.666 10.267 22.933 22.933 22.933h159.95c12.665 0 22.933-10.267 22.933-22.933zm28.243-91.748v-0.0165c0-12.666-10.269-22.933-22.933-22.933h-216.44c-12.666 0-22.933 10.267-22.933 22.933v0.0165c0 12.666 10.267 22.933 22.933 22.933h216.44c12.665 0 22.933-10.267 22.933-22.933z"/>
</svg>
