<svg version="0.0" viewBox="0 0 1000 1000" xmlns="http://www.w3.org/2000/svg">
 <path d="m354.22 441.71c-42.653-1.9469-73.321 50.088-51.028 86.469 13.24 26.746 44.411 32.309 71.336 30.113 189.16-0.11658 378.34 0.29146 567.5-0.23316 42.657-1.6496 68.869-56.064 43.585-90.45-15.591-26.156-47.389-27.212-74.327-25.928h-557.06zm336.77-242.84c-42.635 0.58291-70.354 54.168-46.073 89.262 28.49 33.06 61.4 62.304 91.71 93.793 39.36 39.359 78.719 78.719 118.08 118.08-68.265 68.459-136.93 136.54-204.94 205.24-28.989 31.327-9.0526 88.335 33.14 94.764 29.514 7.4648 52.743-14.268 70.88-34.221 75.91-76.106 152.22-151.83 227.88-228.17 22.968-25.551 15.213-66.713-11.149-86.652-79.581-79.397-158.8-159.17-238.61-238.33-11.226-9.5912-26.175-14.616-40.915-13.753zm-531.11-194.34c-41.203 0-80.73 16.403-109.86 45.54-29.137 29.136-45.54 68.662-45.54 109.86v680.14c0 41.205 16.4 80.731 45.54 109.87 29.135 29.139 68.66 45.54 109.86 45.54h194.34a58.291 58.291 0 0 0 58.291-58.291 58.291 58.291 0 0 0-58.291-58.291h-194.34c-10.329 0-20.134-4.0804-27.438-11.385-7.2998-7.2986-11.385-17.102-11.385-27.438v-680.14c0-10.329 4.0804-20.134 11.385-27.438 7.3033-7.3039 17.108-11.385 27.438-11.385h194.34a58.291 58.291 0 0 0 58.291-58.291 58.291 58.291 0 0 0-58.291-58.291z" color="#000000" color-rendering="auto" dominant-baseline="auto" image-rendering="auto" shape-rendering="auto" solid-color="#000000" stop-color="#000000" style="font-feature-settings:normal;font-variant-alternates:normal;font-variant-caps:normal;font-variant-east-asian:normal;font-variant-ligatures:normal;font-variant-numeric:normal;font-variant-position:normal;font-variation-settings:normal;inline-size:0;isolation:auto;mix-blend-mode:normal;shape-margin:0;shape-padding:0;text-decoration-color:#000000;text-decoration-line:none;text-decoration-style:solid;text-indent:0;text-orientation:mixed;text-transform:none;white-space:normal"/>
</svg>
