<svg version="0.0" viewBox="0 0 1e3 1e3" xmlns="http://www.w3.org/2000/svg">
 <path d="m933.74 10.882a55.109 55.109 0 0 0-1.248 0.02149h-287.82a55.109 55.109 0 0 0-55.109 55.109 55.109 55.109 0 0 0 55.109 55.109h156.29l-436.35 436.35a55.109 55.109 0 0 0 0 77.929 55.109 55.109 0 0 0 77.929 0l436.35-436.35v156.29a55.109 55.109 0 0 0 55.109 55.109 55.109 55.109 0 0 0 55.109-55.109v-289.32a55.115 55.115 0 0 0-17.949-40.689 55.115 55.115 0 0 0-0.4629-0.41797 55.115 55.115 0 0 0-0.46875-0.41406 55.115 55.115 0 0 0-0.43554-0.37695 55.115 55.115 0 0 0-0.0371-0.03125 55.109 55.109 0 0 0-0.31836-0.26953 55.115 55.115 0 0 0-0.15821-0.13281 55.109 55.109 0 0 0-0.32226-0.26758 55.115 55.115 0 0 0-0.16016-0.13086 55.109 55.109 0 0 0-0.32423-0.26172 55.115 55.115 0 0 0-0.0137-0.01172 55.109 55.109 0 0 0-0.96875-0.75782 55.109 55.109 0 0 0-0.49805-0.37695 55.109 55.109 0 0 0-0.50196-0.37109 55.109 55.109 0 0 0-30.877-10.6 55.109 55.109 0 0 0-1.873-0.02149zm-771.28 144.68c-40.172 0-78.799 15.939-107.2 44.346-28.406 28.406-44.346 67.034-44.346 107.2v530.43c0 40.171 15.941 78.8 44.346 107.2 28.405 28.406 67.031 44.346 107.2 44.346h530.43c40.174 0 78.801-15.941 107.2-44.346 28.405-28.405 44.346-67.032 44.346-107.2v-289.32a55.109 55.109 0 0 0-55.109-55.109 55.109 55.109 0 0 0-55.109 55.109v289.32c0 10.979-4.2862 21.508-12.055 29.277-7.7691 7.7691-18.298 12.055-29.277 12.055h-530.43c-10.981 0-21.51-4.2877-29.277-12.055-7.7677-7.768-12.055-18.296-12.055-29.277v-530.43c0-10.984 4.289-21.511 12.055-29.277 7.7661-7.7661 18.293-12.055 29.277-12.055h289.32a55.109 55.109 0 0 0 55.109-55.109 55.109 55.109 0 0 0-55.109-55.109z" color="#000000"/>
</svg>
