<svg version="0.0" viewBox="0 0 1000 1000" xmlns="http://www.w3.org/2000/svg">
 <style/>
 <path d="m84.201 179.52c-20.238 0.0172-39.64 8.06-53.953 22.367-14.313 14.307-22.367 33.711-22.393 53.949v488.34c0.025839 20.24 8.0793 39.637 22.393 53.947 14.313 14.307 33.715 22.351 53.953 22.367h831.63c20.234-0.026 39.627-8.0742 53.934-22.381 14.307-14.307 22.355-33.7 22.381-53.934v-488.34c-0.026-20.232-8.0742-39.631-22.381-53.938-14.307-14.306-33.7-22.353-53.934-22.379zm0 32.66h831.63c4.4017 3e-3 8.7325 0.67423 12.861 1.9512l-396.29 358.74c-8.8319 8.0577-20.361 12.505-32.312 12.463-11.955-0.0423-23.457-4.568-32.23-12.688l-391.96-359.66c2.7165-0.52879 5.4949-0.80654 8.3027-0.8086zm-36.34 19.549 289.15 265.37-291.39 267.27c-3.255-6.1918-5.0102-13.132-5.0156-20.256v-488.34c0.0065-8.6137 2.5657-16.963 7.25-24.041zm906.38 3.4473c3.3665 6.2766 5.1775 13.342 5.1836 20.594v488.34c-6e-3 7.1836-1.784 14.181-5.0898 20.412l-289.7-267.23zm-593 284.15 84.467 77.52c14.847 13.711 34.312 21.326 54.52 21.336 19.983-0.0455 39.232-7.5209 54.004-20.979l86.012-77.846 288.69 266.3c-4.2025 1.3274-8.6163 2.0307-13.105 2.0332h-831.63c-4.5467-3e-3 -9.0168-0.72635-13.268-2.0879z"/>
</svg>
