<svg version="0.0" viewBox="0 0 1e3 1e3" xmlns="http://www.w3.org/2000/svg">
 <path d="m295.88 79.058c-7.0165 0-12.687 5.6705-12.687 12.687v106.3c0 7.0171 5.671 12.687 12.687 12.687s12.727-5.6703 12.727-12.687v-106.3c0-7.0169-5.7109-12.687-12.727-12.687zm-214.84 67.119c-3.2515-0.018-6.5107 1.2151-9.0052 3.6822-4.9892 4.9343-5.0544 12.981-0.12008 17.97l107.06 108.26c4.9341 4.989 12.981 5.0144 17.97 0.0801 4.9892-4.9341 5.0144-12.981 0.0801-17.97l-107.02-108.22c-2.4672-2.4947-5.7138-3.7843-8.9652-3.8023zm192.63 187.95c-1.6804 4e-3 -3.3316 0.34898-4.8828 1.0006-1.5512 0.65165-2.9758 1.6008-4.1623 2.8017s-2.1224 2.6349-2.7617 4.2025c-0.6414 1.5676-0.96456 3.2662-0.96046 4.963v475.6c0.0553 26.049 10.354 51.027 28.617 69.441 18.26 18.412 42.986 28.783 68.8 28.816h531.71c-24.285-0.0143-47.681-9.2288-65.558-25.816h-466.15c-19.039-0.0102-37.283-7.6704-50.75-21.252-13.469-13.58-21.07-31.974-21.092-51.189v-462.75h506.17v462.79c0.29099 25.875 10.663 50.607 28.898 68.8s42.841 28.377 68.48 28.377c25.642 0 50.246-10.184 68.48-28.377s28.648-42.925 28.937-68.8v-333.92c-0.0287-14.748-5.8693-28.883-16.21-39.304-10.34-10.42-24.367-16.279-38.982-16.29h-114.03v-86.13c0-1.6988-0.31722-3.3933-0.96046-4.963-0.6414-1.5676-1.5732-3.0017-2.7617-4.2025-1.1885-1.2029-2.609-2.15-4.1623-2.8017-1.5533-0.64959-3.2004-0.99857-4.8828-1.0006h-531.79zm-248.42 29.416c-7.0169 0-12.687 5.7089-12.687 12.727 0 7.0165 5.6705 12.687 12.687 12.687h103.18c7.0169 0 12.687-5.671 12.687-12.687 0-7.0185-5.6706-12.727-12.687-12.727zm403.36 31.058c-5.2392 0.26209-10.465 0.9162-15.649 1.9611-20.738 4.1798-39.789 14.46-54.712 29.537-14.923 15.077-25.072 34.279-29.177 55.152-4.1037 20.873-1.9531 42.492 6.1236 62.156 8.0792 19.665 21.734 36.504 39.304 48.349 17.571 11.842 38.244 18.171 59.394 18.171a11.798 11.798 0 0 0 0.041 0c28.338-0.041 55.511-11.431 75.523-31.619 20.014-20.189 31.246-47.531 31.297-76.044a11.798 11.798 0 0 0 0-0.041v-0.15984c-0.0246-21.277-6.3066-42.099-18.051-59.796-11.744-17.696-28.408-31.478-47.947-39.623-14.653-6.1103-30.429-8.831-46.148-8.0448zm1.1607 23.574c12.223-0.61497 24.496 1.4881 35.902 6.2437 15.206 6.3388 28.207 17.073 37.382 30.898 9.1743 13.824 14.109 30.129 14.128 46.787v0.1209c-0.041 22.336-8.8692 43.714-24.494 59.474-15.623 15.759-36.748 24.582-58.794 24.615-16.445 0-32.496-4.9007-46.187-14.128-13.69-9.2296-24.379-22.363-30.697-37.742-6.3169-15.38-7.9747-32.332-4.7628-48.668 3.2138-16.336 11.131-31.302 22.773-43.066 11.643-11.763 26.457-19.763 42.584-23.013 4.0316-0.8125 8.0927-1.316 12.167-1.5209zm501.89 40.824c7.7255-0.16394 15.221 2.7066 20.853 8.0448 5.6312 5.3402 8.9657 12.701 9.2853 20.492v335.15c0 19.219-7.587 37.64-21.051 51.23-13.467 13.59-31.705 21.252-50.75 21.252-19.045 0-37.322-7.6622-50.789-21.252-13.467-13.59-21.012-32.011-21.012-51.23v-363.65h67.679c-5.6517 8.8812-8.6296 19.222-8.605 29.777v333.92c0 3.416 1.3287 6.7093 3.7222 9.1253 2.3955 2.416 5.6601 3.7621 9.0454 3.7621s6.6117-1.3461 9.0052-3.7621c2.3935-2.416 3.7222-5.7093 3.7222-9.1253v-333.92c-0.0102-7.7992 3.0433-15.318 8.445-20.892 5.4017-5.5759 12.727-8.7593 20.452-8.9253zm-344.29 11.567a11.796 11.796 0 0 0-11.807 11.767 11.796 11.796 0 0 0 11.807 11.807h175.82a11.796 11.796 0 0 0 11.807-11.807 11.796 11.796 0 0 0-11.807-11.767zm0 90.013a11.796 11.796 0 0 0-11.807 11.807 11.796 11.796 0 0 0 11.807 11.807h175.82a11.796 11.796 0 0 0 11.807-11.807 11.796 11.796 0 0 0-11.807-11.807zm-248.55 90.052a11.796 11.796 0 0 0-11.807 11.807 11.796 11.796 0 0 0 11.807 11.807h175.82a11.796 11.796 0 0 0 11.807-11.807 11.796 11.796 0 0 0-11.807-11.807zm248.55 0a11.796 11.796 0 0 0-11.807 11.807 11.796 11.796 0 0 0 11.807 11.807h175.82a11.796 11.796 0 0 0 11.807-11.807 11.796 11.796 0 0 0-11.807-11.807zm-248.55 90.093a11.796 11.796 0 0 0-11.807 11.767 11.796 11.796 0 0 0 11.807 11.807h175.82a11.796 11.796 0 0 0 11.807-11.807 11.796 11.796 0 0 0-11.807-11.767zm248.55 0a11.796 11.796 0 0 0-11.807 11.767 11.796 11.796 0 0 0 11.807 11.807h175.82a11.796 11.796 0 0 0 11.807-11.807 11.796 11.796 0 0 0-11.807-11.767zm-248.55 90.052a11.796 11.796 0 0 0-11.807 11.807 11.796 11.796 0 0 0 11.807 11.767h175.82a11.796 11.796 0 0 0 11.807-11.767 11.796 11.796 0 0 0-11.807-11.807zm248.55 0a11.796 11.796 0 0 0-11.807 11.807 11.796 11.796 0 0 0 11.807 11.767h175.82a11.796 11.796 0 0 0 11.807-11.767 11.796 11.796 0 0 0-11.807-11.807z" stroke-width="20.492"/>
</svg>
