<svg version="0.0" viewBox="0 0 1e3 1e3" xmlns="http://www.w3.org/2000/svg">
 <path d="m543.77 111.42c-24.495 0-47.977 9.7128-65.312 27.016a15.865 15.865 0 0 0-0.0825 0.0827l-1.2807 1.2806c-4.3173 4.3423-6.8231 9.8762-10.162 14.913h-390.91c-8.2326-3e-3 -16.354 1.6018-23.96 4.7507-7.6067 3.1494-14.544 7.7698-20.366 13.591-5.8212 5.8216-10.442 12.719-13.591 20.325-3.1492 7.6067-4.7535 15.769-4.7507 24.002v91.338a15.863 15.863 0 0 0 0 0.28914v376.17a15.865 15.865 0 0 0 0 0.0423c0.0059 16.615 6.6342 32.539 18.383 44.286 11.749 11.744 27.67 18.342 44.286 18.342h81.835a15.863 15.863 0 0 0 15.863-15.863 15.863 15.863 0 0 0-15.863-15.863h-81.835c-8.214 0-16.043-3.2397-21.853-9.0469-5.8106-5.8091-9.0854-13.682-9.0884-21.896v-360.31h345.31l-39.7 39.7c-15.311-9.012-32.274-14.827-50.234-14.004-23.033 1.055-44.876 10.711-61.139 27.058l-0.86761 0.82616a15.865 15.865 0 0 0-0.33059 0.33059c-17.288 17.341-27.016 40.826-27.016 65.312s9.729 48.013 27.016 65.352l106.95 106.95a15.865 15.865 0 0 0 0.0423 0c17.332 17.317 40.813 27.058 65.312 27.058s48.021-9.7426 65.352-27.058l1.2392-1.2392c16.286-16.293 25.885-38.082 26.934-61.099 0.81981-17.938-4.9902-34.92-13.963-50.234l12.806-12.848 110.42 110.42c0.25338 9.4109 0.57974 18.889 3.8419 27.761 2.6265 7.1474 7.7793 12.856 12.145 19.044 2.6016 3.9237 4.1509 8.4469 7.3946 11.939a15.863 15.863 0 0 0 0.45433 0.41308 15.863 15.863 0 0 0 0.86761 0.82616l24.952 24.952c-0.32868 7.7324-3.0918 15.195-8.5926 20.697-5.8062 5.8062-13.683 9.0856-21.896 9.0884h-83.737a15.863 15.863 0 0 0-15.863 15.863 15.863 15.863 0 0 0 15.863 15.863h83.777c16.611-6e-3 32.541-6.597 44.286-18.342a15.865 15.865 0 0 0 0-0.0423c5.4876-5.4889 5.4963-13.734 8.5926-20.697l136.74 136.65 17.722 17.722a15.865 15.865 0 0 0 0.37184 0.37183c16.506 15.402 38.359 23.776 60.934 23.382 22.572-0.39045 44.146-9.5251 60.107-25.489 15.963-15.965 25.1-37.494 25.489-60.065 0.38791-22.572-8.0196-44.43-23.423-60.934a15.865 15.865 0 0 0-0.37184-0.41307l-202.67-202.5c-8e-3 -8e-3 -0.0339 8e-3 -0.0423 0a15.863 15.863 0 0 0-0.45432-0.45454c-0.77561-0.7204-1.8452-0.963-2.6439-1.6525-7.4585-6.858-15.698-12.882-25.074-16.772-10.194-4.2234-21.155-6.2298-32.181-6.3618l-109.14-109.14 12.848-12.806c15.323 8.978 32.283 14.827 50.234 14.004 23.01-1.0544 44.804-10.694 61.099-26.976a15.865 15.865 0 0 0 0.61973-0.61972l1.1567-1.3219-0.61972 0.66097c8.604-8.5683 15.418-18.74 20.077-29.95 4.6572-11.213 7.064-23.222 7.064-35.362 0-12.14-2.4068-24.19-7.064-35.403-4.6509-11.191-11.45-21.348-20.036-29.91l-0.0423-0.0423-106.87-106.95c-17.336-17.306-40.859-27.016-65.352-27.016zm0 31.726c16.103 0 31.526 6.3466 42.922 17.722l106.87 106.99a15.865 15.865 0 0 0 0.0423 0c5.6422 5.6188 10.121 12.306 13.178 19.664 3.0544 7.3538 4.6268 15.25 4.6268 23.217 0 7.9661-1.5724 15.822-4.6268 23.175-3.0572 7.3563-7.5346 14.044-13.178 19.664a15.865 15.865 0 0 0-0.61972 0.66097l-0.61973 0.70221c-10.699 10.657-24.981 16.948-40.071 17.64-15.03 0.68867-29.702-4.2791-41.31-13.839l-115.17-115.17c-9.5391-11.61-14.518-26.295-13.839-41.31 0.68296-15.106 6.9773-29.389 17.639-40.113a15.865 15.865 0 0 0 0.0423-0.0412l1.198-1.2393 0.0825-0.0412c11.39-11.334 26.769-17.681 42.839-17.681zm-467.75 43.294h377.65c-1.0193 4.855-3.1608 9.4037-3.3875 14.417-0.80945 17.907 4.9859 34.853 13.922 50.151l-42.137 42.137h-377v-75.763c-0.0014-4.065 0.79987-8.1004 2.3547-11.856 1.5553-3.7564 3.818-7.164 6.6924-10.038 2.8744-2.8744 6.2829-5.1374 10.038-6.6924 3.7562-1.5551 7.791-2.356 11.856-2.3547zm39.823 12.806c-21.483 0-39.246 17.72-39.246 39.203 0 21.483 17.762 39.246 39.246 39.246 21.483 0 39.246-17.762 39.246-39.246 0-21.483-17.762-39.203-39.246-39.203zm89.727 0c-21.483 0-39.246 17.72-39.246 39.203 0 21.483 17.762 39.246 39.246 39.246 21.483 0 39.246-17.762 39.246-39.246 0-21.483-17.762-39.203-39.246-39.203zm89.644 0c-21.483 0-39.246 17.72-39.246 39.203 0 21.483 17.762 39.246 39.246 39.246s39.246-17.762 39.246-39.246c0-21.483-17.762-39.203-39.246-39.203zm-179.37 31.726c4.3374 0 7.5185 3.1392 7.5185 7.4773 0 4.3376-3.1809 7.5185-7.5185 7.5185-4.3372 0-7.5185-3.1807-7.5185-7.5185 0-4.3381 3.1815-7.4773 7.5185-7.4773zm89.727 0c4.3376 0 7.5185 3.139 7.5185 7.4773 0 4.3379-3.1807 7.5185-7.5185 7.5185-4.3372 0-7.5185-3.1807-7.5185-7.5185 0-4.3381 3.1815-7.4773 7.5185-7.4773zm89.644 0c4.3376 0 7.5185 3.139 7.5185 7.4773 0 4.3379-3.1807 7.5185-7.5185 7.5185-4.3378 0-7.5185-3.1807-7.5185-7.5185 0-4.3383 3.1807-7.4773 7.5185-7.4773zm188.54 45.401 36.889 36.889-107.65 107.61-36.889-36.849zm59.28 59.28 32.718 32.718-107.65 107.61-32.676-32.676 107.61-107.65zm-241.12 46.598c15.112-0.69206 29.912 4.3027 41.517 14.004a15.865 15.865 0 0 0 0.16497 0.12479l114.72 114.68 0.0423 0.0825c9.6404 11.623 14.611 26.388 13.922 41.475-0.68931 15.12-6.9822 29.408-17.681 40.113l-1.2392 1.2392c-11.392 11.382-26.819 17.763-42.922 17.763-16.103 0-31.532-6.383-42.922-17.763l-106.91-106.95c-11.367-11.403-17.763-26.819-17.763-42.922 0-16.099 6.3961-31.519 17.763-42.922l0.86762-0.82615a15.865 15.865 0 0 0 0.37183-0.37184c10.667-10.722 24.96-17.03 40.071-17.722zm263.9 40.898 98.773 98.733c-9.4283 4.2837-18.282 9.9357-25.737 17.392-7.4189 7.4189-12.988 16.237-17.268 25.612l-98.773-98.773 43.004-42.962zm133.6 122.32c14.336-0.26312 28.201 5.0295 38.708 14.789l173.59 173.46-78.242 78.242-173.63-173.55c-9.702-10.496-15.012-24.292-14.748-38.584 0.26312-14.333 6.0532-27.989 16.194-38.129 10.137-10.138 23.791-15.97 38.129-16.235zm-452.02 158.34c-4.1699-0.0102-8.2929 0.77772-12.145 2.3547a15.865 15.865 0 0 0-0.0423 0c-3.8759 1.5908-7.3948 3.9415-10.369 6.8988-2.9643 2.9558-5.33 6.4811-6.9401 10.369-1.6172 3.8905-2.4415 8.0403-2.4372 12.228v-0.20728c-0.0761 6.7552-1.6438 13.432-4.6268 19.499-2.9823 6.0648-7.2912 11.386-12.6 15.574a15.865 15.865 0 0 0-2.3547 2.272c-0.74473 0.67894-1.611 1.2363-2.272 1.9829-0.47829 0.53639-0.76806 0.88158-0.95015 1.1153-1.0752 1.2629-1.9526 2.6714-2.7678 4.0898-0.62982 0.996-1.1739 2.0038-1.6111 3.057-0.60783 1.2995-1.1874 2.6396-1.6111 4.0485l2.7678-5.329c-2.6559 3.334-2.8634 4.7973-3.3875 7.064-0.56894 2.3097-0.90112 4.6699-0.95015 7.0228a15.865 15.865 0 0 0 0 0.33059v60.562c-4e-3 4.1877 0.81861 8.3337 2.4372 12.228h-0.0412c1.61 3.8878 3.9686 7.4098 6.9401 10.369 2.9772 2.9647 6.5238 5.3081 10.41 6.8988 3.8562 1.5827 7.9754 2.3649 12.145 2.3547h272.45c4.1699 0.0144 8.2793-0.76968 12.145-2.3547 3.8865-1.591 7.4329-3.9343 10.41-6.8988 2.9876-2.9749 5.3391-6.5031 6.9401-10.369 1.5992-3.8618 2.4044-8.0086 2.396-12.228v-60.562c4e-3 -2.4116-0.25148-4.7812-0.78491-7.1055-0.0656-0.28258-0.25297-0.54443-0.33059-0.82616l-1.2392-3.4288c-0.0109-0.0296-0.0296-0.055-0.0423-0.0825a15.863 15.863 0 0 0-0.74367-2.0242c-0.13536-0.28047-0.18401-0.59181-0.33059-0.86762 0.0994 0.16921 0.0317-0.16709-0.74367-1.5286a15.865 15.865 0 0 0-0.28913-0.41308c-0.72654-1.1866-1.4954-2.3234-2.3547-3.4288a15.865 15.865 0 0 0-1.074-1.2392 15.865 15.865 0 0 0-0.33059-0.41308c-1.2515-1.4182-2.6701-2.5686-4.131-3.6767-0.68128-0.57911-1.3442-1.1821-2.1068-1.6523l0.9501 0.66096 0.53702 0.37184c-5.3023-4.1701-9.5941-9.4807-12.558-15.533-2.9542-6.0268-4.5282-12.659-4.5855-19.375-8e-3 -4.1985-0.83842-8.3398-2.4374-12.187-1.603-3.8423-3.9728-7.3707-6.9401-10.328-2.9698-2.9614-6.4845-5.3028-10.369-6.8988-3.8607-1.5922-7.9718-2.3989-12.145-2.396h-211.89zm-0.16498 31.726h0.0846a15.865 15.865 0 0 0 0.0825 0h211.89c0.0212-4e-5 0.0677-6e-3 0.0825 0l0.0825 0.0825c0.017 0.0402-2e-5 0.0719 0 0.0825a15.865 15.865 0 0 0 0 0.0423c0.0783 11.506 2.7407 22.877 7.8077 33.213 0.85154 1.7386 2.6168 2.7985 3.594 4.4616h-235.14c0.97802-1.6608 2.7405-2.7259 3.594-4.4616 5.0714-10.313 7.7624-21.637 7.8904-33.131a15.865 15.865 0 0 0 0-0.20728 15.865 15.865 0 0 0 0-0.0423l0.0423-0.0423zm686.92 20.614 5.9075 5.9075c9.7999 10.499 15.16 24.351 14.913 38.708-0.24662 14.359-6.0805 28.057-16.235 38.211-10.152 10.154-23.814 15.987-38.171 16.235-14.356 0.25-28.249-5.1154-38.749-14.913l-5.9075-5.9075zm-717.31 48.994h272.76v51.598a15.865 15.865 0 0 0 0 0.0423v0.0846h-0.0846a15.865 15.865 0 0 0-0.0825 0h-272.45a15.865 15.865 0 0 0-0.0825 0h-0.0846v-0.0423a15.865 15.865 0 0 0 0-0.0423 15.865 15.865 0 0 0 0-0.0423v-51.598z" color="#000000" color-rendering="auto" dominant-baseline="auto" image-rendering="auto" shape-rendering="auto" solid-color="#000000" stop-color="#000000" stroke-width="21.151" style="font-feature-settings:normal;font-variant-alternates:normal;font-variant-caps:normal;font-variant-east-asian:normal;font-variant-ligatures:normal;font-variant-numeric:normal;font-variant-position:normal;font-variation-settings:normal;inline-size:0;isolation:auto;mix-blend-mode:normal;shape-margin:0;shape-padding:0;text-decoration-color:#000000;text-decoration-line:none;text-decoration-style:solid;text-indent:0;text-orientation:mixed;text-transform:none;white-space:normal"/>
</svg>
