<svg version="0.0" viewBox="0 0 1000 1000" xmlns="http://www.w3.org/2000/svg">
 <style/>
 <path d="m757.26 6.1621c-22.132-0.056501-44.061 4.251-64.527 12.68-20.466 8.4287-39.068 20.812-54.742 36.439l-1.0273 1.0215-43.771 44.016-465.3 465.79c-5.6014 5.6074-9.6695 12.559-11.809 20.191l-1.418 5.1289-103.13 309.84c-0.08543 0.25628-0.16994 0.49519-0.23828 0.73438-3.8534 12.245-4.2991 25.31-1.2891 37.791 3.01 12.479 9.3629 23.903 18.375 33.045 0.39296 0.41004 0.80334 0.81993 1.2305 1.2129 13.272 12.595 30.84 19.669 49.137 19.785h1.4688c6.6957-0.16743 13.341-1.2073 19.768-3.0918l1.3301-0.41016 299.93-97.969c6.0926-0.87989 11.947-2.9616 17.223-6.1309l2.457-1.4688c1.5753-0.95165 3.0946-1.9959 4.5469-3.127l2.2187-1.7109c1.5189-1.1789 2.9662-2.4503 4.3262-3.8086l509.96-509.98c31.833-31.647 49.804-74.635 49.965-119.52 0.16061-44.886-17.504-88.002-49.111-119.88l-0.20508-0.1875-63.969-69.092-1.0938-1.1426c-15.703-15.927-34.429-28.564-55.076-37.166s-42.804-12.996-65.17-12.93zm0 46.129c16.267-0.02358 32.376 3.1871 47.391 9.4434 15.014 6.2561 28.635 15.433 40.072 27l64.545 69.705 0.7168 0.7168c11.401 11.487 20.429 25.109 26.562 40.086 6.1353 14.975 9.2561 31.016 9.1894 47.201-0.0666 16.183-3.3179 32.195-9.5762 47.121-6.2583 14.926-15.398 28.471-26.893 39.865l-498.77 498.77c-0.40367-0.51072-0.82359-1.0092-1.2715-1.4863l-232.56-247.84c-0.044-0.046-0.0905-0.0892-0.13477-0.13476l449.41-449.91 43.861-44.094 0.71484-0.7168c23.046-22.921 54.239-35.769 86.74-35.727zm-604.91 572.18 215.87 230.02-281.27 91.873c-2.5619 0.74492-5.2117 1.1568-7.8789 1.2285-6.6077-0.0478-12.948-2.6033-17.748-7.1445-3.1242-3.1864-5.3241-7.1621-6.3652-11.5-1.0412-4.3396-0.88907-8.8788 0.44922-13.135z"/>
</svg>
