<svg version="0.0" viewBox="0 0 1000 1000" xmlns="http://www.w3.org/2000/svg">
 <style/>
 <path d="m492.23 7.627c-6.7284 0.080852-13.466 0.77964-20.127 2.1055-21.316 4.2427-40.895 14.713-56.262 30.084-15.365 15.371-25.829 34.952-30.064 56.27-4.2357 21.318-2.0561 43.412 6.2656 63.49 4.2354 10.219 9.9724 19.676 16.961 28.098h-215.65c-14.319 0.0168-28.045 5.712-38.17 15.838-10.125 10.124-15.822 23.85-15.84 38.17v14.914c0.0178 14.318 5.7149 28.05 15.84 38.174 10.125 10.126 23.851 15.821 38.17 15.838h158.92c3.7733 0 7.3942 1.4953 10.064 4.1621s4.1727 6.2876 4.1777 10.062v613.53c0.0168 14.32 5.7137 28.044 15.838 38.168 10.126 10.126 23.852 15.821 38.17 15.838h7.4824c14.32-0.0168 28.048-5.712 38.172-15.838 10.126-10.124 15.821-23.848 15.838-38.168v-278.91c5e-3 -3.7749 1.5095-7.3901 4.1797-10.059 2.6702-2.6668 6.2895-4.168 10.064-4.168h7.4648c3.7733 5e-3 7.3903 1.505 10.061 4.1719 2.6702 2.6652 4.1732 6.2814 4.1816 10.055v278.93c0.0134 14.32 5.7081 28.05 15.834 38.176s23.855 15.819 38.176 15.832h7.4844c14.296-0.0135 28.004-5.6859 38.127-15.783 10.121-10.097 15.83-23.792 15.879-38.088v-613.66c5e-3 -3.7733 1.5078-7.3898 4.1797-10.057 2.6702-2.6668 6.2892-4.168 10.062-4.168h158.94c14.32-0.0185 28.048-5.7137 38.172-15.838 10.126-10.124 15.821-23.852 15.838-38.17v-14.918c5e-3 -7.0959-1.3893-14.118-4.1016-20.674s-6.6912-12.512-11.707-17.529-10.971-8.997-17.525-11.711c-6.5544-2.7156-13.58-4.111-20.676-4.1094h-228.82c16.363-19.625 25.489-44.415 25.615-70.172 0-21.735-6.4467-42.982-18.521-61.053-12.076-18.071-29.238-32.153-49.32-40.469-13.805-5.7173-28.565-8.5314-43.367-8.3535zm1.3242 39.775c18.597 0.01328 36.427 7.4085 49.576 20.559 13.149 13.15 20.543 30.977 20.557 49.574 7e-3 13.866-4.0974 27.426-11.797 38.959-7.6978 11.533-18.644 20.522-31.453 25.834-12.808 5.3101-26.904 6.7041-40.504 4.002-13.602-2.7005-26.096-9.3766-35.904-19.18-9.8064-9.8024-16.486-22.291-19.193-35.891-2.7072-13.599-1.3227-27.696 3.9824-40.508 5.3051-12.811 14.292-23.761 25.82-31.465 11.528-7.7044 25.082-11.82 38.947-11.82zm-300.2 180.04h613.29c1.8698 0 3.7204 0.36936 5.4473 1.084 1.7269 0.71631 3.2955 1.7643 4.6172 3.0859 1.3216 1.3233 2.3691 2.8962 3.082 4.623 0.71463 1.7286 1.0818 3.5794 1.0801 5.4492v14.914c-5e-3 3.7733-1.5075 7.394-4.1777 10.062-2.6702 2.6668-6.2912 4.166-10.064 4.166h-158.94c-14.318 0.0168-28.046 5.7117-38.17 15.836-10.126 10.126-15.821 23.852-15.838 38.172v613.54c-5e-3 3.7749-1.5075 7.3898-4.1777 10.057-2.6702 2.6685-6.2915 4.1699-10.066 4.1699h-7.4824c-3.7716-5e-3 -7.3878-1.505-10.055-4.1719s-4.1666-6.2831-4.1699-10.055v-278.91c-0.0185-14.318-5.712-28.044-15.838-38.17-10.124-10.124-23.852-15.819-38.172-15.838h-7.4648v0.0723c-14.308 0.0135-28.026 5.6934-38.152 15.801-10.126 10.107-15.834 23.813-15.873 38.121v279.04c-5e-3 3.7733-1.5078 7.3898-4.1797 10.057-2.6702 2.6685-6.2892 4.168-10.062 4.168h-7.4824c-3.7716-3e-3 -7.3898-1.5031-10.057-4.1699-2.6668-2.6668-4.1666-6.2831-4.1699-10.055v-613.66c-0.0185-14.32-5.7156-28.046-15.84-38.172-10.124-10.124-23.852-15.819-38.17-15.836h-158.92c-3.7744 0-7.3939-1.4992-10.064-4.166-2.6704-2.6685-4.1732-6.2892-4.1777-10.062v-14.914c5e-3 -3.7766 1.5059-7.3962 4.1758-10.066 2.67-2.6702 6.2905-4.1724 10.066-4.1758z"/>
</svg>
