<?xml version="1.0" encoding="UTF-8" standalone="no"?>
<svg
   xmlns:dc="http://purl.org/dc/elements/1.1/"
   xmlns:cc="http://creativecommons.org/ns#"
   xmlns:rdf="http://www.w3.org/1999/02/22-rdf-syntax-ns#"
   xmlns:svg="http://www.w3.org/2000/svg"
   xmlns="http://www.w3.org/2000/svg"
   xmlns:sodipodi="http://sodipodi.sourceforge.net/DTD/sodipodi-0.dtd"
   xmlns:inkscape="http://www.inkscape.org/namespaces/inkscape"
   id="svg102"
   sodipodi:docname="phone.svg"
   inkscape:version="1.0beta2 (2b71d25, 2019-12-03)"
   version="0.0"
   viewBox="0 0 1000 1000"
   height="1000"
   width="1000">
  <style
     id="style397"></style>
  <defs
     id="defs2">
    <inkscape:perspective
       id="perspective3736"
       inkscape:persp3d-origin="63.889598 : 73.739435 : 1"
       inkscape:vp_z="113.8896 : 90.406102 : 1"
       inkscape:vp_y="0 : 1000 : 0"
       inkscape:vp_x="13.889598 : 90.406102 : 1"
       sodipodi:type="inkscape:persp3d" />
  </defs>
  <sodipodi:namedview
     gridtolerance="10"
     objecttolerance="21.1"
     inkscape:document-rotation="0"
     inkscape:current-layer="svg102"
     inkscape:lockguides="false"
     inkscape:guide-bbox="true"
     showguides="false"
     inkscape:window-maximized="0"
     inkscape:window-y="23"
     inkscape:window-x="641"
     inkscape:window-height="1035"
     inkscape:window-width="1279"
     units="px"
     showgrid="false"
     inkscape:document-units="mm"
     inkscape:cy="510.41536"
     inkscape:cx="504.64841"
     inkscape:zoom="0.49254254"
     inkscape:pageshadow="2"
     inkscape:pageopacity="0.0"
     borderopacity="1.0"
     bordercolor="#666666"
     pagecolor="#ffffff"
     id="base">
    <sodipodi:guide
       inkscape:color="rgb(0,0,255)"
       inkscape:label=""
       inkscape:locked="false"
       id="guide4717"
       orientation="0,1"
       position="0,200" />
    <sodipodi:guide
       inkscape:color="rgb(255,0,21)"
       inkscape:label=""
       inkscape:locked="false"
       id="guide4719"
       orientation="1,0"
       position="498.59362,162.15711" />
  </sodipodi:namedview>
  <metadata
     unicode="1F270"
     id="metadata5">
    <rdf:RDF>
      <cc:Work
         rdf:about="">
        <dc:format>image/svg+xml</dc:format>
        <dc:type
           rdf:resource="http://purl.org/dc/dcmitype/StillImage" />
        <dc:title></dc:title>
      </cc:Work>
    </rdf:RDF>
  </metadata>
  <g
     transform="matrix(16.624191,0,0,16.624191,104.0629,-3.3789173)"
     id="g723"
     style="fill:none;stroke-width:0.0601533" />
  <g
     transform="matrix(16.841052,0,0,16.841052,-0.15141927,3.338217)"
     id="g874"
     style="fill:none;stroke-width:0.0593785" />
  <g
     transform="matrix(15.593661,0,0,15.593661,239.78457,11.302461)"
     id="g1044"
     style="fill:none;stroke-width:0.0641286" />
  <g
     transform="matrix(41.934114,0,0,41.934114,4.1120616,15.387908)"
     id="g1100"
     style="fill:none;stroke-width:0.0238469" />
  <g
     transform="matrix(17.08522,0,0,17.08522,1.2050754,-10.035662)"
     id="g1427"
     style="fill:none;stroke-width:0.0585301" />
  <g
     transform="matrix(16.538291,0,0,16.538291,256.76854,-0.20709335)"
     id="g1518"
     style="fill:none;stroke-width:0.0604658">
    <path
       style="stroke-width:0.0604658"
       inkscape:connector-curvature="0"
       d="M 0.567993,29.8068 C 0.698993,19.9068 3.915,11.3067 11.543,4.72672 14.4681,2.14064 18.2628,0.756104 22.166,0.850742 23.2353,0.843823 24.2863,1.12893 25.2057,1.6752 c 0.9193,0.54628 1.6721,1.33311 2.1773,2.27564 2.146,3.476 2.084,10.76196 -1.207,12.99096 -1.0649,0.8292 -2.3332,1.357 -3.672,1.5281 -4.094,0.1 -6.539,2.3259 -8.011,5.7829 -0.8189,1.8706 -1.2366,3.892 -1.2263,5.9339 0.0103,2.0419 0.4485,4.059 1.2863,5.9211 0.5426,1.4614 1.479,2.7442 2.7054,3.7066 1.2264,0.9623 2.695,1.5667 4.2436,1.7463 4.813,0.658 6.462,2.4291 7.14,7.2791 0.165,0.9481 0.2233,1.9118 0.174,2.873 -0.577,6.639 -4.1,9.1101 -10.529,7.4141 C 10.812,57.1559 6.65499,51.6528 3.59399,45.0868 1.34199,40.2628 0.684993,35.0798 0.567993,29.8068 Z M 26.185,9.97086 c -0.028,-0.619 -0.008,-1.24518 -0.091,-1.85718 -0.484,-3.579 -2.238,-5.03096 -5.77,-4.40796 -1.8242,0.3153 -3.5822,0.93618 -5.2,1.83618 -4.831,2.75 -7.853,7.2089 -9.71,12.2129 -1.74708,4.5139 -2.51948,9.3463 -2.26648,14.1799 0.25301,4.8337 1.52568,9.5591 3.73447,13.866 2.372,4.8 5.80001,8.7292 11.08701,10.5442 5.639,1.934 8.262,0.0059 8.19,-5.9541 0.0064,-0.4825 -0.0143,-0.965 -0.062,-1.4451 -0.393,-3.145 -1.755,-4.4548 -4.928,-4.7668 -2.4226,-0.2003 -4.6904,-1.2723 -6.383,-3.0171 -4.4,-4.458 -5.44901,-13.7071 -2.107,-19.3001 2.143,-3.584 5.045,-5.8479 9.531,-5.7839 0.6098,-0.0973 1.1919,-0.3231 1.7078,-0.6626 0.5158,-0.3395 0.9536,-0.7848 1.2842,-1.3064 0.6925,-1.2663 1.0314,-2.6956 0.981,-4.13794 z"
       fill="black"
       id="path1507" />
  </g>
</svg>
