<svg version="0.0" viewBox="0 0 1e3 1e3" xmlns="http://www.w3.org/2000/svg">
 <path d="m425.29 34.908-107.32 107.32c-33.977 33.977-37.279 75.049-28.396 107.96 8.1921 30.353 26.592 55.18 40.932 69.52l55.002 55.002-189.18 2.3e-4c-102.3 0-185.22 82.913-185.22 185.22l-0.02316 61.494c0 102.3 82.945 185.25 185.25 185.25l19.603-0.0231 0.0231 158.45 158.42-158.42 122.96-0.0231c86.823 0 159.71-59.705 179.78-140.32l26.989 26.989c32.808 32.808 68.968 46.463 103.58 44.673 32.627-1.6856 58.635-16.872 73.901-32.138l107.32-107.32-190.01-190.01-49.726 49.726-183.59-183.59 49.726-49.726zm0 65.491 124.52 124.52-49.726 49.726 249.08 249.08 49.726-49.726 124.52 124.52-72.462 72.462c-28.635 28.635-76.737 26.616-107.86-4.5089l-385.75-385.75c-31.125-31.125-33.144-79.227-4.5089-107.86zm6.5236 320.61 204.4 204.4c-2.1163 74.877-63.489 134.92-138.88 134.92l-142.14 0.0231-92.928 92.928-0.0232-92.96h-65.875c-76.727 0-138.94-62.217-138.94-138.94v-61.462c0-76.727 62.185-138.91 138.91-138.91zm35.592 147.71c-4.1903-4.19-9.9787-6.7794-16.373-6.7792-12.788-2.3e-4 -23.152 10.364-23.152 23.152 0 12.788 10.364 23.152 23.152 23.152 12.788 0 23.152-10.364 23.152-23.152 2.3e-4 -6.3941-2.5891-12.183-6.7792-16.373zm-92.608 2.3e-4c-4.19-4.19-9.9787-6.7794-16.373-6.7794-12.788 0-23.152 10.364-23.152 23.152 2.3e-4 12.788 10.364 23.152 23.152 23.152 12.788-2.3e-4 23.152-10.364 23.152-23.152 0-6.3944-2.5894-12.183-6.7794-16.373zm-92.608-2.3e-4c-4.19-4.19-9.9787-6.7794-16.373-6.7792-12.788-2.3e-4 -23.152 10.364-23.152 23.152 0 12.788 10.364 23.152 23.152 23.152s23.152-10.364 23.152-23.152c0-6.3941-2.5894-12.183-6.7794-16.373z" stroke-width="23.154"/>
</svg>
