<svg version="0.0" viewBox="0 0 1000 1000" xmlns="http://www.w3.org/2000/svg">
 <style/>
 <path d="m849.43 258.32c-6.7022-27.294-23.84-50.869-47.734-65.665l-0.41931-0.24991-287.65-169.67-0.3019-0.18433c-24.015-13.628-52.461-17.161-79.08-9.8234-26.621 7.3376-49.239 24.946-62.88 48.953-0.35222 0.62058-0.70612 1.2589-1.0416 1.8795l-16.554 28.967c-6.5177 11.206-8.4097 24.508-5.2783 37.087 3.1314 12.579 11.04 23.443 22.051 30.285l0.40254 0.25394 37.654 22.223h0.10063l16.538 9.7615-63.114 111.69c-43.179 5.6657-84.434 21.36-120.46 45.824s-65.835 57.021-87.029 95.066c-6.4812 11.207-8.3439 24.496-5.1943 37.054s11.066 23.397 22.069 30.22l0.40136 0.24991 174.52 102.96-196.04 344.24c-1.436 2.3783-2.3813 5.0183-2.7804 7.7673-0.39914 2.749-0.24392 5.55 0.45656 8.2386 0.70049 2.6886 1.9318 5.2112 3.6219 7.4151 1.69 2.2056 3.804 4.0472 6.218 5.4225 2.4139 1.3753 5.079 2.2542 7.8374 2.5829 2.7586 0.33041 5.555 0.10231 8.2245-0.66754 2.6695-0.76818 5.1583-2.0613 7.3195-3.8073 2.1611-1.746 3.9509-3.9063 5.2638-6.355l195.74-343.7 173.24 102.21 0.28513 0.15095c11.196 6.3483 24.451 8.0038 36.862 4.599 12.41-3.4048 22.966-11.591 29.355-22.763v-0.11405l0.41931-0.78998c21.645-38.337 34.281-81.093 36.955-125.04 2.6735-43.942-4.6879-87.921-21.524-128.6l62.863-111.26 53.67 31.649 0.26836 0.16772c11.192 6.3702 24.459 8.0323 36.876 4.6225 12.418-3.4098 22.975-11.612 29.345-22.804v-0.10231l0.40086-0.72121 16.536-28.949c14.213-24.213 18.374-53.028 11.591-80.271zm-252.81 196.23c-1.6152 2.8614-2.5293 6.0615-2.6702 9.3439-0.13921 3.2824 0.49981 6.553 1.8651 9.5418 16.309 35.754 23.938 74.853 22.264 114.11-1.6722 39.261-12.599 77.572-31.891 111.81l-0.28513 0.50317v0.11908c-0.91745 1.5598-2.4035 2.7037-4.1461 3.1851-1.7443 0.48305-3.6094 0.26668-5.1978-0.60212l-383.15-226.07c-1.7804-1.1422-3.0479-2.9335-3.536-4.9914-0.48791-2.058-0.15867-4.2283 0.91929-6.0481l0.20278-0.36899c18.809-33.79 45.584-62.477 78-83.567 32.416-21.09 69.491-33.941 108-37.443 3.3494-0.30358 6.5764-1.4173 9.4009-3.2438 2.8262-1.8248 5.1659-4.3088 6.818-7.239l67.962-120.28 203.87 120.24zm205.34-136.84-0.0839 0.15095-16.772 29.249-0.3019 0.53671v0.11909c-0.899 1.5816-2.385 2.7473-4.1361 3.2421-1.751 0.49646-3.6279 0.28345-5.2229-0.59375l-39.969-23.565-0.21804-0.13585-271.13-159.91-0.11573-0.0818-71.652-42.25c-1.7762-1.1454-3.0425-2.9343-3.5289-4.9914-0.48807-2.0573-0.16101-4.2226 0.91242-6.0441l0.10063-0.1679 16.772-29.253 0.23481-0.41763 0.66922-1.2079v-0.10231c8.1715-14.403 21.722-24.978 37.679-29.405 15.957-4.4269 33.018-2.3438 47.442 5.7902l287.26 169.4c14.592 9.146 25.056 23.609 29.176 40.329 4.1193 16.722 1.5716 34.392-7.1031 49.269z"/>
</svg>
