<svg version="0.0" viewBox="0 0 1000 1000" xmlns="http://www.w3.org/2000/svg">
 <style/>
 <path d="m925.13 270.15h-849.9c-2.8669 0.0116-5.6793-0.78005-8.1185-2.2868-2.4389-1.5068-4.4071-3.6669-5.6799-6.2358l-51.237-102.35c-1.2109-2.3498-1.7938-4.9716-1.6918-7.6132 0.10204-2.6415 0.8853-5.214 2.2738-7.4634 1.3885-2.2494 3.3362-4.0998 5.6519-5.3749 2.3156-1.2751 4.9212-1.9307 7.5645-1.9014h952.31c2.6431-0.0293 5.2463 0.62632 7.5644 1.9014 2.315 1.2751 4.2621 3.1254 5.6511 5.3749 1.389 2.2494 2.1709 4.8219 2.2752 7.4634 0.10118 2.6415-0.4814 5.2634-1.6926 7.6132l-51.206 102.35c-1.2694 2.5643-3.2349 4.722-5.6664 6.2284-2.4346 1.5064-5.2402 2.3-8.101 2.2942zm-840.36-30.875h830.95l35.752-71.476h-902.61zm784.56 363.68h-1.7784c-27.121-0.0736-53.116-10.836-72.348-29.96-19.231-19.121-30.144-45.058-30.371-72.179 0.16865-22.567 9.2416-44.157 25.244-60.074 16.003-15.917 37.641-24.873 60.212-24.92h1.1345c18.811 0.0638 36.844 7.5432 50.176 20.815 13.335 13.271 20.899 31.264 21.053 50.078-0.12264 16-6.5801 31.297-17.959 42.544-11.382 11.247-26.753 17.527-42.752 17.462-4.0965 0-8.0213-1.6251-10.916-4.5227-2.8976-2.8945-4.5227-6.8224-4.5227-10.919 0-4.0934 1.6251-8.0213 4.5227-10.916 2.8945-2.8976 6.8193-4.5227 10.916-4.5227h0.33728c7.7453-6e-3 15.175-3.0693 20.676-8.5211 5.5008-5.4548 8.6253-12.86 8.6989-20.605-0.13798-10.72-4.5135-20.949-12.176-28.449-7.6594-7.4969-17.977-11.658-28.697-11.569h-0.36795c-14.43-0.0245-28.283 5.6541-38.546 15.794-10.263 10.143-16.101 23.929-16.248 38.356 0.21157 19.063 7.9661 37.267 21.568 50.624 13.605 13.357 31.944 20.777 51.01 20.639 12.366 0.14411 24.643-2.1525 36.123-6.7641 11.477-4.6086 21.93-11.443 30.764-20.102 8.8308-8.6621 15.865-18.983 20.7-30.368 4.8324-11.385 7.3712-23.613 7.4663-35.979-0.34955-32.1-13.403-62.754-36.304-85.247-22.902-22.494-53.785-34.997-85.885-34.768h-681.65c-32.144-0.20452-63.059 12.338-85.978 34.877-22.918 22.539-35.971 53.238-36.303 85.381 0.2591 24.87 10.368 48.621 28.112 66.047 17.744 17.428 41.673 27.112 66.542 26.925 9.4832 0.10425 18.894-1.6619 27.692-5.2034 8.7986-3.5384 16.812-8.7817 23.581-15.423 6.7684-6.6445 12.159-14.558 15.863-23.291 3.7034-8.7296 5.6455-18.103 5.7176-27.587-0.16987-14.427-6.046-28.197-16.344-38.3-10.298-10.1-24.178-15.714-38.603-15.607-5.3417-0.0552-10.642 0.94133-15.599 2.9344-4.9566 1.993-9.4719 4.9458-13.288 8.6836-3.8159 3.7377-6.8579 8.193-8.9512 13.108-2.0936 4.9152-3.1969 10.192-3.249 15.534 0.16067 7.7269 3.3468 15.083 8.8746 20.486 5.5275 5.3996 12.955 8.4168 20.684 8.3984 4.0943 0 8.021 1.6251 10.916 4.5227 2.8951 2.8945 4.5215 6.8224 4.5215 10.916 0 4.0965-1.6263 8.0243-4.5215 10.919-2.8954 2.8976-6.8221 4.5227-10.916 4.5227-15.955 0.0644-31.289-6.1846-42.657-17.379-11.367-11.195-17.846-26.431-18.024-42.385 0.12142-18.876 7.6944-36.936 21.069-50.253 13.375-13.318 31.468-20.812 50.343-20.852h1.1342c22.506 0.0718 44.076 9.0123 60.033 24.883 15.957 15.872 25.015 37.394 25.209 59.897-0.19409 27.191-11.119 53.202-30.396 72.375-19.278 19.173-45.347 29.96-72.537 30.006h-1.7481c-32.894-0.06133-64.434-13.108-87.763-36.298-23.328-23.19-36.559-54.653-36.817-87.544 0.33117-40.151 16.494-78.551 44.977-106.85 28.483-28.3 66.986-44.215 107.14-44.287h682.57c40.318-0.25358 79.097 15.488 107.83 43.77 28.737 28.283 45.089 66.802 45.478 107.12-0.18704 32.971-13.412 64.526-36.789 87.777-23.377 23.251-55.005 36.307-87.976 36.313zm-245.79 260.02c-4.0658 0-7.963-1.6159-10.839-4.492-2.8761-2.8761-4.492-6.7733-4.492-10.839v-302.15h-51.387v302.15c0 4.0934-1.6282 8.0213-4.5227 10.919-2.8945 2.8945-6.8254 4.5196-10.919 4.5196s-8.0213-1.6251-10.916-4.5196c-2.8945-2.8976-4.5227-6.8254-4.5227-10.919v-317.6c0-4.0658 1.6159-7.963 4.492-10.839 2.8731-2.8731 6.7733-4.492 10.839-4.492h82.236c4.0658 0 7.9661 1.619 10.842 4.492 2.8761 2.8761 4.489 6.7733 4.489 10.839v317.6c0 4.0597-1.6098 7.9538-4.4798 10.827-2.8669 2.8761-6.761 4.4951-10.821 4.5043zm-164.5 0c-4.0658 0-7.9661-1.6159-10.842-4.492-2.8731-2.8761-4.489-6.7733-4.489-10.839v-302.15h-51.39v302.15c0 4.0934-1.6251 8.0213-4.5227 10.919-2.8945 2.8945-6.8193 4.5196-10.916 4.5196-4.0934 0-8.0213-1.6251-10.916-4.5196-2.8945-2.8976-4.5227-6.8254-4.5227-10.919v-317.6c0-4.0658 1.6159-7.963 4.492-10.839 2.8731-2.8731 6.7733-4.492 10.839-4.492h82.267c4.0658 0 7.9661 1.619 10.839 4.492 2.8761 2.8761 4.492 6.7733 4.492 10.839v317.6c0 4.0658-1.6159 7.963-4.492 10.839-2.8731 2.8761-6.7733 4.492-10.839 4.492zm246.74-0.0307c-4.0658 0-7.9661-1.6128-10.842-4.489-2.8731-2.8731-4.489-6.7764-4.489-10.842v-400.32h-380.49v400.32c0 4.0934-1.626 8.0243-4.5215 10.919-2.8951 2.8945-6.8236 4.5196-10.918 4.5196-4.0943 0-8.021-1.6251-10.916-4.5196-2.8954-2.8945-4.5215-6.8254-4.5215-10.919v-415.75c0-4.0661 1.6162-7.9645 4.4914-10.839 2.8752-2.8752 6.7736-4.4917 10.84-4.4917h411.24c4.0658 0 7.9661 1.6165 10.842 4.4917 2.8731 2.8749 4.489 6.7733 4.489 10.839v415.75c0 4.0444-1.5975 7.9262-4.446 10.799-2.8485 2.87-6.7181 4.4982-10.762 4.5319z"/>
</svg>
