<svg version="0.0" viewBox="0 0 1e3 1e3" xmlns="http://www.w3.org/2000/svg">
 <path d="m499.99 10.832c-16.586 0-32.986 0.82664-49.159 2.4414-11.202 1.1185-19.376 11.106-18.258 22.307 1.118 11.201 11.107 19.374 22.307 18.256 14.831-1.4805 29.88-2.2402 45.11-2.2402 15.233 0 30.281 0.75971 45.11 2.2402 11.2 1.1185 21.188-7.0548 22.307-18.256 1.119-11.201-7.0559-21.188-18.258-22.307-16.173-1.6148-32.574-2.4414-49.159-2.4414zm-192.93 41.196c-2.6468 0.06183-5.325 0.64426-7.8905 1.8008-30.13 13.582-58.632 30.121-85.136 49.247-9.1284 6.5872-11.186 19.327-4.5995 28.455 6.5863 9.128 19.327 11.189 28.455 4.6015 24.302-17.538 50.425-32.698 78.032-45.142 10.262-4.626 14.831-16.695 10.205-26.957-3.4696-7.6965-11.126-12.191-19.066-12.006zm385.86 0c-7.9405-0.1855-15.597 4.3092-19.066 12.006-4.626 10.262-0.059 22.331 10.203 26.957 27.607 12.444 53.732 27.604 78.034 45.142 9.1284 6.5872 21.869 4.5264 28.455-4.6015 6.5885-9.1278 4.5269-21.868-4.6015-28.455-26.503-19.127-55.004-35.665-85.134-49.247-2.5655-1.1565-5.2437-1.7389-7.8905-1.8008zm-572.67 153.56c-6.5397-0.20266-13.061 2.74-17.178 8.4452-19.127 26.506-35.667 55.006-49.249 85.136-4.626 10.262-0.05706 22.331 10.205 26.957 10.262 4.626 22.331 0.0571 26.957-10.205 12.444-27.605 27.604-53.73 45.142-78.032 6.5872-9.1284 4.5282-21.867-4.5995-28.455-3.423-2.4699-7.3533-3.724-11.277-3.8456zm759.48 0c-3.9239 0.1216-7.856 1.3758-11.279 3.8456-9.1284 6.5885-11.186 19.327-4.5995 28.455 17.539 24.302 32.697 50.427 45.142 78.032 4.626 10.262 16.695 14.831 26.957 10.205 10.262-4.626 14.833-16.695 10.207-26.957-13.582-30.13-30.126-58.63-49.251-85.136-4.1164-5.7052-10.636-8.6479-17.176-8.4452zm-379.71 17.402c-18.615 0-37.716 3.7094-57.311 11.127-19.593 7.4195-36.003 16.693-49.229 27.82l13.227 52.46c4.8987-5.2993 11.022-10.333 18.371-15.102 7.3471-5.2993 15.184-9.5394 23.512-12.719 8.3272-3.7097 16.899-6.6219 25.717-8.7421 8.8173-2.1202 17.145-3.1796 24.982-3.1796 25.472 0 44.331 7.4166 56.577 22.256 12.736 14.837 19.102 32.852 19.102 54.048 0 16.429-2.4469 31.531-7.3456 45.308-4.8987 13.247-11.266 26.495-19.104 39.741-7.3492 12.719-15.433 25.966-24.25 39.743-8.8173 13.776-17.143 29.144-24.98 46.101-7.3471 16.427-13.472 34.973-18.371 55.64-4.8966 20.667-7.3476 44.246-7.3476 70.743h47.026c0-24.377 2.6953-46.366 8.0819-65.974 5.3888-19.606 12-37.621 19.84-54.05 8.3272-16.955 16.899-32.59 25.717-46.895 9.3052-14.309 17.877-28.351 25.717-42.128 8.3272-14.306 14.939-28.349 19.838-42.126 5.3888-14.309 8.0839-29.41 8.0839-45.308 0-19.075-2.9394-36.562-8.8183-52.458-5.8789-15.898-14.451-29.41-25.717-40.538-10.776-11.127-24.248-19.87-40.411-26.23-15.677-6.3583-33.31-9.537-52.903-9.537zm-466.52 209.48c-10.331 0.0172-19.174 7.8576-20.223 18.357-1.6148 16.175-2.4414 32.574-2.4414 49.159 0 16.589 0.82664 32.988 2.4414 49.163 1.1183 11.2 11.106 19.373 22.307 18.254 11.201-1.1187 19.374-11.103 18.256-22.305-1.4807-14.831-2.2383-29.88-2.2383-45.112 0-15.231 0.75755-30.279 2.2383-45.108 1.1183-11.202-7.0548-21.188-18.256-22.305-0.70005-0.0699-1.3953-0.10466-2.084-0.10351zm933 0c-0.68875-1e-3 -1.3839 0.0336-2.084 0.10351-11.2 1.1166-19.375 11.103-18.256 22.305 1.4809 14.831 2.2402 29.878 2.2402 45.108 0 15.233-0.75929 30.283-2.2402 45.112-1.1187 11.202 7.0561 21.186 18.256 22.305 11.202 1.1187 21.188-7.0541 22.307-18.254 1.613-16.175 2.4414-32.574 2.4414-49.163 0-16.586-0.82835-32.984-2.4414-49.159-1.0488-10.5-9.8912-18.34-20.223-18.357zm-894.57 239.59c-2.6469 0.0616-5.325 0.64283-7.8905 1.7988-10.262 4.626-14.831 16.697-10.205 26.959 13.582 30.128 30.123 58.63 49.249 85.136 6.5872 9.1263 19.327 11.186 28.455 4.5995 9.1278-6.5885 11.187-19.329 4.5995-28.455-17.538-24.304-32.697-50.427-45.142-78.032-3.4693-7.6965-11.126-12.191-19.066-12.006zm856.14 0c-7.9405-0.18479-15.597 4.3091-19.066 12.006-12.444 27.605-27.604 53.728-45.142 78.032-6.5863 9.1263-4.5288 21.867 4.5995 28.455 9.1284 6.5863 21.869 4.5267 28.455-4.5995 19.126-26.506 35.669-55.008 49.251-85.136 4.6259-10.262 0.0551-22.333-10.207-26.959-2.5655-1.156-5.2437-1.7372-7.8905-1.7988zm-429.51 30.23c-9.3053 0-17.389 3.7092-24.246 11.129-6.3669 6.8889-9.5526 15.632-9.5526 26.23 0 10.068 3.1858 18.811 9.5526 26.23 6.8569 7.4174 14.941 11.129 24.246 11.129 9.3074 0 17.391-3.7114 24.25-11.129 7.3471-7.4195 11.02-16.162 11.02-26.23 0-10.599-3.6724-19.341-11.02-26.23-6.8591-7.4195-14.942-11.129-24.25-11.129zm-271.93 157.72c-6.5399-0.20222-13.059 2.7432-17.176 8.4472-6.5863 9.1284-4.5288 21.869 4.5995 28.455 26.503 19.129 55.006 35.667 85.136 49.249 10.262 4.626 22.331 0.0571 26.957-10.205 4.626-10.262 0.0571-22.331-10.205-26.957-27.607-12.444-53.73-27.606-78.032-45.144-3.4232-2.4699-7.3552-3.7244-11.279-3.8456zm546.76 0c-3.9239 0.12132-7.854 1.3758-11.277 3.8456-24.302 17.539-50.427 32.699-78.034 45.144-10.262 4.626-14.829 16.695-10.203 26.957 4.626 10.262 16.695 14.831 26.957 10.205 30.13-13.582 58.63-30.121 85.134-49.249 9.1284-6.5863 11.19-19.327 4.6015-28.455-4.1164-5.7039-10.638-8.6494-17.178-8.4472zm-320.58 86.042c-10.33 0.0173-19.174 7.8575-20.223 18.359-1.1187 11.2 7.0559 21.188 18.258 22.307 16.173 1.6152 32.573 2.4414 49.159 2.4414s32.986-0.82622 49.159-2.4414c11.202-1.1187 19.376-11.107 18.258-22.307-1.1187-11.202-11.107-19.375-22.307-18.256-14.831 1.4809-29.878 2.2383-45.11 2.2383-15.231 0-30.281-0.75733-45.11-2.2383-0.69996-0.0699-1.3953-0.10465-2.084-0.1035z" stroke-width="21.308"/>
</svg>
