<svg version="0.0" viewBox="0 0 1e3 1e3" xmlns="http://www.w3.org/2000/svg">
 <style/>
 <path d="m874.82 656.47c-4.5111 1e-3 -8.8663-1.6562-12.234-4.6582-3.3691-3.002-5.5147-7.1359-6.0318-11.618s0.63362-9.0003 3.2307-12.688c2.5971-3.6896 6.4615-6.294 10.855-7.3194l101.18-23.712c2.351-0.5506 4.7878-0.63217 7.1694-0.2418 2.383 0.39037 4.6655 1.2454 6.7178 2.5185 2.0524 1.2716 3.8323 2.938 5.2408 4.9 1.4085 1.9606 2.418 4.1775 2.9686 6.5285 0.55059 2.351 0.63362 4.7908 0.24325 7.1738-0.39183 2.3815-1.2468 4.6611-2.5199 6.7135s-2.938 3.8338-4.8985 5.2423c-1.962 1.4085-4.1804 2.418-6.5314 2.9686l-101.18 23.712c-1.3794 0.32191-2.7923 0.48359-4.2096 0.48068zm-39.503-86.403c-3.7318 1e-3 -7.3762-1.1318-10.447-3.2497-3.072-2.1194-5.4258-5.1243-6.7499-8.6143-1.3226-3.4886-1.5527-7.2976-0.65838-10.92 0.89289-3.6226 2.868-6.8897 5.6633-9.363l90.105-79.75c1.8076-1.6008 3.9124-2.8273 6.1949-3.6138 2.2825-0.78656 4.6975-1.1172 7.1068-0.97009 2.4092 0.14566 4.7674 0.76617 6.9378 1.8237 2.1689 1.0575 4.1091 2.5345 5.7099 4.3421 1.5994 1.8076 2.8287 3.9124 3.6153 6.1949 0.78657 2.2825 1.1158 4.6961 0.96864 7.1053-0.14711 2.4092-0.76617 4.7674-1.8251 6.9378-1.0575 2.1703-2.5316 4.112-4.3392 5.7113l-90.105 79.75c-3.356 2.9802-7.6894 4.6218-12.177 4.616zm-709.96 86.401c-1.4171 3e-3 -2.8297-0.15731-4.2096-0.47922l-101.35-23.713c-4.7478-1.1099-8.8599-4.061-11.432-8.2036-2.5719-4.1426-3.3929-9.1387-2.2822-13.887 1.1106-4.747 4.062-8.8576 8.2044-11.428 4.1426-2.5724 9.1371-3.3939 13.885-2.284l101.34 23.713c4.3924 1.024 8.2548 3.6298 10.853 7.318 2.5971 3.6881 3.7478 8.2007 3.2337 12.681s-2.6583 8.6143-6.0242 11.618c-3.3655 3.0035-7.7175 4.6626-12.228 4.6655zm39.343-86.4c-4.4936 4e-3 -8.8328-1.646-12.192-4.6334l-89.93-79.747c-1.8277-1.595-3.3216-3.5381-4.3954-5.7142-1.0737-2.1762-1.706-4.5417-1.8605-6.9625-0.1544-2.4223 0.17188-4.8505 0.96048-7.1446 0.78846-2.2941 2.0237-4.412 3.6339-6.227 1.6103-1.8149 3.5639-3.2919 5.7483-4.3494 2.1843-1.056 4.5561-1.6678 6.9787-1.8018 2.4226-0.13547 4.848 0.20975 7.1363 1.0167 2.2882 0.80696 4.3943 2.0596 6.1964 3.6837l89.93 79.747c2.7894 2.4748 4.7602 5.7405 5.6516 9.363 0.88998 3.6211 0.65693 7.4272-0.66712 10.914-1.324 3.4856-3.6779 6.4877-6.7484 8.6056-3.0705 2.1164-6.712 3.2511-10.442 3.2497zm330.63 357.92c-29.875-0.0757-58.925-9.8117-82.814-27.751-23.888-17.941-41.335-43.123-49.739-71.793h-125.92c-14.154-4e-3 -28.05-3.7944-40.244-10.981-12.195-7.1854-22.245-17.502-29.109-29.882-6.8635-12.38-10.289-26.372-9.9209-40.523 0.36706-14.149 4.5126-27.942 12.008-39.949 45.417-73.384 67.5-136.12 67.5-191.78v-65.199c0.0947-51.124 15.348-101.07 43.829-143.53 28.479-42.456 68.91-75.513 116.18-94.992v-41.265c0-26.076 10.359-51.084 28.798-69.524 18.438-18.439 43.446-28.797 69.522-28.797 26.076 0 51.084 10.359 69.524 28.797 18.439 18.438 28.797 43.446 28.797 69.524v41.236c47.427 19.386 88.024 52.427 116.64 94.928 28.613 42.501 43.953 92.544 44.069 143.78v77.407c2.986 53.006 25.024 111.84 67.12 179.35 7.5059 12.004 11.662 25.796 12.036 39.949 0.3758 14.154-3.0443 28.149-9.9034 40.534-6.8591 12.384-16.908 22.708-29.103 29.9-12.196 7.1912-26.094 10.989-40.252 10.996h-125.95c-7.3034 24.822-21.403 47.106-40.709 64.334-19.306 17.229-43.045 28.712-68.536 33.154-7.8656 1.3648-15.832 2.0582-23.814 2.0698zm-93.53-99.369c7.7083 18.529 20.73 34.358 37.424 45.494 16.696 11.137 36.313 17.08 56.381 17.08 20.069 0 39.687-5.9429 56.381-17.08 16.694-11.136 29.718-26.965 37.424-45.494zm-8.8692-36.763h205.38v-0.17771h155.99c7.5976-6e-3 15.054-2.0436 21.597-5.9036 6.543-3.86 11.935-9.4024 15.613-16.049 3.6794-6.6465 5.5118-14.155 5.3078-21.75-0.20392-7.5932-2.4369-14.996-6.4658-21.435-49.16-78.846-73.05-147.92-73.05-211.21v-29.731l0.35104 0.1748v-35.438c-0.15877-45.852-14.509-90.531-41.08-127.9-26.571-37.369-64.061-65.598-107.32-80.803l-12.308-4.3698v-67.002c0-16.32-6.4833-31.972-18.023-43.513-11.539-11.541-27.19-18.023-43.512-18.023-16.32 0-31.971 6.4828-43.51 18.023-11.541 11.54-18.024 27.193-18.024 43.513v66.916l-12.25 4.3713c-43.144 15.267-80.506 43.51-106.96 80.856s-40.706 81.96-40.796 127.73v65.128c0 62.634-23.887 131.76-73.003 211.21-4.0304 6.4425-6.2619 13.844-6.4644 21.44-0.20392 7.5962 1.6299 15.108 5.3108 21.756 3.6794 6.6494 9.0717 12.189 15.616 16.05 6.5445 3.86 14.004 5.9007 21.601 5.9065h155.96z" stroke-width=".068653"/>
</svg>
