<svg version="0.0" viewBox="0 0 1000 1000" xmlns="http://www.w3.org/2000/svg">
 <style/>
 <style/>
 <path d="m258.43 827.61c-21.667-0.44674-42.295-9.364-57.461-24.843-15.166-15.482-23.662-36.29-23.662-57.961 0-21.67 8.4967-42.478 23.662-57.957 15.166-15.482 35.794-24.403 57.461-24.846 10.887-3e-3 21.667 2.1569 31.715 6.352 10.047 4.1917 19.16 10.338 26.815 18.079 15.422 15.563 24.076 36.584 24.076 58.491 0 21.911-8.6534 42.936-24.076 58.498l-0.34936 0.34901c-7.6535 7.605-16.733 13.622-26.717 17.712-9.9835 4.0904-20.674 6.1706-31.463 6.1252zm0-130.5c-12.644 0-24.772 5.0258-33.713 13.968-8.9407 8.9417-13.961 21.066-13.961 33.711 0 12.645 5.0206 24.77 13.961 33.708 8.941 8.9417 21.069 13.968 33.713 13.968 6.2575 0.0105 12.454-1.2181 18.235-3.6123 5.7804-2.3977 11.03-5.9158 15.444-10.348 8.8834-8.9731 13.868-21.087 13.868-33.715 0-12.624-4.9843-24.745-13.868-33.715-4.4196-4.4395-9.6743-7.9575-15.461-10.355-5.7866-2.3942-11.989-3.6228-18.252-3.6088zm452.63-688.73c-9.9644 0-19.534 3.8746-26.695 10.805l-61.391 61.521c-0.50851 0.40608-1.0024 0.83418-1.4669 1.2988-0.47151 0.47155-0.90534 0.9735-1.3165 1.4902l-1.1622 1.1641-80.904 80.885c-0.3176 0.27607-0.63939 0.55133-0.93954 0.85155-0.29317 0.29387-0.56122 0.60795-0.83205 0.91994l-79.855 79.836c-0.3717 0.31446-0.73886 0.63733-1.0858 0.98439-0.34552 0.34518-0.66557 0.71028-0.97863 1.0801l-161.04 161c-0.50854 0.40695-1.0008 0.83623-1.4629 1.2987-0.45979 0.4593-0.8845 0.94757-1.289 1.4533l-79.771 79.754c-0.0155 0.0154-0.0334 0.0276-0.0489 0.0419-0.0154 0.0154-0.0276 0.0334-0.0429 0.0489l-191.6 191.56c-6.9197 7.1618-10.787 16.728-10.787 26.686 0 9.9539 3.8674 19.519 10.787 26.678l242.78 242.77c3.5027 3.525 7.669 6.317 12.258 8.2226 4.5885 1.9056 9.5084 2.8839 14.477 2.8769 4.9839 0.0419 9.9271-0.89975 14.545-2.7774 4.6178-1.8742 8.8184-4.6424 12.363-8.1465l665.26-665.74c6.8895-7.0267 10.746-16.478 10.746-26.318 0-9.8408-3.8566-19.29-10.746-26.316l-243.09-243.12c-7.1583-6.9301-16.735-10.805-26.699-10.805zm-0.0349 34.885c0.65615-0.0063 1.291 0.23105 1.7831 0.66407l242.67 242.67c0.42928 0.4799 0.66417 1.0982 0.66417 1.7422s-0.23384 1.2681-0.66417 1.748l-665.12 665.61c-0.2464 0.2478-0.5417 0.44394-0.86524 0.58006-0.32319 0.13611-0.66718 0.20592-1.0176 0.20592s-0.69795-0.0698-1.0215-0.20592c-0.32353-0.13612-0.61849-0.33156-0.86524-0.58006l-242.67-242.67c-0.48792-0.53399-0.75781-1.2306-0.75781-1.9531 0-0.72595 0.26979-1.425 0.75781-1.959l179.22-179.18 109.83 109.83c1.6292 1.6334 3.5644 2.9331 5.6973 3.8125 2.1328 0.883 4.4192 1.3294 6.7266 1.3224 3.4982 0.0559 6.9346-0.94548 9.8594-2.865 2.9261-1.9196 5.2047-4.6744 6.5449-7.9062 1.3367-3.2319 1.6753-6.7915 0.96677-10.219-0.7085-3.4238-2.4305-6.5576-4.9434-8.9902l-109.83-109.83 56.338-56.324 151.08 151.08c1.6264 1.6334 3.5667 2.9254 5.6992 3.8086 2.1325 0.87951 4.4176 1.3308 6.7246 1.3203 3.5006 0.0558 6.9327-0.94374 9.8574-2.8633 2.9247-1.9196 5.2028-4.6685 6.543-7.9004 1.3402-3.2354 1.6753-6.7953 0.96677-10.223-0.7085-3.4273-2.4284-6.558-4.9414-8.9941l-151.07-151.07 56.777-56.766 114.33 114.23c1.6299 1.6334 3.5628 2.9272 5.6953 3.8066 2.1325 0.88301 4.4196 1.3294 6.7266 1.3224 3.5006 0.0559 6.9346-0.9378 9.8594-2.8574 2.9247-1.9196 5.2028-4.6763 6.543-7.9082 1.3402-3.2319 1.6753-6.7969 0.96677-10.221-0.7085-3.4273-2.4323-6.5615-4.9453-8.9942l-114.34-114.21 56.975-56.961 151.11 151.11c1.6299 1.6369 3.5706 2.9296 5.7031 3.8125 2.1325 0.87952 4.4176 1.3287 6.7246 1.3182 3.4971 0.0558 6.9307-0.94164 9.8555-2.8612 2.9247-1.9196 5.2047-4.6763 6.5449-7.9082 1.3367-3.2319 1.6753-6.7895 0.96677-10.217-0.71199-3.4273-2.4284-6.558-4.9414-8.9942l-151.11-151.11 56.912-56.896 113.53 113.56c1.6299 1.6341 3.5648 2.93 5.6972 3.8106 2.136 0.88091 4.4216 1.329 6.7285 1.3203h0.0349c3.4971 0.0565 6.9308-0.93944 9.8555-2.8594 2.9247-1.9203 5.2082-4.674 6.5449-7.9062 1.3402-3.2319 1.6774-6.7948 0.96886-10.221-0.71198-3.4263-2.4319-6.5594-4.9414-8.9942l-113.56-113.56 59.512-59.5 153.73 153.73c1.6299 1.6341 3.5667 2.928 5.6992 3.8086 2.1325 0.88056 4.4216 1.329 6.7285 1.3203 3.4971 0.0565 6.9288-0.943 9.8535-2.8633 2.9247-1.9199 5.2062-4.6701 6.543-7.9024 1.3402-3.2322 1.6788-6.7948 0.96677-10.221-0.7085-3.4263-2.4284-6.5591-4.9414-8.9941l-153.74-153.74 50.152-50.258c0.56192-0.54376 1.312-0.84521 2.0937-0.83788z"/>
</svg>
