<svg version="0.0" viewBox="0 0 1000 1000" xmlns="http://www.w3.org/2000/svg">
 <style/>
 <style/>
 <path d="m953.54 957.54-237.39-260.81c66.158-64.221 108.29-149.49 119.29-241.41 10.995-91.918-9.8248-184.85-58.944-263.08-49.119-78.232-123.52-136.97-210.64-166.3-87.118-29.325-181.61-27.434-267.5 5.3519-85.896 32.786-157.93 94.454-203.93 174.59-46.001 80.134-63.147 173.82-48.543 265.23 14.604 91.406 60.062 174.93 128.69 236.45 68.633 61.526 156.23 97.281 248 101.22 5.83 0.25019 11.648 0.37444 17.456 0.37444 87.765 0.0408 173.07-29.252 242.56-83.295l238.27 261.85c1.9062 2.1036 4.2075 3.8056 6.7688 5.0106s5.3336 1.8892 8.1583 2.0117c2.823 0.12084 5.6426-0.32167 8.2968-1.3003 2.6542-0.98034 5.0905-2.4781 7.1689-4.4098l1.0114-0.93948c4.1872-3.8805 6.6742-9.2758 6.914-15.003 0.24144-5.7288-1.783-11.322-5.6291-15.546zm-513.46-191.45c-5.2003 0-10.417-0.11403-15.651-0.3404-92.84-4.0796-180.41-44.626-243.97-112.97-63.556-68.341-98.05-159.05-96.1-252.7 1.9506-93.656 40.191-182.82 106.54-248.42 66.345-65.593 155.53-102.4 248.46-102.55 5.2104 0 10.428 0.11386 15.651 0.34074 92.84 4.0786 180.41 44.626 243.96 112.97 63.556 68.341 98.05 159.05 96.1 252.7-1.9501 93.656-40.191 182.82-106.54 248.42-66.346 65.592-155.52 102.4-248.45 102.55z"/>
</svg>
