<svg version="0.0" viewBox="0 0 1e3 1e3" xmlns="http://www.w3.org/2000/svg">
 <path d="m500 7.7672c-271.32 0-492.23 220.91-492.23 492.23 0 271.32 220.91 492.23 492.23 492.23 271.32 0 492.23-220.91 492.23-492.23 0-271.32-220.91-492.23-492.23-492.23zm0 89.496c222.95 0 402.73 179.78 402.73 402.73s-179.78 402.73-402.73 402.73-402.73-179.78-402.73-402.73 179.78-402.73 402.73-402.73zm-134.24 223.74a44.748 44.748 0 0 0-44.748 44.748 44.748 44.748 0 0 0 44.748 44.748h0.43719a44.748 44.748 0 0 0 44.748-44.748 44.748 44.748 0 0 0-44.748-44.748zm268.49 0a44.748 44.748 0 0 0-44.748 44.748 44.748 44.748 0 0 0 44.748 44.748h0.43853a44.748 44.748 0 0 0 44.748-44.748 44.748 44.748 0 0 0-44.748-44.748zm-313.15 223.74a44.748 44.748 0 0 0-26.919 8.9147 44.748 44.748 0 0 0-9.002 62.665s79.088 107.41 214.83 107.41c135.73 0 214.83-107.41 214.83-107.41a44.748 44.748 0 0 0-9.002-62.665 44.748 44.748 0 0 0-62.665 9.002s-55.156 71.579-143.16 71.579c-88.006 0-143.16-71.579-143.16-71.579a44.748 44.748 0 0 0-35.746-17.917z" color="#000000" color-rendering="auto" dominant-baseline="auto" image-rendering="auto" shape-rendering="auto" solid-color="#000000" stop-color="#000000" stroke-width="44.748" style="font-feature-settings:normal;font-variant-alternates:normal;font-variant-caps:normal;font-variant-east-asian:normal;font-variant-ligatures:normal;font-variant-numeric:normal;font-variant-position:normal;font-variation-settings:normal;inline-size:0;isolation:auto;mix-blend-mode:normal;shape-margin:0;shape-padding:0;text-decoration-color:#000000;text-decoration-line:none;text-decoration-style:solid;text-indent:0;text-orientation:mixed;text-transform:none;white-space:normal"/>
</svg>
