<svg version="0.0" viewBox="0 0 1e3 1e3" xmlns="http://www.w3.org/2000/svg">
 <path d="m500.05 22.557a39.479 39.479 0 0 0-35.447 21.998l-133.13 269.71-297.72 43.516a39.479 39.479 0 0 0-21.834 67.338l215.4 209.79-50.834 296.39a39.479 39.479 0 0 0 57.279 41.609l266.24-140.01 266.24 140.01a39.479 39.479 0 0 0 57.281-41.609l-50.836-296.39 215.4-209.79a39.479 39.479 0 0 0-21.834-67.338l-297.72-43.516-133.13-269.71a39.479 39.479 0 0 0-35.348-21.998z" color="#000000" color-rendering="auto" dominant-baseline="auto" image-rendering="auto" shape-rendering="auto" solid-color="#000000" stop-color="#000000" style="font-feature-settings:normal;font-variant-alternates:normal;font-variant-caps:normal;font-variant-east-asian:normal;font-variant-ligatures:normal;font-variant-numeric:normal;font-variant-position:normal;font-variation-settings:normal;inline-size:0;isolation:auto;mix-blend-mode:normal;shape-margin:0;shape-padding:0;text-decoration-color:#000000;text-decoration-line:none;text-decoration-style:solid;text-indent:0;text-orientation:mixed;text-transform:none;white-space:normal"/>
</svg>
