<svg version="0.0" viewBox="0 0 1e3 1e3" xmlns="http://www.w3.org/2000/svg">
 <path d="m500.77 22.565a39.479 39.479 0 0 0-36.16 21.974l-133.15 269.7-297.68 43.561a39.479 39.479 0 0 0-21.896 67.309l215.42 209.79-50.808 296.37a39.479 39.479 0 0 0 57.286 41.635l266.22-140.02 266.22 140.02a39.479 39.479 0 0 0 57.286-41.635l-50.808-296.37 215.42-209.79a39.479 39.479 0 0 0-21.896-67.309l-297.68-43.561-133.15-269.7a39.479 39.479 0 0 0-34.618-21.974zm-0.77094 128.6 106.94 216.65a39.479 39.479 0 0 0 29.683 21.588l239.08 34.927-173.01 168.46a39.479 39.479 0 0 0-11.334 35.004l40.865 238.01-213.88-112.49a39.479 39.479 0 0 0-36.7 0l-213.88 112.49 40.865-238.01a39.479 39.479 0 0 0-11.334-35.004l-173.01-168.46 239.08-34.927a39.479 39.479 0 0 0 29.683-21.588l106.94-216.65z" color="#000000" color-rendering="auto" dominant-baseline="auto" image-rendering="auto" shape-rendering="auto" solid-color="#000000" stop-color="#000000" stroke-width="39.475" style="font-feature-settings:normal;font-variant-alternates:normal;font-variant-caps:normal;font-variant-east-asian:normal;font-variant-ligatures:normal;font-variant-numeric:normal;font-variant-position:normal;font-variation-settings:normal;inline-size:0;isolation:auto;mix-blend-mode:normal;shape-margin:0;shape-padding:0;text-decoration-color:#000000;text-decoration-line:none;text-decoration-style:solid;text-indent:0;text-orientation:mixed;text-transform:none;white-space:normal"/>
</svg>
