<svg version="0.0" viewBox="0 0 1e3 1e3" xmlns="http://www.w3.org/2000/svg">
 <path d="m500 16.789c-266.53 0-483.21 216.68-483.21 483.21s216.68 483.21 483.21 483.21 483.21-216.68 483.21-483.21-216.68-483.21-483.21-483.21zm0 56.848c235.81 0 426.36 190.55 426.36 426.36 0 235.81-190.55 426.36-426.36 426.36-235.81 0-426.36-190.55-426.36-426.36 0-235.81 190.55-426.36 426.36-426.36zm302.18 202.46-383.89 387.67-220.56-220.56-40.194 40.194 260.98 260.98 424.03-428.24-40.359-40.027z" color="#000000" color-rendering="auto" dominant-baseline="auto" image-rendering="auto" shape-rendering="auto" solid-color="#000000" stop-color="#000000" stroke-width="28.424" style="font-feature-settings:normal;font-variant-alternates:normal;font-variant-caps:normal;font-variant-east-asian:normal;font-variant-ligatures:normal;font-variant-numeric:normal;font-variant-position:normal;font-variation-settings:normal;inline-size:0;isolation:auto;mix-blend-mode:normal;shape-margin:0;shape-padding:0;text-decoration-color:#000000;text-decoration-line:none;text-decoration-style:solid;text-indent:0;text-orientation:mixed;text-transform:none;white-space:normal"/>
</svg>
