<svg version="0.0" viewBox="0 0 1e3 1e3" xmlns="http://www.w3.org/2000/svg">
 <style/>
 <path d="m637.63 376.67c-5.5755 5e-3 -10.923 2.2212-14.864 6.1653-3.9407 3.944-6.152 9.2936-6.152 14.869v460.64c-0.0797 2.811 0.40703 5.6054 1.4271 8.2253 1.0217 2.6199 2.5568 5.009 4.5172 7.0258 1.9587 2.0152 4.3046 3.6184 6.8946 4.7116 2.59 1.0948 5.3728 1.6597 8.1855 1.6597 2.811 0 5.5938-0.56486 8.1838-1.6597 2.5917-1.0932 4.9359-2.6964 6.8962-4.7116 1.9604-2.0169 3.4955-4.4059 4.5156-7.0258 1.0217-2.62 1.5068-5.4143 1.4288-8.2253v-460.64c0-5.5772-2.2179-10.928-6.1619-14.872-3.944-3.9457-9.2936-6.1619-14.871-6.1619zm-138.8 0c-5.5771 0-10.928 2.2162-14.872 6.1619-3.9457 3.944-6.1603 9.2952-6.1603 14.872v460.64c0 5.5771 2.2146 10.925 6.1603 14.869 3.944 3.944 9.2952 6.1619 14.872 6.1619 5.5788 0 10.927-2.2179 14.872-6.1619 3.944-3.944 6.1603-9.2919 6.1603-14.869v-460.64c0-5.5772-2.2162-10.928-6.1603-14.872-3.9457-3.9457-9.2936-6.1619-14.872-6.1619zm-132.42 0c-5.5788 0-10.93 2.2162-14.874 6.1619-3.944 3.944-6.1586 9.2952-6.1586 14.872v460.64c0 2.7612 0.54326 5.4957 1.5999 8.0476 1.0566 2.5518 2.605 4.8677 4.5587 6.8215 1.9538 1.9537 4.273 3.5021 6.8248 4.5587 2.5518 1.0566 5.2864 1.6032 8.0492 1.6032 2.7612 0 5.4974-0.54659 8.0492-1.6032 2.5518-1.0566 4.8694-2.605 6.8215-4.5587 1.9537-1.9538 3.5038-4.2697 4.5604-6.8215 1.0583-2.5518 1.6015-5.2864 1.6015-8.0476v-460.64c0-5.5772-2.2179-10.928-6.1619-14.872-3.944-3.9457-9.2936-6.1619-14.871-6.1619zm533.52-176.19c-5.8313-22.563-18.996-42.549-37.425-56.813-18.429-14.264-41.077-21.996-64.381-21.984h-108.25c0.9586-25.219-5.6419-50.15-18.956-71.589l-0.21764-0.34888c-8.4612-13.179-20.36-23.796-34.413-30.708-14.053-6.9124-29.726-9.8555-45.33-8.5136h-48.179c-34.888 0.23259-72.453 0.28163-110.65-0.83147-17.334-1.4845-34.774 1.2078-50.852 7.8565-16.079 6.6487-30.328 17.061-41.552 30.355l-0.76422 0.96126c-15.779 21.131-25.022 46.422-26.582 72.749h-110.83c-24.059 0.10666-47.356 8.4504-66.012 23.642-18.656 15.192-31.545 36.317-36.522 59.855-4.9777 23.54-1.744 48.073 9.1645 69.516 10.909 21.445 28.834 38.507 50.79 48.345v528.17c-0.54425 36.545 13.023 71.89 37.879 98.684l0.18258 0.18275c12.119 12.738 26.679 22.907 42.811 29.896 16.133 6.991 33.507 10.658 51.087 10.79h417.31c17.595-0.10466 34.986-3.763 51.131-10.757 16.145-6.9943 30.71-17.182 42.82-29.946l0.16613-0.16614c24.752-26.7 38.312-61.88 37.879-98.285v-528.31c22.913-10.031 41.505-27.897 52.44-50.392 10.935-22.496 13.5-48.152 7.2335-72.368zm-128.35 720.78c-8.1788 8.5991-18.006 15.464-28.896 20.179-10.89 4.7166-22.618 7.187-34.485 7.2684h-417c-11.877-0.0964-23.614-2.5784-34.516-7.2966-10.902-4.7166-20.744-11.575-28.946-20.167-17.478-18.911-26.997-43.828-26.581-69.576v-522.34h597.12v522.64c0.31399 25.668-9.2454 50.472-26.698 69.293zm80.939-662.39c-8.0293 13.716-20.968 23.87-36.201 28.407h-633.25c-14.369-4.5405-26.644-14.065-34.612-26.854-7.9685-12.791-11.107-28.005-8.8502-42.904 2.2564-14.901 9.7578-28.505 21.156-38.362 11.398-9.8568 25.944-15.318 41.013-15.401h131.51c6.1786-0.75957 11.829-3.8572 15.794-8.6561 3.964-4.7988 5.941-10.934 5.5206-17.145-1.9853-22.57 4.3361-45.089 17.775-63.331 6.9328-8.0703 15.696-14.368 25.557-18.362 9.8618-3.9942 20.536-5.5707 31.13-4.5996h1.3125c39.025 1.1463 77.234 1.0965 112.7 0.8639h49.84l1.0151-0.09736c8.0575-0.79263 16.18 0.64494 23.473 4.1615 7.295 3.5166 13.479 8.9754 17.878 15.774 11.646 18.85 15.446 41.514 10.581 63.132-0.46186 3.3627-0.23259 6.7838 0.6745 10.055 0.90544 3.2712 2.4704 6.3232 4.5986 8.9678 2.1282 2.6447 4.7747 4.8272 7.7751 6.4126 3.0021 1.5854 6.2965 2.5394 9.6807 2.8068h129.58c11.118 0.01 22.038 2.9539 31.652 8.5377s17.582 13.61 23.101 23.262c5.5173 9.6508 8.3881 20.587 8.3217 31.705-0.0648 11.118-3.0652 22.02-8.6972 31.604z"/>
</svg>
