<svg version="0.0" viewBox="0 0 1e3 1e3" xmlns="http://www.w3.org/2000/svg">
 <path d="m324.16 18.435c-10.204-0.50235-20.41-0.23504-30.56 0.76505-20.299 2.0002-40.316 7.0076-59.364 14.898-38.096 15.78-70.66 42.495-93.57 76.782-22.909 34.287-35.151 74.611-35.151 115.85 0 55.291 21.98 108.3 61.075 147.4v0.0461c39.096 39.094 92.152 61.029 147.44 61.029 41.238 0 81.562-12.197 115.85-35.105 34.286-22.91 61.002-55.473 76.782-93.571 15.781-38.096 19.881-80.038 11.837-120.48-8.0448-40.444-27.869-77.6-57.024-106.76-29.158-29.157-66.356-49.025-106.8-57.07-10.111-2.0094-20.311-3.2791-30.515-3.7792zm-2.2053 45.862c7.965 0.38944 15.922 1.3573 23.809 2.9265 31.547 6.2748 60.518 21.767 83.263 44.511 22.744 22.746 38.193 51.719 44.467 83.264 6.2748 31.547 3.0828 64.213-9.2264 93.931-12.31 29.715-33.162 55.132-59.905 73-26.747 17.87-58.165 27.41-90.329 27.41-43.138 0-84.489-17.115-114.99-47.617-30.502-30.505-47.617-71.855-47.617-114.99 0-32.164 9.4938-63.628 27.364-90.373 17.87-26.744 43.285-47.551 73.001-59.861 14.858-6.155 30.482-10.052 46.312-11.612 7.9153-0.77888 15.889-0.97244 23.854-0.58531zm387.47 372.75c-21.54 0-44.27 13.75-52.208 37.626-10.714 32.247-46.518 47.067-76.872 31.865-22.496-11.268-48.319-4.9682-63.55 10.261-15.231 15.232-21.531 41.055-10.262 63.55 15.197 30.344 0.33643 66.165-31.865 76.874-23.876 7.9385-37.626 30.669-37.626 52.208 0 21.541 13.75 44.269 37.626 52.208 32.198 10.708 47.062 46.486 31.865 76.828-11.27 22.498-4.9694 48.32 10.262 63.55 15.231 15.232 41.054 21.578 63.55 10.307 30.343-15.197 66.163-0.38022 76.872 31.821 7.9383 23.876 30.668 37.669 52.208 37.669 21.54 0 44.27-13.794 52.208-37.669 10.714-32.247 46.473-47.023 76.827-31.821 22.496 11.271 48.319 4.9244 63.55-10.307 15.231-15.23 21.576-41.052 10.307-63.55-15.197-30.342-0.38022-66.119 31.82-76.828 23.876-7.9386 37.671-30.667 37.671-52.208 0-21.539-13.795-44.269-37.671-52.208-32.198-10.708-47.017-46.53-31.82-76.874 11.27-22.495 4.9242-48.318-10.307-63.55-15.231-15.23-41.054-21.53-63.55-10.261-30.343 15.197-66.118 0.33644-76.827-31.865-7.9383-23.876-30.668-37.626-52.208-37.626zm-464.65 17.822c-59.657 0.25578-116.94 23.657-159.37 65.532-42.42 41.861-66.59 98.724-67.196 158.2v215.09h415.91a22.943 22.943 0 0 0 22.909-22.908 22.943 22.943 0 0 0-22.909-22.954h-370v-168.73c0.48161-47.355 19.672-92.624 53.514-126.02 33.806-33.363 79.486-52.116 127.24-52.344h128.77c18.37 0.13826 36.433 3.0372 53.649 8.4156a22.943 22.943 0 0 0 28.714-15.031 22.943 22.943 0 0 0-15.032-28.761c-21.543-6.7288-44.177-10.314-67.151-10.487h-128.99zm464.65 28.265c3.9522 0 6.6963 0.76736 8.4614 6.0766 19.303 58.042 86.539 85.902 141.23 58.508 5.0021-2.5048 7.5125-1.1291 10.307 1.6661s4.1711 5.3046 1.6661 10.307v0.0461c-27.392 54.694 0.46778 121.88 58.509 141.19 5.3088 1.7651 6.1209 4.5534 6.1209 8.5054 0 3.952-0.81113 6.6965-6.1209 8.4616-58.043 19.304-85.901 86.54-58.509 141.23 2.506 5.0028 1.1291 7.5122-1.6661 10.307-2.7943 2.7929-5.3046 4.1709-10.307 1.6638-54.682-27.385-121.93 0.4263-141.23 58.51-1.7652 5.3093-4.5092 6.1204-8.4614 6.1204s-6.7412-0.81113-8.5063-6.1204c-19.303-58.042-86.494-85.902-141.19-58.51-5.0021 2.5072-7.5574 1.1291-10.352-1.6638-2.7945-2.7952-4.1711-5.3046-1.666-10.307 27.393-54.694-0.46779-121.93-58.509-141.23-5.309-1.7651-6.0759-4.5096-6.0759-8.4616 0-3.952 0.76735-6.7403 6.0759-8.5054 58.043-19.304 85.902-86.494 58.509-141.19v-0.0461c-2.5058-5.0028-1.1291-7.5122 1.666-10.307 2.7943-2.7952 5.3496-4.1709 10.352-1.6661 54.682 27.387 121.89-0.424 141.19-58.508 1.7652-5.3093 4.5541-6.0766 8.5063-6.0766zm0 111.08c-63.36 0-115.22 51.857-115.22 115.22s51.858 115.22 115.22 115.22 115.22-51.857 115.22-115.22-51.858-115.22-115.22-115.22zm0 46.087c38.453 0 69.131 30.678 69.131 69.131s-30.678 69.131-69.131 69.131-69.131-30.678-69.131-69.131 30.678-69.131 69.131-69.131z" color="#000000" color-rendering="auto" dominant-baseline="auto" image-rendering="auto" shape-rendering="auto" solid-color="#000000" stop-color="#000000" style="font-feature-settings:normal;font-variant-alternates:normal;font-variant-caps:normal;font-variant-east-asian:normal;font-variant-ligatures:normal;font-variant-numeric:normal;font-variant-position:normal;font-variation-settings:normal;inline-size:0;isolation:auto;mix-blend-mode:normal;shape-margin:0;shape-padding:0;text-decoration-color:#000000;text-decoration-line:none;text-decoration-style:solid;text-indent:0;text-orientation:mixed;text-transform:none;white-space:normal"/>
</svg>
