<svg version="0.0" viewBox="0 0 1e3 1e3" xmlns="http://www.w3.org/2000/svg">
 <path d="m499.99 17.526c-266.12 0-482.45 216.34-482.45 482.45 0 266.12 216.34 482.51 482.45 482.51 266.12 0 482.45-216.4 482.45-482.51 0-266.12-216.34-482.45-482.45-482.45zm0 59.266c234.09 2.6e-5 423.19 189.11 423.19 423.19 0 234.09-189.11 423.25-423.19 423.25-234.09 0-423.19-189.16-423.19-423.25 2.7e-5 -234.09 189.11-423.19 423.19-423.19zm0 144.92a29.633 29.633 0 0 0-29.633 29.633v256.57a29.633 29.633 0 0 0 29.633 29.633 29.633 29.633 0 0 0 29.633-29.633v-256.57a29.633 29.633 0 0 0-29.633-29.633zm0 363.48c-56.163 0-102.33 46.162-102.33 102.33 0 56.16 46.162 102.33 102.33 102.33 56.163 0 102.33-46.165 102.33-102.33 0-56.163-46.162-102.33-102.33-102.33zm0 59.266c24.136 0 43.06 18.925 43.06 43.06 0 24.132-18.926 43.06-43.06 43.06s-43.06-18.929-43.06-43.06c0-24.136 18.925-43.06 43.06-43.06z" color="#000000" color-rendering="auto" dominant-baseline="auto" image-rendering="auto" shape-rendering="auto" solid-color="#000000" stop-color="#000000" stroke-width="29.633" style="font-feature-settings:normal;font-variant-alternates:normal;font-variant-caps:normal;font-variant-east-asian:normal;font-variant-ligatures:normal;font-variant-numeric:normal;font-variant-position:normal;font-variation-settings:normal;inline-size:0;isolation:auto;mix-blend-mode:normal;shape-margin:0;shape-padding:0;text-decoration-color:#000000;text-decoration-line:none;text-decoration-style:solid;text-indent:0;text-orientation:mixed;text-transform:none;white-space:normal"/>
</svg>
