<svg xmlns="http://www.w3.org/2000/svg" width="37.455" height="30.013" viewBox="0 0 37.455 30.013">
  <g id="Group_497" data-name="Group 497" transform="translate(-1075.188 -1254.95)">
    <path id="Path_528" data-name="Path 528" d="M1112.143,1256.459a2.01,2.01,0,0,0-2.009-2.009H1077.7a2.01,2.01,0,0,0-2.011,2.009v20.177a2.01,2.01,0,0,0,2.009,2.009h12.252a4.02,4.02,0,0,1-2.716,3.212h-4.7a.8.8,0,1,0,0,1.605h22.77a.8.8,0,0,0,0-1.605h-4.7a4.014,4.014,0,0,1-2.713-3.212h12.25a2.008,2.008,0,0,0,2.006-2.009Zm-13.847,25.4h-8.758a5.211,5.211,0,0,0,1.631-3.212h5.492A5.217,5.217,0,0,0,1098.3,1281.857Zm-4.982-6.51a3.048,3.048,0,0,0-2-.755h-11.443c-.072,0-.151-.1-.151-.226v-15.62c0-.125.079-.223.151-.223h11.443a2.132,2.132,0,0,1,2,2.217v14.608Zm1.205-14.587a2.135,2.135,0,0,1,2-2.238h11.445c.069,0,.151.1.151.223v15.62c0,.129-.082.226-.151.226h-11.445a3.047,3.047,0,0,0-2,.755V1260.76Zm15.617,16.684h-15.543a2.056,2.056,0,0,1,1.924-1.65h11.445a1.4,1.4,0,0,0,1.356-1.428v-15.62a1.4,1.4,0,0,0-1.356-1.431h-11.445a3.062,3.062,0,0,1-5.2,0h-11.443a1.4,1.4,0,0,0-1.359,1.431v15.62a1.4,1.4,0,0,0,1.359,1.428h11.443a2.053,2.053,0,0,1,1.919,1.65H1077.7a.8.8,0,0,1-.8-.807v-20.177a.806.806,0,0,1,.8-.807h32.435a.808.808,0,0,1,.807.807v20.177A.806.806,0,0,1,1110.137,1277.444Z" transform="translate(0 1)" fill="#1a346d" stroke="#133371" stroke-width="0"></path>
  </g>
</svg>